G04 #@! TF.GenerationSoftware,KiCad,Pcbnew,(5.0.0)*
G04 #@! TF.CreationDate,2018-08-12T11:34:12+02:00*
G04 #@! TF.ProjectId,OTTOtact,4F54544F746163742E6B696361645F70,rev?*
G04 #@! TF.SameCoordinates,Original*
G04 #@! TF.FileFunction,Soldermask,Bot*
G04 #@! TF.FilePolarity,Negative*
%FSLAX46Y46*%
G04 Gerber Fmt 4.6, Leading zero omitted, Abs format (unit mm)*
G04 Created by KiCad (PCBNEW (5.0.0)) date 08/12/18 11:34:12*
%MOMM*%
%LPD*%
G01*
G04 APERTURE LIST*
%ADD10C,0.010000*%
%ADD11C,3.100000*%
%ADD12C,3.600000*%
%ADD13R,2.200000X3.200000*%
%ADD14R,3.200000X2.200000*%
%ADD15R,2.200000X3.400000*%
%ADD16R,3.400000X3.400000*%
%ADD17C,1.800000*%
%ADD18O,2.100000X2.100000*%
%ADD19R,2.100000X2.100000*%
%ADD20R,1.600000X1.300000*%
%ADD21R,2.400000X2.400000*%
%ADD22C,2.400000*%
%ADD23C,3.200000*%
%ADD24O,1.600000X2.300000*%
%ADD25C,1.850000*%
%ADD26C,2.100000*%
%ADD27C,0.770000*%
%ADD28C,1.100000*%
%ADD29C,0.100000*%
%ADD30O,2.100000X2.400000*%
%ADD31R,2.100000X2.400000*%
%ADD32C,2.200000*%
%ADD33C,1.375000*%
G04 APERTURE END LIST*
D10*
G04 #@! TO.C,G\002A\002A\002A*
G36*
X168057601Y-61025755D02*
X167966674Y-61050412D01*
X167872306Y-61091331D01*
X167773960Y-61148495D01*
X167707381Y-61194551D01*
X167648741Y-61239469D01*
X167586585Y-61291068D01*
X167519374Y-61350738D01*
X167445573Y-61419870D01*
X167363643Y-61499856D01*
X167305160Y-61558467D01*
X167205875Y-61657974D01*
X167116757Y-61745392D01*
X167036939Y-61821474D01*
X166965550Y-61886971D01*
X166901722Y-61942639D01*
X166844585Y-61989228D01*
X166793272Y-62027492D01*
X166746912Y-62058185D01*
X166704637Y-62082058D01*
X166695560Y-62086585D01*
X166657528Y-62103662D01*
X166625363Y-62113786D01*
X166590680Y-62119145D01*
X166563175Y-62121089D01*
X166525573Y-62121548D01*
X166488997Y-62118404D01*
X166452437Y-62110951D01*
X166414883Y-62098478D01*
X166375325Y-62080277D01*
X166332753Y-62055639D01*
X166286157Y-62023855D01*
X166234527Y-61984217D01*
X166176852Y-61936015D01*
X166112124Y-61878541D01*
X166039330Y-61811085D01*
X165957463Y-61732940D01*
X165865511Y-61643396D01*
X165823226Y-61601808D01*
X165740300Y-61520377D01*
X165667847Y-61449986D01*
X165604580Y-61389492D01*
X165549215Y-61337747D01*
X165500466Y-61293607D01*
X165457048Y-61255927D01*
X165417676Y-61223560D01*
X165381064Y-61195362D01*
X165345928Y-61170188D01*
X165317519Y-61151129D01*
X165232757Y-61100374D01*
X165153882Y-61063123D01*
X165078024Y-61038389D01*
X165002312Y-61025184D01*
X164942960Y-61022250D01*
X164864895Y-61027877D01*
X164790970Y-61045457D01*
X164719102Y-61075950D01*
X164647206Y-61120321D01*
X164573196Y-61179531D01*
X164543470Y-61206702D01*
X164470561Y-61284939D01*
X164414272Y-61366412D01*
X164374605Y-61451120D01*
X164351558Y-61539059D01*
X164345132Y-61630229D01*
X164355326Y-61724628D01*
X164382141Y-61822253D01*
X164425576Y-61923103D01*
X164485632Y-62027176D01*
X164562308Y-62134471D01*
X164576138Y-62151960D01*
X164600178Y-62180617D01*
X164633880Y-62218860D01*
X164674995Y-62264242D01*
X164721276Y-62314309D01*
X164770476Y-62366614D01*
X164820345Y-62418705D01*
X164829518Y-62428177D01*
X164918129Y-62520013D01*
X164995461Y-62601334D01*
X165062505Y-62673294D01*
X165120249Y-62737050D01*
X165169685Y-62793754D01*
X165211802Y-62844564D01*
X165247591Y-62890633D01*
X165278042Y-62933118D01*
X165304144Y-62973172D01*
X165321102Y-63001680D01*
X165358241Y-63075820D01*
X165381995Y-63146272D01*
X165392138Y-63214778D01*
X165388445Y-63283077D01*
X165370690Y-63352908D01*
X165338651Y-63426013D01*
X165292100Y-63504130D01*
X165248125Y-63566258D01*
X165223684Y-63598254D01*
X165197588Y-63630948D01*
X165168725Y-63665559D01*
X165135984Y-63703306D01*
X165098253Y-63745409D01*
X165054421Y-63793086D01*
X165003376Y-63847559D01*
X164944007Y-63910046D01*
X164875202Y-63981766D01*
X164795850Y-64063939D01*
X164772968Y-64087564D01*
X164716199Y-64146467D01*
X164661792Y-64203525D01*
X164611167Y-64257205D01*
X164565749Y-64305971D01*
X164526959Y-64348288D01*
X164496220Y-64382623D01*
X164474954Y-64407440D01*
X164466669Y-64418041D01*
X164428260Y-64478187D01*
X164393668Y-64544312D01*
X164365581Y-64610670D01*
X164346693Y-64671516D01*
X164345478Y-64676784D01*
X164336435Y-64740542D01*
X164334917Y-64811198D01*
X164340631Y-64881811D01*
X164353285Y-64945442D01*
X164357362Y-64959025D01*
X164390998Y-65038102D01*
X164439024Y-65116178D01*
X164498950Y-65190941D01*
X164568282Y-65260082D01*
X164644530Y-65321291D01*
X164725200Y-65372257D01*
X164807802Y-65410672D01*
X164863749Y-65428432D01*
X164911793Y-65436647D01*
X164968827Y-65440374D01*
X165027944Y-65439614D01*
X165082236Y-65434367D01*
X165112294Y-65428390D01*
X165185433Y-65402178D01*
X165263769Y-65360383D01*
X165346720Y-65303340D01*
X165391694Y-65267589D01*
X165477332Y-65194801D01*
X165563614Y-65117940D01*
X165652002Y-65035569D01*
X165743960Y-64946254D01*
X165840950Y-64848557D01*
X165944434Y-64741044D01*
X166055875Y-64622278D01*
X166122053Y-64550591D01*
X166205012Y-64467226D01*
X166285958Y-64399897D01*
X166364678Y-64348715D01*
X166440957Y-64313790D01*
X166514580Y-64295235D01*
X166585333Y-64293160D01*
X166611985Y-64296819D01*
X166659387Y-64307998D01*
X166704581Y-64324086D01*
X166749055Y-64346252D01*
X166794297Y-64375661D01*
X166841793Y-64413482D01*
X166893030Y-64460882D01*
X166949497Y-64519026D01*
X167012680Y-64589084D01*
X167071660Y-64657553D01*
X167115463Y-64707500D01*
X167167586Y-64764104D01*
X167226306Y-64825705D01*
X167289898Y-64890644D01*
X167356639Y-64957260D01*
X167424803Y-65023894D01*
X167492668Y-65088886D01*
X167558508Y-65150576D01*
X167620600Y-65207305D01*
X167677219Y-65257412D01*
X167726642Y-65299239D01*
X167767144Y-65331124D01*
X167783440Y-65342772D01*
X167856065Y-65385152D01*
X167929796Y-65413060D01*
X168009566Y-65428125D01*
X168051443Y-65431273D01*
X168129183Y-65431038D01*
X168198953Y-65422063D01*
X168266676Y-65403054D01*
X168338273Y-65372713D01*
X168353607Y-65365157D01*
X168442773Y-65313348D01*
X168523073Y-65252650D01*
X168592947Y-65184824D01*
X168650833Y-65111631D01*
X168695171Y-65034834D01*
X168724402Y-64956193D01*
X168727728Y-64942886D01*
X168733216Y-64901831D01*
X168734224Y-64849119D01*
X168731031Y-64789348D01*
X168723916Y-64727112D01*
X168713157Y-64667007D01*
X168710246Y-64654177D01*
X168692914Y-64597090D01*
X168667268Y-64533065D01*
X168636088Y-64467955D01*
X168602154Y-64407613D01*
X168571487Y-64362125D01*
X168558603Y-64346964D01*
X168534906Y-64321077D01*
X168501580Y-64285688D01*
X168459807Y-64242022D01*
X168410772Y-64191302D01*
X168355656Y-64134754D01*
X168295645Y-64073601D01*
X168231921Y-64009068D01*
X168170528Y-63947258D01*
X168103553Y-63879763D01*
X168038542Y-63813758D01*
X167976773Y-63750574D01*
X167919523Y-63691540D01*
X167868071Y-63637983D01*
X167823695Y-63591235D01*
X167787672Y-63552623D01*
X167761280Y-63523477D01*
X167747256Y-63506991D01*
X167717601Y-63467228D01*
X167687595Y-63422812D01*
X167661693Y-63380513D01*
X167650407Y-63359816D01*
X167633063Y-63324692D01*
X167622382Y-63298462D01*
X167616802Y-63275216D01*
X167614762Y-63249046D01*
X167614612Y-63224350D01*
X167616091Y-63185938D01*
X167621201Y-63156067D01*
X167631837Y-63126432D01*
X167641898Y-63104824D01*
X167655099Y-63079335D01*
X167670128Y-63053829D01*
X167688037Y-63027095D01*
X167709874Y-62997917D01*
X167736690Y-62965082D01*
X167769536Y-62927376D01*
X167809463Y-62883585D01*
X167857521Y-62832495D01*
X167914759Y-62772893D01*
X167982230Y-62703565D01*
X168041109Y-62643510D01*
X168134841Y-62547679D01*
X168217299Y-62462314D01*
X168289478Y-62386210D01*
X168352373Y-62318160D01*
X168406980Y-62256962D01*
X168454293Y-62201409D01*
X168495308Y-62150297D01*
X168531021Y-62102420D01*
X168562427Y-62056576D01*
X168590521Y-62011557D01*
X168616298Y-61966160D01*
X168640754Y-61919179D01*
X168642712Y-61915258D01*
X168677251Y-61841264D01*
X168702106Y-61776186D01*
X168718395Y-61715899D01*
X168727233Y-61656276D01*
X168729737Y-61593524D01*
X168723699Y-61511132D01*
X168705542Y-61435691D01*
X168674157Y-61364750D01*
X168628437Y-61295856D01*
X168567274Y-61226558D01*
X168560979Y-61220223D01*
X168479419Y-61146968D01*
X168397641Y-61090072D01*
X168315107Y-61049519D01*
X168231281Y-61025293D01*
X168145624Y-61017377D01*
X168057601Y-61025755D01*
X168057601Y-61025755D01*
G37*
X168057601Y-61025755D02*
X167966674Y-61050412D01*
X167872306Y-61091331D01*
X167773960Y-61148495D01*
X167707381Y-61194551D01*
X167648741Y-61239469D01*
X167586585Y-61291068D01*
X167519374Y-61350738D01*
X167445573Y-61419870D01*
X167363643Y-61499856D01*
X167305160Y-61558467D01*
X167205875Y-61657974D01*
X167116757Y-61745392D01*
X167036939Y-61821474D01*
X166965550Y-61886971D01*
X166901722Y-61942639D01*
X166844585Y-61989228D01*
X166793272Y-62027492D01*
X166746912Y-62058185D01*
X166704637Y-62082058D01*
X166695560Y-62086585D01*
X166657528Y-62103662D01*
X166625363Y-62113786D01*
X166590680Y-62119145D01*
X166563175Y-62121089D01*
X166525573Y-62121548D01*
X166488997Y-62118404D01*
X166452437Y-62110951D01*
X166414883Y-62098478D01*
X166375325Y-62080277D01*
X166332753Y-62055639D01*
X166286157Y-62023855D01*
X166234527Y-61984217D01*
X166176852Y-61936015D01*
X166112124Y-61878541D01*
X166039330Y-61811085D01*
X165957463Y-61732940D01*
X165865511Y-61643396D01*
X165823226Y-61601808D01*
X165740300Y-61520377D01*
X165667847Y-61449986D01*
X165604580Y-61389492D01*
X165549215Y-61337747D01*
X165500466Y-61293607D01*
X165457048Y-61255927D01*
X165417676Y-61223560D01*
X165381064Y-61195362D01*
X165345928Y-61170188D01*
X165317519Y-61151129D01*
X165232757Y-61100374D01*
X165153882Y-61063123D01*
X165078024Y-61038389D01*
X165002312Y-61025184D01*
X164942960Y-61022250D01*
X164864895Y-61027877D01*
X164790970Y-61045457D01*
X164719102Y-61075950D01*
X164647206Y-61120321D01*
X164573196Y-61179531D01*
X164543470Y-61206702D01*
X164470561Y-61284939D01*
X164414272Y-61366412D01*
X164374605Y-61451120D01*
X164351558Y-61539059D01*
X164345132Y-61630229D01*
X164355326Y-61724628D01*
X164382141Y-61822253D01*
X164425576Y-61923103D01*
X164485632Y-62027176D01*
X164562308Y-62134471D01*
X164576138Y-62151960D01*
X164600178Y-62180617D01*
X164633880Y-62218860D01*
X164674995Y-62264242D01*
X164721276Y-62314309D01*
X164770476Y-62366614D01*
X164820345Y-62418705D01*
X164829518Y-62428177D01*
X164918129Y-62520013D01*
X164995461Y-62601334D01*
X165062505Y-62673294D01*
X165120249Y-62737050D01*
X165169685Y-62793754D01*
X165211802Y-62844564D01*
X165247591Y-62890633D01*
X165278042Y-62933118D01*
X165304144Y-62973172D01*
X165321102Y-63001680D01*
X165358241Y-63075820D01*
X165381995Y-63146272D01*
X165392138Y-63214778D01*
X165388445Y-63283077D01*
X165370690Y-63352908D01*
X165338651Y-63426013D01*
X165292100Y-63504130D01*
X165248125Y-63566258D01*
X165223684Y-63598254D01*
X165197588Y-63630948D01*
X165168725Y-63665559D01*
X165135984Y-63703306D01*
X165098253Y-63745409D01*
X165054421Y-63793086D01*
X165003376Y-63847559D01*
X164944007Y-63910046D01*
X164875202Y-63981766D01*
X164795850Y-64063939D01*
X164772968Y-64087564D01*
X164716199Y-64146467D01*
X164661792Y-64203525D01*
X164611167Y-64257205D01*
X164565749Y-64305971D01*
X164526959Y-64348288D01*
X164496220Y-64382623D01*
X164474954Y-64407440D01*
X164466669Y-64418041D01*
X164428260Y-64478187D01*
X164393668Y-64544312D01*
X164365581Y-64610670D01*
X164346693Y-64671516D01*
X164345478Y-64676784D01*
X164336435Y-64740542D01*
X164334917Y-64811198D01*
X164340631Y-64881811D01*
X164353285Y-64945442D01*
X164357362Y-64959025D01*
X164390998Y-65038102D01*
X164439024Y-65116178D01*
X164498950Y-65190941D01*
X164568282Y-65260082D01*
X164644530Y-65321291D01*
X164725200Y-65372257D01*
X164807802Y-65410672D01*
X164863749Y-65428432D01*
X164911793Y-65436647D01*
X164968827Y-65440374D01*
X165027944Y-65439614D01*
X165082236Y-65434367D01*
X165112294Y-65428390D01*
X165185433Y-65402178D01*
X165263769Y-65360383D01*
X165346720Y-65303340D01*
X165391694Y-65267589D01*
X165477332Y-65194801D01*
X165563614Y-65117940D01*
X165652002Y-65035569D01*
X165743960Y-64946254D01*
X165840950Y-64848557D01*
X165944434Y-64741044D01*
X166055875Y-64622278D01*
X166122053Y-64550591D01*
X166205012Y-64467226D01*
X166285958Y-64399897D01*
X166364678Y-64348715D01*
X166440957Y-64313790D01*
X166514580Y-64295235D01*
X166585333Y-64293160D01*
X166611985Y-64296819D01*
X166659387Y-64307998D01*
X166704581Y-64324086D01*
X166749055Y-64346252D01*
X166794297Y-64375661D01*
X166841793Y-64413482D01*
X166893030Y-64460882D01*
X166949497Y-64519026D01*
X167012680Y-64589084D01*
X167071660Y-64657553D01*
X167115463Y-64707500D01*
X167167586Y-64764104D01*
X167226306Y-64825705D01*
X167289898Y-64890644D01*
X167356639Y-64957260D01*
X167424803Y-65023894D01*
X167492668Y-65088886D01*
X167558508Y-65150576D01*
X167620600Y-65207305D01*
X167677219Y-65257412D01*
X167726642Y-65299239D01*
X167767144Y-65331124D01*
X167783440Y-65342772D01*
X167856065Y-65385152D01*
X167929796Y-65413060D01*
X168009566Y-65428125D01*
X168051443Y-65431273D01*
X168129183Y-65431038D01*
X168198953Y-65422063D01*
X168266676Y-65403054D01*
X168338273Y-65372713D01*
X168353607Y-65365157D01*
X168442773Y-65313348D01*
X168523073Y-65252650D01*
X168592947Y-65184824D01*
X168650833Y-65111631D01*
X168695171Y-65034834D01*
X168724402Y-64956193D01*
X168727728Y-64942886D01*
X168733216Y-64901831D01*
X168734224Y-64849119D01*
X168731031Y-64789348D01*
X168723916Y-64727112D01*
X168713157Y-64667007D01*
X168710246Y-64654177D01*
X168692914Y-64597090D01*
X168667268Y-64533065D01*
X168636088Y-64467955D01*
X168602154Y-64407613D01*
X168571487Y-64362125D01*
X168558603Y-64346964D01*
X168534906Y-64321077D01*
X168501580Y-64285688D01*
X168459807Y-64242022D01*
X168410772Y-64191302D01*
X168355656Y-64134754D01*
X168295645Y-64073601D01*
X168231921Y-64009068D01*
X168170528Y-63947258D01*
X168103553Y-63879763D01*
X168038542Y-63813758D01*
X167976773Y-63750574D01*
X167919523Y-63691540D01*
X167868071Y-63637983D01*
X167823695Y-63591235D01*
X167787672Y-63552623D01*
X167761280Y-63523477D01*
X167747256Y-63506991D01*
X167717601Y-63467228D01*
X167687595Y-63422812D01*
X167661693Y-63380513D01*
X167650407Y-63359816D01*
X167633063Y-63324692D01*
X167622382Y-63298462D01*
X167616802Y-63275216D01*
X167614762Y-63249046D01*
X167614612Y-63224350D01*
X167616091Y-63185938D01*
X167621201Y-63156067D01*
X167631837Y-63126432D01*
X167641898Y-63104824D01*
X167655099Y-63079335D01*
X167670128Y-63053829D01*
X167688037Y-63027095D01*
X167709874Y-62997917D01*
X167736690Y-62965082D01*
X167769536Y-62927376D01*
X167809463Y-62883585D01*
X167857521Y-62832495D01*
X167914759Y-62772893D01*
X167982230Y-62703565D01*
X168041109Y-62643510D01*
X168134841Y-62547679D01*
X168217299Y-62462314D01*
X168289478Y-62386210D01*
X168352373Y-62318160D01*
X168406980Y-62256962D01*
X168454293Y-62201409D01*
X168495308Y-62150297D01*
X168531021Y-62102420D01*
X168562427Y-62056576D01*
X168590521Y-62011557D01*
X168616298Y-61966160D01*
X168640754Y-61919179D01*
X168642712Y-61915258D01*
X168677251Y-61841264D01*
X168702106Y-61776186D01*
X168718395Y-61715899D01*
X168727233Y-61656276D01*
X168729737Y-61593524D01*
X168723699Y-61511132D01*
X168705542Y-61435691D01*
X168674157Y-61364750D01*
X168628437Y-61295856D01*
X168567274Y-61226558D01*
X168560979Y-61220223D01*
X168479419Y-61146968D01*
X168397641Y-61090072D01*
X168315107Y-61049519D01*
X168231281Y-61025293D01*
X168145624Y-61017377D01*
X168057601Y-61025755D01*
G36*
X178509491Y-61060844D02*
X178473820Y-61062169D01*
X178445615Y-61065143D01*
X178420145Y-61070433D01*
X178392679Y-61078704D01*
X178368387Y-61087099D01*
X178321571Y-61105720D01*
X178273503Y-61129147D01*
X178223315Y-61158112D01*
X178170138Y-61193347D01*
X178113104Y-61235584D01*
X178051342Y-61285558D01*
X177983985Y-61343999D01*
X177910164Y-61411641D01*
X177829010Y-61489215D01*
X177739654Y-61577455D01*
X177641226Y-61677093D01*
X177532860Y-61788861D01*
X177519370Y-61802890D01*
X177461223Y-61863005D01*
X177405500Y-61919837D01*
X177353636Y-61971974D01*
X177307066Y-62018003D01*
X177267225Y-62056511D01*
X177235546Y-62086087D01*
X177213465Y-62105318D01*
X177207607Y-62109821D01*
X177135314Y-62154694D01*
X177066089Y-62183532D01*
X176998612Y-62196658D01*
X176931564Y-62194393D01*
X176892967Y-62186320D01*
X176848004Y-62170879D01*
X176803652Y-62148423D01*
X176757868Y-62117440D01*
X176708608Y-62076416D01*
X176653828Y-62023839D01*
X176606022Y-61973909D01*
X176541177Y-61905041D01*
X176469436Y-61830159D01*
X176393371Y-61751856D01*
X176315548Y-61672727D01*
X176238537Y-61595365D01*
X176164906Y-61522365D01*
X176097225Y-61456321D01*
X176038061Y-61399827D01*
X176030898Y-61393103D01*
X175931521Y-61305139D01*
X175836992Y-61232332D01*
X175745998Y-61174070D01*
X175657222Y-61129739D01*
X175569348Y-61098726D01*
X175481061Y-61080417D01*
X175391045Y-61074200D01*
X175348882Y-61075222D01*
X175257097Y-61086390D01*
X175173985Y-61110471D01*
X175097837Y-61148382D01*
X175026943Y-61201041D01*
X174959594Y-61269364D01*
X174937676Y-61295729D01*
X174873704Y-61386404D01*
X174826595Y-61477536D01*
X174796351Y-61569260D01*
X174782970Y-61661712D01*
X174786455Y-61755031D01*
X174806804Y-61849350D01*
X174844020Y-61944808D01*
X174898101Y-62041540D01*
X174940636Y-62102932D01*
X174955514Y-62120862D01*
X174981417Y-62149658D01*
X175017335Y-62188271D01*
X175062260Y-62235654D01*
X175115183Y-62290759D01*
X175175095Y-62352536D01*
X175240989Y-62419938D01*
X175311854Y-62491916D01*
X175386684Y-62567422D01*
X175412635Y-62593495D01*
X175498255Y-62679507D01*
X175572719Y-62754555D01*
X175636882Y-62819615D01*
X175691598Y-62875659D01*
X175737721Y-62923661D01*
X175776107Y-62964596D01*
X175807609Y-62999436D01*
X175833083Y-63029157D01*
X175853382Y-63054731D01*
X175869362Y-63077132D01*
X175881877Y-63097335D01*
X175891781Y-63116312D01*
X175899928Y-63135039D01*
X175907175Y-63154488D01*
X175908657Y-63158741D01*
X175920572Y-63212059D01*
X175923575Y-63272187D01*
X175917691Y-63331552D01*
X175907978Y-63369537D01*
X175894392Y-63404349D01*
X175877542Y-63437542D01*
X175855818Y-63471169D01*
X175827606Y-63507285D01*
X175791295Y-63547943D01*
X175745273Y-63595197D01*
X175687930Y-63651101D01*
X175684320Y-63654559D01*
X175623746Y-63712909D01*
X175559150Y-63775806D01*
X175491774Y-63841989D01*
X175422863Y-63910197D01*
X175353662Y-63979168D01*
X175285415Y-64047642D01*
X175219365Y-64114357D01*
X175156758Y-64178053D01*
X175098836Y-64237468D01*
X175046845Y-64291342D01*
X175002029Y-64338413D01*
X174965631Y-64377420D01*
X174938897Y-64407102D01*
X174923283Y-64425912D01*
X174870164Y-64504472D01*
X174831598Y-64580331D01*
X174806427Y-64657108D01*
X174793492Y-64738417D01*
X174791636Y-64827876D01*
X174791953Y-64835996D01*
X174800287Y-64927341D01*
X174817819Y-65007089D01*
X174846094Y-65078749D01*
X174886655Y-65145828D01*
X174941049Y-65211834D01*
X174970992Y-65242658D01*
X175052840Y-65314568D01*
X175138560Y-65371761D01*
X175231621Y-65416447D01*
X175261120Y-65427613D01*
X175292944Y-65438587D01*
X175319180Y-65446065D01*
X175344533Y-65450713D01*
X175373709Y-65453194D01*
X175411413Y-65454174D01*
X175450094Y-65454325D01*
X175502863Y-65453353D01*
X175549600Y-65449762D01*
X175592268Y-65442533D01*
X175632832Y-65430649D01*
X175673255Y-65413092D01*
X175715502Y-65388847D01*
X175761537Y-65356894D01*
X175813323Y-65316217D01*
X175872826Y-65265800D01*
X175942008Y-65204623D01*
X175955405Y-65192602D01*
X175993132Y-65158014D01*
X176040857Y-65113167D01*
X176096708Y-65059876D01*
X176158813Y-64999959D01*
X176225299Y-64935231D01*
X176294294Y-64867509D01*
X176363926Y-64798609D01*
X176432323Y-64730348D01*
X176444927Y-64717698D01*
X176516141Y-64646183D01*
X176576558Y-64585637D01*
X176627321Y-64535020D01*
X176669573Y-64493294D01*
X176704458Y-64459418D01*
X176733116Y-64432354D01*
X176756692Y-64411062D01*
X176776328Y-64394503D01*
X176793167Y-64381638D01*
X176808350Y-64371427D01*
X176823022Y-64362831D01*
X176838325Y-64354811D01*
X176850689Y-64348654D01*
X176886398Y-64331425D01*
X176912968Y-64320521D01*
X176936305Y-64314499D01*
X176962316Y-64311916D01*
X176996909Y-64311329D01*
X177003528Y-64311324D01*
X177042015Y-64311847D01*
X177069998Y-64314368D01*
X177093897Y-64320321D01*
X177120133Y-64331139D01*
X177143866Y-64342641D01*
X177201581Y-64375823D01*
X177258513Y-64418207D01*
X177317002Y-64471774D01*
X177379383Y-64538510D01*
X177392637Y-64553734D01*
X177413277Y-64576701D01*
X177444501Y-64610103D01*
X177484867Y-64652456D01*
X177532932Y-64702273D01*
X177587255Y-64758071D01*
X177646393Y-64818363D01*
X177708903Y-64881665D01*
X177773344Y-64946492D01*
X177799037Y-64972216D01*
X177876916Y-65049921D01*
X177944165Y-65116571D01*
X178001998Y-65173210D01*
X178051630Y-65220884D01*
X178094277Y-65260639D01*
X178131153Y-65293519D01*
X178163472Y-65320571D01*
X178192449Y-65342839D01*
X178219299Y-65361370D01*
X178245237Y-65377208D01*
X178271476Y-65391400D01*
X178299233Y-65404990D01*
X178305023Y-65407704D01*
X178384100Y-65437467D01*
X178467339Y-65455988D01*
X178549590Y-65462399D01*
X178608160Y-65458656D01*
X178701268Y-65437821D01*
X178791400Y-65400864D01*
X178878962Y-65347563D01*
X178964357Y-65277701D01*
X178992688Y-65250418D01*
X179067713Y-65166074D01*
X179125915Y-65079985D01*
X179167281Y-64992260D01*
X179191801Y-64903011D01*
X179199464Y-64812348D01*
X179190259Y-64720383D01*
X179164174Y-64627225D01*
X179121199Y-64532985D01*
X179072026Y-64453049D01*
X179057868Y-64435091D01*
X179033056Y-64406553D01*
X178998922Y-64368815D01*
X178956797Y-64323258D01*
X178908015Y-64271263D01*
X178853906Y-64214211D01*
X178795802Y-64153483D01*
X178735036Y-64090459D01*
X178672939Y-64026521D01*
X178610844Y-63963049D01*
X178550082Y-63901424D01*
X178491984Y-63843026D01*
X178437884Y-63789238D01*
X178389112Y-63741440D01*
X178347001Y-63701012D01*
X178342995Y-63697226D01*
X178259488Y-63612312D01*
X178192419Y-63530481D01*
X178141630Y-63451443D01*
X178106963Y-63374908D01*
X178088262Y-63300586D01*
X178085369Y-63228190D01*
X178085729Y-63223489D01*
X178096034Y-63161686D01*
X178117067Y-63101283D01*
X178149866Y-63040560D01*
X178195471Y-62977796D01*
X178254920Y-62911269D01*
X178302944Y-62863801D01*
X178374161Y-62795435D01*
X178448447Y-62722766D01*
X178524455Y-62647207D01*
X178600834Y-62570169D01*
X178676237Y-62493064D01*
X178749314Y-62417305D01*
X178818716Y-62344303D01*
X178883094Y-62275470D01*
X178941100Y-62212218D01*
X178991384Y-62155959D01*
X179032597Y-62108105D01*
X179063390Y-62070069D01*
X179071288Y-62059567D01*
X179122735Y-61976983D01*
X179163581Y-61885908D01*
X179185211Y-61816676D01*
X179196113Y-61753614D01*
X179199534Y-61684781D01*
X179195645Y-61616322D01*
X179184615Y-61554384D01*
X179177265Y-61529987D01*
X179134476Y-61432531D01*
X179078098Y-61342268D01*
X179009872Y-61260969D01*
X178931539Y-61190406D01*
X178844839Y-61132353D01*
X178751514Y-61088581D01*
X178739313Y-61084147D01*
X178709717Y-61074269D01*
X178684203Y-61067570D01*
X178658159Y-61063449D01*
X178626975Y-61061309D01*
X178586039Y-61060549D01*
X178557360Y-61060503D01*
X178509491Y-61060844D01*
X178509491Y-61060844D01*
G37*
X178509491Y-61060844D02*
X178473820Y-61062169D01*
X178445615Y-61065143D01*
X178420145Y-61070433D01*
X178392679Y-61078704D01*
X178368387Y-61087099D01*
X178321571Y-61105720D01*
X178273503Y-61129147D01*
X178223315Y-61158112D01*
X178170138Y-61193347D01*
X178113104Y-61235584D01*
X178051342Y-61285558D01*
X177983985Y-61343999D01*
X177910164Y-61411641D01*
X177829010Y-61489215D01*
X177739654Y-61577455D01*
X177641226Y-61677093D01*
X177532860Y-61788861D01*
X177519370Y-61802890D01*
X177461223Y-61863005D01*
X177405500Y-61919837D01*
X177353636Y-61971974D01*
X177307066Y-62018003D01*
X177267225Y-62056511D01*
X177235546Y-62086087D01*
X177213465Y-62105318D01*
X177207607Y-62109821D01*
X177135314Y-62154694D01*
X177066089Y-62183532D01*
X176998612Y-62196658D01*
X176931564Y-62194393D01*
X176892967Y-62186320D01*
X176848004Y-62170879D01*
X176803652Y-62148423D01*
X176757868Y-62117440D01*
X176708608Y-62076416D01*
X176653828Y-62023839D01*
X176606022Y-61973909D01*
X176541177Y-61905041D01*
X176469436Y-61830159D01*
X176393371Y-61751856D01*
X176315548Y-61672727D01*
X176238537Y-61595365D01*
X176164906Y-61522365D01*
X176097225Y-61456321D01*
X176038061Y-61399827D01*
X176030898Y-61393103D01*
X175931521Y-61305139D01*
X175836992Y-61232332D01*
X175745998Y-61174070D01*
X175657222Y-61129739D01*
X175569348Y-61098726D01*
X175481061Y-61080417D01*
X175391045Y-61074200D01*
X175348882Y-61075222D01*
X175257097Y-61086390D01*
X175173985Y-61110471D01*
X175097837Y-61148382D01*
X175026943Y-61201041D01*
X174959594Y-61269364D01*
X174937676Y-61295729D01*
X174873704Y-61386404D01*
X174826595Y-61477536D01*
X174796351Y-61569260D01*
X174782970Y-61661712D01*
X174786455Y-61755031D01*
X174806804Y-61849350D01*
X174844020Y-61944808D01*
X174898101Y-62041540D01*
X174940636Y-62102932D01*
X174955514Y-62120862D01*
X174981417Y-62149658D01*
X175017335Y-62188271D01*
X175062260Y-62235654D01*
X175115183Y-62290759D01*
X175175095Y-62352536D01*
X175240989Y-62419938D01*
X175311854Y-62491916D01*
X175386684Y-62567422D01*
X175412635Y-62593495D01*
X175498255Y-62679507D01*
X175572719Y-62754555D01*
X175636882Y-62819615D01*
X175691598Y-62875659D01*
X175737721Y-62923661D01*
X175776107Y-62964596D01*
X175807609Y-62999436D01*
X175833083Y-63029157D01*
X175853382Y-63054731D01*
X175869362Y-63077132D01*
X175881877Y-63097335D01*
X175891781Y-63116312D01*
X175899928Y-63135039D01*
X175907175Y-63154488D01*
X175908657Y-63158741D01*
X175920572Y-63212059D01*
X175923575Y-63272187D01*
X175917691Y-63331552D01*
X175907978Y-63369537D01*
X175894392Y-63404349D01*
X175877542Y-63437542D01*
X175855818Y-63471169D01*
X175827606Y-63507285D01*
X175791295Y-63547943D01*
X175745273Y-63595197D01*
X175687930Y-63651101D01*
X175684320Y-63654559D01*
X175623746Y-63712909D01*
X175559150Y-63775806D01*
X175491774Y-63841989D01*
X175422863Y-63910197D01*
X175353662Y-63979168D01*
X175285415Y-64047642D01*
X175219365Y-64114357D01*
X175156758Y-64178053D01*
X175098836Y-64237468D01*
X175046845Y-64291342D01*
X175002029Y-64338413D01*
X174965631Y-64377420D01*
X174938897Y-64407102D01*
X174923283Y-64425912D01*
X174870164Y-64504472D01*
X174831598Y-64580331D01*
X174806427Y-64657108D01*
X174793492Y-64738417D01*
X174791636Y-64827876D01*
X174791953Y-64835996D01*
X174800287Y-64927341D01*
X174817819Y-65007089D01*
X174846094Y-65078749D01*
X174886655Y-65145828D01*
X174941049Y-65211834D01*
X174970992Y-65242658D01*
X175052840Y-65314568D01*
X175138560Y-65371761D01*
X175231621Y-65416447D01*
X175261120Y-65427613D01*
X175292944Y-65438587D01*
X175319180Y-65446065D01*
X175344533Y-65450713D01*
X175373709Y-65453194D01*
X175411413Y-65454174D01*
X175450094Y-65454325D01*
X175502863Y-65453353D01*
X175549600Y-65449762D01*
X175592268Y-65442533D01*
X175632832Y-65430649D01*
X175673255Y-65413092D01*
X175715502Y-65388847D01*
X175761537Y-65356894D01*
X175813323Y-65316217D01*
X175872826Y-65265800D01*
X175942008Y-65204623D01*
X175955405Y-65192602D01*
X175993132Y-65158014D01*
X176040857Y-65113167D01*
X176096708Y-65059876D01*
X176158813Y-64999959D01*
X176225299Y-64935231D01*
X176294294Y-64867509D01*
X176363926Y-64798609D01*
X176432323Y-64730348D01*
X176444927Y-64717698D01*
X176516141Y-64646183D01*
X176576558Y-64585637D01*
X176627321Y-64535020D01*
X176669573Y-64493294D01*
X176704458Y-64459418D01*
X176733116Y-64432354D01*
X176756692Y-64411062D01*
X176776328Y-64394503D01*
X176793167Y-64381638D01*
X176808350Y-64371427D01*
X176823022Y-64362831D01*
X176838325Y-64354811D01*
X176850689Y-64348654D01*
X176886398Y-64331425D01*
X176912968Y-64320521D01*
X176936305Y-64314499D01*
X176962316Y-64311916D01*
X176996909Y-64311329D01*
X177003528Y-64311324D01*
X177042015Y-64311847D01*
X177069998Y-64314368D01*
X177093897Y-64320321D01*
X177120133Y-64331139D01*
X177143866Y-64342641D01*
X177201581Y-64375823D01*
X177258513Y-64418207D01*
X177317002Y-64471774D01*
X177379383Y-64538510D01*
X177392637Y-64553734D01*
X177413277Y-64576701D01*
X177444501Y-64610103D01*
X177484867Y-64652456D01*
X177532932Y-64702273D01*
X177587255Y-64758071D01*
X177646393Y-64818363D01*
X177708903Y-64881665D01*
X177773344Y-64946492D01*
X177799037Y-64972216D01*
X177876916Y-65049921D01*
X177944165Y-65116571D01*
X178001998Y-65173210D01*
X178051630Y-65220884D01*
X178094277Y-65260639D01*
X178131153Y-65293519D01*
X178163472Y-65320571D01*
X178192449Y-65342839D01*
X178219299Y-65361370D01*
X178245237Y-65377208D01*
X178271476Y-65391400D01*
X178299233Y-65404990D01*
X178305023Y-65407704D01*
X178384100Y-65437467D01*
X178467339Y-65455988D01*
X178549590Y-65462399D01*
X178608160Y-65458656D01*
X178701268Y-65437821D01*
X178791400Y-65400864D01*
X178878962Y-65347563D01*
X178964357Y-65277701D01*
X178992688Y-65250418D01*
X179067713Y-65166074D01*
X179125915Y-65079985D01*
X179167281Y-64992260D01*
X179191801Y-64903011D01*
X179199464Y-64812348D01*
X179190259Y-64720383D01*
X179164174Y-64627225D01*
X179121199Y-64532985D01*
X179072026Y-64453049D01*
X179057868Y-64435091D01*
X179033056Y-64406553D01*
X178998922Y-64368815D01*
X178956797Y-64323258D01*
X178908015Y-64271263D01*
X178853906Y-64214211D01*
X178795802Y-64153483D01*
X178735036Y-64090459D01*
X178672939Y-64026521D01*
X178610844Y-63963049D01*
X178550082Y-63901424D01*
X178491984Y-63843026D01*
X178437884Y-63789238D01*
X178389112Y-63741440D01*
X178347001Y-63701012D01*
X178342995Y-63697226D01*
X178259488Y-63612312D01*
X178192419Y-63530481D01*
X178141630Y-63451443D01*
X178106963Y-63374908D01*
X178088262Y-63300586D01*
X178085369Y-63228190D01*
X178085729Y-63223489D01*
X178096034Y-63161686D01*
X178117067Y-63101283D01*
X178149866Y-63040560D01*
X178195471Y-62977796D01*
X178254920Y-62911269D01*
X178302944Y-62863801D01*
X178374161Y-62795435D01*
X178448447Y-62722766D01*
X178524455Y-62647207D01*
X178600834Y-62570169D01*
X178676237Y-62493064D01*
X178749314Y-62417305D01*
X178818716Y-62344303D01*
X178883094Y-62275470D01*
X178941100Y-62212218D01*
X178991384Y-62155959D01*
X179032597Y-62108105D01*
X179063390Y-62070069D01*
X179071288Y-62059567D01*
X179122735Y-61976983D01*
X179163581Y-61885908D01*
X179185211Y-61816676D01*
X179196113Y-61753614D01*
X179199534Y-61684781D01*
X179195645Y-61616322D01*
X179184615Y-61554384D01*
X179177265Y-61529987D01*
X179134476Y-61432531D01*
X179078098Y-61342268D01*
X179009872Y-61260969D01*
X178931539Y-61190406D01*
X178844839Y-61132353D01*
X178751514Y-61088581D01*
X178739313Y-61084147D01*
X178709717Y-61074269D01*
X178684203Y-61067570D01*
X178658159Y-61063449D01*
X178626975Y-61061309D01*
X178586039Y-61060549D01*
X178557360Y-61060503D01*
X178509491Y-61060844D01*
G36*
X162266545Y-72555116D02*
X162220748Y-72557379D01*
X162166542Y-72560801D01*
X162106737Y-72565174D01*
X162044144Y-72570294D01*
X161981573Y-72575952D01*
X161921834Y-72581945D01*
X161867738Y-72588064D01*
X161865327Y-72588358D01*
X161780002Y-72599395D01*
X161695035Y-72611673D01*
X161608424Y-72625577D01*
X161518167Y-72641496D01*
X161422264Y-72659815D01*
X161318713Y-72680923D01*
X161205513Y-72705205D01*
X161080661Y-72733049D01*
X160942157Y-72764842D01*
X160891661Y-72776606D01*
X160823813Y-72792427D01*
X160758999Y-72807473D01*
X160699655Y-72821182D01*
X160648217Y-72832996D01*
X160607122Y-72842352D01*
X160578807Y-72848692D01*
X160569927Y-72850613D01*
X160542694Y-72856624D01*
X160522997Y-72861503D01*
X160515824Y-72863870D01*
X160518239Y-72872019D01*
X160530185Y-72890157D01*
X160549692Y-72915845D01*
X160574790Y-72946641D01*
X160603510Y-72980106D01*
X160633884Y-73013799D01*
X160653986Y-73035087D01*
X160689778Y-73070553D01*
X160732831Y-73110772D01*
X160777022Y-73150125D01*
X160806994Y-73175498D01*
X160837918Y-73200515D01*
X160874355Y-73229361D01*
X160914008Y-73260288D01*
X160954577Y-73291547D01*
X160993764Y-73321391D01*
X161029271Y-73348070D01*
X161058801Y-73369837D01*
X161080053Y-73384943D01*
X161090731Y-73391640D01*
X161091365Y-73391818D01*
X161098767Y-73387229D01*
X161119246Y-73373909D01*
X161151795Y-73352526D01*
X161195407Y-73323748D01*
X161249072Y-73288243D01*
X161311784Y-73246679D01*
X161382534Y-73199724D01*
X161460315Y-73148046D01*
X161544119Y-73092312D01*
X161632938Y-73033191D01*
X161720538Y-72974834D01*
X161829950Y-72901870D01*
X161926011Y-72837691D01*
X162009499Y-72781755D01*
X162081192Y-72733517D01*
X162141870Y-72692433D01*
X162192312Y-72657958D01*
X162233296Y-72629549D01*
X162265602Y-72606662D01*
X162290008Y-72588752D01*
X162307293Y-72575275D01*
X162318237Y-72565687D01*
X162323617Y-72559444D01*
X162324213Y-72556002D01*
X162321671Y-72554887D01*
X162301123Y-72554216D01*
X162266545Y-72555116D01*
X162266545Y-72555116D01*
G37*
X162266545Y-72555116D02*
X162220748Y-72557379D01*
X162166542Y-72560801D01*
X162106737Y-72565174D01*
X162044144Y-72570294D01*
X161981573Y-72575952D01*
X161921834Y-72581945D01*
X161867738Y-72588064D01*
X161865327Y-72588358D01*
X161780002Y-72599395D01*
X161695035Y-72611673D01*
X161608424Y-72625577D01*
X161518167Y-72641496D01*
X161422264Y-72659815D01*
X161318713Y-72680923D01*
X161205513Y-72705205D01*
X161080661Y-72733049D01*
X160942157Y-72764842D01*
X160891661Y-72776606D01*
X160823813Y-72792427D01*
X160758999Y-72807473D01*
X160699655Y-72821182D01*
X160648217Y-72832996D01*
X160607122Y-72842352D01*
X160578807Y-72848692D01*
X160569927Y-72850613D01*
X160542694Y-72856624D01*
X160522997Y-72861503D01*
X160515824Y-72863870D01*
X160518239Y-72872019D01*
X160530185Y-72890157D01*
X160549692Y-72915845D01*
X160574790Y-72946641D01*
X160603510Y-72980106D01*
X160633884Y-73013799D01*
X160653986Y-73035087D01*
X160689778Y-73070553D01*
X160732831Y-73110772D01*
X160777022Y-73150125D01*
X160806994Y-73175498D01*
X160837918Y-73200515D01*
X160874355Y-73229361D01*
X160914008Y-73260288D01*
X160954577Y-73291547D01*
X160993764Y-73321391D01*
X161029271Y-73348070D01*
X161058801Y-73369837D01*
X161080053Y-73384943D01*
X161090731Y-73391640D01*
X161091365Y-73391818D01*
X161098767Y-73387229D01*
X161119246Y-73373909D01*
X161151795Y-73352526D01*
X161195407Y-73323748D01*
X161249072Y-73288243D01*
X161311784Y-73246679D01*
X161382534Y-73199724D01*
X161460315Y-73148046D01*
X161544119Y-73092312D01*
X161632938Y-73033191D01*
X161720538Y-72974834D01*
X161829950Y-72901870D01*
X161926011Y-72837691D01*
X162009499Y-72781755D01*
X162081192Y-72733517D01*
X162141870Y-72692433D01*
X162192312Y-72657958D01*
X162233296Y-72629549D01*
X162265602Y-72606662D01*
X162290008Y-72588752D01*
X162307293Y-72575275D01*
X162318237Y-72565687D01*
X162323617Y-72559444D01*
X162324213Y-72556002D01*
X162321671Y-72554887D01*
X162301123Y-72554216D01*
X162266545Y-72555116D01*
G36*
X181320356Y-72573584D02*
X181321727Y-72577338D01*
X181329986Y-72583525D01*
X181350954Y-72598359D01*
X181383375Y-72620983D01*
X181425994Y-72650536D01*
X181477555Y-72686160D01*
X181536802Y-72726994D01*
X181602479Y-72772179D01*
X181673332Y-72820857D01*
X181748104Y-72872167D01*
X181825540Y-72925250D01*
X181904384Y-72979246D01*
X181983380Y-73033297D01*
X182061273Y-73086542D01*
X182136808Y-73138122D01*
X182208728Y-73187179D01*
X182275777Y-73232852D01*
X182336702Y-73274281D01*
X182390244Y-73310609D01*
X182435150Y-73340974D01*
X182470163Y-73364518D01*
X182494028Y-73380381D01*
X182505489Y-73387704D01*
X182506241Y-73388091D01*
X182514642Y-73383617D01*
X182534622Y-73369491D01*
X182564713Y-73346853D01*
X182603444Y-73316845D01*
X182649349Y-73280606D01*
X182700957Y-73239279D01*
X182756799Y-73194003D01*
X182769527Y-73183609D01*
X182826429Y-73137027D01*
X182879538Y-73093443D01*
X182927348Y-73054102D01*
X182968351Y-73020250D01*
X183001039Y-72993131D01*
X183023905Y-72973990D01*
X183035442Y-72964072D01*
X183036227Y-72963335D01*
X183043416Y-72953322D01*
X183039201Y-72943987D01*
X183027761Y-72934186D01*
X183000164Y-72915802D01*
X182959947Y-72893263D01*
X182910434Y-72868116D01*
X182854950Y-72841908D01*
X182796818Y-72816188D01*
X182739363Y-72792503D01*
X182685908Y-72772401D01*
X182664688Y-72765147D01*
X182600067Y-72744919D01*
X182534998Y-72726815D01*
X182467564Y-72710517D01*
X182395849Y-72695707D01*
X182317940Y-72682063D01*
X182231919Y-72669268D01*
X182135872Y-72657002D01*
X182027883Y-72644946D01*
X181906036Y-72632780D01*
X181825494Y-72625297D01*
X181728446Y-72616316D01*
X181644493Y-72608137D01*
X181569839Y-72600349D01*
X181500691Y-72592536D01*
X181433252Y-72584287D01*
X181363728Y-72575186D01*
X181355594Y-72574089D01*
X181330322Y-72571693D01*
X181320356Y-72573584D01*
X181320356Y-72573584D01*
G37*
X181320356Y-72573584D02*
X181321727Y-72577338D01*
X181329986Y-72583525D01*
X181350954Y-72598359D01*
X181383375Y-72620983D01*
X181425994Y-72650536D01*
X181477555Y-72686160D01*
X181536802Y-72726994D01*
X181602479Y-72772179D01*
X181673332Y-72820857D01*
X181748104Y-72872167D01*
X181825540Y-72925250D01*
X181904384Y-72979246D01*
X181983380Y-73033297D01*
X182061273Y-73086542D01*
X182136808Y-73138122D01*
X182208728Y-73187179D01*
X182275777Y-73232852D01*
X182336702Y-73274281D01*
X182390244Y-73310609D01*
X182435150Y-73340974D01*
X182470163Y-73364518D01*
X182494028Y-73380381D01*
X182505489Y-73387704D01*
X182506241Y-73388091D01*
X182514642Y-73383617D01*
X182534622Y-73369491D01*
X182564713Y-73346853D01*
X182603444Y-73316845D01*
X182649349Y-73280606D01*
X182700957Y-73239279D01*
X182756799Y-73194003D01*
X182769527Y-73183609D01*
X182826429Y-73137027D01*
X182879538Y-73093443D01*
X182927348Y-73054102D01*
X182968351Y-73020250D01*
X183001039Y-72993131D01*
X183023905Y-72973990D01*
X183035442Y-72964072D01*
X183036227Y-72963335D01*
X183043416Y-72953322D01*
X183039201Y-72943987D01*
X183027761Y-72934186D01*
X183000164Y-72915802D01*
X182959947Y-72893263D01*
X182910434Y-72868116D01*
X182854950Y-72841908D01*
X182796818Y-72816188D01*
X182739363Y-72792503D01*
X182685908Y-72772401D01*
X182664688Y-72765147D01*
X182600067Y-72744919D01*
X182534998Y-72726815D01*
X182467564Y-72710517D01*
X182395849Y-72695707D01*
X182317940Y-72682063D01*
X182231919Y-72669268D01*
X182135872Y-72657002D01*
X182027883Y-72644946D01*
X181906036Y-72632780D01*
X181825494Y-72625297D01*
X181728446Y-72616316D01*
X181644493Y-72608137D01*
X181569839Y-72600349D01*
X181500691Y-72592536D01*
X181433252Y-72584287D01*
X181363728Y-72575186D01*
X181355594Y-72574089D01*
X181330322Y-72571693D01*
X181320356Y-72573584D01*
G36*
X163397773Y-47537938D02*
X163118910Y-47547691D01*
X162848389Y-47563945D01*
X162640027Y-47581670D01*
X162565579Y-47590807D01*
X162482003Y-47604727D01*
X162388146Y-47623695D01*
X162282854Y-47647970D01*
X162164971Y-47677816D01*
X162033343Y-47713493D01*
X161930116Y-47742737D01*
X161566408Y-47854993D01*
X161214904Y-47978983D01*
X160875594Y-48114715D01*
X160548465Y-48262195D01*
X160233505Y-48421431D01*
X159930704Y-48592431D01*
X159640050Y-48775204D01*
X159361530Y-48969756D01*
X159095133Y-49176095D01*
X158840848Y-49394229D01*
X158598662Y-49624165D01*
X158368564Y-49865912D01*
X158150542Y-50119477D01*
X157979402Y-50338043D01*
X157790631Y-50602244D01*
X157613670Y-50876036D01*
X157448274Y-51159945D01*
X157294195Y-51454496D01*
X157151188Y-51760212D01*
X157019006Y-52077621D01*
X156897405Y-52407246D01*
X156786136Y-52749613D01*
X156688217Y-53092991D01*
X156651755Y-53235564D01*
X156621261Y-53368373D01*
X156595584Y-53497022D01*
X156573571Y-53627111D01*
X156561380Y-53710071D01*
X156535561Y-53895351D01*
X156535561Y-55583788D01*
X156657597Y-56205290D01*
X156779633Y-56826791D01*
X156840250Y-56987257D01*
X156862371Y-57045711D01*
X156879608Y-57090696D01*
X156893048Y-57124590D01*
X156903778Y-57149768D01*
X156912885Y-57168607D01*
X156921455Y-57183485D01*
X156930576Y-57196779D01*
X156941334Y-57210864D01*
X156944126Y-57214431D01*
X156955688Y-57233464D01*
X156971623Y-57265893D01*
X156990770Y-57309110D01*
X157011966Y-57360507D01*
X157031181Y-57409877D01*
X157161506Y-57731661D01*
X157304244Y-58041975D01*
X157459567Y-58341045D01*
X157627644Y-58629100D01*
X157808645Y-58906366D01*
X158002742Y-59173070D01*
X158210104Y-59429441D01*
X158430901Y-59675706D01*
X158665305Y-59912091D01*
X158913485Y-60138825D01*
X159175612Y-60356134D01*
X159325327Y-60471373D01*
X159438993Y-60555099D01*
X159551277Y-60634577D01*
X159665094Y-60711702D01*
X159783356Y-60788373D01*
X159908979Y-60866485D01*
X160044875Y-60947938D01*
X160163306Y-61016986D01*
X160247931Y-61066563D01*
X160318525Y-61109799D01*
X160376291Y-61147751D01*
X160422431Y-61181475D01*
X160458147Y-61212027D01*
X160484641Y-61240462D01*
X160503116Y-61267835D01*
X160514774Y-61295204D01*
X160520817Y-61323623D01*
X160521647Y-61331674D01*
X160521885Y-61360564D01*
X160517130Y-61389577D01*
X160506459Y-61420020D01*
X160488948Y-61453200D01*
X160463675Y-61490422D01*
X160429716Y-61532993D01*
X160386149Y-61582220D01*
X160332049Y-61639408D01*
X160266494Y-61705865D01*
X160235268Y-61736909D01*
X160185135Y-61787018D01*
X160133757Y-61839248D01*
X160083931Y-61890694D01*
X160038449Y-61938453D01*
X160000108Y-61979621D01*
X159976648Y-62005638D01*
X159791668Y-62226761D01*
X159613072Y-62462894D01*
X159441336Y-62713179D01*
X159276936Y-62976756D01*
X159120346Y-63252767D01*
X158972042Y-63540352D01*
X158832501Y-63838654D01*
X158702198Y-64146813D01*
X158581608Y-64463971D01*
X158524156Y-64628451D01*
X158409089Y-64991474D01*
X158308857Y-65357648D01*
X158223586Y-65725994D01*
X158153402Y-66095533D01*
X158098431Y-66465285D01*
X158058797Y-66834273D01*
X158034628Y-67201518D01*
X158026048Y-67566039D01*
X158033182Y-67926859D01*
X158055718Y-68277958D01*
X158092564Y-68615218D01*
X158143798Y-68944795D01*
X158209328Y-69266420D01*
X158289061Y-69579823D01*
X158382904Y-69884736D01*
X158490765Y-70180888D01*
X158612552Y-70468012D01*
X158748171Y-70745838D01*
X158897531Y-71014097D01*
X159060538Y-71272519D01*
X159111419Y-71347125D01*
X159137936Y-71385196D01*
X159161301Y-71418491D01*
X159179706Y-71444457D01*
X159191348Y-71460540D01*
X159194302Y-71464347D01*
X159203985Y-71464044D01*
X159227119Y-71458961D01*
X159261132Y-71449797D01*
X159303449Y-71437249D01*
X159351499Y-71422014D01*
X159356190Y-71420477D01*
X159821344Y-71275799D01*
X160297065Y-71143661D01*
X160782334Y-71024251D01*
X161276131Y-70917761D01*
X161777439Y-70824379D01*
X162285239Y-70744295D01*
X162798512Y-70677698D01*
X163316239Y-70624779D01*
X163837402Y-70585727D01*
X163842294Y-70585427D01*
X164191397Y-70567731D01*
X164552648Y-70556408D01*
X164922505Y-70551460D01*
X165297429Y-70552886D01*
X165673879Y-70560685D01*
X166048314Y-70574858D01*
X166255294Y-70585550D01*
X166379525Y-70593090D01*
X166512386Y-70602043D01*
X166650844Y-70612154D01*
X166791864Y-70623168D01*
X166932413Y-70634831D01*
X167069455Y-70646886D01*
X167199958Y-70659081D01*
X167320888Y-70671159D01*
X167429209Y-70682865D01*
X167470260Y-70687615D01*
X167610317Y-70708786D01*
X167736409Y-70737747D01*
X167849891Y-70775063D01*
X167952112Y-70821303D01*
X168044426Y-70877033D01*
X168128185Y-70942820D01*
X168167614Y-70979996D01*
X168242141Y-71066007D01*
X168301859Y-71160030D01*
X168346594Y-71261565D01*
X168376172Y-71370108D01*
X168390420Y-71485157D01*
X168389165Y-71606210D01*
X168388157Y-71618897D01*
X168370303Y-71744355D01*
X168339061Y-71859585D01*
X168294324Y-71964721D01*
X168235985Y-72059896D01*
X168163937Y-72145241D01*
X168078074Y-72220889D01*
X167978288Y-72286973D01*
X167864472Y-72343625D01*
X167775060Y-72378205D01*
X167752287Y-72386023D01*
X167731212Y-72392968D01*
X167709960Y-72399499D01*
X167686654Y-72406077D01*
X167659419Y-72413165D01*
X167626379Y-72421222D01*
X167585660Y-72430709D01*
X167535384Y-72442088D01*
X167473678Y-72455819D01*
X167398664Y-72472363D01*
X167334794Y-72486400D01*
X167057590Y-72550266D01*
X166781055Y-72619811D01*
X166508769Y-72694041D01*
X166244310Y-72771958D01*
X165991257Y-72852568D01*
X165862197Y-72896315D01*
X165798141Y-72918611D01*
X165739707Y-72939187D01*
X165684612Y-72958903D01*
X165630573Y-72978621D01*
X165575306Y-72999202D01*
X165516528Y-73021507D01*
X165451957Y-73046399D01*
X165379309Y-73074738D01*
X165296301Y-73107385D01*
X165200650Y-73145202D01*
X165164618Y-73159479D01*
X165085807Y-73190717D01*
X165003011Y-73223527D01*
X164919647Y-73256554D01*
X164839134Y-73288446D01*
X164764889Y-73317848D01*
X164700332Y-73343406D01*
X164659327Y-73359633D01*
X164473353Y-73434395D01*
X164302264Y-73505709D01*
X164144532Y-73574290D01*
X163998627Y-73640851D01*
X163863022Y-73706108D01*
X163736187Y-73770774D01*
X163616594Y-73835563D01*
X163512094Y-73895630D01*
X163392997Y-73969240D01*
X163273251Y-74049283D01*
X163156307Y-74133211D01*
X163045619Y-74218477D01*
X162944637Y-74302533D01*
X162873353Y-74367012D01*
X162797645Y-74438553D01*
X162898753Y-74492483D01*
X162961965Y-74525749D01*
X163035738Y-74563818D01*
X163117101Y-74605217D01*
X163203080Y-74648468D01*
X163290706Y-74692098D01*
X163377005Y-74734630D01*
X163459005Y-74774590D01*
X163533736Y-74810502D01*
X163598225Y-74840891D01*
X163630627Y-74855797D01*
X163870509Y-74960057D01*
X164103499Y-75051608D01*
X164332519Y-75131542D01*
X164536932Y-75194244D01*
X164638914Y-75224215D01*
X164737325Y-75254712D01*
X164833489Y-75286310D01*
X164928730Y-75319583D01*
X165024372Y-75355108D01*
X165121739Y-75393457D01*
X165222154Y-75435207D01*
X165326943Y-75480932D01*
X165437427Y-75531207D01*
X165554933Y-75586607D01*
X165680782Y-75647707D01*
X165816299Y-75715080D01*
X165962809Y-75789303D01*
X166121634Y-75870950D01*
X166255294Y-75940354D01*
X166393178Y-76012042D01*
X166517735Y-76076395D01*
X166630520Y-76134152D01*
X166733089Y-76186055D01*
X166826998Y-76232844D01*
X166913804Y-76275257D01*
X166995062Y-76314036D01*
X167072327Y-76349921D01*
X167147157Y-76383652D01*
X167221107Y-76415969D01*
X167295734Y-76447612D01*
X167372592Y-76479321D01*
X167453238Y-76511837D01*
X167474494Y-76520306D01*
X167907247Y-76683903D01*
X168340763Y-76830905D01*
X168774858Y-76961270D01*
X169209350Y-77074958D01*
X169644054Y-77171926D01*
X170078788Y-77252133D01*
X170513368Y-77315537D01*
X170947611Y-77362098D01*
X171309894Y-77388047D01*
X171357597Y-77390241D01*
X171418500Y-77392345D01*
X171489925Y-77394321D01*
X171569196Y-77396132D01*
X171653634Y-77397742D01*
X171740561Y-77399114D01*
X171827301Y-77400211D01*
X171911176Y-77400995D01*
X171989508Y-77401429D01*
X172059620Y-77401477D01*
X172118835Y-77401102D01*
X172164474Y-77400266D01*
X172173494Y-77399979D01*
X172580721Y-77378760D01*
X172978738Y-77344302D01*
X173369260Y-77296303D01*
X173754001Y-77234464D01*
X174134678Y-77158482D01*
X174513004Y-77068056D01*
X174890695Y-76962886D01*
X175183394Y-76871263D01*
X175404768Y-76796392D01*
X175619512Y-76718949D01*
X175830560Y-76637705D01*
X176040845Y-76551428D01*
X176253301Y-76458891D01*
X176470861Y-76358862D01*
X176696458Y-76250112D01*
X176861208Y-76167899D01*
X176965361Y-76115470D01*
X177062866Y-76066906D01*
X177155164Y-76021595D01*
X177243695Y-75978923D01*
X177329899Y-75938278D01*
X177415216Y-75899047D01*
X177501086Y-75860619D01*
X177588949Y-75822381D01*
X177680246Y-75783720D01*
X177776416Y-75744023D01*
X177878900Y-75702679D01*
X177989137Y-75659075D01*
X178108568Y-75612598D01*
X178238633Y-75562637D01*
X178380772Y-75508578D01*
X178536425Y-75449808D01*
X178650494Y-75406929D01*
X178825316Y-75341122D01*
X178985410Y-75280452D01*
X179132008Y-75224405D01*
X179266346Y-75172466D01*
X179389656Y-75124121D01*
X179503172Y-75078859D01*
X179608129Y-75036163D01*
X179705760Y-74995521D01*
X179797300Y-74956420D01*
X179883982Y-74918344D01*
X179967040Y-74880781D01*
X180047709Y-74843217D01*
X180127221Y-74805138D01*
X180206811Y-74766030D01*
X180287713Y-74725380D01*
X180288794Y-74724832D01*
X180346022Y-74695314D01*
X180408468Y-74662287D01*
X180473550Y-74627190D01*
X180538687Y-74591462D01*
X180601295Y-74556540D01*
X180658793Y-74523863D01*
X180708599Y-74494869D01*
X180748130Y-74470997D01*
X180771641Y-74455864D01*
X180800043Y-74436564D01*
X180781640Y-74398911D01*
X180761501Y-74367377D01*
X180730313Y-74330136D01*
X180691425Y-74290390D01*
X180648188Y-74251340D01*
X180603951Y-74216188D01*
X180562067Y-74188136D01*
X180559488Y-74186625D01*
X180288127Y-74031730D01*
X180026252Y-73887676D01*
X179771397Y-73753311D01*
X179521091Y-73627484D01*
X179272868Y-73509043D01*
X179024258Y-73396839D01*
X178772792Y-73289719D01*
X178516004Y-73186532D01*
X178251424Y-73086127D01*
X178023174Y-73003738D01*
X177804875Y-72928855D01*
X177573281Y-72853560D01*
X177331965Y-72778886D01*
X177084504Y-72705865D01*
X176834472Y-72635531D01*
X176585446Y-72568915D01*
X176341001Y-72507052D01*
X176127427Y-72456188D01*
X176071527Y-72442551D01*
X176011143Y-72426575D01*
X175952842Y-72410067D01*
X175903190Y-72394839D01*
X175894594Y-72392012D01*
X175761164Y-72340734D01*
X175641552Y-72280763D01*
X175535971Y-72212365D01*
X175444632Y-72135809D01*
X175367749Y-72051363D01*
X175305532Y-71959294D01*
X175258194Y-71859870D01*
X175225949Y-71753359D01*
X175209007Y-71640029D01*
X175207344Y-71524925D01*
X175220741Y-71403894D01*
X175248924Y-71290825D01*
X175291555Y-71186069D01*
X175348293Y-71089979D01*
X175418799Y-71002906D01*
X175502732Y-70925201D01*
X175599754Y-70857216D01*
X175709524Y-70799303D01*
X175831703Y-70751813D01*
X175965950Y-70715097D01*
X175996194Y-70708677D01*
X176041552Y-70700705D01*
X176102555Y-70691879D01*
X176177940Y-70682336D01*
X176266449Y-70672213D01*
X176366819Y-70661650D01*
X176477792Y-70650783D01*
X176598105Y-70639750D01*
X176726500Y-70628690D01*
X176732794Y-70628165D01*
X177286819Y-70588579D01*
X177832467Y-70562877D01*
X178371034Y-70551044D01*
X178903816Y-70553068D01*
X179432111Y-70568933D01*
X179890861Y-70594103D01*
X180404857Y-70635482D01*
X180917467Y-70691067D01*
X181427360Y-70760605D01*
X181933207Y-70843846D01*
X182433679Y-70940536D01*
X182927447Y-71050425D01*
X183413182Y-71173259D01*
X183889554Y-71308787D01*
X184239448Y-71418468D01*
X184288183Y-71434299D01*
X184331259Y-71448154D01*
X184366148Y-71459232D01*
X184390323Y-71466731D01*
X184401256Y-71469849D01*
X184401568Y-71469891D01*
X184407933Y-71462990D01*
X184421911Y-71443560D01*
X184442270Y-71413516D01*
X184467780Y-71374771D01*
X184497210Y-71329237D01*
X184529330Y-71278829D01*
X184562910Y-71225459D01*
X184596717Y-71171040D01*
X184629523Y-71117486D01*
X184649359Y-71084658D01*
X184814275Y-70793918D01*
X184963232Y-70497535D01*
X184964864Y-70493828D01*
X174287520Y-70493828D01*
X174278801Y-70632986D01*
X174257058Y-70778661D01*
X174222264Y-70931838D01*
X174174395Y-71093505D01*
X174113422Y-71264649D01*
X174097878Y-71304604D01*
X174000490Y-71528949D01*
X173889093Y-71743951D01*
X173763642Y-71949665D01*
X173624088Y-72146144D01*
X173470385Y-72333442D01*
X173302486Y-72511613D01*
X173120343Y-72680710D01*
X172923909Y-72840787D01*
X172713138Y-72991899D01*
X172499461Y-73127271D01*
X172380893Y-73195714D01*
X172272913Y-73252908D01*
X172173872Y-73299312D01*
X172082125Y-73335385D01*
X171996026Y-73361585D01*
X171913926Y-73378372D01*
X171834180Y-73386206D01*
X171755142Y-73385544D01*
X171675164Y-73376846D01*
X171631874Y-73369144D01*
X171503330Y-73336126D01*
X171370161Y-73287936D01*
X171233362Y-73225375D01*
X171093934Y-73149243D01*
X170952873Y-73060340D01*
X170811179Y-72959466D01*
X170669850Y-72847421D01*
X170529884Y-72725007D01*
X170392279Y-72593022D01*
X170258033Y-72452267D01*
X170128145Y-72303542D01*
X170003613Y-72147648D01*
X169885436Y-71985384D01*
X169860730Y-71949413D01*
X169746655Y-71772846D01*
X169645420Y-71598032D01*
X169557319Y-71425737D01*
X169482642Y-71256731D01*
X169421683Y-71091781D01*
X169374732Y-70931657D01*
X169342083Y-70777127D01*
X169324028Y-70628958D01*
X169320227Y-70527863D01*
X169328016Y-70366469D01*
X169351229Y-70211781D01*
X169389639Y-70064215D01*
X169443018Y-69924187D01*
X169511138Y-69792115D01*
X169593770Y-69668415D01*
X169690687Y-69553504D01*
X169801661Y-69447799D01*
X169926463Y-69351716D01*
X169985180Y-69312921D01*
X170021340Y-69291789D01*
X170069569Y-69266035D01*
X170126255Y-69237426D01*
X170187787Y-69207729D01*
X170250552Y-69178710D01*
X170310939Y-69152138D01*
X170331994Y-69143263D01*
X170555237Y-69057039D01*
X170775365Y-68985563D01*
X170995734Y-68927938D01*
X171219700Y-68883264D01*
X171403027Y-68856332D01*
X171469640Y-68849807D01*
X171549509Y-68844922D01*
X171639158Y-68841661D01*
X171735113Y-68840007D01*
X171833898Y-68839945D01*
X171932039Y-68841458D01*
X172026060Y-68844529D01*
X172112487Y-68849142D01*
X172187845Y-68855282D01*
X172230318Y-68860228D01*
X172479919Y-68901429D01*
X172720867Y-68956279D01*
X172955374Y-69025435D01*
X173185649Y-69109554D01*
X173413902Y-69209294D01*
X173430794Y-69217323D01*
X173578981Y-69295291D01*
X173712156Y-69380507D01*
X173830821Y-69473426D01*
X173935474Y-69574506D01*
X174026618Y-69684202D01*
X174104752Y-69802972D01*
X174136693Y-69861225D01*
X174192693Y-69982610D01*
X174235802Y-70105575D01*
X174265994Y-70231109D01*
X174283242Y-70360197D01*
X174287520Y-70493828D01*
X184964864Y-70493828D01*
X185096220Y-70195554D01*
X185213229Y-69888021D01*
X185314250Y-69574982D01*
X185399272Y-69256483D01*
X185468285Y-68932571D01*
X185521280Y-68603291D01*
X185558247Y-68268690D01*
X185579174Y-67928812D01*
X185584054Y-67583705D01*
X185572874Y-67233415D01*
X185550360Y-66927525D01*
X185511103Y-66578176D01*
X185457416Y-66223065D01*
X185389209Y-65861792D01*
X185306397Y-65493952D01*
X185208891Y-65119144D01*
X185096604Y-64736965D01*
X185024186Y-64510291D01*
X184904834Y-64170227D01*
X184774601Y-63843067D01*
X184633495Y-63528829D01*
X184481526Y-63227530D01*
X184318703Y-62939187D01*
X184145036Y-62663816D01*
X183960532Y-62401434D01*
X183765203Y-62152058D01*
X183646286Y-62012624D01*
X183565416Y-61923003D01*
X183477990Y-61830194D01*
X183386916Y-61737075D01*
X183295102Y-61646526D01*
X183205456Y-61561426D01*
X183120884Y-61484652D01*
X183059924Y-61432076D01*
X183037179Y-61411908D01*
X183021262Y-61395660D01*
X183015131Y-61386402D01*
X183015264Y-61385762D01*
X183023598Y-61379834D01*
X183044122Y-61367429D01*
X183074133Y-61350120D01*
X183110924Y-61329483D01*
X183129208Y-61319401D01*
X183252838Y-61249595D01*
X183385498Y-61171077D01*
X183523441Y-61086243D01*
X183662920Y-60997492D01*
X183800186Y-60907221D01*
X183931491Y-60817827D01*
X184053088Y-60731707D01*
X184089451Y-60705148D01*
X184378185Y-60482718D01*
X184653486Y-60250712D01*
X184915181Y-60009369D01*
X185163097Y-59758930D01*
X185397062Y-59499638D01*
X185616904Y-59231733D01*
X185822450Y-58955455D01*
X186013528Y-58671047D01*
X186189965Y-58378749D01*
X186351588Y-58078803D01*
X186498225Y-57771449D01*
X186629704Y-57456928D01*
X186745852Y-57135483D01*
X186825191Y-56881825D01*
X186912288Y-56555689D01*
X186983427Y-56227964D01*
X187038736Y-55897630D01*
X187078344Y-55563668D01*
X187102377Y-55225060D01*
X187110964Y-54880788D01*
X187107747Y-54632097D01*
X187089702Y-54283083D01*
X187055479Y-53936642D01*
X187005303Y-53593396D01*
X186939398Y-53253969D01*
X186857988Y-52918983D01*
X186761298Y-52589059D01*
X186649552Y-52264821D01*
X186522974Y-51946891D01*
X186381790Y-51635892D01*
X186226222Y-51332445D01*
X186056497Y-51037173D01*
X185872837Y-50750699D01*
X185675468Y-50473645D01*
X185550160Y-50311691D01*
X185356314Y-50079758D01*
X185149111Y-49852624D01*
X184931503Y-49633253D01*
X184706441Y-49424612D01*
X184476875Y-49229666D01*
X184459755Y-49215838D01*
X184182832Y-49003803D01*
X183896180Y-48805524D01*
X183600164Y-48621165D01*
X183295150Y-48450887D01*
X182981505Y-48294852D01*
X182659593Y-48153223D01*
X182329782Y-48026163D01*
X181992438Y-47913832D01*
X181647926Y-47816394D01*
X181296612Y-47734010D01*
X180980877Y-47673883D01*
X180809361Y-47644691D01*
X178964864Y-47644691D01*
X178784396Y-47674930D01*
X178424277Y-47743122D01*
X178073402Y-47825491D01*
X177731699Y-47922080D01*
X177399097Y-48032933D01*
X177075525Y-48158094D01*
X176760909Y-48297606D01*
X176455180Y-48451513D01*
X176158264Y-48619859D01*
X175870091Y-48802687D01*
X175590589Y-49000040D01*
X175319685Y-49211963D01*
X175057310Y-49438500D01*
X174803390Y-49679693D01*
X174557854Y-49935587D01*
X174320631Y-50206224D01*
X174091648Y-50491650D01*
X174033083Y-50568782D01*
X173966115Y-50659072D01*
X173909566Y-50737862D01*
X173862725Y-50806411D01*
X173824879Y-50865980D01*
X173795315Y-50917827D01*
X173773322Y-50963214D01*
X173758187Y-51003399D01*
X173749199Y-51039643D01*
X173745644Y-51073206D01*
X173745544Y-51077430D01*
X173748664Y-51121114D01*
X173760092Y-51159500D01*
X173780918Y-51193274D01*
X173812231Y-51223126D01*
X173855123Y-51249742D01*
X173910681Y-51273810D01*
X173979997Y-51296017D01*
X174064159Y-51317053D01*
X174155038Y-51335846D01*
X174232596Y-51351260D01*
X174306970Y-51367266D01*
X174380539Y-51384515D01*
X174455683Y-51403662D01*
X174534781Y-51425359D01*
X174620212Y-51450260D01*
X174714356Y-51479018D01*
X174819591Y-51512285D01*
X174938298Y-51550715D01*
X174940836Y-51551544D01*
X175049549Y-51586957D01*
X175142514Y-51617012D01*
X175220018Y-51641799D01*
X175282347Y-51661407D01*
X175329787Y-51675925D01*
X175362623Y-51685443D01*
X175381142Y-51690050D01*
X175385808Y-51690335D01*
X175389559Y-51681450D01*
X175397024Y-51661659D01*
X175403008Y-51645191D01*
X175438545Y-51564369D01*
X175488287Y-51481025D01*
X175552964Y-51394013D01*
X175592990Y-51346654D01*
X175612973Y-51325294D01*
X175643506Y-51294469D01*
X175682583Y-51256077D01*
X175728201Y-51212017D01*
X175778356Y-51164187D01*
X175831043Y-51114486D01*
X175884259Y-51064813D01*
X175935998Y-51017067D01*
X175984257Y-50973146D01*
X176027032Y-50934950D01*
X176034294Y-50928567D01*
X176279546Y-50724487D01*
X176532172Y-50535647D01*
X176792084Y-50362088D01*
X177059198Y-50203847D01*
X177333426Y-50060962D01*
X177614684Y-49933473D01*
X177902885Y-49821419D01*
X178197943Y-49724838D01*
X178499773Y-49643768D01*
X178808288Y-49578249D01*
X179123403Y-49528319D01*
X179150027Y-49524855D01*
X179423090Y-49496145D01*
X179699233Y-49479243D01*
X179974838Y-49474203D01*
X180246288Y-49481081D01*
X180509964Y-49499931D01*
X180547027Y-49503629D01*
X180856735Y-49544038D01*
X181162118Y-49600529D01*
X181462625Y-49672750D01*
X181757707Y-49760354D01*
X182046813Y-49862991D01*
X182329394Y-49980313D01*
X182604901Y-50111970D01*
X182872783Y-50257613D01*
X183132490Y-50416893D01*
X183383474Y-50589461D01*
X183625183Y-50774968D01*
X183857068Y-50973066D01*
X184078579Y-51183404D01*
X184289168Y-51405635D01*
X184488282Y-51639408D01*
X184675374Y-51884375D01*
X184849892Y-52140188D01*
X184947375Y-52297125D01*
X185101775Y-52570715D01*
X185240230Y-52849566D01*
X185362779Y-53133827D01*
X185469465Y-53423650D01*
X185560327Y-53719187D01*
X185635406Y-54020587D01*
X185694743Y-54328003D01*
X185738380Y-54641585D01*
X185766355Y-54961484D01*
X185778711Y-55287852D01*
X185779379Y-55383224D01*
X185771772Y-55705942D01*
X185748839Y-56021711D01*
X185710611Y-56330452D01*
X185657115Y-56632087D01*
X185588383Y-56926536D01*
X185504444Y-57213719D01*
X185405327Y-57493558D01*
X185291062Y-57765972D01*
X185161679Y-58030883D01*
X185017208Y-58288210D01*
X184857678Y-58537876D01*
X184683119Y-58779799D01*
X184493561Y-59013901D01*
X184368788Y-59154785D01*
X184317089Y-59209850D01*
X184255948Y-59272698D01*
X184188344Y-59340435D01*
X184117257Y-59410167D01*
X184045669Y-59478998D01*
X183976559Y-59544035D01*
X183912909Y-59602383D01*
X183857698Y-59651147D01*
X183857477Y-59651337D01*
X183616791Y-59848868D01*
X183362732Y-60038924D01*
X183094632Y-60221965D01*
X182811823Y-60398450D01*
X182560857Y-60542828D01*
X182510897Y-60570969D01*
X182474534Y-60592574D01*
X182450225Y-60608693D01*
X182436427Y-60620375D01*
X182431599Y-60628671D01*
X182431695Y-60630773D01*
X182434831Y-60650756D01*
X182438766Y-60685941D01*
X182443383Y-60734620D01*
X182448564Y-60795087D01*
X182454193Y-60865634D01*
X182460153Y-60944554D01*
X182466327Y-61030141D01*
X182472599Y-61120687D01*
X182478851Y-61214485D01*
X182484966Y-61309828D01*
X182490828Y-61405010D01*
X182496320Y-61498323D01*
X182501325Y-61588060D01*
X182505725Y-61672514D01*
X182509406Y-61749978D01*
X182511223Y-61792491D01*
X182513585Y-61863402D01*
X182515546Y-61948181D01*
X182517105Y-62044199D01*
X182518262Y-62148831D01*
X182519017Y-62259449D01*
X182519370Y-62373427D01*
X182519321Y-62488137D01*
X182518870Y-62600953D01*
X182518016Y-62709247D01*
X182516760Y-62810393D01*
X182515100Y-62901764D01*
X182513038Y-62980733D01*
X182511296Y-63028624D01*
X182496755Y-63308140D01*
X182476948Y-63586984D01*
X182452106Y-63863673D01*
X182422461Y-64136722D01*
X182388245Y-64404646D01*
X182349687Y-64665959D01*
X182307020Y-64919179D01*
X182260475Y-65162818D01*
X182210283Y-65395394D01*
X182156676Y-65615421D01*
X182099884Y-65821414D01*
X182052340Y-65975025D01*
X181967460Y-66213883D01*
X181873312Y-66438948D01*
X181769952Y-66650144D01*
X181657437Y-66847400D01*
X181535822Y-67030642D01*
X181405164Y-67199798D01*
X181265520Y-67354794D01*
X181116946Y-67495557D01*
X180959499Y-67622016D01*
X180793234Y-67734095D01*
X180618209Y-67831724D01*
X180615503Y-67833085D01*
X180485727Y-67893637D01*
X180351737Y-67946774D01*
X180212211Y-67992737D01*
X180065824Y-68031770D01*
X179911254Y-68064114D01*
X179747175Y-68090013D01*
X179572264Y-68109709D01*
X179385197Y-68123444D01*
X179184650Y-68131462D01*
X178973405Y-68134006D01*
X178763701Y-68131283D01*
X178552101Y-68123027D01*
X178337306Y-68109052D01*
X178118013Y-68089175D01*
X177892922Y-68063210D01*
X177660733Y-68030975D01*
X177420144Y-67992285D01*
X177169854Y-67946956D01*
X176908564Y-67894803D01*
X176634971Y-67835643D01*
X176347775Y-67769290D01*
X176275594Y-67752014D01*
X176088644Y-67707513D01*
X175914675Y-67667271D01*
X175750473Y-67630605D01*
X175592822Y-67596832D01*
X175438509Y-67565268D01*
X175284317Y-67535230D01*
X175127033Y-67506035D01*
X175069094Y-67495610D01*
X174527467Y-67407515D01*
X173982371Y-67335993D01*
X173433815Y-67281043D01*
X172881805Y-67242667D01*
X172326351Y-67220865D01*
X171767460Y-67215636D01*
X171205140Y-67226982D01*
X170639400Y-67254901D01*
X170070247Y-67299396D01*
X169802827Y-67325901D01*
X169439951Y-67367487D01*
X169078039Y-67415503D01*
X168714760Y-67470355D01*
X168347782Y-67532447D01*
X167974774Y-67602188D01*
X167593403Y-67679981D01*
X167201338Y-67766233D01*
X166983427Y-67816688D01*
X166748273Y-67870475D01*
X166525832Y-67917987D01*
X166313280Y-67959683D01*
X166107792Y-67996020D01*
X165906544Y-68027459D01*
X165706713Y-68054456D01*
X165505473Y-68077472D01*
X165300001Y-68096964D01*
X165213894Y-68104043D01*
X165068121Y-68114244D01*
X164920181Y-68122173D01*
X164772455Y-68127813D01*
X164627324Y-68131146D01*
X164487169Y-68132153D01*
X164354373Y-68130817D01*
X164231317Y-68127119D01*
X164120381Y-68121041D01*
X164028560Y-68113065D01*
X163797436Y-68081786D01*
X163578237Y-68038591D01*
X163370653Y-67983269D01*
X163174373Y-67915608D01*
X162989086Y-67835395D01*
X162814481Y-67742421D01*
X162650246Y-67636472D01*
X162496071Y-67517339D01*
X162351644Y-67384807D01*
X162216654Y-67238668D01*
X162090791Y-67078708D01*
X161973744Y-66904716D01*
X161865200Y-66716480D01*
X161806441Y-66601558D01*
X161739764Y-66456207D01*
X161674250Y-66295510D01*
X161610315Y-66121034D01*
X161548373Y-65934349D01*
X161488841Y-65737024D01*
X161432134Y-65530629D01*
X161378666Y-65316733D01*
X161328853Y-65096905D01*
X161283111Y-64872715D01*
X161241854Y-64645732D01*
X161205499Y-64417525D01*
X161180221Y-64235124D01*
X161154431Y-64021431D01*
X161132795Y-63810844D01*
X161115136Y-63600389D01*
X161101280Y-63387091D01*
X161091051Y-63167975D01*
X161084273Y-62940067D01*
X161080772Y-62700392D01*
X161080170Y-62537558D01*
X161080626Y-62386361D01*
X161082005Y-62242508D01*
X161084411Y-62103452D01*
X161087952Y-61966646D01*
X161092733Y-61829543D01*
X161098859Y-61689596D01*
X161106437Y-61544258D01*
X161115571Y-61390982D01*
X161126369Y-61227221D01*
X161138936Y-61050429D01*
X161145752Y-60958524D01*
X161150891Y-60889944D01*
X161155706Y-60825482D01*
X161160028Y-60767420D01*
X161163689Y-60718039D01*
X161166517Y-60679619D01*
X161168346Y-60654442D01*
X161168890Y-60646664D01*
X161171060Y-60614204D01*
X161018661Y-60533800D01*
X160911742Y-60477149D01*
X160817877Y-60426829D01*
X160734966Y-60381618D01*
X160660904Y-60340298D01*
X160593590Y-60301649D01*
X160530922Y-60264450D01*
X160470796Y-60227481D01*
X160411112Y-60189524D01*
X160349766Y-60149357D01*
X160307461Y-60121122D01*
X160064349Y-59948108D01*
X159830113Y-59761813D01*
X159605794Y-59563291D01*
X159392433Y-59353594D01*
X159191074Y-59133773D01*
X159002756Y-58904882D01*
X158828524Y-58667972D01*
X158743399Y-58541291D01*
X158579986Y-58274711D01*
X158431750Y-58000755D01*
X158298817Y-57719805D01*
X158181312Y-57432243D01*
X158079362Y-57138453D01*
X157993093Y-56838817D01*
X157922630Y-56533717D01*
X157868099Y-56223537D01*
X157829627Y-55908660D01*
X157814315Y-55717802D01*
X157810864Y-55649912D01*
X157808315Y-55569427D01*
X157806668Y-55480225D01*
X157805923Y-55386186D01*
X157806082Y-55291187D01*
X157807145Y-55199107D01*
X157809114Y-55113825D01*
X157811988Y-55039219D01*
X157814175Y-55000781D01*
X157843504Y-54682021D01*
X157888783Y-54367969D01*
X157949860Y-54059043D01*
X158026580Y-53755664D01*
X158118793Y-53458252D01*
X158226343Y-53167226D01*
X158349080Y-52883007D01*
X158486849Y-52606013D01*
X158639498Y-52336666D01*
X158806874Y-52075383D01*
X158955505Y-51866774D01*
X159133666Y-51640655D01*
X159327300Y-51418604D01*
X159535184Y-51201870D01*
X159756096Y-50991704D01*
X159988811Y-50789357D01*
X160091561Y-50705577D01*
X160345546Y-50512546D01*
X160604561Y-50335639D01*
X160868500Y-50174888D01*
X161137262Y-50030323D01*
X161410743Y-49901975D01*
X161688839Y-49789874D01*
X161971448Y-49694052D01*
X162258467Y-49614539D01*
X162549792Y-49551366D01*
X162845321Y-49504563D01*
X163144949Y-49474162D01*
X163448575Y-49460194D01*
X163756095Y-49462688D01*
X164067405Y-49481676D01*
X164163987Y-49490846D01*
X164437727Y-49524748D01*
X164711979Y-49569939D01*
X164985144Y-49625889D01*
X165255620Y-49692066D01*
X165521805Y-49767939D01*
X165782099Y-49852976D01*
X166034899Y-49946644D01*
X166278606Y-50048414D01*
X166511616Y-50157753D01*
X166732330Y-50274130D01*
X166939146Y-50397013D01*
X166987660Y-50428147D01*
X167196382Y-50573600D01*
X167394553Y-50730787D01*
X167581301Y-50898835D01*
X167755754Y-51076869D01*
X167917038Y-51264014D01*
X168064282Y-51459397D01*
X168159961Y-51602858D01*
X168180998Y-51636077D01*
X168198515Y-51663628D01*
X168210662Y-51682611D01*
X168215576Y-51690105D01*
X168223995Y-51688817D01*
X168245734Y-51683529D01*
X168277861Y-51675005D01*
X168317447Y-51664007D01*
X168335030Y-51658996D01*
X168369655Y-51649154D01*
X168418038Y-51635542D01*
X168477610Y-51618876D01*
X168545800Y-51599872D01*
X168620040Y-51579247D01*
X168697760Y-51557715D01*
X168776389Y-51535993D01*
X168792149Y-51531647D01*
X168958441Y-51485392D01*
X169112784Y-51441615D01*
X169254711Y-51400463D01*
X169383755Y-51362083D01*
X169499451Y-51326624D01*
X169601332Y-51294232D01*
X169688931Y-51265056D01*
X169761782Y-51239242D01*
X169819419Y-51216937D01*
X169861375Y-51198290D01*
X169881270Y-51187425D01*
X169923801Y-51153882D01*
X169950256Y-51116736D01*
X169960384Y-51076476D01*
X169956422Y-51041836D01*
X169944264Y-51008769D01*
X169924158Y-50973233D01*
X169894468Y-50932829D01*
X169853560Y-50885157D01*
X169838433Y-50868623D01*
X169813669Y-50839875D01*
X169782807Y-50801027D01*
X169748974Y-50756179D01*
X169715295Y-50709432D01*
X169697852Y-50684225D01*
X169490377Y-50393675D01*
X169272151Y-50116074D01*
X169043310Y-49851533D01*
X168803987Y-49600162D01*
X168554316Y-49362073D01*
X168294431Y-49137377D01*
X168024467Y-48926186D01*
X167744558Y-48728609D01*
X167454838Y-48544759D01*
X167155440Y-48374746D01*
X166846500Y-48218682D01*
X166572794Y-48095500D01*
X166378251Y-48015861D01*
X166182081Y-47942014D01*
X165981337Y-47873000D01*
X165773070Y-47807861D01*
X165554333Y-47745638D01*
X165322177Y-47685373D01*
X165277394Y-47674330D01*
X165203765Y-47656605D01*
X165137612Y-47641458D01*
X165076365Y-47628520D01*
X165017453Y-47617420D01*
X164958307Y-47607790D01*
X164896356Y-47599259D01*
X164829030Y-47591458D01*
X164753760Y-47584015D01*
X164667975Y-47576562D01*
X164569105Y-47568729D01*
X164515394Y-47564662D01*
X164243787Y-47548046D01*
X163964273Y-47538078D01*
X163680915Y-47534721D01*
X163397773Y-47537938D01*
X163397773Y-47537938D01*
G37*
X163397773Y-47537938D02*
X163118910Y-47547691D01*
X162848389Y-47563945D01*
X162640027Y-47581670D01*
X162565579Y-47590807D01*
X162482003Y-47604727D01*
X162388146Y-47623695D01*
X162282854Y-47647970D01*
X162164971Y-47677816D01*
X162033343Y-47713493D01*
X161930116Y-47742737D01*
X161566408Y-47854993D01*
X161214904Y-47978983D01*
X160875594Y-48114715D01*
X160548465Y-48262195D01*
X160233505Y-48421431D01*
X159930704Y-48592431D01*
X159640050Y-48775204D01*
X159361530Y-48969756D01*
X159095133Y-49176095D01*
X158840848Y-49394229D01*
X158598662Y-49624165D01*
X158368564Y-49865912D01*
X158150542Y-50119477D01*
X157979402Y-50338043D01*
X157790631Y-50602244D01*
X157613670Y-50876036D01*
X157448274Y-51159945D01*
X157294195Y-51454496D01*
X157151188Y-51760212D01*
X157019006Y-52077621D01*
X156897405Y-52407246D01*
X156786136Y-52749613D01*
X156688217Y-53092991D01*
X156651755Y-53235564D01*
X156621261Y-53368373D01*
X156595584Y-53497022D01*
X156573571Y-53627111D01*
X156561380Y-53710071D01*
X156535561Y-53895351D01*
X156535561Y-55583788D01*
X156657597Y-56205290D01*
X156779633Y-56826791D01*
X156840250Y-56987257D01*
X156862371Y-57045711D01*
X156879608Y-57090696D01*
X156893048Y-57124590D01*
X156903778Y-57149768D01*
X156912885Y-57168607D01*
X156921455Y-57183485D01*
X156930576Y-57196779D01*
X156941334Y-57210864D01*
X156944126Y-57214431D01*
X156955688Y-57233464D01*
X156971623Y-57265893D01*
X156990770Y-57309110D01*
X157011966Y-57360507D01*
X157031181Y-57409877D01*
X157161506Y-57731661D01*
X157304244Y-58041975D01*
X157459567Y-58341045D01*
X157627644Y-58629100D01*
X157808645Y-58906366D01*
X158002742Y-59173070D01*
X158210104Y-59429441D01*
X158430901Y-59675706D01*
X158665305Y-59912091D01*
X158913485Y-60138825D01*
X159175612Y-60356134D01*
X159325327Y-60471373D01*
X159438993Y-60555099D01*
X159551277Y-60634577D01*
X159665094Y-60711702D01*
X159783356Y-60788373D01*
X159908979Y-60866485D01*
X160044875Y-60947938D01*
X160163306Y-61016986D01*
X160247931Y-61066563D01*
X160318525Y-61109799D01*
X160376291Y-61147751D01*
X160422431Y-61181475D01*
X160458147Y-61212027D01*
X160484641Y-61240462D01*
X160503116Y-61267835D01*
X160514774Y-61295204D01*
X160520817Y-61323623D01*
X160521647Y-61331674D01*
X160521885Y-61360564D01*
X160517130Y-61389577D01*
X160506459Y-61420020D01*
X160488948Y-61453200D01*
X160463675Y-61490422D01*
X160429716Y-61532993D01*
X160386149Y-61582220D01*
X160332049Y-61639408D01*
X160266494Y-61705865D01*
X160235268Y-61736909D01*
X160185135Y-61787018D01*
X160133757Y-61839248D01*
X160083931Y-61890694D01*
X160038449Y-61938453D01*
X160000108Y-61979621D01*
X159976648Y-62005638D01*
X159791668Y-62226761D01*
X159613072Y-62462894D01*
X159441336Y-62713179D01*
X159276936Y-62976756D01*
X159120346Y-63252767D01*
X158972042Y-63540352D01*
X158832501Y-63838654D01*
X158702198Y-64146813D01*
X158581608Y-64463971D01*
X158524156Y-64628451D01*
X158409089Y-64991474D01*
X158308857Y-65357648D01*
X158223586Y-65725994D01*
X158153402Y-66095533D01*
X158098431Y-66465285D01*
X158058797Y-66834273D01*
X158034628Y-67201518D01*
X158026048Y-67566039D01*
X158033182Y-67926859D01*
X158055718Y-68277958D01*
X158092564Y-68615218D01*
X158143798Y-68944795D01*
X158209328Y-69266420D01*
X158289061Y-69579823D01*
X158382904Y-69884736D01*
X158490765Y-70180888D01*
X158612552Y-70468012D01*
X158748171Y-70745838D01*
X158897531Y-71014097D01*
X159060538Y-71272519D01*
X159111419Y-71347125D01*
X159137936Y-71385196D01*
X159161301Y-71418491D01*
X159179706Y-71444457D01*
X159191348Y-71460540D01*
X159194302Y-71464347D01*
X159203985Y-71464044D01*
X159227119Y-71458961D01*
X159261132Y-71449797D01*
X159303449Y-71437249D01*
X159351499Y-71422014D01*
X159356190Y-71420477D01*
X159821344Y-71275799D01*
X160297065Y-71143661D01*
X160782334Y-71024251D01*
X161276131Y-70917761D01*
X161777439Y-70824379D01*
X162285239Y-70744295D01*
X162798512Y-70677698D01*
X163316239Y-70624779D01*
X163837402Y-70585727D01*
X163842294Y-70585427D01*
X164191397Y-70567731D01*
X164552648Y-70556408D01*
X164922505Y-70551460D01*
X165297429Y-70552886D01*
X165673879Y-70560685D01*
X166048314Y-70574858D01*
X166255294Y-70585550D01*
X166379525Y-70593090D01*
X166512386Y-70602043D01*
X166650844Y-70612154D01*
X166791864Y-70623168D01*
X166932413Y-70634831D01*
X167069455Y-70646886D01*
X167199958Y-70659081D01*
X167320888Y-70671159D01*
X167429209Y-70682865D01*
X167470260Y-70687615D01*
X167610317Y-70708786D01*
X167736409Y-70737747D01*
X167849891Y-70775063D01*
X167952112Y-70821303D01*
X168044426Y-70877033D01*
X168128185Y-70942820D01*
X168167614Y-70979996D01*
X168242141Y-71066007D01*
X168301859Y-71160030D01*
X168346594Y-71261565D01*
X168376172Y-71370108D01*
X168390420Y-71485157D01*
X168389165Y-71606210D01*
X168388157Y-71618897D01*
X168370303Y-71744355D01*
X168339061Y-71859585D01*
X168294324Y-71964721D01*
X168235985Y-72059896D01*
X168163937Y-72145241D01*
X168078074Y-72220889D01*
X167978288Y-72286973D01*
X167864472Y-72343625D01*
X167775060Y-72378205D01*
X167752287Y-72386023D01*
X167731212Y-72392968D01*
X167709960Y-72399499D01*
X167686654Y-72406077D01*
X167659419Y-72413165D01*
X167626379Y-72421222D01*
X167585660Y-72430709D01*
X167535384Y-72442088D01*
X167473678Y-72455819D01*
X167398664Y-72472363D01*
X167334794Y-72486400D01*
X167057590Y-72550266D01*
X166781055Y-72619811D01*
X166508769Y-72694041D01*
X166244310Y-72771958D01*
X165991257Y-72852568D01*
X165862197Y-72896315D01*
X165798141Y-72918611D01*
X165739707Y-72939187D01*
X165684612Y-72958903D01*
X165630573Y-72978621D01*
X165575306Y-72999202D01*
X165516528Y-73021507D01*
X165451957Y-73046399D01*
X165379309Y-73074738D01*
X165296301Y-73107385D01*
X165200650Y-73145202D01*
X165164618Y-73159479D01*
X165085807Y-73190717D01*
X165003011Y-73223527D01*
X164919647Y-73256554D01*
X164839134Y-73288446D01*
X164764889Y-73317848D01*
X164700332Y-73343406D01*
X164659327Y-73359633D01*
X164473353Y-73434395D01*
X164302264Y-73505709D01*
X164144532Y-73574290D01*
X163998627Y-73640851D01*
X163863022Y-73706108D01*
X163736187Y-73770774D01*
X163616594Y-73835563D01*
X163512094Y-73895630D01*
X163392997Y-73969240D01*
X163273251Y-74049283D01*
X163156307Y-74133211D01*
X163045619Y-74218477D01*
X162944637Y-74302533D01*
X162873353Y-74367012D01*
X162797645Y-74438553D01*
X162898753Y-74492483D01*
X162961965Y-74525749D01*
X163035738Y-74563818D01*
X163117101Y-74605217D01*
X163203080Y-74648468D01*
X163290706Y-74692098D01*
X163377005Y-74734630D01*
X163459005Y-74774590D01*
X163533736Y-74810502D01*
X163598225Y-74840891D01*
X163630627Y-74855797D01*
X163870509Y-74960057D01*
X164103499Y-75051608D01*
X164332519Y-75131542D01*
X164536932Y-75194244D01*
X164638914Y-75224215D01*
X164737325Y-75254712D01*
X164833489Y-75286310D01*
X164928730Y-75319583D01*
X165024372Y-75355108D01*
X165121739Y-75393457D01*
X165222154Y-75435207D01*
X165326943Y-75480932D01*
X165437427Y-75531207D01*
X165554933Y-75586607D01*
X165680782Y-75647707D01*
X165816299Y-75715080D01*
X165962809Y-75789303D01*
X166121634Y-75870950D01*
X166255294Y-75940354D01*
X166393178Y-76012042D01*
X166517735Y-76076395D01*
X166630520Y-76134152D01*
X166733089Y-76186055D01*
X166826998Y-76232844D01*
X166913804Y-76275257D01*
X166995062Y-76314036D01*
X167072327Y-76349921D01*
X167147157Y-76383652D01*
X167221107Y-76415969D01*
X167295734Y-76447612D01*
X167372592Y-76479321D01*
X167453238Y-76511837D01*
X167474494Y-76520306D01*
X167907247Y-76683903D01*
X168340763Y-76830905D01*
X168774858Y-76961270D01*
X169209350Y-77074958D01*
X169644054Y-77171926D01*
X170078788Y-77252133D01*
X170513368Y-77315537D01*
X170947611Y-77362098D01*
X171309894Y-77388047D01*
X171357597Y-77390241D01*
X171418500Y-77392345D01*
X171489925Y-77394321D01*
X171569196Y-77396132D01*
X171653634Y-77397742D01*
X171740561Y-77399114D01*
X171827301Y-77400211D01*
X171911176Y-77400995D01*
X171989508Y-77401429D01*
X172059620Y-77401477D01*
X172118835Y-77401102D01*
X172164474Y-77400266D01*
X172173494Y-77399979D01*
X172580721Y-77378760D01*
X172978738Y-77344302D01*
X173369260Y-77296303D01*
X173754001Y-77234464D01*
X174134678Y-77158482D01*
X174513004Y-77068056D01*
X174890695Y-76962886D01*
X175183394Y-76871263D01*
X175404768Y-76796392D01*
X175619512Y-76718949D01*
X175830560Y-76637705D01*
X176040845Y-76551428D01*
X176253301Y-76458891D01*
X176470861Y-76358862D01*
X176696458Y-76250112D01*
X176861208Y-76167899D01*
X176965361Y-76115470D01*
X177062866Y-76066906D01*
X177155164Y-76021595D01*
X177243695Y-75978923D01*
X177329899Y-75938278D01*
X177415216Y-75899047D01*
X177501086Y-75860619D01*
X177588949Y-75822381D01*
X177680246Y-75783720D01*
X177776416Y-75744023D01*
X177878900Y-75702679D01*
X177989137Y-75659075D01*
X178108568Y-75612598D01*
X178238633Y-75562637D01*
X178380772Y-75508578D01*
X178536425Y-75449808D01*
X178650494Y-75406929D01*
X178825316Y-75341122D01*
X178985410Y-75280452D01*
X179132008Y-75224405D01*
X179266346Y-75172466D01*
X179389656Y-75124121D01*
X179503172Y-75078859D01*
X179608129Y-75036163D01*
X179705760Y-74995521D01*
X179797300Y-74956420D01*
X179883982Y-74918344D01*
X179967040Y-74880781D01*
X180047709Y-74843217D01*
X180127221Y-74805138D01*
X180206811Y-74766030D01*
X180287713Y-74725380D01*
X180288794Y-74724832D01*
X180346022Y-74695314D01*
X180408468Y-74662287D01*
X180473550Y-74627190D01*
X180538687Y-74591462D01*
X180601295Y-74556540D01*
X180658793Y-74523863D01*
X180708599Y-74494869D01*
X180748130Y-74470997D01*
X180771641Y-74455864D01*
X180800043Y-74436564D01*
X180781640Y-74398911D01*
X180761501Y-74367377D01*
X180730313Y-74330136D01*
X180691425Y-74290390D01*
X180648188Y-74251340D01*
X180603951Y-74216188D01*
X180562067Y-74188136D01*
X180559488Y-74186625D01*
X180288127Y-74031730D01*
X180026252Y-73887676D01*
X179771397Y-73753311D01*
X179521091Y-73627484D01*
X179272868Y-73509043D01*
X179024258Y-73396839D01*
X178772792Y-73289719D01*
X178516004Y-73186532D01*
X178251424Y-73086127D01*
X178023174Y-73003738D01*
X177804875Y-72928855D01*
X177573281Y-72853560D01*
X177331965Y-72778886D01*
X177084504Y-72705865D01*
X176834472Y-72635531D01*
X176585446Y-72568915D01*
X176341001Y-72507052D01*
X176127427Y-72456188D01*
X176071527Y-72442551D01*
X176011143Y-72426575D01*
X175952842Y-72410067D01*
X175903190Y-72394839D01*
X175894594Y-72392012D01*
X175761164Y-72340734D01*
X175641552Y-72280763D01*
X175535971Y-72212365D01*
X175444632Y-72135809D01*
X175367749Y-72051363D01*
X175305532Y-71959294D01*
X175258194Y-71859870D01*
X175225949Y-71753359D01*
X175209007Y-71640029D01*
X175207344Y-71524925D01*
X175220741Y-71403894D01*
X175248924Y-71290825D01*
X175291555Y-71186069D01*
X175348293Y-71089979D01*
X175418799Y-71002906D01*
X175502732Y-70925201D01*
X175599754Y-70857216D01*
X175709524Y-70799303D01*
X175831703Y-70751813D01*
X175965950Y-70715097D01*
X175996194Y-70708677D01*
X176041552Y-70700705D01*
X176102555Y-70691879D01*
X176177940Y-70682336D01*
X176266449Y-70672213D01*
X176366819Y-70661650D01*
X176477792Y-70650783D01*
X176598105Y-70639750D01*
X176726500Y-70628690D01*
X176732794Y-70628165D01*
X177286819Y-70588579D01*
X177832467Y-70562877D01*
X178371034Y-70551044D01*
X178903816Y-70553068D01*
X179432111Y-70568933D01*
X179890861Y-70594103D01*
X180404857Y-70635482D01*
X180917467Y-70691067D01*
X181427360Y-70760605D01*
X181933207Y-70843846D01*
X182433679Y-70940536D01*
X182927447Y-71050425D01*
X183413182Y-71173259D01*
X183889554Y-71308787D01*
X184239448Y-71418468D01*
X184288183Y-71434299D01*
X184331259Y-71448154D01*
X184366148Y-71459232D01*
X184390323Y-71466731D01*
X184401256Y-71469849D01*
X184401568Y-71469891D01*
X184407933Y-71462990D01*
X184421911Y-71443560D01*
X184442270Y-71413516D01*
X184467780Y-71374771D01*
X184497210Y-71329237D01*
X184529330Y-71278829D01*
X184562910Y-71225459D01*
X184596717Y-71171040D01*
X184629523Y-71117486D01*
X184649359Y-71084658D01*
X184814275Y-70793918D01*
X184963232Y-70497535D01*
X184964864Y-70493828D01*
X174287520Y-70493828D01*
X174278801Y-70632986D01*
X174257058Y-70778661D01*
X174222264Y-70931838D01*
X174174395Y-71093505D01*
X174113422Y-71264649D01*
X174097878Y-71304604D01*
X174000490Y-71528949D01*
X173889093Y-71743951D01*
X173763642Y-71949665D01*
X173624088Y-72146144D01*
X173470385Y-72333442D01*
X173302486Y-72511613D01*
X173120343Y-72680710D01*
X172923909Y-72840787D01*
X172713138Y-72991899D01*
X172499461Y-73127271D01*
X172380893Y-73195714D01*
X172272913Y-73252908D01*
X172173872Y-73299312D01*
X172082125Y-73335385D01*
X171996026Y-73361585D01*
X171913926Y-73378372D01*
X171834180Y-73386206D01*
X171755142Y-73385544D01*
X171675164Y-73376846D01*
X171631874Y-73369144D01*
X171503330Y-73336126D01*
X171370161Y-73287936D01*
X171233362Y-73225375D01*
X171093934Y-73149243D01*
X170952873Y-73060340D01*
X170811179Y-72959466D01*
X170669850Y-72847421D01*
X170529884Y-72725007D01*
X170392279Y-72593022D01*
X170258033Y-72452267D01*
X170128145Y-72303542D01*
X170003613Y-72147648D01*
X169885436Y-71985384D01*
X169860730Y-71949413D01*
X169746655Y-71772846D01*
X169645420Y-71598032D01*
X169557319Y-71425737D01*
X169482642Y-71256731D01*
X169421683Y-71091781D01*
X169374732Y-70931657D01*
X169342083Y-70777127D01*
X169324028Y-70628958D01*
X169320227Y-70527863D01*
X169328016Y-70366469D01*
X169351229Y-70211781D01*
X169389639Y-70064215D01*
X169443018Y-69924187D01*
X169511138Y-69792115D01*
X169593770Y-69668415D01*
X169690687Y-69553504D01*
X169801661Y-69447799D01*
X169926463Y-69351716D01*
X169985180Y-69312921D01*
X170021340Y-69291789D01*
X170069569Y-69266035D01*
X170126255Y-69237426D01*
X170187787Y-69207729D01*
X170250552Y-69178710D01*
X170310939Y-69152138D01*
X170331994Y-69143263D01*
X170555237Y-69057039D01*
X170775365Y-68985563D01*
X170995734Y-68927938D01*
X171219700Y-68883264D01*
X171403027Y-68856332D01*
X171469640Y-68849807D01*
X171549509Y-68844922D01*
X171639158Y-68841661D01*
X171735113Y-68840007D01*
X171833898Y-68839945D01*
X171932039Y-68841458D01*
X172026060Y-68844529D01*
X172112487Y-68849142D01*
X172187845Y-68855282D01*
X172230318Y-68860228D01*
X172479919Y-68901429D01*
X172720867Y-68956279D01*
X172955374Y-69025435D01*
X173185649Y-69109554D01*
X173413902Y-69209294D01*
X173430794Y-69217323D01*
X173578981Y-69295291D01*
X173712156Y-69380507D01*
X173830821Y-69473426D01*
X173935474Y-69574506D01*
X174026618Y-69684202D01*
X174104752Y-69802972D01*
X174136693Y-69861225D01*
X174192693Y-69982610D01*
X174235802Y-70105575D01*
X174265994Y-70231109D01*
X174283242Y-70360197D01*
X174287520Y-70493828D01*
X184964864Y-70493828D01*
X185096220Y-70195554D01*
X185213229Y-69888021D01*
X185314250Y-69574982D01*
X185399272Y-69256483D01*
X185468285Y-68932571D01*
X185521280Y-68603291D01*
X185558247Y-68268690D01*
X185579174Y-67928812D01*
X185584054Y-67583705D01*
X185572874Y-67233415D01*
X185550360Y-66927525D01*
X185511103Y-66578176D01*
X185457416Y-66223065D01*
X185389209Y-65861792D01*
X185306397Y-65493952D01*
X185208891Y-65119144D01*
X185096604Y-64736965D01*
X185024186Y-64510291D01*
X184904834Y-64170227D01*
X184774601Y-63843067D01*
X184633495Y-63528829D01*
X184481526Y-63227530D01*
X184318703Y-62939187D01*
X184145036Y-62663816D01*
X183960532Y-62401434D01*
X183765203Y-62152058D01*
X183646286Y-62012624D01*
X183565416Y-61923003D01*
X183477990Y-61830194D01*
X183386916Y-61737075D01*
X183295102Y-61646526D01*
X183205456Y-61561426D01*
X183120884Y-61484652D01*
X183059924Y-61432076D01*
X183037179Y-61411908D01*
X183021262Y-61395660D01*
X183015131Y-61386402D01*
X183015264Y-61385762D01*
X183023598Y-61379834D01*
X183044122Y-61367429D01*
X183074133Y-61350120D01*
X183110924Y-61329483D01*
X183129208Y-61319401D01*
X183252838Y-61249595D01*
X183385498Y-61171077D01*
X183523441Y-61086243D01*
X183662920Y-60997492D01*
X183800186Y-60907221D01*
X183931491Y-60817827D01*
X184053088Y-60731707D01*
X184089451Y-60705148D01*
X184378185Y-60482718D01*
X184653486Y-60250712D01*
X184915181Y-60009369D01*
X185163097Y-59758930D01*
X185397062Y-59499638D01*
X185616904Y-59231733D01*
X185822450Y-58955455D01*
X186013528Y-58671047D01*
X186189965Y-58378749D01*
X186351588Y-58078803D01*
X186498225Y-57771449D01*
X186629704Y-57456928D01*
X186745852Y-57135483D01*
X186825191Y-56881825D01*
X186912288Y-56555689D01*
X186983427Y-56227964D01*
X187038736Y-55897630D01*
X187078344Y-55563668D01*
X187102377Y-55225060D01*
X187110964Y-54880788D01*
X187107747Y-54632097D01*
X187089702Y-54283083D01*
X187055479Y-53936642D01*
X187005303Y-53593396D01*
X186939398Y-53253969D01*
X186857988Y-52918983D01*
X186761298Y-52589059D01*
X186649552Y-52264821D01*
X186522974Y-51946891D01*
X186381790Y-51635892D01*
X186226222Y-51332445D01*
X186056497Y-51037173D01*
X185872837Y-50750699D01*
X185675468Y-50473645D01*
X185550160Y-50311691D01*
X185356314Y-50079758D01*
X185149111Y-49852624D01*
X184931503Y-49633253D01*
X184706441Y-49424612D01*
X184476875Y-49229666D01*
X184459755Y-49215838D01*
X184182832Y-49003803D01*
X183896180Y-48805524D01*
X183600164Y-48621165D01*
X183295150Y-48450887D01*
X182981505Y-48294852D01*
X182659593Y-48153223D01*
X182329782Y-48026163D01*
X181992438Y-47913832D01*
X181647926Y-47816394D01*
X181296612Y-47734010D01*
X180980877Y-47673883D01*
X180809361Y-47644691D01*
X178964864Y-47644691D01*
X178784396Y-47674930D01*
X178424277Y-47743122D01*
X178073402Y-47825491D01*
X177731699Y-47922080D01*
X177399097Y-48032933D01*
X177075525Y-48158094D01*
X176760909Y-48297606D01*
X176455180Y-48451513D01*
X176158264Y-48619859D01*
X175870091Y-48802687D01*
X175590589Y-49000040D01*
X175319685Y-49211963D01*
X175057310Y-49438500D01*
X174803390Y-49679693D01*
X174557854Y-49935587D01*
X174320631Y-50206224D01*
X174091648Y-50491650D01*
X174033083Y-50568782D01*
X173966115Y-50659072D01*
X173909566Y-50737862D01*
X173862725Y-50806411D01*
X173824879Y-50865980D01*
X173795315Y-50917827D01*
X173773322Y-50963214D01*
X173758187Y-51003399D01*
X173749199Y-51039643D01*
X173745644Y-51073206D01*
X173745544Y-51077430D01*
X173748664Y-51121114D01*
X173760092Y-51159500D01*
X173780918Y-51193274D01*
X173812231Y-51223126D01*
X173855123Y-51249742D01*
X173910681Y-51273810D01*
X173979997Y-51296017D01*
X174064159Y-51317053D01*
X174155038Y-51335846D01*
X174232596Y-51351260D01*
X174306970Y-51367266D01*
X174380539Y-51384515D01*
X174455683Y-51403662D01*
X174534781Y-51425359D01*
X174620212Y-51450260D01*
X174714356Y-51479018D01*
X174819591Y-51512285D01*
X174938298Y-51550715D01*
X174940836Y-51551544D01*
X175049549Y-51586957D01*
X175142514Y-51617012D01*
X175220018Y-51641799D01*
X175282347Y-51661407D01*
X175329787Y-51675925D01*
X175362623Y-51685443D01*
X175381142Y-51690050D01*
X175385808Y-51690335D01*
X175389559Y-51681450D01*
X175397024Y-51661659D01*
X175403008Y-51645191D01*
X175438545Y-51564369D01*
X175488287Y-51481025D01*
X175552964Y-51394013D01*
X175592990Y-51346654D01*
X175612973Y-51325294D01*
X175643506Y-51294469D01*
X175682583Y-51256077D01*
X175728201Y-51212017D01*
X175778356Y-51164187D01*
X175831043Y-51114486D01*
X175884259Y-51064813D01*
X175935998Y-51017067D01*
X175984257Y-50973146D01*
X176027032Y-50934950D01*
X176034294Y-50928567D01*
X176279546Y-50724487D01*
X176532172Y-50535647D01*
X176792084Y-50362088D01*
X177059198Y-50203847D01*
X177333426Y-50060962D01*
X177614684Y-49933473D01*
X177902885Y-49821419D01*
X178197943Y-49724838D01*
X178499773Y-49643768D01*
X178808288Y-49578249D01*
X179123403Y-49528319D01*
X179150027Y-49524855D01*
X179423090Y-49496145D01*
X179699233Y-49479243D01*
X179974838Y-49474203D01*
X180246288Y-49481081D01*
X180509964Y-49499931D01*
X180547027Y-49503629D01*
X180856735Y-49544038D01*
X181162118Y-49600529D01*
X181462625Y-49672750D01*
X181757707Y-49760354D01*
X182046813Y-49862991D01*
X182329394Y-49980313D01*
X182604901Y-50111970D01*
X182872783Y-50257613D01*
X183132490Y-50416893D01*
X183383474Y-50589461D01*
X183625183Y-50774968D01*
X183857068Y-50973066D01*
X184078579Y-51183404D01*
X184289168Y-51405635D01*
X184488282Y-51639408D01*
X184675374Y-51884375D01*
X184849892Y-52140188D01*
X184947375Y-52297125D01*
X185101775Y-52570715D01*
X185240230Y-52849566D01*
X185362779Y-53133827D01*
X185469465Y-53423650D01*
X185560327Y-53719187D01*
X185635406Y-54020587D01*
X185694743Y-54328003D01*
X185738380Y-54641585D01*
X185766355Y-54961484D01*
X185778711Y-55287852D01*
X185779379Y-55383224D01*
X185771772Y-55705942D01*
X185748839Y-56021711D01*
X185710611Y-56330452D01*
X185657115Y-56632087D01*
X185588383Y-56926536D01*
X185504444Y-57213719D01*
X185405327Y-57493558D01*
X185291062Y-57765972D01*
X185161679Y-58030883D01*
X185017208Y-58288210D01*
X184857678Y-58537876D01*
X184683119Y-58779799D01*
X184493561Y-59013901D01*
X184368788Y-59154785D01*
X184317089Y-59209850D01*
X184255948Y-59272698D01*
X184188344Y-59340435D01*
X184117257Y-59410167D01*
X184045669Y-59478998D01*
X183976559Y-59544035D01*
X183912909Y-59602383D01*
X183857698Y-59651147D01*
X183857477Y-59651337D01*
X183616791Y-59848868D01*
X183362732Y-60038924D01*
X183094632Y-60221965D01*
X182811823Y-60398450D01*
X182560857Y-60542828D01*
X182510897Y-60570969D01*
X182474534Y-60592574D01*
X182450225Y-60608693D01*
X182436427Y-60620375D01*
X182431599Y-60628671D01*
X182431695Y-60630773D01*
X182434831Y-60650756D01*
X182438766Y-60685941D01*
X182443383Y-60734620D01*
X182448564Y-60795087D01*
X182454193Y-60865634D01*
X182460153Y-60944554D01*
X182466327Y-61030141D01*
X182472599Y-61120687D01*
X182478851Y-61214485D01*
X182484966Y-61309828D01*
X182490828Y-61405010D01*
X182496320Y-61498323D01*
X182501325Y-61588060D01*
X182505725Y-61672514D01*
X182509406Y-61749978D01*
X182511223Y-61792491D01*
X182513585Y-61863402D01*
X182515546Y-61948181D01*
X182517105Y-62044199D01*
X182518262Y-62148831D01*
X182519017Y-62259449D01*
X182519370Y-62373427D01*
X182519321Y-62488137D01*
X182518870Y-62600953D01*
X182518016Y-62709247D01*
X182516760Y-62810393D01*
X182515100Y-62901764D01*
X182513038Y-62980733D01*
X182511296Y-63028624D01*
X182496755Y-63308140D01*
X182476948Y-63586984D01*
X182452106Y-63863673D01*
X182422461Y-64136722D01*
X182388245Y-64404646D01*
X182349687Y-64665959D01*
X182307020Y-64919179D01*
X182260475Y-65162818D01*
X182210283Y-65395394D01*
X182156676Y-65615421D01*
X182099884Y-65821414D01*
X182052340Y-65975025D01*
X181967460Y-66213883D01*
X181873312Y-66438948D01*
X181769952Y-66650144D01*
X181657437Y-66847400D01*
X181535822Y-67030642D01*
X181405164Y-67199798D01*
X181265520Y-67354794D01*
X181116946Y-67495557D01*
X180959499Y-67622016D01*
X180793234Y-67734095D01*
X180618209Y-67831724D01*
X180615503Y-67833085D01*
X180485727Y-67893637D01*
X180351737Y-67946774D01*
X180212211Y-67992737D01*
X180065824Y-68031770D01*
X179911254Y-68064114D01*
X179747175Y-68090013D01*
X179572264Y-68109709D01*
X179385197Y-68123444D01*
X179184650Y-68131462D01*
X178973405Y-68134006D01*
X178763701Y-68131283D01*
X178552101Y-68123027D01*
X178337306Y-68109052D01*
X178118013Y-68089175D01*
X177892922Y-68063210D01*
X177660733Y-68030975D01*
X177420144Y-67992285D01*
X177169854Y-67946956D01*
X176908564Y-67894803D01*
X176634971Y-67835643D01*
X176347775Y-67769290D01*
X176275594Y-67752014D01*
X176088644Y-67707513D01*
X175914675Y-67667271D01*
X175750473Y-67630605D01*
X175592822Y-67596832D01*
X175438509Y-67565268D01*
X175284317Y-67535230D01*
X175127033Y-67506035D01*
X175069094Y-67495610D01*
X174527467Y-67407515D01*
X173982371Y-67335993D01*
X173433815Y-67281043D01*
X172881805Y-67242667D01*
X172326351Y-67220865D01*
X171767460Y-67215636D01*
X171205140Y-67226982D01*
X170639400Y-67254901D01*
X170070247Y-67299396D01*
X169802827Y-67325901D01*
X169439951Y-67367487D01*
X169078039Y-67415503D01*
X168714760Y-67470355D01*
X168347782Y-67532447D01*
X167974774Y-67602188D01*
X167593403Y-67679981D01*
X167201338Y-67766233D01*
X166983427Y-67816688D01*
X166748273Y-67870475D01*
X166525832Y-67917987D01*
X166313280Y-67959683D01*
X166107792Y-67996020D01*
X165906544Y-68027459D01*
X165706713Y-68054456D01*
X165505473Y-68077472D01*
X165300001Y-68096964D01*
X165213894Y-68104043D01*
X165068121Y-68114244D01*
X164920181Y-68122173D01*
X164772455Y-68127813D01*
X164627324Y-68131146D01*
X164487169Y-68132153D01*
X164354373Y-68130817D01*
X164231317Y-68127119D01*
X164120381Y-68121041D01*
X164028560Y-68113065D01*
X163797436Y-68081786D01*
X163578237Y-68038591D01*
X163370653Y-67983269D01*
X163174373Y-67915608D01*
X162989086Y-67835395D01*
X162814481Y-67742421D01*
X162650246Y-67636472D01*
X162496071Y-67517339D01*
X162351644Y-67384807D01*
X162216654Y-67238668D01*
X162090791Y-67078708D01*
X161973744Y-66904716D01*
X161865200Y-66716480D01*
X161806441Y-66601558D01*
X161739764Y-66456207D01*
X161674250Y-66295510D01*
X161610315Y-66121034D01*
X161548373Y-65934349D01*
X161488841Y-65737024D01*
X161432134Y-65530629D01*
X161378666Y-65316733D01*
X161328853Y-65096905D01*
X161283111Y-64872715D01*
X161241854Y-64645732D01*
X161205499Y-64417525D01*
X161180221Y-64235124D01*
X161154431Y-64021431D01*
X161132795Y-63810844D01*
X161115136Y-63600389D01*
X161101280Y-63387091D01*
X161091051Y-63167975D01*
X161084273Y-62940067D01*
X161080772Y-62700392D01*
X161080170Y-62537558D01*
X161080626Y-62386361D01*
X161082005Y-62242508D01*
X161084411Y-62103452D01*
X161087952Y-61966646D01*
X161092733Y-61829543D01*
X161098859Y-61689596D01*
X161106437Y-61544258D01*
X161115571Y-61390982D01*
X161126369Y-61227221D01*
X161138936Y-61050429D01*
X161145752Y-60958524D01*
X161150891Y-60889944D01*
X161155706Y-60825482D01*
X161160028Y-60767420D01*
X161163689Y-60718039D01*
X161166517Y-60679619D01*
X161168346Y-60654442D01*
X161168890Y-60646664D01*
X161171060Y-60614204D01*
X161018661Y-60533800D01*
X160911742Y-60477149D01*
X160817877Y-60426829D01*
X160734966Y-60381618D01*
X160660904Y-60340298D01*
X160593590Y-60301649D01*
X160530922Y-60264450D01*
X160470796Y-60227481D01*
X160411112Y-60189524D01*
X160349766Y-60149357D01*
X160307461Y-60121122D01*
X160064349Y-59948108D01*
X159830113Y-59761813D01*
X159605794Y-59563291D01*
X159392433Y-59353594D01*
X159191074Y-59133773D01*
X159002756Y-58904882D01*
X158828524Y-58667972D01*
X158743399Y-58541291D01*
X158579986Y-58274711D01*
X158431750Y-58000755D01*
X158298817Y-57719805D01*
X158181312Y-57432243D01*
X158079362Y-57138453D01*
X157993093Y-56838817D01*
X157922630Y-56533717D01*
X157868099Y-56223537D01*
X157829627Y-55908660D01*
X157814315Y-55717802D01*
X157810864Y-55649912D01*
X157808315Y-55569427D01*
X157806668Y-55480225D01*
X157805923Y-55386186D01*
X157806082Y-55291187D01*
X157807145Y-55199107D01*
X157809114Y-55113825D01*
X157811988Y-55039219D01*
X157814175Y-55000781D01*
X157843504Y-54682021D01*
X157888783Y-54367969D01*
X157949860Y-54059043D01*
X158026580Y-53755664D01*
X158118793Y-53458252D01*
X158226343Y-53167226D01*
X158349080Y-52883007D01*
X158486849Y-52606013D01*
X158639498Y-52336666D01*
X158806874Y-52075383D01*
X158955505Y-51866774D01*
X159133666Y-51640655D01*
X159327300Y-51418604D01*
X159535184Y-51201870D01*
X159756096Y-50991704D01*
X159988811Y-50789357D01*
X160091561Y-50705577D01*
X160345546Y-50512546D01*
X160604561Y-50335639D01*
X160868500Y-50174888D01*
X161137262Y-50030323D01*
X161410743Y-49901975D01*
X161688839Y-49789874D01*
X161971448Y-49694052D01*
X162258467Y-49614539D01*
X162549792Y-49551366D01*
X162845321Y-49504563D01*
X163144949Y-49474162D01*
X163448575Y-49460194D01*
X163756095Y-49462688D01*
X164067405Y-49481676D01*
X164163987Y-49490846D01*
X164437727Y-49524748D01*
X164711979Y-49569939D01*
X164985144Y-49625889D01*
X165255620Y-49692066D01*
X165521805Y-49767939D01*
X165782099Y-49852976D01*
X166034899Y-49946644D01*
X166278606Y-50048414D01*
X166511616Y-50157753D01*
X166732330Y-50274130D01*
X166939146Y-50397013D01*
X166987660Y-50428147D01*
X167196382Y-50573600D01*
X167394553Y-50730787D01*
X167581301Y-50898835D01*
X167755754Y-51076869D01*
X167917038Y-51264014D01*
X168064282Y-51459397D01*
X168159961Y-51602858D01*
X168180998Y-51636077D01*
X168198515Y-51663628D01*
X168210662Y-51682611D01*
X168215576Y-51690105D01*
X168223995Y-51688817D01*
X168245734Y-51683529D01*
X168277861Y-51675005D01*
X168317447Y-51664007D01*
X168335030Y-51658996D01*
X168369655Y-51649154D01*
X168418038Y-51635542D01*
X168477610Y-51618876D01*
X168545800Y-51599872D01*
X168620040Y-51579247D01*
X168697760Y-51557715D01*
X168776389Y-51535993D01*
X168792149Y-51531647D01*
X168958441Y-51485392D01*
X169112784Y-51441615D01*
X169254711Y-51400463D01*
X169383755Y-51362083D01*
X169499451Y-51326624D01*
X169601332Y-51294232D01*
X169688931Y-51265056D01*
X169761782Y-51239242D01*
X169819419Y-51216937D01*
X169861375Y-51198290D01*
X169881270Y-51187425D01*
X169923801Y-51153882D01*
X169950256Y-51116736D01*
X169960384Y-51076476D01*
X169956422Y-51041836D01*
X169944264Y-51008769D01*
X169924158Y-50973233D01*
X169894468Y-50932829D01*
X169853560Y-50885157D01*
X169838433Y-50868623D01*
X169813669Y-50839875D01*
X169782807Y-50801027D01*
X169748974Y-50756179D01*
X169715295Y-50709432D01*
X169697852Y-50684225D01*
X169490377Y-50393675D01*
X169272151Y-50116074D01*
X169043310Y-49851533D01*
X168803987Y-49600162D01*
X168554316Y-49362073D01*
X168294431Y-49137377D01*
X168024467Y-48926186D01*
X167744558Y-48728609D01*
X167454838Y-48544759D01*
X167155440Y-48374746D01*
X166846500Y-48218682D01*
X166572794Y-48095500D01*
X166378251Y-48015861D01*
X166182081Y-47942014D01*
X165981337Y-47873000D01*
X165773070Y-47807861D01*
X165554333Y-47745638D01*
X165322177Y-47685373D01*
X165277394Y-47674330D01*
X165203765Y-47656605D01*
X165137612Y-47641458D01*
X165076365Y-47628520D01*
X165017453Y-47617420D01*
X164958307Y-47607790D01*
X164896356Y-47599259D01*
X164829030Y-47591458D01*
X164753760Y-47584015D01*
X164667975Y-47576562D01*
X164569105Y-47568729D01*
X164515394Y-47564662D01*
X164243787Y-47548046D01*
X163964273Y-47538078D01*
X163680915Y-47534721D01*
X163397773Y-47537938D01*
G04 #@! TD*
D11*
G04 #@! TO.C,REF\002A\002A*
X225839385Y-85166224D03*
G04 #@! TD*
G04 #@! TO.C,REF\002A\002A*
X147839385Y-36166224D03*
G04 #@! TD*
D12*
G04 #@! TO.C,REF\002A\002A*
X79094385Y-33707811D03*
G04 #@! TD*
D13*
G04 #@! TO.C,J5*
X253336048Y-137593821D03*
X253336048Y-131993821D03*
D14*
X252836048Y-134793821D03*
D15*
X255836048Y-130593821D03*
X255836048Y-138993821D03*
D16*
X259836048Y-130093821D03*
X259836048Y-139493821D03*
D17*
X255836048Y-134793821D03*
X260336048Y-134793821D03*
G04 #@! TD*
D11*
G04 #@! TO.C,REF\002A\002A*
X221586048Y-106293821D03*
G04 #@! TD*
G04 #@! TO.C,REF\002A\002A*
X76586048Y-106293821D03*
G04 #@! TD*
G04 #@! TO.C,REF\002A\002A*
X225531059Y-43173119D03*
G04 #@! TD*
G04 #@! TO.C,REF\002A\002A*
X148031059Y-43173119D03*
G04 #@! TD*
D12*
G04 #@! TO.C,REF\002A\002A*
X207094385Y-33707811D03*
G04 #@! TD*
G04 #@! TO.C,REF\002A\002A*
X259594385Y-147707811D03*
G04 #@! TD*
D18*
G04 #@! TO.C,J7*
X217076385Y-36179726D03*
X219616385Y-36179726D03*
X217076385Y-38719726D03*
X219616385Y-38719726D03*
X217076385Y-41259726D03*
X219616385Y-41259726D03*
X217076385Y-43799726D03*
X219616385Y-43799726D03*
X217076385Y-46339726D03*
X219616385Y-46339726D03*
X217076385Y-48879726D03*
X219616385Y-48879726D03*
X217076385Y-51419726D03*
X219616385Y-51419726D03*
X217076385Y-53959726D03*
X219616385Y-53959726D03*
X217076385Y-56499726D03*
X219616385Y-56499726D03*
X217076385Y-59039726D03*
X219616385Y-59039726D03*
X217076385Y-61579726D03*
X219616385Y-61579726D03*
X217076385Y-64119726D03*
X219616385Y-64119726D03*
X217076385Y-66659726D03*
X219616385Y-66659726D03*
X217076385Y-69199726D03*
X219616385Y-69199726D03*
X217076385Y-71739726D03*
X219616385Y-71739726D03*
X217076385Y-74279726D03*
X219616385Y-74279726D03*
X217076385Y-76819726D03*
X219616385Y-76819726D03*
X217076385Y-79359726D03*
X219616385Y-79359726D03*
X217076385Y-81899726D03*
X219616385Y-81899726D03*
X217076385Y-84439726D03*
D19*
X219616385Y-84439726D03*
G04 #@! TD*
D18*
G04 #@! TO.C,J1*
X26618089Y-126624107D03*
X26618089Y-129164107D03*
X26618089Y-131704107D03*
D19*
X26618089Y-134244107D03*
G04 #@! TD*
D18*
G04 #@! TO.C,J8*
X178516385Y-93079726D03*
X178516385Y-90539726D03*
X181056385Y-93079726D03*
X181056385Y-90539726D03*
X183596385Y-93079726D03*
X183596385Y-90539726D03*
X186136385Y-93079726D03*
X186136385Y-90539726D03*
X188676385Y-93079726D03*
X188676385Y-90539726D03*
X191216385Y-93079726D03*
X191216385Y-90539726D03*
X193756385Y-93079726D03*
X193756385Y-90539726D03*
X196296385Y-93079726D03*
X196296385Y-90539726D03*
X198836385Y-93079726D03*
X198836385Y-90539726D03*
X201376385Y-93079726D03*
X201376385Y-90539726D03*
X203916385Y-93079726D03*
X203916385Y-90539726D03*
X206456385Y-93079726D03*
X206456385Y-90539726D03*
X208996385Y-93079726D03*
X208996385Y-90539726D03*
X211536385Y-93079726D03*
X211536385Y-90539726D03*
X214076385Y-93079726D03*
X214076385Y-90539726D03*
X216616385Y-93079726D03*
X216616385Y-90539726D03*
X219156385Y-93079726D03*
X219156385Y-90539726D03*
X221696385Y-93079726D03*
X221696385Y-90539726D03*
X224236385Y-93079726D03*
X224236385Y-90539726D03*
X226776385Y-93079726D03*
D19*
X226776385Y-90539726D03*
G04 #@! TD*
D20*
G04 #@! TO.C,D2*
X32467040Y-44671881D03*
X32467040Y-47971881D03*
G04 #@! TD*
G04 #@! TO.C,D3*
X32467040Y-61271881D03*
X32467040Y-64571881D03*
G04 #@! TD*
G04 #@! TO.C,D4*
X32467040Y-77871881D03*
X32467040Y-81171881D03*
G04 #@! TD*
G04 #@! TO.C,D5*
X32467040Y-94471881D03*
X32467040Y-97771881D03*
G04 #@! TD*
G04 #@! TO.C,D6*
X45067040Y-77871881D03*
X45067040Y-81171881D03*
G04 #@! TD*
G04 #@! TO.C,D7*
X45067040Y-94471881D03*
X45067040Y-97771881D03*
G04 #@! TD*
G04 #@! TO.C,D8*
X72267040Y-118470060D03*
X72267040Y-121770060D03*
G04 #@! TD*
G04 #@! TO.C,D9*
X65967040Y-135570060D03*
X65967040Y-138870060D03*
G04 #@! TD*
G04 #@! TO.C,D10*
X57667040Y-77871881D03*
X57667040Y-81171881D03*
G04 #@! TD*
G04 #@! TO.C,D11*
X57667040Y-94471881D03*
X57667040Y-97771881D03*
G04 #@! TD*
G04 #@! TO.C,D12*
X84867040Y-118470060D03*
X84867040Y-121770060D03*
G04 #@! TD*
G04 #@! TO.C,D13*
X78567040Y-135570060D03*
X78567040Y-138870060D03*
G04 #@! TD*
G04 #@! TO.C,D14*
X70267040Y-77871881D03*
X70267040Y-81171881D03*
G04 #@! TD*
G04 #@! TO.C,D15*
X70267040Y-94471881D03*
X70267040Y-97771881D03*
G04 #@! TD*
G04 #@! TO.C,D16*
X91167040Y-135570060D03*
X91167040Y-138870060D03*
G04 #@! TD*
G04 #@! TO.C,D17*
X82867040Y-77871881D03*
X82867040Y-81171881D03*
G04 #@! TD*
G04 #@! TO.C,D18*
X82886048Y-94471881D03*
X82886048Y-97771881D03*
G04 #@! TD*
G04 #@! TO.C,D19*
X110067040Y-118470060D03*
X110067040Y-121770060D03*
G04 #@! TD*
G04 #@! TO.C,D20*
X103767040Y-135570060D03*
X103767040Y-138870060D03*
G04 #@! TD*
G04 #@! TO.C,D21*
X95467040Y-77871881D03*
X95467040Y-81171881D03*
G04 #@! TD*
G04 #@! TO.C,D22*
X95467040Y-94471881D03*
X95467040Y-97771881D03*
G04 #@! TD*
G04 #@! TO.C,D23*
X122667040Y-118470060D03*
X122667040Y-121770060D03*
G04 #@! TD*
G04 #@! TO.C,D24*
X116367040Y-135570060D03*
X116367040Y-138870060D03*
G04 #@! TD*
G04 #@! TO.C,D25*
X108067040Y-77871881D03*
X108067040Y-81171881D03*
G04 #@! TD*
G04 #@! TO.C,D26*
X108067040Y-94471881D03*
X108067040Y-97771881D03*
G04 #@! TD*
G04 #@! TO.C,D27*
X135267040Y-118470060D03*
X135267040Y-121770060D03*
G04 #@! TD*
G04 #@! TO.C,D28*
X128967040Y-135570060D03*
X128967040Y-138870060D03*
G04 #@! TD*
G04 #@! TO.C,D29*
X120667040Y-77871881D03*
X120667040Y-81171881D03*
G04 #@! TD*
G04 #@! TO.C,D30*
X120667040Y-94471881D03*
X120667040Y-97771881D03*
G04 #@! TD*
G04 #@! TO.C,D31*
X141567040Y-135570060D03*
X141567040Y-138870060D03*
G04 #@! TD*
G04 #@! TO.C,D32*
X133267040Y-77871881D03*
X133267040Y-81171881D03*
G04 #@! TD*
G04 #@! TO.C,D33*
X133267040Y-94471881D03*
X133267040Y-97771881D03*
G04 #@! TD*
G04 #@! TO.C,D34*
X160467040Y-118470060D03*
X160467040Y-121770060D03*
G04 #@! TD*
G04 #@! TO.C,D35*
X154167040Y-135570060D03*
X154167040Y-138870060D03*
G04 #@! TD*
G04 #@! TO.C,D36*
X173067040Y-118470060D03*
X173067040Y-121770060D03*
G04 #@! TD*
G04 #@! TO.C,D37*
X166767040Y-135570060D03*
X166767040Y-138870060D03*
G04 #@! TD*
G04 #@! TO.C,D38*
X179367040Y-135570060D03*
X179367040Y-138870060D03*
G04 #@! TD*
G04 #@! TO.C,D39*
X198267040Y-118470060D03*
X198267040Y-121770060D03*
G04 #@! TD*
G04 #@! TO.C,D40*
X191967040Y-135570060D03*
X191967040Y-138870060D03*
G04 #@! TD*
G04 #@! TO.C,D41*
X253467040Y-93471881D03*
X253467040Y-96771881D03*
G04 #@! TD*
G04 #@! TO.C,D42*
X240867040Y-93471881D03*
X240867040Y-96771881D03*
G04 #@! TD*
G04 #@! TO.C,D43*
X210867040Y-118470060D03*
X210867040Y-121770060D03*
G04 #@! TD*
G04 #@! TO.C,D44*
X204567040Y-135570060D03*
X204567040Y-138870060D03*
G04 #@! TD*
G04 #@! TO.C,D45*
X253467040Y-76871881D03*
X253467040Y-80171881D03*
G04 #@! TD*
G04 #@! TO.C,D46*
X240867040Y-76871881D03*
X240867040Y-80171881D03*
G04 #@! TD*
G04 #@! TO.C,D47*
X223467040Y-118470060D03*
X223467040Y-121770060D03*
G04 #@! TD*
G04 #@! TO.C,D48*
X217167040Y-135570060D03*
X217167040Y-138870060D03*
G04 #@! TD*
G04 #@! TO.C,D49*
X253467040Y-60271881D03*
X253467040Y-63571881D03*
G04 #@! TD*
G04 #@! TO.C,D50*
X240867040Y-60271881D03*
X240867040Y-63571881D03*
G04 #@! TD*
G04 #@! TO.C,D51*
X229767040Y-135570060D03*
X229767040Y-138870060D03*
G04 #@! TD*
G04 #@! TO.C,D52*
X51367040Y-52971881D03*
X51367040Y-56271881D03*
G04 #@! TD*
G04 #@! TO.C,D53*
X76557903Y-52971881D03*
X76557903Y-56271881D03*
G04 #@! TD*
G04 #@! TO.C,D54*
X101776911Y-52893821D03*
X101776911Y-56193821D03*
G04 #@! TD*
G04 #@! TO.C,D55*
X126976911Y-52893821D03*
X126976911Y-56193821D03*
G04 #@! TD*
D21*
G04 #@! TO.C,SW51*
X53876911Y-47093821D03*
D22*
X51376911Y-47093821D03*
X48876911Y-47093821D03*
D23*
X56976911Y-54593821D03*
X45776911Y-54593821D03*
D22*
X53876911Y-61593821D03*
X48876911Y-61593821D03*
G04 #@! TD*
D21*
G04 #@! TO.C,SW52*
X79076911Y-47093821D03*
D22*
X76576911Y-47093821D03*
X74076911Y-47093821D03*
D23*
X82176911Y-54593821D03*
X70976911Y-54593821D03*
D22*
X79076911Y-61593821D03*
X74076911Y-61593821D03*
G04 #@! TD*
D21*
G04 #@! TO.C,SW53*
X104276911Y-47093821D03*
D22*
X101776911Y-47093821D03*
X99276911Y-47093821D03*
D23*
X107376911Y-54593821D03*
X96176911Y-54593821D03*
D22*
X104276911Y-61593821D03*
X99276911Y-61593821D03*
G04 #@! TD*
D21*
G04 #@! TO.C,SW54*
X129486048Y-47093821D03*
D22*
X126986048Y-47093821D03*
X124486048Y-47093821D03*
D23*
X132586048Y-54593821D03*
X121386048Y-54593821D03*
D22*
X129486048Y-61593821D03*
X124486048Y-61593821D03*
G04 #@! TD*
D12*
G04 #@! TO.C,REF\002A\002A*
X26594385Y-147707811D03*
G04 #@! TD*
D24*
G04 #@! TO.C,J2*
X234981059Y-32198119D03*
X241981059Y-32198119D03*
D25*
X235981059Y-34898119D03*
X240981059Y-34898119D03*
G04 #@! TD*
D26*
G04 #@! TO.C,SW55*
X242484385Y-40727811D03*
X238484385Y-40727811D03*
X234484385Y-40727811D03*
D22*
X232484385Y-36477811D03*
X244484385Y-36477811D03*
X244484385Y-42477811D03*
X232484385Y-42477811D03*
G04 #@! TD*
D27*
G04 #@! TO.C,U3*
X178436048Y-102633907D03*
X177136048Y-102633907D03*
X178436048Y-100033907D03*
X178436048Y-101333907D03*
X177136048Y-101333907D03*
X177136048Y-100033907D03*
G04 #@! TD*
D28*
G04 #@! TO.C,IC2*
X160150558Y-101364720D03*
D29*
G36*
X158939638Y-100931617D02*
X159717455Y-100153800D01*
X161361478Y-101797823D01*
X160583661Y-102575640D01*
X158939638Y-100931617D01*
X158939638Y-100931617D01*
G37*
D28*
X161048584Y-100466695D03*
D29*
G36*
X159837664Y-100033592D02*
X160615481Y-99255775D01*
X162259504Y-100899798D01*
X161481687Y-101677615D01*
X159837664Y-100033592D01*
X159837664Y-100033592D01*
G37*
D28*
X161946609Y-99568669D03*
D29*
G36*
X160735689Y-99135566D02*
X161513506Y-98357749D01*
X163157529Y-100001772D01*
X162379712Y-100779589D01*
X160735689Y-99135566D01*
X160735689Y-99135566D01*
G37*
D28*
X162844635Y-98670644D03*
D29*
G36*
X161633715Y-98237541D02*
X162411532Y-97459724D01*
X164055555Y-99103747D01*
X163277738Y-99881564D01*
X161633715Y-98237541D01*
X161633715Y-98237541D01*
G37*
D28*
X163742660Y-97772618D03*
D29*
G36*
X162531740Y-97339515D02*
X163309557Y-96561698D01*
X164953580Y-98205721D01*
X164175763Y-98983538D01*
X162531740Y-97339515D01*
X162531740Y-97339515D01*
G37*
D28*
X163742660Y-95633620D03*
D29*
G36*
X162531740Y-96066723D02*
X164175763Y-94422700D01*
X164953580Y-95200517D01*
X163309557Y-96844540D01*
X162531740Y-96066723D01*
X162531740Y-96066723D01*
G37*
D28*
X162844635Y-94735594D03*
D29*
G36*
X161633715Y-95168697D02*
X163277738Y-93524674D01*
X164055555Y-94302491D01*
X162411532Y-95946514D01*
X161633715Y-95168697D01*
X161633715Y-95168697D01*
G37*
D28*
X161946609Y-93837569D03*
D29*
G36*
X160735689Y-94270672D02*
X162379712Y-92626649D01*
X163157529Y-93404466D01*
X161513506Y-95048489D01*
X160735689Y-94270672D01*
X160735689Y-94270672D01*
G37*
D28*
X161048584Y-92939543D03*
D29*
G36*
X159837664Y-93372646D02*
X161481687Y-91728623D01*
X162259504Y-92506440D01*
X160615481Y-94150463D01*
X159837664Y-93372646D01*
X159837664Y-93372646D01*
G37*
D28*
X160150558Y-92041518D03*
D29*
G36*
X158939638Y-92474621D02*
X160583661Y-90830598D01*
X161361478Y-91608415D01*
X159717455Y-93252438D01*
X158939638Y-92474621D01*
X158939638Y-92474621D01*
G37*
D28*
X158011560Y-92041518D03*
D29*
G36*
X156800640Y-91608415D02*
X157578457Y-90830598D01*
X159222480Y-92474621D01*
X158444663Y-93252438D01*
X156800640Y-91608415D01*
X156800640Y-91608415D01*
G37*
D28*
X157113534Y-92939543D03*
D29*
G36*
X155902614Y-92506440D02*
X156680431Y-91728623D01*
X158324454Y-93372646D01*
X157546637Y-94150463D01*
X155902614Y-92506440D01*
X155902614Y-92506440D01*
G37*
D28*
X156215509Y-93837569D03*
D29*
G36*
X155004589Y-93404466D02*
X155782406Y-92626649D01*
X157426429Y-94270672D01*
X156648612Y-95048489D01*
X155004589Y-93404466D01*
X155004589Y-93404466D01*
G37*
D28*
X155317483Y-94735594D03*
D29*
G36*
X154106563Y-94302491D02*
X154884380Y-93524674D01*
X156528403Y-95168697D01*
X155750586Y-95946514D01*
X154106563Y-94302491D01*
X154106563Y-94302491D01*
G37*
D28*
X154419458Y-95633620D03*
D29*
G36*
X153208538Y-95200517D02*
X153986355Y-94422700D01*
X155630378Y-96066723D01*
X154852561Y-96844540D01*
X153208538Y-95200517D01*
X153208538Y-95200517D01*
G37*
D28*
X158011560Y-101364720D03*
D29*
G36*
X156800640Y-101797823D02*
X158444663Y-100153800D01*
X159222480Y-100931617D01*
X157578457Y-102575640D01*
X156800640Y-101797823D01*
X156800640Y-101797823D01*
G37*
D28*
X157113534Y-100466695D03*
D29*
G36*
X155902614Y-100899798D02*
X157546637Y-99255775D01*
X158324454Y-100033592D01*
X156680431Y-101677615D01*
X155902614Y-100899798D01*
X155902614Y-100899798D01*
G37*
D28*
X154419458Y-97772618D03*
D29*
G36*
X153208538Y-98205721D02*
X154852561Y-96561698D01*
X155630378Y-97339515D01*
X153986355Y-98983538D01*
X153208538Y-98205721D01*
X153208538Y-98205721D01*
G37*
D28*
X155317483Y-98670644D03*
D29*
G36*
X154106563Y-99103747D02*
X155750586Y-97459724D01*
X156528403Y-98237541D01*
X154884380Y-99881564D01*
X154106563Y-99103747D01*
X154106563Y-99103747D01*
G37*
D28*
X156215509Y-99568669D03*
D29*
G36*
X155004589Y-100001772D02*
X156648612Y-98357749D01*
X157426429Y-99135566D01*
X155782406Y-100779589D01*
X155004589Y-100001772D01*
X155004589Y-100001772D01*
G37*
G04 #@! TD*
D30*
G04 #@! TO.C,J3*
X171531059Y-107423119D03*
D31*
X174031059Y-107423119D03*
G04 #@! TD*
D11*
G04 #@! TO.C,REF\002A\002A*
X148031059Y-91423119D03*
G04 #@! TD*
D32*
G04 #@! TO.C,SW1*
X27986048Y-46293821D03*
X36986048Y-46293821D03*
D22*
X34986048Y-52793821D03*
X29986048Y-52793821D03*
X34986048Y-39793821D03*
X29986048Y-39793821D03*
G04 #@! TD*
D32*
G04 #@! TO.C,SW2*
X27986048Y-62893821D03*
X36986048Y-62893821D03*
D22*
X34986048Y-69393821D03*
X29986048Y-69393821D03*
X34986048Y-56393821D03*
X29986048Y-56393821D03*
G04 #@! TD*
D32*
G04 #@! TO.C,SW3*
X27986048Y-79493821D03*
X36986048Y-79493821D03*
D22*
X34986048Y-85993821D03*
X29986048Y-85993821D03*
X34986048Y-72993821D03*
X29986048Y-72993821D03*
G04 #@! TD*
D32*
G04 #@! TO.C,SW4*
X27986048Y-96093821D03*
X36986048Y-96093821D03*
D22*
X34986048Y-102593821D03*
X29986048Y-102593821D03*
X34986048Y-89593821D03*
X29986048Y-89593821D03*
G04 #@! TD*
D32*
G04 #@! TO.C,SW5*
X40586048Y-79493821D03*
X49586048Y-79493821D03*
D22*
X47586048Y-85993821D03*
X42586048Y-85993821D03*
X47586048Y-72993821D03*
X42586048Y-72993821D03*
G04 #@! TD*
D32*
G04 #@! TO.C,SW6*
X40586048Y-96093821D03*
X49586048Y-96093821D03*
D22*
X47586048Y-102593821D03*
X42586048Y-102593821D03*
X47586048Y-89593821D03*
X42586048Y-89593821D03*
G04 #@! TD*
D32*
G04 #@! TO.C,SW7*
X67786048Y-120092000D03*
X76786048Y-120092000D03*
D22*
X74786048Y-126592000D03*
X69786048Y-126592000D03*
X74786048Y-113592000D03*
X69786048Y-113592000D03*
G04 #@! TD*
D32*
G04 #@! TO.C,SW8*
X61486048Y-137192000D03*
X70486048Y-137192000D03*
D22*
X68486048Y-143692000D03*
X63486048Y-143692000D03*
X68486048Y-130692000D03*
X63486048Y-130692000D03*
G04 #@! TD*
D32*
G04 #@! TO.C,SW9*
X53186048Y-79493821D03*
X62186048Y-79493821D03*
D22*
X60186048Y-85993821D03*
X55186048Y-85993821D03*
X60186048Y-72993821D03*
X55186048Y-72993821D03*
G04 #@! TD*
D32*
G04 #@! TO.C,SW10*
X53186048Y-96093821D03*
X62186048Y-96093821D03*
D22*
X60186048Y-102593821D03*
X55186048Y-102593821D03*
X60186048Y-89593821D03*
X55186048Y-89593821D03*
G04 #@! TD*
D32*
G04 #@! TO.C,SW11*
X80386048Y-120092000D03*
X89386048Y-120092000D03*
D22*
X87386048Y-126592000D03*
X82386048Y-126592000D03*
X87386048Y-113592000D03*
X82386048Y-113592000D03*
G04 #@! TD*
D32*
G04 #@! TO.C,SW12*
X74086048Y-137192000D03*
X83086048Y-137192000D03*
D22*
X81086048Y-143692000D03*
X76086048Y-143692000D03*
X81086048Y-130692000D03*
X76086048Y-130692000D03*
G04 #@! TD*
D32*
G04 #@! TO.C,SW13*
X65786048Y-79493821D03*
X74786048Y-79493821D03*
D22*
X72786048Y-85993821D03*
X67786048Y-85993821D03*
X72786048Y-72993821D03*
X67786048Y-72993821D03*
G04 #@! TD*
D32*
G04 #@! TO.C,SW14*
X65786048Y-96093821D03*
X74786048Y-96093821D03*
D22*
X72786048Y-102593821D03*
X67786048Y-102593821D03*
X72786048Y-89593821D03*
X67786048Y-89593821D03*
G04 #@! TD*
D32*
G04 #@! TO.C,SW15*
X86686048Y-137192000D03*
X95686048Y-137192000D03*
D22*
X93686048Y-143692000D03*
X88686048Y-143692000D03*
X93686048Y-130692000D03*
X88686048Y-130692000D03*
G04 #@! TD*
D32*
G04 #@! TO.C,SW16*
X78386048Y-79493821D03*
X87386048Y-79493821D03*
D22*
X85386048Y-85993821D03*
X80386048Y-85993821D03*
X85386048Y-72993821D03*
X80386048Y-72993821D03*
G04 #@! TD*
D32*
G04 #@! TO.C,SW17*
X78386048Y-96093821D03*
X87386048Y-96093821D03*
D22*
X85386048Y-102593821D03*
X80386048Y-102593821D03*
X85386048Y-89593821D03*
X80386048Y-89593821D03*
G04 #@! TD*
D32*
G04 #@! TO.C,SW18*
X105586048Y-120092000D03*
X114586048Y-120092000D03*
D22*
X112586048Y-126592000D03*
X107586048Y-126592000D03*
X112586048Y-113592000D03*
X107586048Y-113592000D03*
G04 #@! TD*
D32*
G04 #@! TO.C,SW19*
X99286048Y-137192000D03*
X108286048Y-137192000D03*
D22*
X106286048Y-143692000D03*
X101286048Y-143692000D03*
X106286048Y-130692000D03*
X101286048Y-130692000D03*
G04 #@! TD*
D32*
G04 #@! TO.C,SW20*
X90986048Y-79493821D03*
X99986048Y-79493821D03*
D22*
X97986048Y-85993821D03*
X92986048Y-85993821D03*
X97986048Y-72993821D03*
X92986048Y-72993821D03*
G04 #@! TD*
D32*
G04 #@! TO.C,SW21*
X90986048Y-96093821D03*
X99986048Y-96093821D03*
D22*
X97986048Y-102593821D03*
X92986048Y-102593821D03*
X97986048Y-89593821D03*
X92986048Y-89593821D03*
G04 #@! TD*
D32*
G04 #@! TO.C,SW22*
X118186048Y-120092000D03*
X127186048Y-120092000D03*
D22*
X125186048Y-126592000D03*
X120186048Y-126592000D03*
X125186048Y-113592000D03*
X120186048Y-113592000D03*
G04 #@! TD*
D32*
G04 #@! TO.C,SW23*
X111886048Y-137192000D03*
X120886048Y-137192000D03*
D22*
X118886048Y-143692000D03*
X113886048Y-143692000D03*
X118886048Y-130692000D03*
X113886048Y-130692000D03*
G04 #@! TD*
D32*
G04 #@! TO.C,SW24*
X103586048Y-79493821D03*
X112586048Y-79493821D03*
D22*
X110586048Y-85993821D03*
X105586048Y-85993821D03*
X110586048Y-72993821D03*
X105586048Y-72993821D03*
G04 #@! TD*
D32*
G04 #@! TO.C,SW25*
X103586048Y-96093821D03*
X112586048Y-96093821D03*
D22*
X110586048Y-102593821D03*
X105586048Y-102593821D03*
X110586048Y-89593821D03*
X105586048Y-89593821D03*
G04 #@! TD*
D32*
G04 #@! TO.C,SW26*
X130786048Y-120092000D03*
X139786048Y-120092000D03*
D22*
X137786048Y-126592000D03*
X132786048Y-126592000D03*
X137786048Y-113592000D03*
X132786048Y-113592000D03*
G04 #@! TD*
D32*
G04 #@! TO.C,SW27*
X124486048Y-137192000D03*
X133486048Y-137192000D03*
D22*
X131486048Y-143692000D03*
X126486048Y-143692000D03*
X131486048Y-130692000D03*
X126486048Y-130692000D03*
G04 #@! TD*
D32*
G04 #@! TO.C,SW28*
X116186048Y-79493821D03*
X125186048Y-79493821D03*
D22*
X123186048Y-85993821D03*
X118186048Y-85993821D03*
X123186048Y-72993821D03*
X118186048Y-72993821D03*
G04 #@! TD*
D32*
G04 #@! TO.C,SW29*
X116186048Y-96093821D03*
X125186048Y-96093821D03*
D22*
X123186048Y-102593821D03*
X118186048Y-102593821D03*
X123186048Y-89593821D03*
X118186048Y-89593821D03*
G04 #@! TD*
D32*
G04 #@! TO.C,SW30*
X137086048Y-137192000D03*
X146086048Y-137192000D03*
D22*
X144086048Y-143692000D03*
X139086048Y-143692000D03*
X144086048Y-130692000D03*
X139086048Y-130692000D03*
G04 #@! TD*
D32*
G04 #@! TO.C,SW31*
X128786048Y-79493821D03*
X137786048Y-79493821D03*
D22*
X135786048Y-85993821D03*
X130786048Y-85993821D03*
X135786048Y-72993821D03*
X130786048Y-72993821D03*
G04 #@! TD*
D32*
G04 #@! TO.C,SW32*
X128786048Y-96093821D03*
X137786048Y-96093821D03*
D22*
X135786048Y-102593821D03*
X130786048Y-102593821D03*
X135786048Y-89593821D03*
X130786048Y-89593821D03*
G04 #@! TD*
D32*
G04 #@! TO.C,SW33*
X155986048Y-120092000D03*
X164986048Y-120092000D03*
D22*
X162986048Y-126592000D03*
X157986048Y-126592000D03*
X162986048Y-113592000D03*
X157986048Y-113592000D03*
G04 #@! TD*
D32*
G04 #@! TO.C,SW34*
X149686048Y-137192000D03*
X158686048Y-137192000D03*
D22*
X156686048Y-143692000D03*
X151686048Y-143692000D03*
X156686048Y-130692000D03*
X151686048Y-130692000D03*
G04 #@! TD*
D32*
G04 #@! TO.C,SW35*
X168586048Y-120092000D03*
X177586048Y-120092000D03*
D22*
X175586048Y-126592000D03*
X170586048Y-126592000D03*
X175586048Y-113592000D03*
X170586048Y-113592000D03*
G04 #@! TD*
D32*
G04 #@! TO.C,SW36*
X162286048Y-137192000D03*
X171286048Y-137192000D03*
D22*
X169286048Y-143692000D03*
X164286048Y-143692000D03*
X169286048Y-130692000D03*
X164286048Y-130692000D03*
G04 #@! TD*
D32*
G04 #@! TO.C,SW37*
X174886048Y-137192000D03*
X183886048Y-137192000D03*
D22*
X181886048Y-143692000D03*
X176886048Y-143692000D03*
X181886048Y-130692000D03*
X176886048Y-130692000D03*
G04 #@! TD*
D32*
G04 #@! TO.C,SW38*
X193786048Y-120092000D03*
X202786048Y-120092000D03*
D22*
X200786048Y-126592000D03*
X195786048Y-126592000D03*
X200786048Y-113592000D03*
X195786048Y-113592000D03*
G04 #@! TD*
D32*
G04 #@! TO.C,SW39*
X187486048Y-137192000D03*
X196486048Y-137192000D03*
D22*
X194486048Y-143692000D03*
X189486048Y-143692000D03*
X194486048Y-130692000D03*
X189486048Y-130692000D03*
G04 #@! TD*
D32*
G04 #@! TO.C,SW40*
X248986048Y-95093821D03*
X257986048Y-95093821D03*
D22*
X255986048Y-101593821D03*
X250986048Y-101593821D03*
X255986048Y-88593821D03*
X250986048Y-88593821D03*
G04 #@! TD*
D32*
G04 #@! TO.C,SW41*
X236386048Y-95093821D03*
X245386048Y-95093821D03*
D22*
X243386048Y-101593821D03*
X238386048Y-101593821D03*
X243386048Y-88593821D03*
X238386048Y-88593821D03*
G04 #@! TD*
D32*
G04 #@! TO.C,SW42*
X206386048Y-120092000D03*
X215386048Y-120092000D03*
D22*
X213386048Y-126592000D03*
X208386048Y-126592000D03*
X213386048Y-113592000D03*
X208386048Y-113592000D03*
G04 #@! TD*
D32*
G04 #@! TO.C,SW43*
X200086048Y-137192000D03*
X209086048Y-137192000D03*
D22*
X207086048Y-143692000D03*
X202086048Y-143692000D03*
X207086048Y-130692000D03*
X202086048Y-130692000D03*
G04 #@! TD*
D32*
G04 #@! TO.C,SW44*
X248986048Y-78493821D03*
X257986048Y-78493821D03*
D22*
X255986048Y-84993821D03*
X250986048Y-84993821D03*
X255986048Y-71993821D03*
X250986048Y-71993821D03*
G04 #@! TD*
D32*
G04 #@! TO.C,SW45*
X236386048Y-78493821D03*
X245386048Y-78493821D03*
D22*
X243386048Y-84993821D03*
X238386048Y-84993821D03*
X243386048Y-71993821D03*
X238386048Y-71993821D03*
G04 #@! TD*
D32*
G04 #@! TO.C,SW46*
X218986048Y-120092000D03*
X227986048Y-120092000D03*
D22*
X225986048Y-126592000D03*
X220986048Y-126592000D03*
X225986048Y-113592000D03*
X220986048Y-113592000D03*
G04 #@! TD*
D32*
G04 #@! TO.C,SW47*
X212686048Y-137192000D03*
X221686048Y-137192000D03*
D22*
X219686048Y-143692000D03*
X214686048Y-143692000D03*
X219686048Y-130692000D03*
X214686048Y-130692000D03*
G04 #@! TD*
D32*
G04 #@! TO.C,SW48*
X248986048Y-61893821D03*
X257986048Y-61893821D03*
D22*
X255986048Y-68393821D03*
X250986048Y-68393821D03*
X255986048Y-55393821D03*
X250986048Y-55393821D03*
G04 #@! TD*
D32*
G04 #@! TO.C,SW49*
X236386048Y-61893821D03*
X245386048Y-61893821D03*
D22*
X243386048Y-68393821D03*
X238386048Y-68393821D03*
X243386048Y-55393821D03*
X238386048Y-55393821D03*
G04 #@! TD*
D32*
G04 #@! TO.C,SW50*
X225286048Y-137192000D03*
X234286048Y-137192000D03*
D22*
X232286048Y-143692000D03*
X227286048Y-143692000D03*
X232286048Y-130692000D03*
X227286048Y-130692000D03*
G04 #@! TD*
D18*
G04 #@! TO.C,J4*
X248524385Y-104477811D03*
X245984385Y-104477811D03*
X243444385Y-104477811D03*
D19*
X240904385Y-104477811D03*
G04 #@! TD*
D30*
G04 #@! TO.C,J6*
X243234385Y-124227811D03*
D31*
X240734385Y-124227811D03*
G04 #@! TD*
D29*
G04 #@! TO.C,R31*
G36*
X259049328Y-116329466D02*
X259082697Y-116334416D01*
X259115420Y-116342613D01*
X259147182Y-116353977D01*
X259177678Y-116368401D01*
X259206612Y-116385743D01*
X259233708Y-116405839D01*
X259258703Y-116428493D01*
X259281357Y-116453488D01*
X259301453Y-116480584D01*
X259318795Y-116509518D01*
X259333219Y-116540014D01*
X259344583Y-116571776D01*
X259352780Y-116604499D01*
X259357730Y-116637868D01*
X259359385Y-116671561D01*
X259359385Y-117784061D01*
X259357730Y-117817754D01*
X259352780Y-117851123D01*
X259344583Y-117883846D01*
X259333219Y-117915608D01*
X259318795Y-117946104D01*
X259301453Y-117975038D01*
X259281357Y-118002134D01*
X259258703Y-118027129D01*
X259233708Y-118049783D01*
X259206612Y-118069879D01*
X259177678Y-118087221D01*
X259147182Y-118101645D01*
X259115420Y-118113009D01*
X259082697Y-118121206D01*
X259049328Y-118126156D01*
X259015635Y-118127811D01*
X258328135Y-118127811D01*
X258294442Y-118126156D01*
X258261073Y-118121206D01*
X258228350Y-118113009D01*
X258196588Y-118101645D01*
X258166092Y-118087221D01*
X258137158Y-118069879D01*
X258110062Y-118049783D01*
X258085067Y-118027129D01*
X258062413Y-118002134D01*
X258042317Y-117975038D01*
X258024975Y-117946104D01*
X258010551Y-117915608D01*
X257999187Y-117883846D01*
X257990990Y-117851123D01*
X257986040Y-117817754D01*
X257984385Y-117784061D01*
X257984385Y-116671561D01*
X257986040Y-116637868D01*
X257990990Y-116604499D01*
X257999187Y-116571776D01*
X258010551Y-116540014D01*
X258024975Y-116509518D01*
X258042317Y-116480584D01*
X258062413Y-116453488D01*
X258085067Y-116428493D01*
X258110062Y-116405839D01*
X258137158Y-116385743D01*
X258166092Y-116368401D01*
X258196588Y-116353977D01*
X258228350Y-116342613D01*
X258261073Y-116334416D01*
X258294442Y-116329466D01*
X258328135Y-116327811D01*
X259015635Y-116327811D01*
X259049328Y-116329466D01*
X259049328Y-116329466D01*
G37*
D33*
X258671885Y-117227811D03*
D29*
G36*
X257174328Y-116329466D02*
X257207697Y-116334416D01*
X257240420Y-116342613D01*
X257272182Y-116353977D01*
X257302678Y-116368401D01*
X257331612Y-116385743D01*
X257358708Y-116405839D01*
X257383703Y-116428493D01*
X257406357Y-116453488D01*
X257426453Y-116480584D01*
X257443795Y-116509518D01*
X257458219Y-116540014D01*
X257469583Y-116571776D01*
X257477780Y-116604499D01*
X257482730Y-116637868D01*
X257484385Y-116671561D01*
X257484385Y-117784061D01*
X257482730Y-117817754D01*
X257477780Y-117851123D01*
X257469583Y-117883846D01*
X257458219Y-117915608D01*
X257443795Y-117946104D01*
X257426453Y-117975038D01*
X257406357Y-118002134D01*
X257383703Y-118027129D01*
X257358708Y-118049783D01*
X257331612Y-118069879D01*
X257302678Y-118087221D01*
X257272182Y-118101645D01*
X257240420Y-118113009D01*
X257207697Y-118121206D01*
X257174328Y-118126156D01*
X257140635Y-118127811D01*
X256453135Y-118127811D01*
X256419442Y-118126156D01*
X256386073Y-118121206D01*
X256353350Y-118113009D01*
X256321588Y-118101645D01*
X256291092Y-118087221D01*
X256262158Y-118069879D01*
X256235062Y-118049783D01*
X256210067Y-118027129D01*
X256187413Y-118002134D01*
X256167317Y-117975038D01*
X256149975Y-117946104D01*
X256135551Y-117915608D01*
X256124187Y-117883846D01*
X256115990Y-117851123D01*
X256111040Y-117817754D01*
X256109385Y-117784061D01*
X256109385Y-116671561D01*
X256111040Y-116637868D01*
X256115990Y-116604499D01*
X256124187Y-116571776D01*
X256135551Y-116540014D01*
X256149975Y-116509518D01*
X256167317Y-116480584D01*
X256187413Y-116453488D01*
X256210067Y-116428493D01*
X256235062Y-116405839D01*
X256262158Y-116385743D01*
X256291092Y-116368401D01*
X256321588Y-116353977D01*
X256353350Y-116342613D01*
X256386073Y-116334416D01*
X256419442Y-116329466D01*
X256453135Y-116327811D01*
X257140635Y-116327811D01*
X257174328Y-116329466D01*
X257174328Y-116329466D01*
G37*
D33*
X256796885Y-117227811D03*
G04 #@! TD*
D29*
G04 #@! TO.C,R32*
G36*
X258324328Y-121480957D02*
X258357697Y-121485907D01*
X258390420Y-121494104D01*
X258422182Y-121505468D01*
X258452678Y-121519892D01*
X258481612Y-121537234D01*
X258508708Y-121557330D01*
X258533703Y-121579984D01*
X258556357Y-121604979D01*
X258576453Y-121632075D01*
X258593795Y-121661009D01*
X258608219Y-121691505D01*
X258619583Y-121723267D01*
X258627780Y-121755990D01*
X258632730Y-121789359D01*
X258634385Y-121823052D01*
X258634385Y-122510552D01*
X258632730Y-122544245D01*
X258627780Y-122577614D01*
X258619583Y-122610337D01*
X258608219Y-122642099D01*
X258593795Y-122672595D01*
X258576453Y-122701529D01*
X258556357Y-122728625D01*
X258533703Y-122753620D01*
X258508708Y-122776274D01*
X258481612Y-122796370D01*
X258452678Y-122813712D01*
X258422182Y-122828136D01*
X258390420Y-122839500D01*
X258357697Y-122847697D01*
X258324328Y-122852647D01*
X258290635Y-122854302D01*
X257178135Y-122854302D01*
X257144442Y-122852647D01*
X257111073Y-122847697D01*
X257078350Y-122839500D01*
X257046588Y-122828136D01*
X257016092Y-122813712D01*
X256987158Y-122796370D01*
X256960062Y-122776274D01*
X256935067Y-122753620D01*
X256912413Y-122728625D01*
X256892317Y-122701529D01*
X256874975Y-122672595D01*
X256860551Y-122642099D01*
X256849187Y-122610337D01*
X256840990Y-122577614D01*
X256836040Y-122544245D01*
X256834385Y-122510552D01*
X256834385Y-121823052D01*
X256836040Y-121789359D01*
X256840990Y-121755990D01*
X256849187Y-121723267D01*
X256860551Y-121691505D01*
X256874975Y-121661009D01*
X256892317Y-121632075D01*
X256912413Y-121604979D01*
X256935067Y-121579984D01*
X256960062Y-121557330D01*
X256987158Y-121537234D01*
X257016092Y-121519892D01*
X257046588Y-121505468D01*
X257078350Y-121494104D01*
X257111073Y-121485907D01*
X257144442Y-121480957D01*
X257178135Y-121479302D01*
X258290635Y-121479302D01*
X258324328Y-121480957D01*
X258324328Y-121480957D01*
G37*
D33*
X257734385Y-122166802D03*
D29*
G36*
X258324328Y-119605957D02*
X258357697Y-119610907D01*
X258390420Y-119619104D01*
X258422182Y-119630468D01*
X258452678Y-119644892D01*
X258481612Y-119662234D01*
X258508708Y-119682330D01*
X258533703Y-119704984D01*
X258556357Y-119729979D01*
X258576453Y-119757075D01*
X258593795Y-119786009D01*
X258608219Y-119816505D01*
X258619583Y-119848267D01*
X258627780Y-119880990D01*
X258632730Y-119914359D01*
X258634385Y-119948052D01*
X258634385Y-120635552D01*
X258632730Y-120669245D01*
X258627780Y-120702614D01*
X258619583Y-120735337D01*
X258608219Y-120767099D01*
X258593795Y-120797595D01*
X258576453Y-120826529D01*
X258556357Y-120853625D01*
X258533703Y-120878620D01*
X258508708Y-120901274D01*
X258481612Y-120921370D01*
X258452678Y-120938712D01*
X258422182Y-120953136D01*
X258390420Y-120964500D01*
X258357697Y-120972697D01*
X258324328Y-120977647D01*
X258290635Y-120979302D01*
X257178135Y-120979302D01*
X257144442Y-120977647D01*
X257111073Y-120972697D01*
X257078350Y-120964500D01*
X257046588Y-120953136D01*
X257016092Y-120938712D01*
X256987158Y-120921370D01*
X256960062Y-120901274D01*
X256935067Y-120878620D01*
X256912413Y-120853625D01*
X256892317Y-120826529D01*
X256874975Y-120797595D01*
X256860551Y-120767099D01*
X256849187Y-120735337D01*
X256840990Y-120702614D01*
X256836040Y-120669245D01*
X256834385Y-120635552D01*
X256834385Y-119948052D01*
X256836040Y-119914359D01*
X256840990Y-119880990D01*
X256849187Y-119848267D01*
X256860551Y-119816505D01*
X256874975Y-119786009D01*
X256892317Y-119757075D01*
X256912413Y-119729979D01*
X256935067Y-119704984D01*
X256960062Y-119682330D01*
X256987158Y-119662234D01*
X257016092Y-119644892D01*
X257046588Y-119630468D01*
X257078350Y-119619104D01*
X257111073Y-119610907D01*
X257144442Y-119605957D01*
X257178135Y-119604302D01*
X258290635Y-119604302D01*
X258324328Y-119605957D01*
X258324328Y-119605957D01*
G37*
D33*
X257734385Y-120291802D03*
G04 #@! TD*
D29*
G04 #@! TO.C,C11*
G36*
X127726328Y-40161381D02*
X127759697Y-40166331D01*
X127792420Y-40174528D01*
X127824182Y-40185892D01*
X127854678Y-40200316D01*
X127883612Y-40217658D01*
X127910708Y-40237754D01*
X127935703Y-40260408D01*
X127958357Y-40285403D01*
X127978453Y-40312499D01*
X127995795Y-40341433D01*
X128010219Y-40371929D01*
X128021583Y-40403691D01*
X128029780Y-40436414D01*
X128034730Y-40469783D01*
X128036385Y-40503476D01*
X128036385Y-41190976D01*
X128034730Y-41224669D01*
X128029780Y-41258038D01*
X128021583Y-41290761D01*
X128010219Y-41322523D01*
X127995795Y-41353019D01*
X127978453Y-41381953D01*
X127958357Y-41409049D01*
X127935703Y-41434044D01*
X127910708Y-41456698D01*
X127883612Y-41476794D01*
X127854678Y-41494136D01*
X127824182Y-41508560D01*
X127792420Y-41519924D01*
X127759697Y-41528121D01*
X127726328Y-41533071D01*
X127692635Y-41534726D01*
X126580135Y-41534726D01*
X126546442Y-41533071D01*
X126513073Y-41528121D01*
X126480350Y-41519924D01*
X126448588Y-41508560D01*
X126418092Y-41494136D01*
X126389158Y-41476794D01*
X126362062Y-41456698D01*
X126337067Y-41434044D01*
X126314413Y-41409049D01*
X126294317Y-41381953D01*
X126276975Y-41353019D01*
X126262551Y-41322523D01*
X126251187Y-41290761D01*
X126242990Y-41258038D01*
X126238040Y-41224669D01*
X126236385Y-41190976D01*
X126236385Y-40503476D01*
X126238040Y-40469783D01*
X126242990Y-40436414D01*
X126251187Y-40403691D01*
X126262551Y-40371929D01*
X126276975Y-40341433D01*
X126294317Y-40312499D01*
X126314413Y-40285403D01*
X126337067Y-40260408D01*
X126362062Y-40237754D01*
X126389158Y-40217658D01*
X126418092Y-40200316D01*
X126448588Y-40185892D01*
X126480350Y-40174528D01*
X126513073Y-40166331D01*
X126546442Y-40161381D01*
X126580135Y-40159726D01*
X127692635Y-40159726D01*
X127726328Y-40161381D01*
X127726328Y-40161381D01*
G37*
D33*
X127136385Y-40847226D03*
D29*
G36*
X127726328Y-38286381D02*
X127759697Y-38291331D01*
X127792420Y-38299528D01*
X127824182Y-38310892D01*
X127854678Y-38325316D01*
X127883612Y-38342658D01*
X127910708Y-38362754D01*
X127935703Y-38385408D01*
X127958357Y-38410403D01*
X127978453Y-38437499D01*
X127995795Y-38466433D01*
X128010219Y-38496929D01*
X128021583Y-38528691D01*
X128029780Y-38561414D01*
X128034730Y-38594783D01*
X128036385Y-38628476D01*
X128036385Y-39315976D01*
X128034730Y-39349669D01*
X128029780Y-39383038D01*
X128021583Y-39415761D01*
X128010219Y-39447523D01*
X127995795Y-39478019D01*
X127978453Y-39506953D01*
X127958357Y-39534049D01*
X127935703Y-39559044D01*
X127910708Y-39581698D01*
X127883612Y-39601794D01*
X127854678Y-39619136D01*
X127824182Y-39633560D01*
X127792420Y-39644924D01*
X127759697Y-39653121D01*
X127726328Y-39658071D01*
X127692635Y-39659726D01*
X126580135Y-39659726D01*
X126546442Y-39658071D01*
X126513073Y-39653121D01*
X126480350Y-39644924D01*
X126448588Y-39633560D01*
X126418092Y-39619136D01*
X126389158Y-39601794D01*
X126362062Y-39581698D01*
X126337067Y-39559044D01*
X126314413Y-39534049D01*
X126294317Y-39506953D01*
X126276975Y-39478019D01*
X126262551Y-39447523D01*
X126251187Y-39415761D01*
X126242990Y-39383038D01*
X126238040Y-39349669D01*
X126236385Y-39315976D01*
X126236385Y-38628476D01*
X126238040Y-38594783D01*
X126242990Y-38561414D01*
X126251187Y-38528691D01*
X126262551Y-38496929D01*
X126276975Y-38466433D01*
X126294317Y-38437499D01*
X126314413Y-38410403D01*
X126337067Y-38385408D01*
X126362062Y-38362754D01*
X126389158Y-38342658D01*
X126418092Y-38325316D01*
X126448588Y-38310892D01*
X126480350Y-38299528D01*
X126513073Y-38291331D01*
X126546442Y-38286381D01*
X126580135Y-38284726D01*
X127692635Y-38284726D01*
X127726328Y-38286381D01*
X127726328Y-38286381D01*
G37*
D33*
X127136385Y-38972226D03*
G04 #@! TD*
D29*
G04 #@! TO.C,R3*
G36*
X43516854Y-46195476D02*
X43550223Y-46200426D01*
X43582946Y-46208623D01*
X43614708Y-46219987D01*
X43645204Y-46234411D01*
X43674138Y-46251753D01*
X43701234Y-46271849D01*
X43726229Y-46294503D01*
X43748883Y-46319498D01*
X43768979Y-46346594D01*
X43786321Y-46375528D01*
X43800745Y-46406024D01*
X43812109Y-46437786D01*
X43820306Y-46470509D01*
X43825256Y-46503878D01*
X43826911Y-46537571D01*
X43826911Y-47650071D01*
X43825256Y-47683764D01*
X43820306Y-47717133D01*
X43812109Y-47749856D01*
X43800745Y-47781618D01*
X43786321Y-47812114D01*
X43768979Y-47841048D01*
X43748883Y-47868144D01*
X43726229Y-47893139D01*
X43701234Y-47915793D01*
X43674138Y-47935889D01*
X43645204Y-47953231D01*
X43614708Y-47967655D01*
X43582946Y-47979019D01*
X43550223Y-47987216D01*
X43516854Y-47992166D01*
X43483161Y-47993821D01*
X42795661Y-47993821D01*
X42761968Y-47992166D01*
X42728599Y-47987216D01*
X42695876Y-47979019D01*
X42664114Y-47967655D01*
X42633618Y-47953231D01*
X42604684Y-47935889D01*
X42577588Y-47915793D01*
X42552593Y-47893139D01*
X42529939Y-47868144D01*
X42509843Y-47841048D01*
X42492501Y-47812114D01*
X42478077Y-47781618D01*
X42466713Y-47749856D01*
X42458516Y-47717133D01*
X42453566Y-47683764D01*
X42451911Y-47650071D01*
X42451911Y-46537571D01*
X42453566Y-46503878D01*
X42458516Y-46470509D01*
X42466713Y-46437786D01*
X42478077Y-46406024D01*
X42492501Y-46375528D01*
X42509843Y-46346594D01*
X42529939Y-46319498D01*
X42552593Y-46294503D01*
X42577588Y-46271849D01*
X42604684Y-46251753D01*
X42633618Y-46234411D01*
X42664114Y-46219987D01*
X42695876Y-46208623D01*
X42728599Y-46200426D01*
X42761968Y-46195476D01*
X42795661Y-46193821D01*
X43483161Y-46193821D01*
X43516854Y-46195476D01*
X43516854Y-46195476D01*
G37*
D33*
X43139411Y-47093821D03*
D29*
G36*
X45391854Y-46195476D02*
X45425223Y-46200426D01*
X45457946Y-46208623D01*
X45489708Y-46219987D01*
X45520204Y-46234411D01*
X45549138Y-46251753D01*
X45576234Y-46271849D01*
X45601229Y-46294503D01*
X45623883Y-46319498D01*
X45643979Y-46346594D01*
X45661321Y-46375528D01*
X45675745Y-46406024D01*
X45687109Y-46437786D01*
X45695306Y-46470509D01*
X45700256Y-46503878D01*
X45701911Y-46537571D01*
X45701911Y-47650071D01*
X45700256Y-47683764D01*
X45695306Y-47717133D01*
X45687109Y-47749856D01*
X45675745Y-47781618D01*
X45661321Y-47812114D01*
X45643979Y-47841048D01*
X45623883Y-47868144D01*
X45601229Y-47893139D01*
X45576234Y-47915793D01*
X45549138Y-47935889D01*
X45520204Y-47953231D01*
X45489708Y-47967655D01*
X45457946Y-47979019D01*
X45425223Y-47987216D01*
X45391854Y-47992166D01*
X45358161Y-47993821D01*
X44670661Y-47993821D01*
X44636968Y-47992166D01*
X44603599Y-47987216D01*
X44570876Y-47979019D01*
X44539114Y-47967655D01*
X44508618Y-47953231D01*
X44479684Y-47935889D01*
X44452588Y-47915793D01*
X44427593Y-47893139D01*
X44404939Y-47868144D01*
X44384843Y-47841048D01*
X44367501Y-47812114D01*
X44353077Y-47781618D01*
X44341713Y-47749856D01*
X44333516Y-47717133D01*
X44328566Y-47683764D01*
X44326911Y-47650071D01*
X44326911Y-46537571D01*
X44328566Y-46503878D01*
X44333516Y-46470509D01*
X44341713Y-46437786D01*
X44353077Y-46406024D01*
X44367501Y-46375528D01*
X44384843Y-46346594D01*
X44404939Y-46319498D01*
X44427593Y-46294503D01*
X44452588Y-46271849D01*
X44479684Y-46251753D01*
X44508618Y-46234411D01*
X44539114Y-46219987D01*
X44570876Y-46208623D01*
X44603599Y-46200426D01*
X44636968Y-46195476D01*
X44670661Y-46193821D01*
X45358161Y-46193821D01*
X45391854Y-46195476D01*
X45391854Y-46195476D01*
G37*
D33*
X45014411Y-47093821D03*
G04 #@! TD*
D29*
G04 #@! TO.C,R4*
G36*
X68691854Y-46195476D02*
X68725223Y-46200426D01*
X68757946Y-46208623D01*
X68789708Y-46219987D01*
X68820204Y-46234411D01*
X68849138Y-46251753D01*
X68876234Y-46271849D01*
X68901229Y-46294503D01*
X68923883Y-46319498D01*
X68943979Y-46346594D01*
X68961321Y-46375528D01*
X68975745Y-46406024D01*
X68987109Y-46437786D01*
X68995306Y-46470509D01*
X69000256Y-46503878D01*
X69001911Y-46537571D01*
X69001911Y-47650071D01*
X69000256Y-47683764D01*
X68995306Y-47717133D01*
X68987109Y-47749856D01*
X68975745Y-47781618D01*
X68961321Y-47812114D01*
X68943979Y-47841048D01*
X68923883Y-47868144D01*
X68901229Y-47893139D01*
X68876234Y-47915793D01*
X68849138Y-47935889D01*
X68820204Y-47953231D01*
X68789708Y-47967655D01*
X68757946Y-47979019D01*
X68725223Y-47987216D01*
X68691854Y-47992166D01*
X68658161Y-47993821D01*
X67970661Y-47993821D01*
X67936968Y-47992166D01*
X67903599Y-47987216D01*
X67870876Y-47979019D01*
X67839114Y-47967655D01*
X67808618Y-47953231D01*
X67779684Y-47935889D01*
X67752588Y-47915793D01*
X67727593Y-47893139D01*
X67704939Y-47868144D01*
X67684843Y-47841048D01*
X67667501Y-47812114D01*
X67653077Y-47781618D01*
X67641713Y-47749856D01*
X67633516Y-47717133D01*
X67628566Y-47683764D01*
X67626911Y-47650071D01*
X67626911Y-46537571D01*
X67628566Y-46503878D01*
X67633516Y-46470509D01*
X67641713Y-46437786D01*
X67653077Y-46406024D01*
X67667501Y-46375528D01*
X67684843Y-46346594D01*
X67704939Y-46319498D01*
X67727593Y-46294503D01*
X67752588Y-46271849D01*
X67779684Y-46251753D01*
X67808618Y-46234411D01*
X67839114Y-46219987D01*
X67870876Y-46208623D01*
X67903599Y-46200426D01*
X67936968Y-46195476D01*
X67970661Y-46193821D01*
X68658161Y-46193821D01*
X68691854Y-46195476D01*
X68691854Y-46195476D01*
G37*
D33*
X68314411Y-47093821D03*
D29*
G36*
X70566854Y-46195476D02*
X70600223Y-46200426D01*
X70632946Y-46208623D01*
X70664708Y-46219987D01*
X70695204Y-46234411D01*
X70724138Y-46251753D01*
X70751234Y-46271849D01*
X70776229Y-46294503D01*
X70798883Y-46319498D01*
X70818979Y-46346594D01*
X70836321Y-46375528D01*
X70850745Y-46406024D01*
X70862109Y-46437786D01*
X70870306Y-46470509D01*
X70875256Y-46503878D01*
X70876911Y-46537571D01*
X70876911Y-47650071D01*
X70875256Y-47683764D01*
X70870306Y-47717133D01*
X70862109Y-47749856D01*
X70850745Y-47781618D01*
X70836321Y-47812114D01*
X70818979Y-47841048D01*
X70798883Y-47868144D01*
X70776229Y-47893139D01*
X70751234Y-47915793D01*
X70724138Y-47935889D01*
X70695204Y-47953231D01*
X70664708Y-47967655D01*
X70632946Y-47979019D01*
X70600223Y-47987216D01*
X70566854Y-47992166D01*
X70533161Y-47993821D01*
X69845661Y-47993821D01*
X69811968Y-47992166D01*
X69778599Y-47987216D01*
X69745876Y-47979019D01*
X69714114Y-47967655D01*
X69683618Y-47953231D01*
X69654684Y-47935889D01*
X69627588Y-47915793D01*
X69602593Y-47893139D01*
X69579939Y-47868144D01*
X69559843Y-47841048D01*
X69542501Y-47812114D01*
X69528077Y-47781618D01*
X69516713Y-47749856D01*
X69508516Y-47717133D01*
X69503566Y-47683764D01*
X69501911Y-47650071D01*
X69501911Y-46537571D01*
X69503566Y-46503878D01*
X69508516Y-46470509D01*
X69516713Y-46437786D01*
X69528077Y-46406024D01*
X69542501Y-46375528D01*
X69559843Y-46346594D01*
X69579939Y-46319498D01*
X69602593Y-46294503D01*
X69627588Y-46271849D01*
X69654684Y-46251753D01*
X69683618Y-46234411D01*
X69714114Y-46219987D01*
X69745876Y-46208623D01*
X69778599Y-46200426D01*
X69811968Y-46195476D01*
X69845661Y-46193821D01*
X70533161Y-46193821D01*
X70566854Y-46195476D01*
X70566854Y-46195476D01*
G37*
D33*
X70189411Y-47093821D03*
G04 #@! TD*
D29*
G04 #@! TO.C,R5*
G36*
X93916854Y-46195476D02*
X93950223Y-46200426D01*
X93982946Y-46208623D01*
X94014708Y-46219987D01*
X94045204Y-46234411D01*
X94074138Y-46251753D01*
X94101234Y-46271849D01*
X94126229Y-46294503D01*
X94148883Y-46319498D01*
X94168979Y-46346594D01*
X94186321Y-46375528D01*
X94200745Y-46406024D01*
X94212109Y-46437786D01*
X94220306Y-46470509D01*
X94225256Y-46503878D01*
X94226911Y-46537571D01*
X94226911Y-47650071D01*
X94225256Y-47683764D01*
X94220306Y-47717133D01*
X94212109Y-47749856D01*
X94200745Y-47781618D01*
X94186321Y-47812114D01*
X94168979Y-47841048D01*
X94148883Y-47868144D01*
X94126229Y-47893139D01*
X94101234Y-47915793D01*
X94074138Y-47935889D01*
X94045204Y-47953231D01*
X94014708Y-47967655D01*
X93982946Y-47979019D01*
X93950223Y-47987216D01*
X93916854Y-47992166D01*
X93883161Y-47993821D01*
X93195661Y-47993821D01*
X93161968Y-47992166D01*
X93128599Y-47987216D01*
X93095876Y-47979019D01*
X93064114Y-47967655D01*
X93033618Y-47953231D01*
X93004684Y-47935889D01*
X92977588Y-47915793D01*
X92952593Y-47893139D01*
X92929939Y-47868144D01*
X92909843Y-47841048D01*
X92892501Y-47812114D01*
X92878077Y-47781618D01*
X92866713Y-47749856D01*
X92858516Y-47717133D01*
X92853566Y-47683764D01*
X92851911Y-47650071D01*
X92851911Y-46537571D01*
X92853566Y-46503878D01*
X92858516Y-46470509D01*
X92866713Y-46437786D01*
X92878077Y-46406024D01*
X92892501Y-46375528D01*
X92909843Y-46346594D01*
X92929939Y-46319498D01*
X92952593Y-46294503D01*
X92977588Y-46271849D01*
X93004684Y-46251753D01*
X93033618Y-46234411D01*
X93064114Y-46219987D01*
X93095876Y-46208623D01*
X93128599Y-46200426D01*
X93161968Y-46195476D01*
X93195661Y-46193821D01*
X93883161Y-46193821D01*
X93916854Y-46195476D01*
X93916854Y-46195476D01*
G37*
D33*
X93539411Y-47093821D03*
D29*
G36*
X95791854Y-46195476D02*
X95825223Y-46200426D01*
X95857946Y-46208623D01*
X95889708Y-46219987D01*
X95920204Y-46234411D01*
X95949138Y-46251753D01*
X95976234Y-46271849D01*
X96001229Y-46294503D01*
X96023883Y-46319498D01*
X96043979Y-46346594D01*
X96061321Y-46375528D01*
X96075745Y-46406024D01*
X96087109Y-46437786D01*
X96095306Y-46470509D01*
X96100256Y-46503878D01*
X96101911Y-46537571D01*
X96101911Y-47650071D01*
X96100256Y-47683764D01*
X96095306Y-47717133D01*
X96087109Y-47749856D01*
X96075745Y-47781618D01*
X96061321Y-47812114D01*
X96043979Y-47841048D01*
X96023883Y-47868144D01*
X96001229Y-47893139D01*
X95976234Y-47915793D01*
X95949138Y-47935889D01*
X95920204Y-47953231D01*
X95889708Y-47967655D01*
X95857946Y-47979019D01*
X95825223Y-47987216D01*
X95791854Y-47992166D01*
X95758161Y-47993821D01*
X95070661Y-47993821D01*
X95036968Y-47992166D01*
X95003599Y-47987216D01*
X94970876Y-47979019D01*
X94939114Y-47967655D01*
X94908618Y-47953231D01*
X94879684Y-47935889D01*
X94852588Y-47915793D01*
X94827593Y-47893139D01*
X94804939Y-47868144D01*
X94784843Y-47841048D01*
X94767501Y-47812114D01*
X94753077Y-47781618D01*
X94741713Y-47749856D01*
X94733516Y-47717133D01*
X94728566Y-47683764D01*
X94726911Y-47650071D01*
X94726911Y-46537571D01*
X94728566Y-46503878D01*
X94733516Y-46470509D01*
X94741713Y-46437786D01*
X94753077Y-46406024D01*
X94767501Y-46375528D01*
X94784843Y-46346594D01*
X94804939Y-46319498D01*
X94827593Y-46294503D01*
X94852588Y-46271849D01*
X94879684Y-46251753D01*
X94908618Y-46234411D01*
X94939114Y-46219987D01*
X94970876Y-46208623D01*
X95003599Y-46200426D01*
X95036968Y-46195476D01*
X95070661Y-46193821D01*
X95758161Y-46193821D01*
X95791854Y-46195476D01*
X95791854Y-46195476D01*
G37*
D33*
X95414411Y-47093821D03*
G04 #@! TD*
D29*
G04 #@! TO.C,R6*
G36*
X119091854Y-46195476D02*
X119125223Y-46200426D01*
X119157946Y-46208623D01*
X119189708Y-46219987D01*
X119220204Y-46234411D01*
X119249138Y-46251753D01*
X119276234Y-46271849D01*
X119301229Y-46294503D01*
X119323883Y-46319498D01*
X119343979Y-46346594D01*
X119361321Y-46375528D01*
X119375745Y-46406024D01*
X119387109Y-46437786D01*
X119395306Y-46470509D01*
X119400256Y-46503878D01*
X119401911Y-46537571D01*
X119401911Y-47650071D01*
X119400256Y-47683764D01*
X119395306Y-47717133D01*
X119387109Y-47749856D01*
X119375745Y-47781618D01*
X119361321Y-47812114D01*
X119343979Y-47841048D01*
X119323883Y-47868144D01*
X119301229Y-47893139D01*
X119276234Y-47915793D01*
X119249138Y-47935889D01*
X119220204Y-47953231D01*
X119189708Y-47967655D01*
X119157946Y-47979019D01*
X119125223Y-47987216D01*
X119091854Y-47992166D01*
X119058161Y-47993821D01*
X118370661Y-47993821D01*
X118336968Y-47992166D01*
X118303599Y-47987216D01*
X118270876Y-47979019D01*
X118239114Y-47967655D01*
X118208618Y-47953231D01*
X118179684Y-47935889D01*
X118152588Y-47915793D01*
X118127593Y-47893139D01*
X118104939Y-47868144D01*
X118084843Y-47841048D01*
X118067501Y-47812114D01*
X118053077Y-47781618D01*
X118041713Y-47749856D01*
X118033516Y-47717133D01*
X118028566Y-47683764D01*
X118026911Y-47650071D01*
X118026911Y-46537571D01*
X118028566Y-46503878D01*
X118033516Y-46470509D01*
X118041713Y-46437786D01*
X118053077Y-46406024D01*
X118067501Y-46375528D01*
X118084843Y-46346594D01*
X118104939Y-46319498D01*
X118127593Y-46294503D01*
X118152588Y-46271849D01*
X118179684Y-46251753D01*
X118208618Y-46234411D01*
X118239114Y-46219987D01*
X118270876Y-46208623D01*
X118303599Y-46200426D01*
X118336968Y-46195476D01*
X118370661Y-46193821D01*
X119058161Y-46193821D01*
X119091854Y-46195476D01*
X119091854Y-46195476D01*
G37*
D33*
X118714411Y-47093821D03*
D29*
G36*
X120966854Y-46195476D02*
X121000223Y-46200426D01*
X121032946Y-46208623D01*
X121064708Y-46219987D01*
X121095204Y-46234411D01*
X121124138Y-46251753D01*
X121151234Y-46271849D01*
X121176229Y-46294503D01*
X121198883Y-46319498D01*
X121218979Y-46346594D01*
X121236321Y-46375528D01*
X121250745Y-46406024D01*
X121262109Y-46437786D01*
X121270306Y-46470509D01*
X121275256Y-46503878D01*
X121276911Y-46537571D01*
X121276911Y-47650071D01*
X121275256Y-47683764D01*
X121270306Y-47717133D01*
X121262109Y-47749856D01*
X121250745Y-47781618D01*
X121236321Y-47812114D01*
X121218979Y-47841048D01*
X121198883Y-47868144D01*
X121176229Y-47893139D01*
X121151234Y-47915793D01*
X121124138Y-47935889D01*
X121095204Y-47953231D01*
X121064708Y-47967655D01*
X121032946Y-47979019D01*
X121000223Y-47987216D01*
X120966854Y-47992166D01*
X120933161Y-47993821D01*
X120245661Y-47993821D01*
X120211968Y-47992166D01*
X120178599Y-47987216D01*
X120145876Y-47979019D01*
X120114114Y-47967655D01*
X120083618Y-47953231D01*
X120054684Y-47935889D01*
X120027588Y-47915793D01*
X120002593Y-47893139D01*
X119979939Y-47868144D01*
X119959843Y-47841048D01*
X119942501Y-47812114D01*
X119928077Y-47781618D01*
X119916713Y-47749856D01*
X119908516Y-47717133D01*
X119903566Y-47683764D01*
X119901911Y-47650071D01*
X119901911Y-46537571D01*
X119903566Y-46503878D01*
X119908516Y-46470509D01*
X119916713Y-46437786D01*
X119928077Y-46406024D01*
X119942501Y-46375528D01*
X119959843Y-46346594D01*
X119979939Y-46319498D01*
X120002593Y-46294503D01*
X120027588Y-46271849D01*
X120054684Y-46251753D01*
X120083618Y-46234411D01*
X120114114Y-46219987D01*
X120145876Y-46208623D01*
X120178599Y-46200426D01*
X120211968Y-46195476D01*
X120245661Y-46193821D01*
X120933161Y-46193821D01*
X120966854Y-46195476D01*
X120966854Y-46195476D01*
G37*
D33*
X120589411Y-47093821D03*
G04 #@! TD*
D29*
G04 #@! TO.C,R7*
G36*
X132926328Y-38286381D02*
X132959697Y-38291331D01*
X132992420Y-38299528D01*
X133024182Y-38310892D01*
X133054678Y-38325316D01*
X133083612Y-38342658D01*
X133110708Y-38362754D01*
X133135703Y-38385408D01*
X133158357Y-38410403D01*
X133178453Y-38437499D01*
X133195795Y-38466433D01*
X133210219Y-38496929D01*
X133221583Y-38528691D01*
X133229780Y-38561414D01*
X133234730Y-38594783D01*
X133236385Y-38628476D01*
X133236385Y-39315976D01*
X133234730Y-39349669D01*
X133229780Y-39383038D01*
X133221583Y-39415761D01*
X133210219Y-39447523D01*
X133195795Y-39478019D01*
X133178453Y-39506953D01*
X133158357Y-39534049D01*
X133135703Y-39559044D01*
X133110708Y-39581698D01*
X133083612Y-39601794D01*
X133054678Y-39619136D01*
X133024182Y-39633560D01*
X132992420Y-39644924D01*
X132959697Y-39653121D01*
X132926328Y-39658071D01*
X132892635Y-39659726D01*
X131780135Y-39659726D01*
X131746442Y-39658071D01*
X131713073Y-39653121D01*
X131680350Y-39644924D01*
X131648588Y-39633560D01*
X131618092Y-39619136D01*
X131589158Y-39601794D01*
X131562062Y-39581698D01*
X131537067Y-39559044D01*
X131514413Y-39534049D01*
X131494317Y-39506953D01*
X131476975Y-39478019D01*
X131462551Y-39447523D01*
X131451187Y-39415761D01*
X131442990Y-39383038D01*
X131438040Y-39349669D01*
X131436385Y-39315976D01*
X131436385Y-38628476D01*
X131438040Y-38594783D01*
X131442990Y-38561414D01*
X131451187Y-38528691D01*
X131462551Y-38496929D01*
X131476975Y-38466433D01*
X131494317Y-38437499D01*
X131514413Y-38410403D01*
X131537067Y-38385408D01*
X131562062Y-38362754D01*
X131589158Y-38342658D01*
X131618092Y-38325316D01*
X131648588Y-38310892D01*
X131680350Y-38299528D01*
X131713073Y-38291331D01*
X131746442Y-38286381D01*
X131780135Y-38284726D01*
X132892635Y-38284726D01*
X132926328Y-38286381D01*
X132926328Y-38286381D01*
G37*
D33*
X132336385Y-38972226D03*
D29*
G36*
X132926328Y-40161381D02*
X132959697Y-40166331D01*
X132992420Y-40174528D01*
X133024182Y-40185892D01*
X133054678Y-40200316D01*
X133083612Y-40217658D01*
X133110708Y-40237754D01*
X133135703Y-40260408D01*
X133158357Y-40285403D01*
X133178453Y-40312499D01*
X133195795Y-40341433D01*
X133210219Y-40371929D01*
X133221583Y-40403691D01*
X133229780Y-40436414D01*
X133234730Y-40469783D01*
X133236385Y-40503476D01*
X133236385Y-41190976D01*
X133234730Y-41224669D01*
X133229780Y-41258038D01*
X133221583Y-41290761D01*
X133210219Y-41322523D01*
X133195795Y-41353019D01*
X133178453Y-41381953D01*
X133158357Y-41409049D01*
X133135703Y-41434044D01*
X133110708Y-41456698D01*
X133083612Y-41476794D01*
X133054678Y-41494136D01*
X133024182Y-41508560D01*
X132992420Y-41519924D01*
X132959697Y-41528121D01*
X132926328Y-41533071D01*
X132892635Y-41534726D01*
X131780135Y-41534726D01*
X131746442Y-41533071D01*
X131713073Y-41528121D01*
X131680350Y-41519924D01*
X131648588Y-41508560D01*
X131618092Y-41494136D01*
X131589158Y-41476794D01*
X131562062Y-41456698D01*
X131537067Y-41434044D01*
X131514413Y-41409049D01*
X131494317Y-41381953D01*
X131476975Y-41353019D01*
X131462551Y-41322523D01*
X131451187Y-41290761D01*
X131442990Y-41258038D01*
X131438040Y-41224669D01*
X131436385Y-41190976D01*
X131436385Y-40503476D01*
X131438040Y-40469783D01*
X131442990Y-40436414D01*
X131451187Y-40403691D01*
X131462551Y-40371929D01*
X131476975Y-40341433D01*
X131494317Y-40312499D01*
X131514413Y-40285403D01*
X131537067Y-40260408D01*
X131562062Y-40237754D01*
X131589158Y-40217658D01*
X131618092Y-40200316D01*
X131648588Y-40185892D01*
X131680350Y-40174528D01*
X131713073Y-40166331D01*
X131746442Y-40161381D01*
X131780135Y-40159726D01*
X132892635Y-40159726D01*
X132926328Y-40161381D01*
X132926328Y-40161381D01*
G37*
D33*
X132336385Y-40847226D03*
G04 #@! TD*
D29*
G04 #@! TO.C,R12*
G36*
X130126328Y-40161381D02*
X130159697Y-40166331D01*
X130192420Y-40174528D01*
X130224182Y-40185892D01*
X130254678Y-40200316D01*
X130283612Y-40217658D01*
X130310708Y-40237754D01*
X130335703Y-40260408D01*
X130358357Y-40285403D01*
X130378453Y-40312499D01*
X130395795Y-40341433D01*
X130410219Y-40371929D01*
X130421583Y-40403691D01*
X130429780Y-40436414D01*
X130434730Y-40469783D01*
X130436385Y-40503476D01*
X130436385Y-41190976D01*
X130434730Y-41224669D01*
X130429780Y-41258038D01*
X130421583Y-41290761D01*
X130410219Y-41322523D01*
X130395795Y-41353019D01*
X130378453Y-41381953D01*
X130358357Y-41409049D01*
X130335703Y-41434044D01*
X130310708Y-41456698D01*
X130283612Y-41476794D01*
X130254678Y-41494136D01*
X130224182Y-41508560D01*
X130192420Y-41519924D01*
X130159697Y-41528121D01*
X130126328Y-41533071D01*
X130092635Y-41534726D01*
X128980135Y-41534726D01*
X128946442Y-41533071D01*
X128913073Y-41528121D01*
X128880350Y-41519924D01*
X128848588Y-41508560D01*
X128818092Y-41494136D01*
X128789158Y-41476794D01*
X128762062Y-41456698D01*
X128737067Y-41434044D01*
X128714413Y-41409049D01*
X128694317Y-41381953D01*
X128676975Y-41353019D01*
X128662551Y-41322523D01*
X128651187Y-41290761D01*
X128642990Y-41258038D01*
X128638040Y-41224669D01*
X128636385Y-41190976D01*
X128636385Y-40503476D01*
X128638040Y-40469783D01*
X128642990Y-40436414D01*
X128651187Y-40403691D01*
X128662551Y-40371929D01*
X128676975Y-40341433D01*
X128694317Y-40312499D01*
X128714413Y-40285403D01*
X128737067Y-40260408D01*
X128762062Y-40237754D01*
X128789158Y-40217658D01*
X128818092Y-40200316D01*
X128848588Y-40185892D01*
X128880350Y-40174528D01*
X128913073Y-40166331D01*
X128946442Y-40161381D01*
X128980135Y-40159726D01*
X130092635Y-40159726D01*
X130126328Y-40161381D01*
X130126328Y-40161381D01*
G37*
D33*
X129536385Y-40847226D03*
D29*
G36*
X130126328Y-38286381D02*
X130159697Y-38291331D01*
X130192420Y-38299528D01*
X130224182Y-38310892D01*
X130254678Y-38325316D01*
X130283612Y-38342658D01*
X130310708Y-38362754D01*
X130335703Y-38385408D01*
X130358357Y-38410403D01*
X130378453Y-38437499D01*
X130395795Y-38466433D01*
X130410219Y-38496929D01*
X130421583Y-38528691D01*
X130429780Y-38561414D01*
X130434730Y-38594783D01*
X130436385Y-38628476D01*
X130436385Y-39315976D01*
X130434730Y-39349669D01*
X130429780Y-39383038D01*
X130421583Y-39415761D01*
X130410219Y-39447523D01*
X130395795Y-39478019D01*
X130378453Y-39506953D01*
X130358357Y-39534049D01*
X130335703Y-39559044D01*
X130310708Y-39581698D01*
X130283612Y-39601794D01*
X130254678Y-39619136D01*
X130224182Y-39633560D01*
X130192420Y-39644924D01*
X130159697Y-39653121D01*
X130126328Y-39658071D01*
X130092635Y-39659726D01*
X128980135Y-39659726D01*
X128946442Y-39658071D01*
X128913073Y-39653121D01*
X128880350Y-39644924D01*
X128848588Y-39633560D01*
X128818092Y-39619136D01*
X128789158Y-39601794D01*
X128762062Y-39581698D01*
X128737067Y-39559044D01*
X128714413Y-39534049D01*
X128694317Y-39506953D01*
X128676975Y-39478019D01*
X128662551Y-39447523D01*
X128651187Y-39415761D01*
X128642990Y-39383038D01*
X128638040Y-39349669D01*
X128636385Y-39315976D01*
X128636385Y-38628476D01*
X128638040Y-38594783D01*
X128642990Y-38561414D01*
X128651187Y-38528691D01*
X128662551Y-38496929D01*
X128676975Y-38466433D01*
X128694317Y-38437499D01*
X128714413Y-38410403D01*
X128737067Y-38385408D01*
X128762062Y-38362754D01*
X128789158Y-38342658D01*
X128818092Y-38325316D01*
X128848588Y-38310892D01*
X128880350Y-38299528D01*
X128913073Y-38291331D01*
X128946442Y-38286381D01*
X128980135Y-38284726D01*
X130092635Y-38284726D01*
X130126328Y-38286381D01*
X130126328Y-38286381D01*
G37*
D33*
X129536385Y-38972226D03*
G04 #@! TD*
D29*
G04 #@! TO.C,R13*
G36*
X38926328Y-35061381D02*
X38959697Y-35066331D01*
X38992420Y-35074528D01*
X39024182Y-35085892D01*
X39054678Y-35100316D01*
X39083612Y-35117658D01*
X39110708Y-35137754D01*
X39135703Y-35160408D01*
X39158357Y-35185403D01*
X39178453Y-35212499D01*
X39195795Y-35241433D01*
X39210219Y-35271929D01*
X39221583Y-35303691D01*
X39229780Y-35336414D01*
X39234730Y-35369783D01*
X39236385Y-35403476D01*
X39236385Y-36090976D01*
X39234730Y-36124669D01*
X39229780Y-36158038D01*
X39221583Y-36190761D01*
X39210219Y-36222523D01*
X39195795Y-36253019D01*
X39178453Y-36281953D01*
X39158357Y-36309049D01*
X39135703Y-36334044D01*
X39110708Y-36356698D01*
X39083612Y-36376794D01*
X39054678Y-36394136D01*
X39024182Y-36408560D01*
X38992420Y-36419924D01*
X38959697Y-36428121D01*
X38926328Y-36433071D01*
X38892635Y-36434726D01*
X37780135Y-36434726D01*
X37746442Y-36433071D01*
X37713073Y-36428121D01*
X37680350Y-36419924D01*
X37648588Y-36408560D01*
X37618092Y-36394136D01*
X37589158Y-36376794D01*
X37562062Y-36356698D01*
X37537067Y-36334044D01*
X37514413Y-36309049D01*
X37494317Y-36281953D01*
X37476975Y-36253019D01*
X37462551Y-36222523D01*
X37451187Y-36190761D01*
X37442990Y-36158038D01*
X37438040Y-36124669D01*
X37436385Y-36090976D01*
X37436385Y-35403476D01*
X37438040Y-35369783D01*
X37442990Y-35336414D01*
X37451187Y-35303691D01*
X37462551Y-35271929D01*
X37476975Y-35241433D01*
X37494317Y-35212499D01*
X37514413Y-35185403D01*
X37537067Y-35160408D01*
X37562062Y-35137754D01*
X37589158Y-35117658D01*
X37618092Y-35100316D01*
X37648588Y-35085892D01*
X37680350Y-35074528D01*
X37713073Y-35066331D01*
X37746442Y-35061381D01*
X37780135Y-35059726D01*
X38892635Y-35059726D01*
X38926328Y-35061381D01*
X38926328Y-35061381D01*
G37*
D33*
X38336385Y-35747226D03*
D29*
G36*
X38926328Y-36936381D02*
X38959697Y-36941331D01*
X38992420Y-36949528D01*
X39024182Y-36960892D01*
X39054678Y-36975316D01*
X39083612Y-36992658D01*
X39110708Y-37012754D01*
X39135703Y-37035408D01*
X39158357Y-37060403D01*
X39178453Y-37087499D01*
X39195795Y-37116433D01*
X39210219Y-37146929D01*
X39221583Y-37178691D01*
X39229780Y-37211414D01*
X39234730Y-37244783D01*
X39236385Y-37278476D01*
X39236385Y-37965976D01*
X39234730Y-37999669D01*
X39229780Y-38033038D01*
X39221583Y-38065761D01*
X39210219Y-38097523D01*
X39195795Y-38128019D01*
X39178453Y-38156953D01*
X39158357Y-38184049D01*
X39135703Y-38209044D01*
X39110708Y-38231698D01*
X39083612Y-38251794D01*
X39054678Y-38269136D01*
X39024182Y-38283560D01*
X38992420Y-38294924D01*
X38959697Y-38303121D01*
X38926328Y-38308071D01*
X38892635Y-38309726D01*
X37780135Y-38309726D01*
X37746442Y-38308071D01*
X37713073Y-38303121D01*
X37680350Y-38294924D01*
X37648588Y-38283560D01*
X37618092Y-38269136D01*
X37589158Y-38251794D01*
X37562062Y-38231698D01*
X37537067Y-38209044D01*
X37514413Y-38184049D01*
X37494317Y-38156953D01*
X37476975Y-38128019D01*
X37462551Y-38097523D01*
X37451187Y-38065761D01*
X37442990Y-38033038D01*
X37438040Y-37999669D01*
X37436385Y-37965976D01*
X37436385Y-37278476D01*
X37438040Y-37244783D01*
X37442990Y-37211414D01*
X37451187Y-37178691D01*
X37462551Y-37146929D01*
X37476975Y-37116433D01*
X37494317Y-37087499D01*
X37514413Y-37060403D01*
X37537067Y-37035408D01*
X37562062Y-37012754D01*
X37589158Y-36992658D01*
X37618092Y-36975316D01*
X37648588Y-36960892D01*
X37680350Y-36949528D01*
X37713073Y-36941331D01*
X37746442Y-36936381D01*
X37780135Y-36934726D01*
X38892635Y-36934726D01*
X38926328Y-36936381D01*
X38926328Y-36936381D01*
G37*
D33*
X38336385Y-37622226D03*
G04 #@! TD*
D29*
G04 #@! TO.C,R14*
G36*
X42126328Y-36936381D02*
X42159697Y-36941331D01*
X42192420Y-36949528D01*
X42224182Y-36960892D01*
X42254678Y-36975316D01*
X42283612Y-36992658D01*
X42310708Y-37012754D01*
X42335703Y-37035408D01*
X42358357Y-37060403D01*
X42378453Y-37087499D01*
X42395795Y-37116433D01*
X42410219Y-37146929D01*
X42421583Y-37178691D01*
X42429780Y-37211414D01*
X42434730Y-37244783D01*
X42436385Y-37278476D01*
X42436385Y-37965976D01*
X42434730Y-37999669D01*
X42429780Y-38033038D01*
X42421583Y-38065761D01*
X42410219Y-38097523D01*
X42395795Y-38128019D01*
X42378453Y-38156953D01*
X42358357Y-38184049D01*
X42335703Y-38209044D01*
X42310708Y-38231698D01*
X42283612Y-38251794D01*
X42254678Y-38269136D01*
X42224182Y-38283560D01*
X42192420Y-38294924D01*
X42159697Y-38303121D01*
X42126328Y-38308071D01*
X42092635Y-38309726D01*
X40980135Y-38309726D01*
X40946442Y-38308071D01*
X40913073Y-38303121D01*
X40880350Y-38294924D01*
X40848588Y-38283560D01*
X40818092Y-38269136D01*
X40789158Y-38251794D01*
X40762062Y-38231698D01*
X40737067Y-38209044D01*
X40714413Y-38184049D01*
X40694317Y-38156953D01*
X40676975Y-38128019D01*
X40662551Y-38097523D01*
X40651187Y-38065761D01*
X40642990Y-38033038D01*
X40638040Y-37999669D01*
X40636385Y-37965976D01*
X40636385Y-37278476D01*
X40638040Y-37244783D01*
X40642990Y-37211414D01*
X40651187Y-37178691D01*
X40662551Y-37146929D01*
X40676975Y-37116433D01*
X40694317Y-37087499D01*
X40714413Y-37060403D01*
X40737067Y-37035408D01*
X40762062Y-37012754D01*
X40789158Y-36992658D01*
X40818092Y-36975316D01*
X40848588Y-36960892D01*
X40880350Y-36949528D01*
X40913073Y-36941331D01*
X40946442Y-36936381D01*
X40980135Y-36934726D01*
X42092635Y-36934726D01*
X42126328Y-36936381D01*
X42126328Y-36936381D01*
G37*
D33*
X41536385Y-37622226D03*
D29*
G36*
X42126328Y-35061381D02*
X42159697Y-35066331D01*
X42192420Y-35074528D01*
X42224182Y-35085892D01*
X42254678Y-35100316D01*
X42283612Y-35117658D01*
X42310708Y-35137754D01*
X42335703Y-35160408D01*
X42358357Y-35185403D01*
X42378453Y-35212499D01*
X42395795Y-35241433D01*
X42410219Y-35271929D01*
X42421583Y-35303691D01*
X42429780Y-35336414D01*
X42434730Y-35369783D01*
X42436385Y-35403476D01*
X42436385Y-36090976D01*
X42434730Y-36124669D01*
X42429780Y-36158038D01*
X42421583Y-36190761D01*
X42410219Y-36222523D01*
X42395795Y-36253019D01*
X42378453Y-36281953D01*
X42358357Y-36309049D01*
X42335703Y-36334044D01*
X42310708Y-36356698D01*
X42283612Y-36376794D01*
X42254678Y-36394136D01*
X42224182Y-36408560D01*
X42192420Y-36419924D01*
X42159697Y-36428121D01*
X42126328Y-36433071D01*
X42092635Y-36434726D01*
X40980135Y-36434726D01*
X40946442Y-36433071D01*
X40913073Y-36428121D01*
X40880350Y-36419924D01*
X40848588Y-36408560D01*
X40818092Y-36394136D01*
X40789158Y-36376794D01*
X40762062Y-36356698D01*
X40737067Y-36334044D01*
X40714413Y-36309049D01*
X40694317Y-36281953D01*
X40676975Y-36253019D01*
X40662551Y-36222523D01*
X40651187Y-36190761D01*
X40642990Y-36158038D01*
X40638040Y-36124669D01*
X40636385Y-36090976D01*
X40636385Y-35403476D01*
X40638040Y-35369783D01*
X40642990Y-35336414D01*
X40651187Y-35303691D01*
X40662551Y-35271929D01*
X40676975Y-35241433D01*
X40694317Y-35212499D01*
X40714413Y-35185403D01*
X40737067Y-35160408D01*
X40762062Y-35137754D01*
X40789158Y-35117658D01*
X40818092Y-35100316D01*
X40848588Y-35085892D01*
X40880350Y-35074528D01*
X40913073Y-35066331D01*
X40946442Y-35061381D01*
X40980135Y-35059726D01*
X42092635Y-35059726D01*
X42126328Y-35061381D01*
X42126328Y-35061381D01*
G37*
D33*
X41536385Y-35747226D03*
G04 #@! TD*
D29*
G04 #@! TO.C,R27*
G36*
X152202099Y-98861715D02*
X152235468Y-98866665D01*
X152268191Y-98874862D01*
X152299953Y-98886226D01*
X152330449Y-98900650D01*
X152359383Y-98917992D01*
X152386479Y-98938088D01*
X152411474Y-98960742D01*
X152897610Y-99446878D01*
X152920264Y-99471873D01*
X152940360Y-99498969D01*
X152957702Y-99527903D01*
X152972126Y-99558399D01*
X152983490Y-99590161D01*
X152991687Y-99622884D01*
X152996637Y-99656253D01*
X152998292Y-99689946D01*
X152996637Y-99723639D01*
X152991687Y-99757008D01*
X152983490Y-99789731D01*
X152972126Y-99821493D01*
X152957702Y-99851989D01*
X152940360Y-99880923D01*
X152920264Y-99908019D01*
X152897610Y-99933014D01*
X152110954Y-100719670D01*
X152085959Y-100742324D01*
X152058863Y-100762420D01*
X152029929Y-100779762D01*
X151999433Y-100794186D01*
X151967671Y-100805550D01*
X151934948Y-100813747D01*
X151901579Y-100818697D01*
X151867886Y-100820352D01*
X151834193Y-100818697D01*
X151800824Y-100813747D01*
X151768101Y-100805550D01*
X151736339Y-100794186D01*
X151705843Y-100779762D01*
X151676909Y-100762420D01*
X151649813Y-100742324D01*
X151624818Y-100719670D01*
X151138682Y-100233534D01*
X151116028Y-100208539D01*
X151095932Y-100181443D01*
X151078590Y-100152509D01*
X151064166Y-100122013D01*
X151052802Y-100090251D01*
X151044605Y-100057528D01*
X151039655Y-100024159D01*
X151038000Y-99990466D01*
X151039655Y-99956773D01*
X151044605Y-99923404D01*
X151052802Y-99890681D01*
X151064166Y-99858919D01*
X151078590Y-99828423D01*
X151095932Y-99799489D01*
X151116028Y-99772393D01*
X151138682Y-99747398D01*
X151925338Y-98960742D01*
X151950333Y-98938088D01*
X151977429Y-98917992D01*
X152006363Y-98900650D01*
X152036859Y-98886226D01*
X152068621Y-98874862D01*
X152101344Y-98866665D01*
X152134713Y-98861715D01*
X152168406Y-98860060D01*
X152202099Y-98861715D01*
X152202099Y-98861715D01*
G37*
D33*
X152018146Y-99840206D03*
D29*
G36*
X153527925Y-100187541D02*
X153561294Y-100192491D01*
X153594017Y-100200688D01*
X153625779Y-100212052D01*
X153656275Y-100226476D01*
X153685209Y-100243818D01*
X153712305Y-100263914D01*
X153737300Y-100286568D01*
X154223436Y-100772704D01*
X154246090Y-100797699D01*
X154266186Y-100824795D01*
X154283528Y-100853729D01*
X154297952Y-100884225D01*
X154309316Y-100915987D01*
X154317513Y-100948710D01*
X154322463Y-100982079D01*
X154324118Y-101015772D01*
X154322463Y-101049465D01*
X154317513Y-101082834D01*
X154309316Y-101115557D01*
X154297952Y-101147319D01*
X154283528Y-101177815D01*
X154266186Y-101206749D01*
X154246090Y-101233845D01*
X154223436Y-101258840D01*
X153436780Y-102045496D01*
X153411785Y-102068150D01*
X153384689Y-102088246D01*
X153355755Y-102105588D01*
X153325259Y-102120012D01*
X153293497Y-102131376D01*
X153260774Y-102139573D01*
X153227405Y-102144523D01*
X153193712Y-102146178D01*
X153160019Y-102144523D01*
X153126650Y-102139573D01*
X153093927Y-102131376D01*
X153062165Y-102120012D01*
X153031669Y-102105588D01*
X153002735Y-102088246D01*
X152975639Y-102068150D01*
X152950644Y-102045496D01*
X152464508Y-101559360D01*
X152441854Y-101534365D01*
X152421758Y-101507269D01*
X152404416Y-101478335D01*
X152389992Y-101447839D01*
X152378628Y-101416077D01*
X152370431Y-101383354D01*
X152365481Y-101349985D01*
X152363826Y-101316292D01*
X152365481Y-101282599D01*
X152370431Y-101249230D01*
X152378628Y-101216507D01*
X152389992Y-101184745D01*
X152404416Y-101154249D01*
X152421758Y-101125315D01*
X152441854Y-101098219D01*
X152464508Y-101073224D01*
X153251164Y-100286568D01*
X153276159Y-100263914D01*
X153303255Y-100243818D01*
X153332189Y-100226476D01*
X153362685Y-100212052D01*
X153394447Y-100200688D01*
X153427170Y-100192491D01*
X153460539Y-100187541D01*
X153494232Y-100185886D01*
X153527925Y-100187541D01*
X153527925Y-100187541D01*
G37*
D33*
X153343972Y-101166032D03*
G04 #@! TD*
D18*
G04 #@! TO.C,J9*
X200919934Y-34945570D03*
X200919934Y-37485570D03*
X198379934Y-34945570D03*
X198379934Y-37485570D03*
X195839934Y-34945570D03*
X195839934Y-37485570D03*
X193299934Y-34945570D03*
X193299934Y-37485570D03*
X190759934Y-34945570D03*
X190759934Y-37485570D03*
X188219934Y-34945570D03*
X188219934Y-37485570D03*
X185679934Y-34945570D03*
X185679934Y-37485570D03*
X183139934Y-34945570D03*
X183139934Y-37485570D03*
X180599934Y-34945570D03*
X180599934Y-37485570D03*
X178059934Y-34945570D03*
X178059934Y-37485570D03*
X175519934Y-34945570D03*
X175519934Y-37485570D03*
X172979934Y-34945570D03*
X172979934Y-37485570D03*
X170439934Y-34945570D03*
X170439934Y-37485570D03*
X167899934Y-34945570D03*
X167899934Y-37485570D03*
X165359934Y-34945570D03*
X165359934Y-37485570D03*
X162819934Y-34945570D03*
X162819934Y-37485570D03*
X160279934Y-34945570D03*
X160279934Y-37485570D03*
X157739934Y-34945570D03*
X157739934Y-37485570D03*
X155199934Y-34945570D03*
X155199934Y-37485570D03*
X152659934Y-34945570D03*
D19*
X152659934Y-37485570D03*
G04 #@! TD*
M02*
