M48
;DRILL file {KiCad (5.0.0)} date 08/16/18 13:56:32
;FORMAT={-:-/ absolute / inch / decimal}
FMAT,2
INCH,TZ
T1C0.0118
T2C0.0130
T3C0.0197
T4C0.0236
T5C0.0272
T6C0.0276
T7C0.0295
T8C0.0315
T9C0.0335
T10C0.0394
T11C0.0472
T12C0.0866
T13C0.1181
%
G90
G05
M72
T1
X2.5875Y-6.7592
X2.6072Y-6.2868
X2.6367Y-5.8143
X2.6465Y-5.3321
X2.6662Y-4.8498
X2.6887Y-4.3811
X2.7044Y-3.9008
X2.7148Y-2.422
X2.7202Y-3.4205
X2.9494Y-7.8567
X2.9612Y-8.0102
X3.265Y-7.6999
X3.414Y-7.5732
X3.4357Y-0.548
X3.4533Y-8.0181
X3.4733Y-0.0913
X3.5006Y-8.2336
X3.5179Y0.1253
X3.6269Y-0.2475
X3.7187Y-0.0401
X3.7502Y-0.0204
X3.7525Y-8.3724
X3.766Y0.0505
X3.768Y0.0879
X3.7817Y-0.0046
X3.7981Y-7.7671
X3.7981Y-7.8813
X3.8443Y0.0524
X3.8683Y0.082
X3.8998Y0.1095
X3.9274Y0.1371
X3.9458Y-7.7927
X3.951Y0.1646
X3.9605Y-7.7527
X4.0021Y-7.8032
X4.0101Y0.3182
X4.0101Y-7.8669
X4.0262Y-7.7747
X4.0337Y0.0623
X4.0819Y-7.0145
X4.1013Y-8.1923
X4.1522Y-6.3617
X4.1522Y-6.6136
X4.1971Y-4.0578
X4.2241Y-2.141
X4.2581Y0.4009
X4.2598Y0.2126
X4.2835Y-8.2441
X4.315Y-5.8189
X4.3178Y-8.3301
X4.3405Y-4.4173
X4.3542Y-4.1213
X4.3621Y-4.3182
X4.3871Y-4.2262
X4.4054Y-4.515
X4.4606Y-5.8307
X4.4685Y-4.1417
X4.5391Y-0.7315
X4.5391Y-1.078
X4.6876Y-4.7396
X4.776Y-4.8608
X5.0208Y0.3871
X5.0208Y0.2808
X5.6974Y-6.9138
X5.9986Y-6.963
X6.0419Y-6.963
X6.1482Y-6.965
X6.1978Y-6.9362
X6.2486Y-6.9362
X6.3025Y-6.913
X6.7988Y-0.1117
X6.9018Y-0.6211
X6.9806Y-0.4952
X7.0114Y-0.0644
X7.0429Y-0.6628
X7.0665Y0.5104
T2
X4.4317Y-5.1117
X4.4317Y-5.1628
X4.4829Y-5.1117
X4.4829Y-5.1628
X4.5341Y-5.1117
X4.5341Y-5.1628
T3
X2.6876Y-0.0834
X2.9077Y-0.1306
X2.9904Y0.7079
X2.9983Y0.519
X3.1659Y-8.0181
X3.2935Y0.3024
X3.4865Y-0.1779
X3.5731Y0.4009
X3.8211Y0.4481
X3.8501Y-8.1336
X3.8841Y0.8257
X3.9851Y-7.4088
X4.0219Y0.8064
X4.1643Y-6.0821
X4.1693Y-7.5987
X4.181Y-5.5898
X4.1837Y-5.3617
X4.1841Y-7.3498
X4.2325Y-7.6924
X4.3073Y-7.1766
X4.3808Y-5.5309
X4.3811Y-5.3187
X4.419Y-4.1226
X4.419Y-4.1226
X4.419Y-4.1226
X4.44Y-4.0248
X4.4439Y-7.0953
X4.4674Y-4.901
X4.4825Y-7.8472
X4.5118Y-5.8465
X4.5698Y-4.901
X4.5711Y-5.338
X4.622Y-6.9803
X4.622Y-7.0591
X4.721Y-5.1717
X4.9336Y-5.0535
X6.7598Y-0.1752
X6.7697Y-3.1575
X6.7894Y-0.5295
X6.7894Y-0.9429
X6.8375Y-2.8773
X6.869Y-1.6884
X6.8769Y0.2959
X6.8769Y-0.7277
X6.8903Y-3.463
X6.9635Y-0.8143
X7.0045Y-6.9276
X7.0816Y-0.8143
X7.1288Y-0.4994
X7.1373Y-1.0412
X7.1423Y-7.2661
X7.2207Y-1.0428
T5
X4.3567Y-3.8476
X4.4567Y-3.9476
X4.5567Y-3.8476
T6
X2.9466Y-7.7622
X3.0466Y-7.7622
T7
X4.8549Y-4.6976
X4.8549Y-4.7476
X4.8549Y-4.7976
T8
X4.6356Y-4.2543
X4.6356Y-4.5543
X4.7356Y-4.2543
X4.7356Y-4.5543
X4.8356Y-4.2543
X4.8356Y-4.5543
X4.9356Y-4.2543
X4.9356Y-4.5543
X5.0356Y-4.2543
X5.0356Y-4.5543
X5.1356Y-4.2543
X5.1356Y-4.5543
X5.2356Y-4.2543
X5.2356Y-4.5543
X5.3356Y-4.2543
X5.3356Y-4.5543
X5.4356Y-4.2543
X5.4356Y-4.5543
T9
X6.5315Y-8.3386
X6.6496Y-8.3386
X6.7677Y-8.3386
X7.0985Y-7.4284
X7.0985Y-7.6252
T10
X3.1872Y0.8142
X3.2872Y0.8142
X3.3872Y0.8142
X3.4872Y0.8142
X5.308Y-7.1965
X5.408Y-7.1965
X5.508Y-7.1965
X5.608Y-7.1965
X5.708Y-7.1965
X5.808Y-3.9965
X5.808Y-7.1965
X5.908Y-3.9965
X5.908Y-7.1965
X6.008Y-3.9965
X6.008Y-7.1965
X6.108Y-3.9965
X6.108Y-7.1965
X6.208Y-7.1965
X6.308Y-7.1965
X6.408Y-7.1965
X6.508Y-7.1965
X6.608Y-7.1965
X6.0475Y-0.0621
X6.0475Y-0.2589
X6.6184Y-0.0621
X6.6184Y-0.1605
X6.6184Y-0.2589
X6.0475Y-1.0542
X6.0475Y-1.2511
X6.6184Y-1.0542
X6.6184Y-1.1526
X6.6184Y-1.2511
X4.8079Y-5.166
X4.8079Y-5.266
X4.8079Y-5.366
X4.8079Y-5.466
X4.8079Y-5.566
X4.8079Y-5.666
X4.8079Y-5.766
X4.8079Y-5.866
X4.8079Y-5.966
X4.8079Y-6.066
X4.8079Y-6.166
X4.8079Y-6.266
X4.8079Y-6.366
X4.8079Y-6.466
X4.8079Y-6.566
X4.8079Y-6.666
X4.8079Y-6.766
X4.8079Y-6.866
X4.8079Y-6.966
X4.8079Y-7.066
X4.9079Y-5.166
X4.9079Y-5.266
X4.9079Y-5.366
X4.9079Y-5.466
X4.9079Y-5.566
X4.9079Y-5.666
X4.9079Y-5.766
X4.9079Y-5.866
X4.9079Y-5.966
X4.9079Y-6.066
X4.9079Y-6.166
X4.9079Y-6.266
X4.9079Y-6.366
X4.9079Y-6.466
X4.9079Y-6.566
X4.9079Y-6.666
X4.9079Y-6.766
X4.9079Y-6.866
X4.9079Y-6.966
X4.9079Y-7.066
X6.0475Y-3.0388
X6.0475Y-3.2357
X6.6184Y-3.0388
X6.6184Y-3.1372
X6.6184Y-3.2357
X4.2525Y-4.8897
X4.2525Y-4.9881
X6.0475Y-2.0463
X6.0475Y-2.2432
X6.6184Y-2.0463
X6.6184Y-2.1448
X6.6184Y-2.2432
X5.148Y-6.6841
X5.148Y-6.7841
X5.248Y-6.6841
X5.248Y-6.7841
X5.348Y-6.6841
X5.348Y-6.7841
X5.448Y-6.6841
X5.448Y-6.7841
X5.548Y-6.6841
X5.548Y-6.7841
X5.648Y-6.6841
X5.648Y-6.7841
X5.748Y-6.6841
X5.748Y-6.7841
X5.848Y-6.6841
X5.848Y-6.7841
X5.948Y-6.6841
X5.948Y-6.7841
X6.048Y-6.6841
X6.048Y-6.7841
X6.148Y-6.6841
X6.148Y-6.7841
X6.248Y-6.6841
X6.248Y-6.7841
X6.348Y-6.6841
X6.348Y-6.7841
X6.448Y-6.6841
X6.448Y-6.7841
X6.548Y-6.6841
X6.548Y-6.7841
X6.648Y-6.6841
X6.648Y-6.7841
X6.748Y-6.6841
X6.748Y-6.7841
X6.848Y-6.6841
X6.848Y-6.7841
X6.948Y-6.6841
X6.948Y-6.7841
X7.048Y-6.6841
X7.048Y-6.7841
X3.5816Y-7.6155
X3.5816Y-7.714
X4.3591Y-7.6222
X4.3591Y-7.7222
X4.3591Y-7.8222
X4.3591Y-7.9222
T11
X2.8153Y-4.1097
X2.8153Y-4.3065
X3.3271Y-4.1097
X3.3271Y-4.3065
X2.8153Y-6.0939
X2.8153Y-6.2908
X3.3271Y-6.0939
X3.3271Y-6.2908
X3.4885Y-3.3656
X3.4885Y-3.5624
X4.0003Y-3.3656
X4.0003Y-3.5624
X4.4333Y-2.7908
X4.4333Y-2.9876
X4.9451Y-2.7908
X4.9451Y-2.9876
X2.8153Y-2.6215
X2.8153Y-2.8183
X3.3271Y-2.6215
X3.3271Y-2.8183
X5.0869Y0.1856
X5.0869Y-0.0113
X5.5987Y0.1856
X5.5987Y-0.0113
X3.4885Y-4.3577
X3.4885Y-4.5546
X4.0003Y-4.3577
X4.0003Y-4.5546
X4.4727Y-8.0191
X4.4727Y-8.216
X4.9845Y-8.0191
X4.9845Y-8.216
X5.0869Y-0.3105
X5.0869Y-0.5073
X5.5987Y-0.3105
X5.5987Y-0.5073
X5.0869Y-2.7908
X5.0869Y-2.9876
X5.5987Y-2.7908
X5.5987Y-2.9876
X4.4333Y-0.8065
X4.4333Y-1.0034
X4.9451Y-0.8065
X4.9451Y-1.0034
X5.0869Y0.6817
X5.0869Y0.4848
X5.5987Y0.6817
X5.5987Y0.4848
X4.4333Y0.6817
X4.4333Y0.4848
X4.9451Y0.6817
X4.9451Y0.4848
X5.7798Y-7.5231
X5.7798Y-7.7199
X6.2916Y-7.5231
X6.2916Y-7.7199
X3.4885Y-6.342
X3.4885Y-6.5388
X4.0003Y-6.342
X4.0003Y-6.5388
X2.8153Y-5.5979
X2.8153Y-5.7947
X3.3271Y-5.5979
X3.3271Y-5.7947
X5.0869Y-3.2869
X5.0869Y-3.4837
X5.5987Y-3.2869
X5.5987Y-3.4837
X5.0869Y-0.8065
X5.0869Y-1.0034
X5.5987Y-0.8065
X5.5987Y-1.0034
X3.4885Y-2.8695
X3.4885Y-3.0664
X4.0003Y-2.8695
X4.0003Y-3.0664
X6.3939Y0.6817
X6.3939Y0.4848
X6.9058Y0.6817
X6.9058Y0.4848
X3.4885Y-4.8538
X3.4885Y-5.0506
X4.0003Y-4.8538
X4.0003Y-5.0506
X2.8153Y-7.0861
X2.8153Y-7.2829
X3.3271Y-7.0861
X3.3271Y-7.2829
X5.1262Y-7.5231
X5.1262Y-7.7199
X5.638Y-7.5231
X5.638Y-7.7199
X5.0869Y-2.2947
X5.0869Y-2.4916
X5.5987Y-2.2947
X5.5987Y-2.4916
X5.0869Y-1.7987
X5.0869Y-1.9955
X5.5987Y-1.7987
X5.5987Y-1.9955
X3.4885Y-1.3813
X3.4885Y-1.5782
X4.0003Y-1.3813
X4.0003Y-1.5782
X5.0869Y-1.3026
X5.0869Y-1.4995
X5.5987Y-1.3026
X5.5987Y-1.4995
X4.4727Y-7.5231
X4.4727Y-7.7199
X4.9845Y-7.5231
X4.9845Y-7.7199
X2.8153Y-6.59
X2.8153Y-6.7869
X3.3271Y-6.59
X3.3271Y-6.7869
X3.4885Y-5.8459
X3.4885Y-6.0428
X4.0003Y-5.8459
X4.0003Y-6.0428
X4.4333Y-1.7987
X4.4333Y-1.9955
X4.9451Y-1.7987
X4.9451Y-1.9955
X2.8153Y-3.6136
X2.8153Y-3.8105
X3.3271Y-3.6136
X3.3271Y-3.8105
X2.8153Y-3.1176
X2.8153Y-3.3144
X3.3271Y-3.1176
X3.3271Y-3.3144
X2.8153Y-1.6294
X2.8153Y-1.8262
X3.3271Y-1.6294
X3.3271Y-1.8262
X2.8153Y-5.1018
X2.8153Y-5.2987
X3.3271Y-5.1018
X3.3271Y-5.2987
X3.4885Y-6.838
X3.4885Y-7.0349
X4.0003Y-6.838
X4.0003Y-7.0349
X4.4333Y-3.2869
X4.4333Y-3.4837
X4.9451Y-3.2869
X4.9451Y-3.4837
X4.4333Y-1.3026
X4.4333Y-1.4995
X4.9451Y-1.3026
X4.9451Y-1.4995
X3.4885Y-2.3735
X3.4885Y-2.5703
X4.0003Y-2.3735
X4.0003Y-2.5703
X2.8153Y-2.1254
X2.8153Y-2.3223
X3.3271Y-2.1254
X3.3271Y-2.3223
X4.4333Y-0.3105
X4.4333Y-0.5073
X4.9451Y-0.3105
X4.9451Y-0.5073
X2.8153Y-4.6057
X2.8153Y-4.8026
X3.3271Y-4.6057
X3.3271Y-4.8026
X5.1262Y-8.0191
X5.1262Y-8.216
X5.638Y-8.0191
X5.638Y-8.216
X5.7798Y-8.0191
X5.7798Y-8.216
X6.2916Y-8.0191
X6.2916Y-8.216
X2.8153Y-0.6372
X2.8153Y-0.8341
X3.3271Y-0.6372
X3.3271Y-0.8341
X2.8153Y-1.1333
X2.8153Y-1.3302
X3.3271Y-1.1333
X3.3271Y-1.3302
X4.4333Y-2.2947
X4.4333Y-2.4916
X4.9451Y-2.2947
X4.9451Y-2.4916
X4.4333Y0.1856
X4.4333Y-0.0113
X4.9451Y0.1856
X4.9451Y-0.0113
X5.7404Y0.6817
X5.7404Y0.4848
X6.2522Y0.6817
X6.2522Y0.4848
X3.4885Y-0.8853
X3.4885Y-1.0821
X4.0003Y-0.8853
X4.0003Y-1.0821
T12
X6.3231Y0.06
X6.3231Y-0.381
X6.3231Y-0.9322
X6.3231Y-1.3731
X6.3231Y-2.9168
X6.3231Y-3.3577
X6.3231Y-1.9243
X6.3231Y-2.3652
T13
X5.0919Y-4.0075
X6.8242Y-7.0028
T4
X6.4035Y-8.3209G85X6.4035Y-8.3563
G05
X6.8957Y-8.3209G85X6.8957Y-8.3563
G05
X7.191Y-7.389G85X7.2186Y-7.389
G05
X7.2186Y-7.6646G85X7.191Y-7.6646
G05
T0
M30
