M48
;DRILL file {KiCad (5.0.0)} date 08/12/18 11:34:07
;FORMAT={-:-/ absolute / inch / decimal}
FMAT,2
INCH,TZ
T1C0.0118
T2C0.0130
T3C0.0197
T4C0.0236
T5C0.0335
T6C0.0354
T7C0.0394
T8C0.0472
T9C0.0866
%
G90
G05
M72
T1
X1.3518Y-1.4059
X1.4613Y-4.2143
X1.4751Y-3.4516
X1.544Y-4.4624
X1.5814Y-3.4516
X1.6465Y-4.4625
X1.6976Y-4.5214
X1.7251Y-4.545
X1.7369Y-4.9545
X1.7527Y-4.5726
X1.7743Y-4.7045
X1.7802Y-4.6041
X1.7999Y-4.4387
X1.8098Y-4.6282
X1.8117Y-4.7065
X1.8669Y-4.6907
X1.8826Y-4.7222
X1.9023Y-4.7537
X1.9266Y-1.461
X1.9535Y-4.9991
X1.9739Y-1.6736
X2.1097Y-4.8455
X2.3574Y-1.4919
X2.4102Y-5.0368
X2.4833Y-1.5706
X2.5251Y-1.4295
X2.5937Y-3.9334
X2.9402Y-3.9334
X4.0032Y-4.2483
X4.2842Y-5.7576
X5.2827Y-5.7523
X5.763Y-5.768
X5.92Y-4.2754
X5.9835Y-4.1182
X6.0334Y-3.6602
X6.0662Y-3.6182
X6.0884Y-4.0854
X6.1804Y-4.1104
X6.2433Y-5.7838
X6.2795Y-4.1319
X6.3772Y-4.0671
X6.6018Y-3.7848
X6.712Y-5.8062
X7.1943Y-5.8259
X7.6766Y-5.8357
X7.7465Y-4.008
X7.7465Y-4.1283
X8.149Y-5.8653
X8.2239Y-4.3202
X8.4758Y-4.3202
X8.6214Y-5.885
X8.8767Y-4.3905
X9.6097Y-5.2872
X9.6149Y-4.512
X9.6293Y-4.6743
X9.6369Y-4.4463
X9.6549Y-4.5267
X9.6654Y-4.4704
X9.7291Y-4.4624
X9.7435Y-4.6743
X10.0978Y-5.0247
X10.1923Y-4.1546
T2
X6.9739Y-3.9383
X6.9739Y-3.9895
X6.9739Y-4.0407
X7.025Y-3.9383
X7.025Y-3.9895
X7.025Y-4.0407
T3
X1.0365Y-4.5884
X1.0558Y-4.4506
X1.1543Y-5.4821
X1.3432Y-5.4742
X1.4141Y-4.6513
X1.4613Y-4.8994
X1.5598Y-5.1789
X1.5663Y-1.5956
X1.9456Y-5.7848
X1.9928Y-5.5647
X2.0374Y-1.7126
X2.0401Y-4.986
X2.3616Y-1.3436
X2.3917Y-1.6831
X2.5899Y-1.5956
X2.6766Y-1.3909
X2.6766Y-1.509
X2.8051Y-1.6831
X2.9034Y-1.3352
X2.905Y-1.2517
X3.5506Y-1.6035
X4.7395Y-1.635
X5.0197Y-1.7028
X5.3252Y-1.5821
X5.8083Y-3.9241
X5.887Y-4.0324
X5.9855Y-4.0521
X5.9855Y-4.0521
X5.9855Y-4.0521
X6.7632Y-3.9027
X6.7632Y-4.005
X7.0349Y-3.7439
X7.1809Y-4.0914
X7.2002Y-3.9013
X7.2239Y-4.2887
X7.3931Y-4.0916
X7.452Y-4.2915
X7.7195Y-3.9256
X7.96Y-4.2176
X8.7898Y-1.4679
X8.9049Y-3.9027
X8.9134Y-3.8346
X8.9561Y-4.0273
X9.0388Y-4.1651
X9.1283Y-1.3301
X9.212Y-4.2883
X9.271Y-4.4873
X9.4609Y-4.3032
X9.5546Y-4.2399
X9.7094Y-3.9899
X10.0545Y-4.2609
X10.0545Y-4.3712
T5
X9.2906Y-1.3739
X9.4874Y-1.3739
T6
X9.2317Y-1.6035
X9.3891Y-1.6035
X9.5466Y-1.6035
T7
X6.7532Y-4.2293
X6.8516Y-4.2293
X2.9164Y-1.8541
X2.9164Y-2.425
X3.0148Y-1.8541
X3.1133Y-1.8541
X3.1133Y-2.425
X1.9243Y-1.8541
X1.9243Y-2.425
X2.0227Y-1.8541
X2.1211Y-1.8541
X2.1211Y-2.425
X1.048Y-4.9852
X1.048Y-5.0852
X1.048Y-5.1852
X1.048Y-5.2852
X9.4777Y-4.8909
X9.5762Y-4.8909
X6.0102Y-1.3758
X6.0102Y-1.4758
X6.1102Y-1.3758
X6.1102Y-1.4758
X6.2102Y-1.3758
X6.2102Y-1.4758
X6.3102Y-1.3758
X6.3102Y-1.4758
X6.4102Y-1.3758
X6.4102Y-1.4758
X6.5102Y-1.3758
X6.5102Y-1.4758
X6.6102Y-1.3758
X6.6102Y-1.4758
X6.7102Y-1.3758
X6.7102Y-1.4758
X6.8102Y-1.3758
X6.8102Y-1.4758
X6.9102Y-1.3758
X6.9102Y-1.4758
X7.0102Y-1.3758
X7.0102Y-1.4758
X7.1102Y-1.3758
X7.1102Y-1.4758
X7.2102Y-1.3758
X7.2102Y-1.4758
X7.3102Y-1.3758
X7.3102Y-1.4758
X7.4102Y-1.3758
X7.4102Y-1.4758
X7.5102Y-1.3758
X7.5102Y-1.4758
X7.6102Y-1.3758
X7.6102Y-1.4758
X7.7102Y-1.3758
X7.7102Y-1.4758
X7.8102Y-1.3758
X7.8102Y-1.4758
X7.9102Y-1.3758
X7.9102Y-1.4758
X8.5463Y-1.4244
X8.5463Y-1.5244
X8.5463Y-1.6244
X8.5463Y-1.7244
X8.5463Y-1.8244
X8.5463Y-1.9244
X8.5463Y-2.0244
X8.5463Y-2.1244
X8.5463Y-2.2244
X8.5463Y-2.3244
X8.5463Y-2.4244
X8.5463Y-2.5244
X8.5463Y-2.6244
X8.5463Y-2.7244
X8.5463Y-2.8244
X8.5463Y-2.9244
X8.5463Y-3.0244
X8.5463Y-3.1244
X8.5463Y-3.2244
X8.5463Y-3.3244
X8.6463Y-1.4244
X8.6463Y-1.5244
X8.6463Y-1.6244
X8.6463Y-1.7244
X8.6463Y-1.8244
X8.6463Y-1.9244
X8.6463Y-2.0244
X8.6463Y-2.1244
X8.6463Y-2.2244
X8.6463Y-2.3244
X8.6463Y-2.4244
X8.6463Y-2.5244
X8.6463Y-2.6244
X8.6463Y-2.7244
X8.6463Y-2.8244
X8.6463Y-2.9244
X8.6463Y-3.0244
X8.6463Y-3.1244
X8.6463Y-3.2244
X8.6463Y-3.3244
X3.9085Y-1.8541
X3.9085Y-2.425
X4.007Y-1.8541
X4.1054Y-1.8541
X4.1054Y-2.425
X4.901Y-1.8541
X4.901Y-2.425
X4.9995Y-1.8541
X5.0979Y-1.8541
X5.0979Y-2.425
X9.4844Y-4.1133
X9.5844Y-4.1133
X9.6844Y-4.1133
X9.7844Y-4.1133
X7.0282Y-3.5646
X7.0282Y-3.6646
X7.1282Y-3.5646
X7.1282Y-3.6646
X7.2282Y-3.5646
X7.2282Y-3.6646
X7.3282Y-3.5646
X7.3282Y-3.6646
X7.4282Y-3.5646
X7.4282Y-3.6646
X7.5282Y-3.5646
X7.5282Y-3.6646
X7.6282Y-3.5646
X7.6282Y-3.6646
X7.7282Y-3.5646
X7.7282Y-3.6646
X7.8282Y-3.5646
X7.8282Y-3.6646
X7.9282Y-3.5646
X7.9282Y-3.6646
X8.0282Y-3.5646
X8.0282Y-3.6646
X8.1282Y-3.5646
X8.1282Y-3.6646
X8.2282Y-3.5646
X8.2282Y-3.6646
X8.3282Y-3.5646
X8.3282Y-3.6646
X8.4282Y-3.5646
X8.4282Y-3.6646
X8.5282Y-3.5646
X8.5282Y-3.6646
X8.6282Y-3.5646
X8.6282Y-3.6646
X8.7282Y-3.5646
X8.7282Y-3.6646
X8.8282Y-3.5646
X8.8282Y-3.6646
X8.9282Y-3.5646
X8.9282Y-3.6646
T8
X7.9561Y-5.1454
X7.9561Y-5.6572
X8.153Y-5.1454
X8.153Y-5.6572
X6.2199Y-4.4721
X6.2199Y-4.9839
X6.4168Y-4.4721
X6.4168Y-4.9839
X2.4995Y-5.1454
X2.4995Y-5.6572
X2.6963Y-5.1454
X2.6963Y-5.6572
X4.9798Y-5.1454
X4.9798Y-5.6572
X5.1766Y-5.1454
X5.1766Y-5.6572
X1.1806Y-2.2202
X1.1806Y-2.732
X1.3774Y-2.2202
X1.3774Y-2.732
X3.6609Y-2.8738
X3.6609Y-3.3856
X3.8577Y-2.8738
X3.8577Y-3.3856
X8.7002Y-4.4721
X8.7002Y-4.9839
X8.8971Y-4.4721
X8.8971Y-4.9839
X6.716Y-4.4721
X6.716Y-4.9839
X6.9128Y-4.4721
X6.9128Y-4.9839
X5.4758Y-5.1454
X5.4758Y-5.6572
X5.6727Y-5.1454
X5.6727Y-5.6572
X1.1806Y-3.5273
X1.1806Y-4.0391
X1.3774Y-3.5273
X1.3774Y-4.0391
X4.653Y-2.8738
X4.653Y-3.3856
X4.8498Y-2.8738
X4.8498Y-3.3856
X3.1648Y-2.8738
X3.1648Y-3.3856
X3.3617Y-2.8738
X3.3617Y-3.3856
X3.9876Y-5.1454
X3.9876Y-5.6572
X4.1845Y-5.1454
X4.1845Y-5.6572
X9.1529Y-1.4361
X9.1529Y-1.6724
X9.6254Y-1.4361
X9.6254Y-1.6724
X9.3853Y-2.8344
X9.3853Y-3.3462
X9.5821Y-2.8344
X9.5821Y-3.3462
X9.8813Y-2.1809
X9.8813Y-2.6927
X10.0782Y-2.1809
X10.0782Y-2.6927
X4.7317Y-4.4721
X4.7317Y-4.9839
X4.9286Y-4.4721
X4.9286Y-4.9839
X4.2357Y-4.4721
X4.2357Y-4.9839
X4.4325Y-4.4721
X4.4325Y-4.9839
X3.4916Y-5.1454
X3.4916Y-5.6572
X3.6884Y-5.1454
X3.6884Y-5.6572
X3.1648Y-3.5273
X3.1648Y-4.0391
X3.3617Y-3.5273
X3.3617Y-4.0391
X9.3853Y-3.4879
X9.3853Y-3.9998
X9.5821Y-3.4879
X9.5821Y-3.9998
X8.2042Y-4.4721
X8.2042Y-4.9839
X8.401Y-4.4721
X8.401Y-4.9839
X2.1727Y-3.5273
X2.1727Y-4.0391
X2.3695Y-3.5273
X2.3695Y-4.0391
X5.9719Y-5.1454
X5.9719Y-5.6572
X6.1687Y-5.1454
X6.1687Y-5.6572
X1.6766Y-3.5273
X1.6766Y-4.0391
X1.8735Y-3.5273
X1.8735Y-4.0391
X5.2278Y-4.4721
X5.2278Y-4.9839
X5.4246Y-4.4721
X5.4246Y-4.9839
X2.6687Y-3.5273
X2.6687Y-4.0391
X2.8656Y-3.5273
X2.8656Y-4.0391
X4.1569Y-2.8738
X4.1569Y-3.3856
X4.3538Y-2.8738
X4.3538Y-3.3856
X7.4601Y-5.1454
X7.4601Y-5.6572
X7.6569Y-5.1454
X7.6569Y-5.6572
X9.8813Y-3.4879
X9.8813Y-3.9998
X10.0782Y-3.4879
X10.0782Y-3.9998
X2.1727Y-2.8738
X2.1727Y-3.3856
X2.3695Y-2.8738
X2.3695Y-3.3856
X5.1491Y-3.5273
X5.1491Y-4.0391
X5.3459Y-3.5273
X5.3459Y-4.0391
X4.1569Y-3.5273
X4.1569Y-4.0391
X4.3538Y-3.5273
X4.3538Y-4.0391
X2.6687Y-2.8738
X2.6687Y-3.3856
X2.8656Y-2.8738
X2.8656Y-3.3856
X8.9483Y-5.1454
X8.9483Y-5.6572
X9.1451Y-5.1454
X9.1451Y-5.6572
X7.7081Y-4.4721
X7.7081Y-4.9839
X7.905Y-4.4721
X7.905Y-4.9839
X6.964Y-5.1454
X6.964Y-5.6572
X7.1609Y-5.1454
X7.1609Y-5.6572
X1.1806Y-2.8738
X1.1806Y-3.3856
X1.3774Y-2.8738
X1.3774Y-3.3856
X5.1491Y-2.8738
X5.1491Y-3.3856
X5.3459Y-2.8738
X5.3459Y-3.3856
X1.6766Y-2.8738
X1.6766Y-3.3856
X1.8735Y-2.8738
X1.8735Y-3.3856
X4.4837Y-5.1454
X4.4837Y-5.6572
X4.6806Y-5.1454
X4.6806Y-5.6572
X2.9955Y-5.1454
X2.9955Y-5.6572
X3.1924Y-5.1454
X3.1924Y-5.6572
X9.8813Y-2.8344
X9.8813Y-3.3462
X10.0782Y-2.8344
X10.0782Y-3.3462
X8.4522Y-5.1454
X8.4522Y-5.6572
X8.6491Y-5.1454
X8.6491Y-5.6572
X6.468Y-5.1454
X6.468Y-5.6572
X6.6648Y-5.1454
X6.6648Y-5.6572
X2.7475Y-4.4721
X2.7475Y-4.9839
X2.9443Y-4.4721
X2.9443Y-4.9839
X4.653Y-3.5273
X4.653Y-4.0391
X4.8498Y-3.5273
X4.8498Y-4.0391
X1.1806Y-1.5667
X1.1806Y-2.0785
X1.3774Y-1.5667
X1.3774Y-2.0785
X3.6609Y-3.5273
X3.6609Y-4.0391
X3.8577Y-3.5273
X3.8577Y-4.0391
X3.2435Y-4.4721
X3.2435Y-4.9839
X3.4404Y-4.4721
X3.4404Y-4.9839
X9.3853Y-2.1809
X9.3853Y-2.6927
X9.5821Y-2.1809
X9.5821Y-2.6927
T9
X3.7865Y-2.1494
X4.2274Y-2.1494
X4.779Y-2.1494
X5.2199Y-2.1494
X2.7944Y-2.1494
X3.2353Y-2.1494
X1.8022Y-2.1494
X2.2432Y-2.1494
T4
X9.2512Y-1.2814G85X9.2512Y-1.2539
G05
X9.5268Y-1.2539G85X9.5268Y-1.2814
G05
T0
M30
