G04 #@! TF.GenerationSoftware,KiCad,Pcbnew,(5.0.0)*
G04 #@! TF.CreationDate,2018-08-12T11:34:12+02:00*
G04 #@! TF.ProjectId,OTTOtact,4F54544F746163742E6B696361645F70,rev?*
G04 #@! TF.SameCoordinates,Original*
G04 #@! TF.FileFunction,Paste,Top*
G04 #@! TF.FilePolarity,Positive*
%FSLAX46Y46*%
G04 Gerber Fmt 4.6, Leading zero omitted, Abs format (unit mm)*
G04 Created by KiCad (PCBNEW (5.0.0)) date 08/12/18 11:34:12*
%MOMM*%
%LPD*%
G01*
G04 APERTURE LIST*
%ADD10R,1.550000X0.600000*%
%ADD11R,1.500000X0.600000*%
%ADD12C,1.160000*%
%ADD13C,0.100000*%
%ADD14C,0.550000*%
%ADD15R,1.500000X1.900000*%
%ADD16R,0.400000X1.350000*%
%ADD17R,1.500000X2.200000*%
%ADD18R,1.560000X0.650000*%
%ADD19R,2.200000X0.500000*%
%ADD20R,2.400000X3.100000*%
%ADD21R,1.300000X2.000000*%
%ADD22R,2.000000X2.000000*%
%ADD23C,0.975000*%
%ADD24R,0.600000X1.500000*%
%ADD25C,1.050000*%
%ADD26R,2.500000X3.300000*%
%ADD27R,1.060000X0.650000*%
%ADD28C,1.900000*%
%ADD29R,0.600000X1.550000*%
%ADD30R,1.200000X1.800000*%
G04 APERTURE END LIST*
D10*
G04 #@! TO.C,U2*
X86086048Y-38828907D03*
X86086048Y-40098907D03*
X86086048Y-41368907D03*
X86086048Y-42638907D03*
X80686048Y-42638907D03*
X80686048Y-41368907D03*
X80686048Y-40098907D03*
X80686048Y-38828907D03*
G04 #@! TD*
D11*
G04 #@! TO.C,IC1*
X57776911Y-34083821D03*
X57776911Y-35353821D03*
X57776911Y-36623821D03*
X57776911Y-37893821D03*
X57776911Y-39163821D03*
X57776911Y-40433821D03*
X57776911Y-41703821D03*
X52376911Y-41703821D03*
X52376911Y-40433821D03*
X52376911Y-39163821D03*
X52376911Y-37893821D03*
X52376911Y-36623821D03*
X52376911Y-35353821D03*
X52376911Y-34083821D03*
G04 #@! TD*
D12*
G04 #@! TO.C,U1*
X39734385Y-129099131D03*
D13*
G36*
X39734385Y-129919375D02*
X38914141Y-129099131D01*
X39734385Y-128278887D01*
X40554629Y-129099131D01*
X39734385Y-129919375D01*
X39734385Y-129919375D01*
G37*
D12*
X39734385Y-124856491D03*
D13*
G36*
X39734385Y-125676735D02*
X38914141Y-124856491D01*
X39734385Y-124036247D01*
X40554629Y-124856491D01*
X39734385Y-125676735D01*
X39734385Y-125676735D01*
G37*
D12*
X37613065Y-126977811D03*
D13*
G36*
X37613065Y-127798055D02*
X36792821Y-126977811D01*
X37613065Y-126157567D01*
X38433309Y-126977811D01*
X37613065Y-127798055D01*
X37613065Y-127798055D01*
G37*
D12*
X38673725Y-125917151D03*
D13*
G36*
X38673725Y-126737395D02*
X37853481Y-125917151D01*
X38673725Y-125096907D01*
X39493969Y-125917151D01*
X38673725Y-126737395D01*
X38673725Y-126737395D01*
G37*
D12*
X38673725Y-128038471D03*
D13*
G36*
X38673725Y-128858715D02*
X37853481Y-128038471D01*
X38673725Y-127218227D01*
X39493969Y-128038471D01*
X38673725Y-128858715D01*
X38673725Y-128858715D01*
G37*
D12*
X41855705Y-126977811D03*
D13*
G36*
X41855705Y-127798055D02*
X41035461Y-126977811D01*
X41855705Y-126157567D01*
X42675949Y-126977811D01*
X41855705Y-127798055D01*
X41855705Y-127798055D01*
G37*
D12*
X40795045Y-128038471D03*
D13*
G36*
X40795045Y-128858715D02*
X39974801Y-128038471D01*
X40795045Y-127218227D01*
X41615289Y-128038471D01*
X40795045Y-128858715D01*
X40795045Y-128858715D01*
G37*
D12*
X40795045Y-125917151D03*
D13*
G36*
X40795045Y-126737395D02*
X39974801Y-125917151D01*
X40795045Y-125096907D01*
X41615289Y-125917151D01*
X40795045Y-126737395D01*
X40795045Y-126737395D01*
G37*
D12*
X39734385Y-126977811D03*
D13*
G36*
X39734385Y-127798055D02*
X38914141Y-126977811D01*
X39734385Y-126157567D01*
X40554629Y-126977811D01*
X39734385Y-127798055D01*
X39734385Y-127798055D01*
G37*
D14*
X32875449Y-125775729D03*
D13*
G36*
X33600233Y-126111605D02*
X33211325Y-126500513D01*
X32150665Y-125439853D01*
X32539573Y-125050945D01*
X33600233Y-126111605D01*
X33600233Y-126111605D01*
G37*
D14*
X33441135Y-125210044D03*
D13*
G36*
X34165919Y-125545920D02*
X33777011Y-125934828D01*
X32716351Y-124874168D01*
X33105259Y-124485260D01*
X34165919Y-125545920D01*
X34165919Y-125545920D01*
G37*
D14*
X34006820Y-124644359D03*
D13*
G36*
X34731604Y-124980235D02*
X34342696Y-125369143D01*
X33282036Y-124308483D01*
X33670944Y-123919575D01*
X34731604Y-124980235D01*
X34731604Y-124980235D01*
G37*
D14*
X34572505Y-124078673D03*
D13*
G36*
X35297289Y-124414549D02*
X34908381Y-124803457D01*
X33847721Y-123742797D01*
X34236629Y-123353889D01*
X35297289Y-124414549D01*
X35297289Y-124414549D01*
G37*
D14*
X35138191Y-123512988D03*
D13*
G36*
X35862975Y-123848864D02*
X35474067Y-124237772D01*
X34413407Y-123177112D01*
X34802315Y-122788204D01*
X35862975Y-123848864D01*
X35862975Y-123848864D01*
G37*
D14*
X35703876Y-122947302D03*
D13*
G36*
X36428660Y-123283178D02*
X36039752Y-123672086D01*
X34979092Y-122611426D01*
X35368000Y-122222518D01*
X36428660Y-123283178D01*
X36428660Y-123283178D01*
G37*
D14*
X36269562Y-122381617D03*
D13*
G36*
X36994346Y-122717493D02*
X36605438Y-123106401D01*
X35544778Y-122045741D01*
X35933686Y-121656833D01*
X36994346Y-122717493D01*
X36994346Y-122717493D01*
G37*
D14*
X36835247Y-121815931D03*
D13*
G36*
X37560031Y-122151807D02*
X37171123Y-122540715D01*
X36110463Y-121480055D01*
X36499371Y-121091147D01*
X37560031Y-122151807D01*
X37560031Y-122151807D01*
G37*
D14*
X37400933Y-121250246D03*
D13*
G36*
X38125717Y-121586122D02*
X37736809Y-121975030D01*
X36676149Y-120914370D01*
X37065057Y-120525462D01*
X38125717Y-121586122D01*
X38125717Y-121586122D01*
G37*
D14*
X37966618Y-120684561D03*
D13*
G36*
X38691402Y-121020437D02*
X38302494Y-121409345D01*
X37241834Y-120348685D01*
X37630742Y-119959777D01*
X38691402Y-121020437D01*
X38691402Y-121020437D01*
G37*
D14*
X38532303Y-120118875D03*
D13*
G36*
X39257087Y-120454751D02*
X38868179Y-120843659D01*
X37807519Y-119782999D01*
X38196427Y-119394091D01*
X39257087Y-120454751D01*
X39257087Y-120454751D01*
G37*
D14*
X40936467Y-120118875D03*
D13*
G36*
X40600591Y-120843659D02*
X40211683Y-120454751D01*
X41272343Y-119394091D01*
X41661251Y-119782999D01*
X40600591Y-120843659D01*
X40600591Y-120843659D01*
G37*
D14*
X41502152Y-120684561D03*
D13*
G36*
X41166276Y-121409345D02*
X40777368Y-121020437D01*
X41838028Y-119959777D01*
X42226936Y-120348685D01*
X41166276Y-121409345D01*
X41166276Y-121409345D01*
G37*
D14*
X42067837Y-121250246D03*
D13*
G36*
X41731961Y-121975030D02*
X41343053Y-121586122D01*
X42403713Y-120525462D01*
X42792621Y-120914370D01*
X41731961Y-121975030D01*
X41731961Y-121975030D01*
G37*
D14*
X42633523Y-121815931D03*
D13*
G36*
X42297647Y-122540715D02*
X41908739Y-122151807D01*
X42969399Y-121091147D01*
X43358307Y-121480055D01*
X42297647Y-122540715D01*
X42297647Y-122540715D01*
G37*
D14*
X43199208Y-122381617D03*
D13*
G36*
X42863332Y-123106401D02*
X42474424Y-122717493D01*
X43535084Y-121656833D01*
X43923992Y-122045741D01*
X42863332Y-123106401D01*
X42863332Y-123106401D01*
G37*
D14*
X43764894Y-122947302D03*
D13*
G36*
X43429018Y-123672086D02*
X43040110Y-123283178D01*
X44100770Y-122222518D01*
X44489678Y-122611426D01*
X43429018Y-123672086D01*
X43429018Y-123672086D01*
G37*
D14*
X44330579Y-123512988D03*
D13*
G36*
X43994703Y-124237772D02*
X43605795Y-123848864D01*
X44666455Y-122788204D01*
X45055363Y-123177112D01*
X43994703Y-124237772D01*
X43994703Y-124237772D01*
G37*
D14*
X44896265Y-124078673D03*
D13*
G36*
X44560389Y-124803457D02*
X44171481Y-124414549D01*
X45232141Y-123353889D01*
X45621049Y-123742797D01*
X44560389Y-124803457D01*
X44560389Y-124803457D01*
G37*
D14*
X45461950Y-124644359D03*
D13*
G36*
X45126074Y-125369143D02*
X44737166Y-124980235D01*
X45797826Y-123919575D01*
X46186734Y-124308483D01*
X45126074Y-125369143D01*
X45126074Y-125369143D01*
G37*
D14*
X46027635Y-125210044D03*
D13*
G36*
X45691759Y-125934828D02*
X45302851Y-125545920D01*
X46363511Y-124485260D01*
X46752419Y-124874168D01*
X45691759Y-125934828D01*
X45691759Y-125934828D01*
G37*
D14*
X46593321Y-125775729D03*
D13*
G36*
X46257445Y-126500513D02*
X45868537Y-126111605D01*
X46929197Y-125050945D01*
X47318105Y-125439853D01*
X46257445Y-126500513D01*
X46257445Y-126500513D01*
G37*
D14*
X46593321Y-128179893D03*
D13*
G36*
X47318105Y-128515769D02*
X46929197Y-128904677D01*
X45868537Y-127844017D01*
X46257445Y-127455109D01*
X47318105Y-128515769D01*
X47318105Y-128515769D01*
G37*
D14*
X46027635Y-128745578D03*
D13*
G36*
X46752419Y-129081454D02*
X46363511Y-129470362D01*
X45302851Y-128409702D01*
X45691759Y-128020794D01*
X46752419Y-129081454D01*
X46752419Y-129081454D01*
G37*
D14*
X45461950Y-129311263D03*
D13*
G36*
X46186734Y-129647139D02*
X45797826Y-130036047D01*
X44737166Y-128975387D01*
X45126074Y-128586479D01*
X46186734Y-129647139D01*
X46186734Y-129647139D01*
G37*
D14*
X44896265Y-129876949D03*
D13*
G36*
X45621049Y-130212825D02*
X45232141Y-130601733D01*
X44171481Y-129541073D01*
X44560389Y-129152165D01*
X45621049Y-130212825D01*
X45621049Y-130212825D01*
G37*
D14*
X44330579Y-130442634D03*
D13*
G36*
X45055363Y-130778510D02*
X44666455Y-131167418D01*
X43605795Y-130106758D01*
X43994703Y-129717850D01*
X45055363Y-130778510D01*
X45055363Y-130778510D01*
G37*
D14*
X43764894Y-131008320D03*
D13*
G36*
X44489678Y-131344196D02*
X44100770Y-131733104D01*
X43040110Y-130672444D01*
X43429018Y-130283536D01*
X44489678Y-131344196D01*
X44489678Y-131344196D01*
G37*
D14*
X43199208Y-131574005D03*
D13*
G36*
X43923992Y-131909881D02*
X43535084Y-132298789D01*
X42474424Y-131238129D01*
X42863332Y-130849221D01*
X43923992Y-131909881D01*
X43923992Y-131909881D01*
G37*
D14*
X42633523Y-132139691D03*
D13*
G36*
X43358307Y-132475567D02*
X42969399Y-132864475D01*
X41908739Y-131803815D01*
X42297647Y-131414907D01*
X43358307Y-132475567D01*
X43358307Y-132475567D01*
G37*
D14*
X42067837Y-132705376D03*
D13*
G36*
X42792621Y-133041252D02*
X42403713Y-133430160D01*
X41343053Y-132369500D01*
X41731961Y-131980592D01*
X42792621Y-133041252D01*
X42792621Y-133041252D01*
G37*
D14*
X41502152Y-133271061D03*
D13*
G36*
X42226936Y-133606937D02*
X41838028Y-133995845D01*
X40777368Y-132935185D01*
X41166276Y-132546277D01*
X42226936Y-133606937D01*
X42226936Y-133606937D01*
G37*
D14*
X40936467Y-133836747D03*
D13*
G36*
X41661251Y-134172623D02*
X41272343Y-134561531D01*
X40211683Y-133500871D01*
X40600591Y-133111963D01*
X41661251Y-134172623D01*
X41661251Y-134172623D01*
G37*
D14*
X38532303Y-133836747D03*
D13*
G36*
X38196427Y-134561531D02*
X37807519Y-134172623D01*
X38868179Y-133111963D01*
X39257087Y-133500871D01*
X38196427Y-134561531D01*
X38196427Y-134561531D01*
G37*
D14*
X37966618Y-133271061D03*
D13*
G36*
X37630742Y-133995845D02*
X37241834Y-133606937D01*
X38302494Y-132546277D01*
X38691402Y-132935185D01*
X37630742Y-133995845D01*
X37630742Y-133995845D01*
G37*
D14*
X37400933Y-132705376D03*
D13*
G36*
X37065057Y-133430160D02*
X36676149Y-133041252D01*
X37736809Y-131980592D01*
X38125717Y-132369500D01*
X37065057Y-133430160D01*
X37065057Y-133430160D01*
G37*
D14*
X36835247Y-132139691D03*
D13*
G36*
X36499371Y-132864475D02*
X36110463Y-132475567D01*
X37171123Y-131414907D01*
X37560031Y-131803815D01*
X36499371Y-132864475D01*
X36499371Y-132864475D01*
G37*
D14*
X36269562Y-131574005D03*
D13*
G36*
X35933686Y-132298789D02*
X35544778Y-131909881D01*
X36605438Y-130849221D01*
X36994346Y-131238129D01*
X35933686Y-132298789D01*
X35933686Y-132298789D01*
G37*
D14*
X35703876Y-131008320D03*
D13*
G36*
X35368000Y-131733104D02*
X34979092Y-131344196D01*
X36039752Y-130283536D01*
X36428660Y-130672444D01*
X35368000Y-131733104D01*
X35368000Y-131733104D01*
G37*
D14*
X35138191Y-130442634D03*
D13*
G36*
X34802315Y-131167418D02*
X34413407Y-130778510D01*
X35474067Y-129717850D01*
X35862975Y-130106758D01*
X34802315Y-131167418D01*
X34802315Y-131167418D01*
G37*
D14*
X34572505Y-129876949D03*
D13*
G36*
X34236629Y-130601733D02*
X33847721Y-130212825D01*
X34908381Y-129152165D01*
X35297289Y-129541073D01*
X34236629Y-130601733D01*
X34236629Y-130601733D01*
G37*
D14*
X34006820Y-129311263D03*
D13*
G36*
X33670944Y-130036047D02*
X33282036Y-129647139D01*
X34342696Y-128586479D01*
X34731604Y-128975387D01*
X33670944Y-130036047D01*
X33670944Y-130036047D01*
G37*
D14*
X33441135Y-128745578D03*
D13*
G36*
X33105259Y-129470362D02*
X32716351Y-129081454D01*
X33777011Y-128020794D01*
X34165919Y-128409702D01*
X33105259Y-129470362D01*
X33105259Y-129470362D01*
G37*
D14*
X32875449Y-128179893D03*
D13*
G36*
X32539573Y-128904677D02*
X32150665Y-128515769D01*
X33211325Y-127455109D01*
X33600233Y-127844017D01*
X32539573Y-128904677D01*
X32539573Y-128904677D01*
G37*
G04 #@! TD*
D15*
G04 #@! TO.C,J2*
X239481059Y-32198119D03*
D16*
X238481059Y-34898119D03*
X237831059Y-34898119D03*
X237181059Y-34898119D03*
X239781059Y-34898119D03*
X239131059Y-34898119D03*
D15*
X237481059Y-32198119D03*
G04 #@! TD*
D17*
G04 #@! TO.C,L1*
X205586048Y-100233907D03*
X199186048Y-100233907D03*
G04 #@! TD*
D18*
G04 #@! TO.C,M1*
X191636048Y-106533907D03*
X191636048Y-105583907D03*
X191636048Y-107483907D03*
X188936048Y-107483907D03*
X188936048Y-106533907D03*
X188936048Y-105583907D03*
G04 #@! TD*
D19*
G04 #@! TO.C,U3*
X180661048Y-99428907D03*
X180661048Y-100698907D03*
X180661048Y-101968907D03*
X180661048Y-103238907D03*
X174911048Y-103238907D03*
X174911048Y-101968907D03*
X174911048Y-100698907D03*
X174911048Y-99428907D03*
D20*
X177786048Y-101333907D03*
G04 #@! TD*
D21*
G04 #@! TO.C,RV1*
X145381059Y-99903119D03*
D22*
X144231059Y-103903119D03*
D21*
X143081059Y-99903119D03*
G04 #@! TD*
D13*
G04 #@! TO.C,R28*
G36*
X258939527Y-107528985D02*
X258963188Y-107532495D01*
X258986392Y-107538307D01*
X259008914Y-107546365D01*
X259030538Y-107556593D01*
X259051055Y-107568890D01*
X259070268Y-107583140D01*
X259087992Y-107599204D01*
X259104056Y-107616928D01*
X259118306Y-107636141D01*
X259130603Y-107656658D01*
X259140831Y-107678282D01*
X259148889Y-107700804D01*
X259154701Y-107724008D01*
X259158211Y-107747669D01*
X259159385Y-107771561D01*
X259159385Y-108684061D01*
X259158211Y-108707953D01*
X259154701Y-108731614D01*
X259148889Y-108754818D01*
X259140831Y-108777340D01*
X259130603Y-108798964D01*
X259118306Y-108819481D01*
X259104056Y-108838694D01*
X259087992Y-108856418D01*
X259070268Y-108872482D01*
X259051055Y-108886732D01*
X259030538Y-108899029D01*
X259008914Y-108909257D01*
X258986392Y-108917315D01*
X258963188Y-108923127D01*
X258939527Y-108926637D01*
X258915635Y-108927811D01*
X258428135Y-108927811D01*
X258404243Y-108926637D01*
X258380582Y-108923127D01*
X258357378Y-108917315D01*
X258334856Y-108909257D01*
X258313232Y-108899029D01*
X258292715Y-108886732D01*
X258273502Y-108872482D01*
X258255778Y-108856418D01*
X258239714Y-108838694D01*
X258225464Y-108819481D01*
X258213167Y-108798964D01*
X258202939Y-108777340D01*
X258194881Y-108754818D01*
X258189069Y-108731614D01*
X258185559Y-108707953D01*
X258184385Y-108684061D01*
X258184385Y-107771561D01*
X258185559Y-107747669D01*
X258189069Y-107724008D01*
X258194881Y-107700804D01*
X258202939Y-107678282D01*
X258213167Y-107656658D01*
X258225464Y-107636141D01*
X258239714Y-107616928D01*
X258255778Y-107599204D01*
X258273502Y-107583140D01*
X258292715Y-107568890D01*
X258313232Y-107556593D01*
X258334856Y-107546365D01*
X258357378Y-107538307D01*
X258380582Y-107532495D01*
X258404243Y-107528985D01*
X258428135Y-107527811D01*
X258915635Y-107527811D01*
X258939527Y-107528985D01*
X258939527Y-107528985D01*
G37*
D23*
X258671885Y-108227811D03*
D13*
G36*
X257064527Y-107528985D02*
X257088188Y-107532495D01*
X257111392Y-107538307D01*
X257133914Y-107546365D01*
X257155538Y-107556593D01*
X257176055Y-107568890D01*
X257195268Y-107583140D01*
X257212992Y-107599204D01*
X257229056Y-107616928D01*
X257243306Y-107636141D01*
X257255603Y-107656658D01*
X257265831Y-107678282D01*
X257273889Y-107700804D01*
X257279701Y-107724008D01*
X257283211Y-107747669D01*
X257284385Y-107771561D01*
X257284385Y-108684061D01*
X257283211Y-108707953D01*
X257279701Y-108731614D01*
X257273889Y-108754818D01*
X257265831Y-108777340D01*
X257255603Y-108798964D01*
X257243306Y-108819481D01*
X257229056Y-108838694D01*
X257212992Y-108856418D01*
X257195268Y-108872482D01*
X257176055Y-108886732D01*
X257155538Y-108899029D01*
X257133914Y-108909257D01*
X257111392Y-108917315D01*
X257088188Y-108923127D01*
X257064527Y-108926637D01*
X257040635Y-108927811D01*
X256553135Y-108927811D01*
X256529243Y-108926637D01*
X256505582Y-108923127D01*
X256482378Y-108917315D01*
X256459856Y-108909257D01*
X256438232Y-108899029D01*
X256417715Y-108886732D01*
X256398502Y-108872482D01*
X256380778Y-108856418D01*
X256364714Y-108838694D01*
X256350464Y-108819481D01*
X256338167Y-108798964D01*
X256327939Y-108777340D01*
X256319881Y-108754818D01*
X256314069Y-108731614D01*
X256310559Y-108707953D01*
X256309385Y-108684061D01*
X256309385Y-107771561D01*
X256310559Y-107747669D01*
X256314069Y-107724008D01*
X256319881Y-107700804D01*
X256327939Y-107678282D01*
X256338167Y-107656658D01*
X256350464Y-107636141D01*
X256364714Y-107616928D01*
X256380778Y-107599204D01*
X256398502Y-107583140D01*
X256417715Y-107568890D01*
X256438232Y-107556593D01*
X256459856Y-107546365D01*
X256482378Y-107538307D01*
X256505582Y-107532495D01*
X256529243Y-107528985D01*
X256553135Y-107527811D01*
X257040635Y-107527811D01*
X257064527Y-107528985D01*
X257064527Y-107528985D01*
G37*
D23*
X256796885Y-108227811D03*
G04 #@! TD*
D13*
G04 #@! TO.C,R29*
G36*
X258939527Y-110528985D02*
X258963188Y-110532495D01*
X258986392Y-110538307D01*
X259008914Y-110546365D01*
X259030538Y-110556593D01*
X259051055Y-110568890D01*
X259070268Y-110583140D01*
X259087992Y-110599204D01*
X259104056Y-110616928D01*
X259118306Y-110636141D01*
X259130603Y-110656658D01*
X259140831Y-110678282D01*
X259148889Y-110700804D01*
X259154701Y-110724008D01*
X259158211Y-110747669D01*
X259159385Y-110771561D01*
X259159385Y-111684061D01*
X259158211Y-111707953D01*
X259154701Y-111731614D01*
X259148889Y-111754818D01*
X259140831Y-111777340D01*
X259130603Y-111798964D01*
X259118306Y-111819481D01*
X259104056Y-111838694D01*
X259087992Y-111856418D01*
X259070268Y-111872482D01*
X259051055Y-111886732D01*
X259030538Y-111899029D01*
X259008914Y-111909257D01*
X258986392Y-111917315D01*
X258963188Y-111923127D01*
X258939527Y-111926637D01*
X258915635Y-111927811D01*
X258428135Y-111927811D01*
X258404243Y-111926637D01*
X258380582Y-111923127D01*
X258357378Y-111917315D01*
X258334856Y-111909257D01*
X258313232Y-111899029D01*
X258292715Y-111886732D01*
X258273502Y-111872482D01*
X258255778Y-111856418D01*
X258239714Y-111838694D01*
X258225464Y-111819481D01*
X258213167Y-111798964D01*
X258202939Y-111777340D01*
X258194881Y-111754818D01*
X258189069Y-111731614D01*
X258185559Y-111707953D01*
X258184385Y-111684061D01*
X258184385Y-110771561D01*
X258185559Y-110747669D01*
X258189069Y-110724008D01*
X258194881Y-110700804D01*
X258202939Y-110678282D01*
X258213167Y-110656658D01*
X258225464Y-110636141D01*
X258239714Y-110616928D01*
X258255778Y-110599204D01*
X258273502Y-110583140D01*
X258292715Y-110568890D01*
X258313232Y-110556593D01*
X258334856Y-110546365D01*
X258357378Y-110538307D01*
X258380582Y-110532495D01*
X258404243Y-110528985D01*
X258428135Y-110527811D01*
X258915635Y-110527811D01*
X258939527Y-110528985D01*
X258939527Y-110528985D01*
G37*
D23*
X258671885Y-111227811D03*
D13*
G36*
X257064527Y-110528985D02*
X257088188Y-110532495D01*
X257111392Y-110538307D01*
X257133914Y-110546365D01*
X257155538Y-110556593D01*
X257176055Y-110568890D01*
X257195268Y-110583140D01*
X257212992Y-110599204D01*
X257229056Y-110616928D01*
X257243306Y-110636141D01*
X257255603Y-110656658D01*
X257265831Y-110678282D01*
X257273889Y-110700804D01*
X257279701Y-110724008D01*
X257283211Y-110747669D01*
X257284385Y-110771561D01*
X257284385Y-111684061D01*
X257283211Y-111707953D01*
X257279701Y-111731614D01*
X257273889Y-111754818D01*
X257265831Y-111777340D01*
X257255603Y-111798964D01*
X257243306Y-111819481D01*
X257229056Y-111838694D01*
X257212992Y-111856418D01*
X257195268Y-111872482D01*
X257176055Y-111886732D01*
X257155538Y-111899029D01*
X257133914Y-111909257D01*
X257111392Y-111917315D01*
X257088188Y-111923127D01*
X257064527Y-111926637D01*
X257040635Y-111927811D01*
X256553135Y-111927811D01*
X256529243Y-111926637D01*
X256505582Y-111923127D01*
X256482378Y-111917315D01*
X256459856Y-111909257D01*
X256438232Y-111899029D01*
X256417715Y-111886732D01*
X256398502Y-111872482D01*
X256380778Y-111856418D01*
X256364714Y-111838694D01*
X256350464Y-111819481D01*
X256338167Y-111798964D01*
X256327939Y-111777340D01*
X256319881Y-111754818D01*
X256314069Y-111731614D01*
X256310559Y-111707953D01*
X256309385Y-111684061D01*
X256309385Y-110771561D01*
X256310559Y-110747669D01*
X256314069Y-110724008D01*
X256319881Y-110700804D01*
X256327939Y-110678282D01*
X256338167Y-110656658D01*
X256350464Y-110636141D01*
X256364714Y-110616928D01*
X256380778Y-110599204D01*
X256398502Y-110583140D01*
X256417715Y-110568890D01*
X256438232Y-110556593D01*
X256459856Y-110546365D01*
X256482378Y-110538307D01*
X256505582Y-110532495D01*
X256529243Y-110528985D01*
X256553135Y-110527811D01*
X257040635Y-110527811D01*
X257064527Y-110528985D01*
X257064527Y-110528985D01*
G37*
D23*
X256796885Y-111227811D03*
G04 #@! TD*
D13*
G04 #@! TO.C,R30*
G36*
X257064527Y-113528985D02*
X257088188Y-113532495D01*
X257111392Y-113538307D01*
X257133914Y-113546365D01*
X257155538Y-113556593D01*
X257176055Y-113568890D01*
X257195268Y-113583140D01*
X257212992Y-113599204D01*
X257229056Y-113616928D01*
X257243306Y-113636141D01*
X257255603Y-113656658D01*
X257265831Y-113678282D01*
X257273889Y-113700804D01*
X257279701Y-113724008D01*
X257283211Y-113747669D01*
X257284385Y-113771561D01*
X257284385Y-114684061D01*
X257283211Y-114707953D01*
X257279701Y-114731614D01*
X257273889Y-114754818D01*
X257265831Y-114777340D01*
X257255603Y-114798964D01*
X257243306Y-114819481D01*
X257229056Y-114838694D01*
X257212992Y-114856418D01*
X257195268Y-114872482D01*
X257176055Y-114886732D01*
X257155538Y-114899029D01*
X257133914Y-114909257D01*
X257111392Y-114917315D01*
X257088188Y-114923127D01*
X257064527Y-114926637D01*
X257040635Y-114927811D01*
X256553135Y-114927811D01*
X256529243Y-114926637D01*
X256505582Y-114923127D01*
X256482378Y-114917315D01*
X256459856Y-114909257D01*
X256438232Y-114899029D01*
X256417715Y-114886732D01*
X256398502Y-114872482D01*
X256380778Y-114856418D01*
X256364714Y-114838694D01*
X256350464Y-114819481D01*
X256338167Y-114798964D01*
X256327939Y-114777340D01*
X256319881Y-114754818D01*
X256314069Y-114731614D01*
X256310559Y-114707953D01*
X256309385Y-114684061D01*
X256309385Y-113771561D01*
X256310559Y-113747669D01*
X256314069Y-113724008D01*
X256319881Y-113700804D01*
X256327939Y-113678282D01*
X256338167Y-113656658D01*
X256350464Y-113636141D01*
X256364714Y-113616928D01*
X256380778Y-113599204D01*
X256398502Y-113583140D01*
X256417715Y-113568890D01*
X256438232Y-113556593D01*
X256459856Y-113546365D01*
X256482378Y-113538307D01*
X256505582Y-113532495D01*
X256529243Y-113528985D01*
X256553135Y-113527811D01*
X257040635Y-113527811D01*
X257064527Y-113528985D01*
X257064527Y-113528985D01*
G37*
D23*
X256796885Y-114227811D03*
D13*
G36*
X258939527Y-113528985D02*
X258963188Y-113532495D01*
X258986392Y-113538307D01*
X259008914Y-113546365D01*
X259030538Y-113556593D01*
X259051055Y-113568890D01*
X259070268Y-113583140D01*
X259087992Y-113599204D01*
X259104056Y-113616928D01*
X259118306Y-113636141D01*
X259130603Y-113656658D01*
X259140831Y-113678282D01*
X259148889Y-113700804D01*
X259154701Y-113724008D01*
X259158211Y-113747669D01*
X259159385Y-113771561D01*
X259159385Y-114684061D01*
X259158211Y-114707953D01*
X259154701Y-114731614D01*
X259148889Y-114754818D01*
X259140831Y-114777340D01*
X259130603Y-114798964D01*
X259118306Y-114819481D01*
X259104056Y-114838694D01*
X259087992Y-114856418D01*
X259070268Y-114872482D01*
X259051055Y-114886732D01*
X259030538Y-114899029D01*
X259008914Y-114909257D01*
X258986392Y-114917315D01*
X258963188Y-114923127D01*
X258939527Y-114926637D01*
X258915635Y-114927811D01*
X258428135Y-114927811D01*
X258404243Y-114926637D01*
X258380582Y-114923127D01*
X258357378Y-114917315D01*
X258334856Y-114909257D01*
X258313232Y-114899029D01*
X258292715Y-114886732D01*
X258273502Y-114872482D01*
X258255778Y-114856418D01*
X258239714Y-114838694D01*
X258225464Y-114819481D01*
X258213167Y-114798964D01*
X258202939Y-114777340D01*
X258194881Y-114754818D01*
X258189069Y-114731614D01*
X258185559Y-114707953D01*
X258184385Y-114684061D01*
X258184385Y-113771561D01*
X258185559Y-113747669D01*
X258189069Y-113724008D01*
X258194881Y-113700804D01*
X258202939Y-113678282D01*
X258213167Y-113656658D01*
X258225464Y-113636141D01*
X258239714Y-113616928D01*
X258255778Y-113599204D01*
X258273502Y-113583140D01*
X258292715Y-113568890D01*
X258313232Y-113556593D01*
X258334856Y-113546365D01*
X258357378Y-113538307D01*
X258380582Y-113532495D01*
X258404243Y-113528985D01*
X258428135Y-113527811D01*
X258915635Y-113527811D01*
X258939527Y-113528985D01*
X258939527Y-113528985D01*
G37*
D23*
X258671885Y-114227811D03*
G04 #@! TD*
D13*
G04 #@! TO.C,R33*
G36*
X253464527Y-121680476D02*
X253488188Y-121683986D01*
X253511392Y-121689798D01*
X253533914Y-121697856D01*
X253555538Y-121708084D01*
X253576055Y-121720381D01*
X253595268Y-121734631D01*
X253612992Y-121750695D01*
X253629056Y-121768419D01*
X253643306Y-121787632D01*
X253655603Y-121808149D01*
X253665831Y-121829773D01*
X253673889Y-121852295D01*
X253679701Y-121875499D01*
X253683211Y-121899160D01*
X253684385Y-121923052D01*
X253684385Y-122410552D01*
X253683211Y-122434444D01*
X253679701Y-122458105D01*
X253673889Y-122481309D01*
X253665831Y-122503831D01*
X253655603Y-122525455D01*
X253643306Y-122545972D01*
X253629056Y-122565185D01*
X253612992Y-122582909D01*
X253595268Y-122598973D01*
X253576055Y-122613223D01*
X253555538Y-122625520D01*
X253533914Y-122635748D01*
X253511392Y-122643806D01*
X253488188Y-122649618D01*
X253464527Y-122653128D01*
X253440635Y-122654302D01*
X252528135Y-122654302D01*
X252504243Y-122653128D01*
X252480582Y-122649618D01*
X252457378Y-122643806D01*
X252434856Y-122635748D01*
X252413232Y-122625520D01*
X252392715Y-122613223D01*
X252373502Y-122598973D01*
X252355778Y-122582909D01*
X252339714Y-122565185D01*
X252325464Y-122545972D01*
X252313167Y-122525455D01*
X252302939Y-122503831D01*
X252294881Y-122481309D01*
X252289069Y-122458105D01*
X252285559Y-122434444D01*
X252284385Y-122410552D01*
X252284385Y-121923052D01*
X252285559Y-121899160D01*
X252289069Y-121875499D01*
X252294881Y-121852295D01*
X252302939Y-121829773D01*
X252313167Y-121808149D01*
X252325464Y-121787632D01*
X252339714Y-121768419D01*
X252355778Y-121750695D01*
X252373502Y-121734631D01*
X252392715Y-121720381D01*
X252413232Y-121708084D01*
X252434856Y-121697856D01*
X252457378Y-121689798D01*
X252480582Y-121683986D01*
X252504243Y-121680476D01*
X252528135Y-121679302D01*
X253440635Y-121679302D01*
X253464527Y-121680476D01*
X253464527Y-121680476D01*
G37*
D23*
X252984385Y-122166802D03*
D13*
G36*
X253464527Y-119805476D02*
X253488188Y-119808986D01*
X253511392Y-119814798D01*
X253533914Y-119822856D01*
X253555538Y-119833084D01*
X253576055Y-119845381D01*
X253595268Y-119859631D01*
X253612992Y-119875695D01*
X253629056Y-119893419D01*
X253643306Y-119912632D01*
X253655603Y-119933149D01*
X253665831Y-119954773D01*
X253673889Y-119977295D01*
X253679701Y-120000499D01*
X253683211Y-120024160D01*
X253684385Y-120048052D01*
X253684385Y-120535552D01*
X253683211Y-120559444D01*
X253679701Y-120583105D01*
X253673889Y-120606309D01*
X253665831Y-120628831D01*
X253655603Y-120650455D01*
X253643306Y-120670972D01*
X253629056Y-120690185D01*
X253612992Y-120707909D01*
X253595268Y-120723973D01*
X253576055Y-120738223D01*
X253555538Y-120750520D01*
X253533914Y-120760748D01*
X253511392Y-120768806D01*
X253488188Y-120774618D01*
X253464527Y-120778128D01*
X253440635Y-120779302D01*
X252528135Y-120779302D01*
X252504243Y-120778128D01*
X252480582Y-120774618D01*
X252457378Y-120768806D01*
X252434856Y-120760748D01*
X252413232Y-120750520D01*
X252392715Y-120738223D01*
X252373502Y-120723973D01*
X252355778Y-120707909D01*
X252339714Y-120690185D01*
X252325464Y-120670972D01*
X252313167Y-120650455D01*
X252302939Y-120628831D01*
X252294881Y-120606309D01*
X252289069Y-120583105D01*
X252285559Y-120559444D01*
X252284385Y-120535552D01*
X252284385Y-120048052D01*
X252285559Y-120024160D01*
X252289069Y-120000499D01*
X252294881Y-119977295D01*
X252302939Y-119954773D01*
X252313167Y-119933149D01*
X252325464Y-119912632D01*
X252339714Y-119893419D01*
X252355778Y-119875695D01*
X252373502Y-119859631D01*
X252392715Y-119845381D01*
X252413232Y-119833084D01*
X252434856Y-119822856D01*
X252457378Y-119814798D01*
X252480582Y-119808986D01*
X252504243Y-119805476D01*
X252528135Y-119804302D01*
X253440635Y-119804302D01*
X253464527Y-119805476D01*
X253464527Y-119805476D01*
G37*
D23*
X252984385Y-120291802D03*
G04 #@! TD*
D13*
G04 #@! TO.C,R34*
G36*
X249477044Y-121680476D02*
X249500705Y-121683986D01*
X249523909Y-121689798D01*
X249546431Y-121697856D01*
X249568055Y-121708084D01*
X249588572Y-121720381D01*
X249607785Y-121734631D01*
X249625509Y-121750695D01*
X249641573Y-121768419D01*
X249655823Y-121787632D01*
X249668120Y-121808149D01*
X249678348Y-121829773D01*
X249686406Y-121852295D01*
X249692218Y-121875499D01*
X249695728Y-121899160D01*
X249696902Y-121923052D01*
X249696902Y-122410552D01*
X249695728Y-122434444D01*
X249692218Y-122458105D01*
X249686406Y-122481309D01*
X249678348Y-122503831D01*
X249668120Y-122525455D01*
X249655823Y-122545972D01*
X249641573Y-122565185D01*
X249625509Y-122582909D01*
X249607785Y-122598973D01*
X249588572Y-122613223D01*
X249568055Y-122625520D01*
X249546431Y-122635748D01*
X249523909Y-122643806D01*
X249500705Y-122649618D01*
X249477044Y-122653128D01*
X249453152Y-122654302D01*
X248540652Y-122654302D01*
X248516760Y-122653128D01*
X248493099Y-122649618D01*
X248469895Y-122643806D01*
X248447373Y-122635748D01*
X248425749Y-122625520D01*
X248405232Y-122613223D01*
X248386019Y-122598973D01*
X248368295Y-122582909D01*
X248352231Y-122565185D01*
X248337981Y-122545972D01*
X248325684Y-122525455D01*
X248315456Y-122503831D01*
X248307398Y-122481309D01*
X248301586Y-122458105D01*
X248298076Y-122434444D01*
X248296902Y-122410552D01*
X248296902Y-121923052D01*
X248298076Y-121899160D01*
X248301586Y-121875499D01*
X248307398Y-121852295D01*
X248315456Y-121829773D01*
X248325684Y-121808149D01*
X248337981Y-121787632D01*
X248352231Y-121768419D01*
X248368295Y-121750695D01*
X248386019Y-121734631D01*
X248405232Y-121720381D01*
X248425749Y-121708084D01*
X248447373Y-121697856D01*
X248469895Y-121689798D01*
X248493099Y-121683986D01*
X248516760Y-121680476D01*
X248540652Y-121679302D01*
X249453152Y-121679302D01*
X249477044Y-121680476D01*
X249477044Y-121680476D01*
G37*
D23*
X248996902Y-122166802D03*
D13*
G36*
X249477044Y-119805476D02*
X249500705Y-119808986D01*
X249523909Y-119814798D01*
X249546431Y-119822856D01*
X249568055Y-119833084D01*
X249588572Y-119845381D01*
X249607785Y-119859631D01*
X249625509Y-119875695D01*
X249641573Y-119893419D01*
X249655823Y-119912632D01*
X249668120Y-119933149D01*
X249678348Y-119954773D01*
X249686406Y-119977295D01*
X249692218Y-120000499D01*
X249695728Y-120024160D01*
X249696902Y-120048052D01*
X249696902Y-120535552D01*
X249695728Y-120559444D01*
X249692218Y-120583105D01*
X249686406Y-120606309D01*
X249678348Y-120628831D01*
X249668120Y-120650455D01*
X249655823Y-120670972D01*
X249641573Y-120690185D01*
X249625509Y-120707909D01*
X249607785Y-120723973D01*
X249588572Y-120738223D01*
X249568055Y-120750520D01*
X249546431Y-120760748D01*
X249523909Y-120768806D01*
X249500705Y-120774618D01*
X249477044Y-120778128D01*
X249453152Y-120779302D01*
X248540652Y-120779302D01*
X248516760Y-120778128D01*
X248493099Y-120774618D01*
X248469895Y-120768806D01*
X248447373Y-120760748D01*
X248425749Y-120750520D01*
X248405232Y-120738223D01*
X248386019Y-120723973D01*
X248368295Y-120707909D01*
X248352231Y-120690185D01*
X248337981Y-120670972D01*
X248325684Y-120650455D01*
X248315456Y-120628831D01*
X248307398Y-120606309D01*
X248301586Y-120583105D01*
X248298076Y-120559444D01*
X248296902Y-120535552D01*
X248296902Y-120048052D01*
X248298076Y-120024160D01*
X248301586Y-120000499D01*
X248307398Y-119977295D01*
X248315456Y-119954773D01*
X248325684Y-119933149D01*
X248337981Y-119912632D01*
X248352231Y-119893419D01*
X248368295Y-119875695D01*
X248386019Y-119859631D01*
X248405232Y-119845381D01*
X248425749Y-119833084D01*
X248447373Y-119822856D01*
X248469895Y-119814798D01*
X248493099Y-119808986D01*
X248516760Y-119805476D01*
X248540652Y-119804302D01*
X249453152Y-119804302D01*
X249477044Y-119805476D01*
X249477044Y-119805476D01*
G37*
D23*
X248996902Y-120291802D03*
G04 #@! TD*
D24*
G04 #@! TO.C,U6*
X239964385Y-111393821D03*
X241234385Y-111393821D03*
X242504385Y-111393821D03*
X243774385Y-111393821D03*
X245044385Y-111393821D03*
X246314385Y-111393821D03*
X247584385Y-111393821D03*
X248854385Y-111393821D03*
X248854385Y-116793821D03*
X247584385Y-116793821D03*
X246314385Y-116793821D03*
X245044385Y-116793821D03*
X243774385Y-116793821D03*
X242504385Y-116793821D03*
X241234385Y-116793821D03*
X239964385Y-116793821D03*
G04 #@! TD*
D13*
G04 #@! TO.C,C1*
G36*
X48304544Y-122318859D02*
X48328205Y-122322369D01*
X48351409Y-122328181D01*
X48373931Y-122336239D01*
X48395555Y-122346467D01*
X48416072Y-122358764D01*
X48435285Y-122373014D01*
X48453009Y-122389078D01*
X48797724Y-122733793D01*
X48813788Y-122751517D01*
X48828038Y-122770730D01*
X48840335Y-122791247D01*
X48850563Y-122812871D01*
X48858621Y-122835393D01*
X48864433Y-122858597D01*
X48867943Y-122882258D01*
X48869117Y-122906150D01*
X48867943Y-122930042D01*
X48864433Y-122953703D01*
X48858621Y-122976907D01*
X48850563Y-122999429D01*
X48840335Y-123021053D01*
X48828038Y-123041570D01*
X48813788Y-123060783D01*
X48797724Y-123078507D01*
X48152489Y-123723742D01*
X48134765Y-123739806D01*
X48115552Y-123754056D01*
X48095035Y-123766353D01*
X48073411Y-123776581D01*
X48050889Y-123784639D01*
X48027685Y-123790451D01*
X48004024Y-123793961D01*
X47980132Y-123795135D01*
X47956240Y-123793961D01*
X47932579Y-123790451D01*
X47909375Y-123784639D01*
X47886853Y-123776581D01*
X47865229Y-123766353D01*
X47844712Y-123754056D01*
X47825499Y-123739806D01*
X47807775Y-123723742D01*
X47463060Y-123379027D01*
X47446996Y-123361303D01*
X47432746Y-123342090D01*
X47420449Y-123321573D01*
X47410221Y-123299949D01*
X47402163Y-123277427D01*
X47396351Y-123254223D01*
X47392841Y-123230562D01*
X47391667Y-123206670D01*
X47392841Y-123182778D01*
X47396351Y-123159117D01*
X47402163Y-123135913D01*
X47410221Y-123113391D01*
X47420449Y-123091767D01*
X47432746Y-123071250D01*
X47446996Y-123052037D01*
X47463060Y-123034313D01*
X48108295Y-122389078D01*
X48126019Y-122373014D01*
X48145232Y-122358764D01*
X48165749Y-122346467D01*
X48187373Y-122336239D01*
X48209895Y-122328181D01*
X48233099Y-122322369D01*
X48256760Y-122318859D01*
X48280652Y-122317685D01*
X48304544Y-122318859D01*
X48304544Y-122318859D01*
G37*
D23*
X48130392Y-123056410D03*
D13*
G36*
X49630370Y-123644685D02*
X49654031Y-123648195D01*
X49677235Y-123654007D01*
X49699757Y-123662065D01*
X49721381Y-123672293D01*
X49741898Y-123684590D01*
X49761111Y-123698840D01*
X49778835Y-123714904D01*
X50123550Y-124059619D01*
X50139614Y-124077343D01*
X50153864Y-124096556D01*
X50166161Y-124117073D01*
X50176389Y-124138697D01*
X50184447Y-124161219D01*
X50190259Y-124184423D01*
X50193769Y-124208084D01*
X50194943Y-124231976D01*
X50193769Y-124255868D01*
X50190259Y-124279529D01*
X50184447Y-124302733D01*
X50176389Y-124325255D01*
X50166161Y-124346879D01*
X50153864Y-124367396D01*
X50139614Y-124386609D01*
X50123550Y-124404333D01*
X49478315Y-125049568D01*
X49460591Y-125065632D01*
X49441378Y-125079882D01*
X49420861Y-125092179D01*
X49399237Y-125102407D01*
X49376715Y-125110465D01*
X49353511Y-125116277D01*
X49329850Y-125119787D01*
X49305958Y-125120961D01*
X49282066Y-125119787D01*
X49258405Y-125116277D01*
X49235201Y-125110465D01*
X49212679Y-125102407D01*
X49191055Y-125092179D01*
X49170538Y-125079882D01*
X49151325Y-125065632D01*
X49133601Y-125049568D01*
X48788886Y-124704853D01*
X48772822Y-124687129D01*
X48758572Y-124667916D01*
X48746275Y-124647399D01*
X48736047Y-124625775D01*
X48727989Y-124603253D01*
X48722177Y-124580049D01*
X48718667Y-124556388D01*
X48717493Y-124532496D01*
X48718667Y-124508604D01*
X48722177Y-124484943D01*
X48727989Y-124461739D01*
X48736047Y-124439217D01*
X48746275Y-124417593D01*
X48758572Y-124397076D01*
X48772822Y-124377863D01*
X48788886Y-124360139D01*
X49434121Y-123714904D01*
X49451845Y-123698840D01*
X49471058Y-123684590D01*
X49491575Y-123672293D01*
X49513199Y-123662065D01*
X49535721Y-123654007D01*
X49558925Y-123648195D01*
X49582586Y-123644685D01*
X49606478Y-123643511D01*
X49630370Y-123644685D01*
X49630370Y-123644685D01*
G37*
D23*
X49456218Y-124382236D03*
G04 #@! TD*
D13*
G04 #@! TO.C,C2*
G36*
X51098231Y-138595281D02*
X51121892Y-138598791D01*
X51145096Y-138604603D01*
X51167618Y-138612661D01*
X51189242Y-138622889D01*
X51209759Y-138635186D01*
X51228972Y-138649436D01*
X51246696Y-138665500D01*
X51262760Y-138683224D01*
X51277010Y-138702437D01*
X51289307Y-138722954D01*
X51299535Y-138744578D01*
X51307593Y-138767100D01*
X51313405Y-138790304D01*
X51316915Y-138813965D01*
X51318089Y-138837857D01*
X51318089Y-139325357D01*
X51316915Y-139349249D01*
X51313405Y-139372910D01*
X51307593Y-139396114D01*
X51299535Y-139418636D01*
X51289307Y-139440260D01*
X51277010Y-139460777D01*
X51262760Y-139479990D01*
X51246696Y-139497714D01*
X51228972Y-139513778D01*
X51209759Y-139528028D01*
X51189242Y-139540325D01*
X51167618Y-139550553D01*
X51145096Y-139558611D01*
X51121892Y-139564423D01*
X51098231Y-139567933D01*
X51074339Y-139569107D01*
X50161839Y-139569107D01*
X50137947Y-139567933D01*
X50114286Y-139564423D01*
X50091082Y-139558611D01*
X50068560Y-139550553D01*
X50046936Y-139540325D01*
X50026419Y-139528028D01*
X50007206Y-139513778D01*
X49989482Y-139497714D01*
X49973418Y-139479990D01*
X49959168Y-139460777D01*
X49946871Y-139440260D01*
X49936643Y-139418636D01*
X49928585Y-139396114D01*
X49922773Y-139372910D01*
X49919263Y-139349249D01*
X49918089Y-139325357D01*
X49918089Y-138837857D01*
X49919263Y-138813965D01*
X49922773Y-138790304D01*
X49928585Y-138767100D01*
X49936643Y-138744578D01*
X49946871Y-138722954D01*
X49959168Y-138702437D01*
X49973418Y-138683224D01*
X49989482Y-138665500D01*
X50007206Y-138649436D01*
X50026419Y-138635186D01*
X50046936Y-138622889D01*
X50068560Y-138612661D01*
X50091082Y-138604603D01*
X50114286Y-138598791D01*
X50137947Y-138595281D01*
X50161839Y-138594107D01*
X51074339Y-138594107D01*
X51098231Y-138595281D01*
X51098231Y-138595281D01*
G37*
D23*
X50618089Y-139081607D03*
D13*
G36*
X51098231Y-136720281D02*
X51121892Y-136723791D01*
X51145096Y-136729603D01*
X51167618Y-136737661D01*
X51189242Y-136747889D01*
X51209759Y-136760186D01*
X51228972Y-136774436D01*
X51246696Y-136790500D01*
X51262760Y-136808224D01*
X51277010Y-136827437D01*
X51289307Y-136847954D01*
X51299535Y-136869578D01*
X51307593Y-136892100D01*
X51313405Y-136915304D01*
X51316915Y-136938965D01*
X51318089Y-136962857D01*
X51318089Y-137450357D01*
X51316915Y-137474249D01*
X51313405Y-137497910D01*
X51307593Y-137521114D01*
X51299535Y-137543636D01*
X51289307Y-137565260D01*
X51277010Y-137585777D01*
X51262760Y-137604990D01*
X51246696Y-137622714D01*
X51228972Y-137638778D01*
X51209759Y-137653028D01*
X51189242Y-137665325D01*
X51167618Y-137675553D01*
X51145096Y-137683611D01*
X51121892Y-137689423D01*
X51098231Y-137692933D01*
X51074339Y-137694107D01*
X50161839Y-137694107D01*
X50137947Y-137692933D01*
X50114286Y-137689423D01*
X50091082Y-137683611D01*
X50068560Y-137675553D01*
X50046936Y-137665325D01*
X50026419Y-137653028D01*
X50007206Y-137638778D01*
X49989482Y-137622714D01*
X49973418Y-137604990D01*
X49959168Y-137585777D01*
X49946871Y-137565260D01*
X49936643Y-137543636D01*
X49928585Y-137521114D01*
X49922773Y-137497910D01*
X49919263Y-137474249D01*
X49918089Y-137450357D01*
X49918089Y-136962857D01*
X49919263Y-136938965D01*
X49922773Y-136915304D01*
X49928585Y-136892100D01*
X49936643Y-136869578D01*
X49946871Y-136847954D01*
X49959168Y-136827437D01*
X49973418Y-136808224D01*
X49989482Y-136790500D01*
X50007206Y-136774436D01*
X50026419Y-136760186D01*
X50046936Y-136747889D01*
X50068560Y-136737661D01*
X50091082Y-136729603D01*
X50114286Y-136723791D01*
X50137947Y-136720281D01*
X50161839Y-136719107D01*
X51074339Y-136719107D01*
X51098231Y-136720281D01*
X51098231Y-136720281D01*
G37*
D23*
X50618089Y-137206607D03*
G04 #@! TD*
D13*
G04 #@! TO.C,C3*
G36*
X48498231Y-140770281D02*
X48521892Y-140773791D01*
X48545096Y-140779603D01*
X48567618Y-140787661D01*
X48589242Y-140797889D01*
X48609759Y-140810186D01*
X48628972Y-140824436D01*
X48646696Y-140840500D01*
X48662760Y-140858224D01*
X48677010Y-140877437D01*
X48689307Y-140897954D01*
X48699535Y-140919578D01*
X48707593Y-140942100D01*
X48713405Y-140965304D01*
X48716915Y-140988965D01*
X48718089Y-141012857D01*
X48718089Y-141500357D01*
X48716915Y-141524249D01*
X48713405Y-141547910D01*
X48707593Y-141571114D01*
X48699535Y-141593636D01*
X48689307Y-141615260D01*
X48677010Y-141635777D01*
X48662760Y-141654990D01*
X48646696Y-141672714D01*
X48628972Y-141688778D01*
X48609759Y-141703028D01*
X48589242Y-141715325D01*
X48567618Y-141725553D01*
X48545096Y-141733611D01*
X48521892Y-141739423D01*
X48498231Y-141742933D01*
X48474339Y-141744107D01*
X47561839Y-141744107D01*
X47537947Y-141742933D01*
X47514286Y-141739423D01*
X47491082Y-141733611D01*
X47468560Y-141725553D01*
X47446936Y-141715325D01*
X47426419Y-141703028D01*
X47407206Y-141688778D01*
X47389482Y-141672714D01*
X47373418Y-141654990D01*
X47359168Y-141635777D01*
X47346871Y-141615260D01*
X47336643Y-141593636D01*
X47328585Y-141571114D01*
X47322773Y-141547910D01*
X47319263Y-141524249D01*
X47318089Y-141500357D01*
X47318089Y-141012857D01*
X47319263Y-140988965D01*
X47322773Y-140965304D01*
X47328585Y-140942100D01*
X47336643Y-140919578D01*
X47346871Y-140897954D01*
X47359168Y-140877437D01*
X47373418Y-140858224D01*
X47389482Y-140840500D01*
X47407206Y-140824436D01*
X47426419Y-140810186D01*
X47446936Y-140797889D01*
X47468560Y-140787661D01*
X47491082Y-140779603D01*
X47514286Y-140773791D01*
X47537947Y-140770281D01*
X47561839Y-140769107D01*
X48474339Y-140769107D01*
X48498231Y-140770281D01*
X48498231Y-140770281D01*
G37*
D23*
X48018089Y-141256607D03*
D13*
G36*
X48498231Y-138895281D02*
X48521892Y-138898791D01*
X48545096Y-138904603D01*
X48567618Y-138912661D01*
X48589242Y-138922889D01*
X48609759Y-138935186D01*
X48628972Y-138949436D01*
X48646696Y-138965500D01*
X48662760Y-138983224D01*
X48677010Y-139002437D01*
X48689307Y-139022954D01*
X48699535Y-139044578D01*
X48707593Y-139067100D01*
X48713405Y-139090304D01*
X48716915Y-139113965D01*
X48718089Y-139137857D01*
X48718089Y-139625357D01*
X48716915Y-139649249D01*
X48713405Y-139672910D01*
X48707593Y-139696114D01*
X48699535Y-139718636D01*
X48689307Y-139740260D01*
X48677010Y-139760777D01*
X48662760Y-139779990D01*
X48646696Y-139797714D01*
X48628972Y-139813778D01*
X48609759Y-139828028D01*
X48589242Y-139840325D01*
X48567618Y-139850553D01*
X48545096Y-139858611D01*
X48521892Y-139864423D01*
X48498231Y-139867933D01*
X48474339Y-139869107D01*
X47561839Y-139869107D01*
X47537947Y-139867933D01*
X47514286Y-139864423D01*
X47491082Y-139858611D01*
X47468560Y-139850553D01*
X47446936Y-139840325D01*
X47426419Y-139828028D01*
X47407206Y-139813778D01*
X47389482Y-139797714D01*
X47373418Y-139779990D01*
X47359168Y-139760777D01*
X47346871Y-139740260D01*
X47336643Y-139718636D01*
X47328585Y-139696114D01*
X47322773Y-139672910D01*
X47319263Y-139649249D01*
X47318089Y-139625357D01*
X47318089Y-139137857D01*
X47319263Y-139113965D01*
X47322773Y-139090304D01*
X47328585Y-139067100D01*
X47336643Y-139044578D01*
X47346871Y-139022954D01*
X47359168Y-139002437D01*
X47373418Y-138983224D01*
X47389482Y-138965500D01*
X47407206Y-138949436D01*
X47426419Y-138935186D01*
X47446936Y-138922889D01*
X47468560Y-138912661D01*
X47491082Y-138904603D01*
X47514286Y-138898791D01*
X47537947Y-138895281D01*
X47561839Y-138894107D01*
X48474339Y-138894107D01*
X48498231Y-138895281D01*
X48498231Y-138895281D01*
G37*
D23*
X48018089Y-139381607D03*
G04 #@! TD*
D13*
G04 #@! TO.C,C4*
G36*
X30204024Y-134094253D02*
X30227685Y-134097763D01*
X30250889Y-134103575D01*
X30273411Y-134111633D01*
X30295035Y-134121861D01*
X30315552Y-134134158D01*
X30334765Y-134148408D01*
X30352489Y-134164472D01*
X30997724Y-134809707D01*
X31013788Y-134827431D01*
X31028038Y-134846644D01*
X31040335Y-134867161D01*
X31050563Y-134888785D01*
X31058621Y-134911307D01*
X31064433Y-134934511D01*
X31067943Y-134958172D01*
X31069117Y-134982064D01*
X31067943Y-135005956D01*
X31064433Y-135029617D01*
X31058621Y-135052821D01*
X31050563Y-135075343D01*
X31040335Y-135096967D01*
X31028038Y-135117484D01*
X31013788Y-135136697D01*
X30997724Y-135154421D01*
X30653009Y-135499136D01*
X30635285Y-135515200D01*
X30616072Y-135529450D01*
X30595555Y-135541747D01*
X30573931Y-135551975D01*
X30551409Y-135560033D01*
X30528205Y-135565845D01*
X30504544Y-135569355D01*
X30480652Y-135570529D01*
X30456760Y-135569355D01*
X30433099Y-135565845D01*
X30409895Y-135560033D01*
X30387373Y-135551975D01*
X30365749Y-135541747D01*
X30345232Y-135529450D01*
X30326019Y-135515200D01*
X30308295Y-135499136D01*
X29663060Y-134853901D01*
X29646996Y-134836177D01*
X29632746Y-134816964D01*
X29620449Y-134796447D01*
X29610221Y-134774823D01*
X29602163Y-134752301D01*
X29596351Y-134729097D01*
X29592841Y-134705436D01*
X29591667Y-134681544D01*
X29592841Y-134657652D01*
X29596351Y-134633991D01*
X29602163Y-134610787D01*
X29610221Y-134588265D01*
X29620449Y-134566641D01*
X29632746Y-134546124D01*
X29646996Y-134526911D01*
X29663060Y-134509187D01*
X30007775Y-134164472D01*
X30025499Y-134148408D01*
X30044712Y-134134158D01*
X30065229Y-134121861D01*
X30086853Y-134111633D01*
X30109375Y-134103575D01*
X30132579Y-134097763D01*
X30156240Y-134094253D01*
X30180132Y-134093079D01*
X30204024Y-134094253D01*
X30204024Y-134094253D01*
G37*
D23*
X30330392Y-134831804D03*
D13*
G36*
X31529850Y-132768427D02*
X31553511Y-132771937D01*
X31576715Y-132777749D01*
X31599237Y-132785807D01*
X31620861Y-132796035D01*
X31641378Y-132808332D01*
X31660591Y-132822582D01*
X31678315Y-132838646D01*
X32323550Y-133483881D01*
X32339614Y-133501605D01*
X32353864Y-133520818D01*
X32366161Y-133541335D01*
X32376389Y-133562959D01*
X32384447Y-133585481D01*
X32390259Y-133608685D01*
X32393769Y-133632346D01*
X32394943Y-133656238D01*
X32393769Y-133680130D01*
X32390259Y-133703791D01*
X32384447Y-133726995D01*
X32376389Y-133749517D01*
X32366161Y-133771141D01*
X32353864Y-133791658D01*
X32339614Y-133810871D01*
X32323550Y-133828595D01*
X31978835Y-134173310D01*
X31961111Y-134189374D01*
X31941898Y-134203624D01*
X31921381Y-134215921D01*
X31899757Y-134226149D01*
X31877235Y-134234207D01*
X31854031Y-134240019D01*
X31830370Y-134243529D01*
X31806478Y-134244703D01*
X31782586Y-134243529D01*
X31758925Y-134240019D01*
X31735721Y-134234207D01*
X31713199Y-134226149D01*
X31691575Y-134215921D01*
X31671058Y-134203624D01*
X31651845Y-134189374D01*
X31634121Y-134173310D01*
X30988886Y-133528075D01*
X30972822Y-133510351D01*
X30958572Y-133491138D01*
X30946275Y-133470621D01*
X30936047Y-133448997D01*
X30927989Y-133426475D01*
X30922177Y-133403271D01*
X30918667Y-133379610D01*
X30917493Y-133355718D01*
X30918667Y-133331826D01*
X30922177Y-133308165D01*
X30927989Y-133284961D01*
X30936047Y-133262439D01*
X30946275Y-133240815D01*
X30958572Y-133220298D01*
X30972822Y-133201085D01*
X30988886Y-133183361D01*
X31333601Y-132838646D01*
X31351325Y-132822582D01*
X31370538Y-132808332D01*
X31391055Y-132796035D01*
X31412679Y-132785807D01*
X31435201Y-132777749D01*
X31458405Y-132771937D01*
X31482066Y-132768427D01*
X31505958Y-132767253D01*
X31529850Y-132768427D01*
X31529850Y-132768427D01*
G37*
D23*
X31656218Y-133505978D03*
G04 #@! TD*
D13*
G04 #@! TO.C,C5*
G36*
X31654634Y-122043643D02*
X31678295Y-122047153D01*
X31701499Y-122052965D01*
X31724021Y-122061023D01*
X31745645Y-122071251D01*
X31766162Y-122083548D01*
X31785375Y-122097798D01*
X31803099Y-122113862D01*
X32448334Y-122759097D01*
X32464398Y-122776821D01*
X32478648Y-122796034D01*
X32490945Y-122816551D01*
X32501173Y-122838175D01*
X32509231Y-122860697D01*
X32515043Y-122883901D01*
X32518553Y-122907562D01*
X32519727Y-122931454D01*
X32518553Y-122955346D01*
X32515043Y-122979007D01*
X32509231Y-123002211D01*
X32501173Y-123024733D01*
X32490945Y-123046357D01*
X32478648Y-123066874D01*
X32464398Y-123086087D01*
X32448334Y-123103811D01*
X32103619Y-123448526D01*
X32085895Y-123464590D01*
X32066682Y-123478840D01*
X32046165Y-123491137D01*
X32024541Y-123501365D01*
X32002019Y-123509423D01*
X31978815Y-123515235D01*
X31955154Y-123518745D01*
X31931262Y-123519919D01*
X31907370Y-123518745D01*
X31883709Y-123515235D01*
X31860505Y-123509423D01*
X31837983Y-123501365D01*
X31816359Y-123491137D01*
X31795842Y-123478840D01*
X31776629Y-123464590D01*
X31758905Y-123448526D01*
X31113670Y-122803291D01*
X31097606Y-122785567D01*
X31083356Y-122766354D01*
X31071059Y-122745837D01*
X31060831Y-122724213D01*
X31052773Y-122701691D01*
X31046961Y-122678487D01*
X31043451Y-122654826D01*
X31042277Y-122630934D01*
X31043451Y-122607042D01*
X31046961Y-122583381D01*
X31052773Y-122560177D01*
X31060831Y-122537655D01*
X31071059Y-122516031D01*
X31083356Y-122495514D01*
X31097606Y-122476301D01*
X31113670Y-122458577D01*
X31458385Y-122113862D01*
X31476109Y-122097798D01*
X31495322Y-122083548D01*
X31515839Y-122071251D01*
X31537463Y-122061023D01*
X31559985Y-122052965D01*
X31583189Y-122047153D01*
X31606850Y-122043643D01*
X31630742Y-122042469D01*
X31654634Y-122043643D01*
X31654634Y-122043643D01*
G37*
D23*
X31781002Y-122781194D03*
D13*
G36*
X30328808Y-123369469D02*
X30352469Y-123372979D01*
X30375673Y-123378791D01*
X30398195Y-123386849D01*
X30419819Y-123397077D01*
X30440336Y-123409374D01*
X30459549Y-123423624D01*
X30477273Y-123439688D01*
X31122508Y-124084923D01*
X31138572Y-124102647D01*
X31152822Y-124121860D01*
X31165119Y-124142377D01*
X31175347Y-124164001D01*
X31183405Y-124186523D01*
X31189217Y-124209727D01*
X31192727Y-124233388D01*
X31193901Y-124257280D01*
X31192727Y-124281172D01*
X31189217Y-124304833D01*
X31183405Y-124328037D01*
X31175347Y-124350559D01*
X31165119Y-124372183D01*
X31152822Y-124392700D01*
X31138572Y-124411913D01*
X31122508Y-124429637D01*
X30777793Y-124774352D01*
X30760069Y-124790416D01*
X30740856Y-124804666D01*
X30720339Y-124816963D01*
X30698715Y-124827191D01*
X30676193Y-124835249D01*
X30652989Y-124841061D01*
X30629328Y-124844571D01*
X30605436Y-124845745D01*
X30581544Y-124844571D01*
X30557883Y-124841061D01*
X30534679Y-124835249D01*
X30512157Y-124827191D01*
X30490533Y-124816963D01*
X30470016Y-124804666D01*
X30450803Y-124790416D01*
X30433079Y-124774352D01*
X29787844Y-124129117D01*
X29771780Y-124111393D01*
X29757530Y-124092180D01*
X29745233Y-124071663D01*
X29735005Y-124050039D01*
X29726947Y-124027517D01*
X29721135Y-124004313D01*
X29717625Y-123980652D01*
X29716451Y-123956760D01*
X29717625Y-123932868D01*
X29721135Y-123909207D01*
X29726947Y-123886003D01*
X29735005Y-123863481D01*
X29745233Y-123841857D01*
X29757530Y-123821340D01*
X29771780Y-123802127D01*
X29787844Y-123784403D01*
X30132559Y-123439688D01*
X30150283Y-123423624D01*
X30169496Y-123409374D01*
X30190013Y-123397077D01*
X30211637Y-123386849D01*
X30234159Y-123378791D01*
X30257363Y-123372979D01*
X30281024Y-123369469D01*
X30304916Y-123368295D01*
X30328808Y-123369469D01*
X30328808Y-123369469D01*
G37*
D23*
X30455176Y-124107020D03*
G04 #@! TD*
D13*
G04 #@! TO.C,C6*
G36*
X35498231Y-134745281D02*
X35521892Y-134748791D01*
X35545096Y-134754603D01*
X35567618Y-134762661D01*
X35589242Y-134772889D01*
X35609759Y-134785186D01*
X35628972Y-134799436D01*
X35646696Y-134815500D01*
X35662760Y-134833224D01*
X35677010Y-134852437D01*
X35689307Y-134872954D01*
X35699535Y-134894578D01*
X35707593Y-134917100D01*
X35713405Y-134940304D01*
X35716915Y-134963965D01*
X35718089Y-134987857D01*
X35718089Y-135475357D01*
X35716915Y-135499249D01*
X35713405Y-135522910D01*
X35707593Y-135546114D01*
X35699535Y-135568636D01*
X35689307Y-135590260D01*
X35677010Y-135610777D01*
X35662760Y-135629990D01*
X35646696Y-135647714D01*
X35628972Y-135663778D01*
X35609759Y-135678028D01*
X35589242Y-135690325D01*
X35567618Y-135700553D01*
X35545096Y-135708611D01*
X35521892Y-135714423D01*
X35498231Y-135717933D01*
X35474339Y-135719107D01*
X34561839Y-135719107D01*
X34537947Y-135717933D01*
X34514286Y-135714423D01*
X34491082Y-135708611D01*
X34468560Y-135700553D01*
X34446936Y-135690325D01*
X34426419Y-135678028D01*
X34407206Y-135663778D01*
X34389482Y-135647714D01*
X34373418Y-135629990D01*
X34359168Y-135610777D01*
X34346871Y-135590260D01*
X34336643Y-135568636D01*
X34328585Y-135546114D01*
X34322773Y-135522910D01*
X34319263Y-135499249D01*
X34318089Y-135475357D01*
X34318089Y-134987857D01*
X34319263Y-134963965D01*
X34322773Y-134940304D01*
X34328585Y-134917100D01*
X34336643Y-134894578D01*
X34346871Y-134872954D01*
X34359168Y-134852437D01*
X34373418Y-134833224D01*
X34389482Y-134815500D01*
X34407206Y-134799436D01*
X34426419Y-134785186D01*
X34446936Y-134772889D01*
X34468560Y-134762661D01*
X34491082Y-134754603D01*
X34514286Y-134748791D01*
X34537947Y-134745281D01*
X34561839Y-134744107D01*
X35474339Y-134744107D01*
X35498231Y-134745281D01*
X35498231Y-134745281D01*
G37*
D23*
X35018089Y-135231607D03*
D13*
G36*
X35498231Y-136620281D02*
X35521892Y-136623791D01*
X35545096Y-136629603D01*
X35567618Y-136637661D01*
X35589242Y-136647889D01*
X35609759Y-136660186D01*
X35628972Y-136674436D01*
X35646696Y-136690500D01*
X35662760Y-136708224D01*
X35677010Y-136727437D01*
X35689307Y-136747954D01*
X35699535Y-136769578D01*
X35707593Y-136792100D01*
X35713405Y-136815304D01*
X35716915Y-136838965D01*
X35718089Y-136862857D01*
X35718089Y-137350357D01*
X35716915Y-137374249D01*
X35713405Y-137397910D01*
X35707593Y-137421114D01*
X35699535Y-137443636D01*
X35689307Y-137465260D01*
X35677010Y-137485777D01*
X35662760Y-137504990D01*
X35646696Y-137522714D01*
X35628972Y-137538778D01*
X35609759Y-137553028D01*
X35589242Y-137565325D01*
X35567618Y-137575553D01*
X35545096Y-137583611D01*
X35521892Y-137589423D01*
X35498231Y-137592933D01*
X35474339Y-137594107D01*
X34561839Y-137594107D01*
X34537947Y-137592933D01*
X34514286Y-137589423D01*
X34491082Y-137583611D01*
X34468560Y-137575553D01*
X34446936Y-137565325D01*
X34426419Y-137553028D01*
X34407206Y-137538778D01*
X34389482Y-137522714D01*
X34373418Y-137504990D01*
X34359168Y-137485777D01*
X34346871Y-137465260D01*
X34336643Y-137443636D01*
X34328585Y-137421114D01*
X34322773Y-137397910D01*
X34319263Y-137374249D01*
X34318089Y-137350357D01*
X34318089Y-136862857D01*
X34319263Y-136838965D01*
X34322773Y-136815304D01*
X34328585Y-136792100D01*
X34336643Y-136769578D01*
X34346871Y-136747954D01*
X34359168Y-136727437D01*
X34373418Y-136708224D01*
X34389482Y-136690500D01*
X34407206Y-136674436D01*
X34426419Y-136660186D01*
X34446936Y-136647889D01*
X34468560Y-136637661D01*
X34491082Y-136629603D01*
X34514286Y-136623791D01*
X34537947Y-136620281D01*
X34561839Y-136619107D01*
X35474339Y-136619107D01*
X35498231Y-136620281D01*
X35498231Y-136620281D01*
G37*
D23*
X35018089Y-137106607D03*
G04 #@! TD*
D13*
G04 #@! TO.C,C7*
G36*
X41157053Y-42069995D02*
X41180714Y-42073505D01*
X41203918Y-42079317D01*
X41226440Y-42087375D01*
X41248064Y-42097603D01*
X41268581Y-42109900D01*
X41287794Y-42124150D01*
X41305518Y-42140214D01*
X41321582Y-42157938D01*
X41335832Y-42177151D01*
X41348129Y-42197668D01*
X41358357Y-42219292D01*
X41366415Y-42241814D01*
X41372227Y-42265018D01*
X41375737Y-42288679D01*
X41376911Y-42312571D01*
X41376911Y-42800071D01*
X41375737Y-42823963D01*
X41372227Y-42847624D01*
X41366415Y-42870828D01*
X41358357Y-42893350D01*
X41348129Y-42914974D01*
X41335832Y-42935491D01*
X41321582Y-42954704D01*
X41305518Y-42972428D01*
X41287794Y-42988492D01*
X41268581Y-43002742D01*
X41248064Y-43015039D01*
X41226440Y-43025267D01*
X41203918Y-43033325D01*
X41180714Y-43039137D01*
X41157053Y-43042647D01*
X41133161Y-43043821D01*
X40220661Y-43043821D01*
X40196769Y-43042647D01*
X40173108Y-43039137D01*
X40149904Y-43033325D01*
X40127382Y-43025267D01*
X40105758Y-43015039D01*
X40085241Y-43002742D01*
X40066028Y-42988492D01*
X40048304Y-42972428D01*
X40032240Y-42954704D01*
X40017990Y-42935491D01*
X40005693Y-42914974D01*
X39995465Y-42893350D01*
X39987407Y-42870828D01*
X39981595Y-42847624D01*
X39978085Y-42823963D01*
X39976911Y-42800071D01*
X39976911Y-42312571D01*
X39978085Y-42288679D01*
X39981595Y-42265018D01*
X39987407Y-42241814D01*
X39995465Y-42219292D01*
X40005693Y-42197668D01*
X40017990Y-42177151D01*
X40032240Y-42157938D01*
X40048304Y-42140214D01*
X40066028Y-42124150D01*
X40085241Y-42109900D01*
X40105758Y-42097603D01*
X40127382Y-42087375D01*
X40149904Y-42079317D01*
X40173108Y-42073505D01*
X40196769Y-42069995D01*
X40220661Y-42068821D01*
X41133161Y-42068821D01*
X41157053Y-42069995D01*
X41157053Y-42069995D01*
G37*
D23*
X40676911Y-42556321D03*
D13*
G36*
X41157053Y-43944995D02*
X41180714Y-43948505D01*
X41203918Y-43954317D01*
X41226440Y-43962375D01*
X41248064Y-43972603D01*
X41268581Y-43984900D01*
X41287794Y-43999150D01*
X41305518Y-44015214D01*
X41321582Y-44032938D01*
X41335832Y-44052151D01*
X41348129Y-44072668D01*
X41358357Y-44094292D01*
X41366415Y-44116814D01*
X41372227Y-44140018D01*
X41375737Y-44163679D01*
X41376911Y-44187571D01*
X41376911Y-44675071D01*
X41375737Y-44698963D01*
X41372227Y-44722624D01*
X41366415Y-44745828D01*
X41358357Y-44768350D01*
X41348129Y-44789974D01*
X41335832Y-44810491D01*
X41321582Y-44829704D01*
X41305518Y-44847428D01*
X41287794Y-44863492D01*
X41268581Y-44877742D01*
X41248064Y-44890039D01*
X41226440Y-44900267D01*
X41203918Y-44908325D01*
X41180714Y-44914137D01*
X41157053Y-44917647D01*
X41133161Y-44918821D01*
X40220661Y-44918821D01*
X40196769Y-44917647D01*
X40173108Y-44914137D01*
X40149904Y-44908325D01*
X40127382Y-44900267D01*
X40105758Y-44890039D01*
X40085241Y-44877742D01*
X40066028Y-44863492D01*
X40048304Y-44847428D01*
X40032240Y-44829704D01*
X40017990Y-44810491D01*
X40005693Y-44789974D01*
X39995465Y-44768350D01*
X39987407Y-44745828D01*
X39981595Y-44722624D01*
X39978085Y-44698963D01*
X39976911Y-44675071D01*
X39976911Y-44187571D01*
X39978085Y-44163679D01*
X39981595Y-44140018D01*
X39987407Y-44116814D01*
X39995465Y-44094292D01*
X40005693Y-44072668D01*
X40017990Y-44052151D01*
X40032240Y-44032938D01*
X40048304Y-44015214D01*
X40066028Y-43999150D01*
X40085241Y-43984900D01*
X40105758Y-43972603D01*
X40127382Y-43962375D01*
X40149904Y-43954317D01*
X40173108Y-43948505D01*
X40196769Y-43944995D01*
X40220661Y-43943821D01*
X41133161Y-43943821D01*
X41157053Y-43944995D01*
X41157053Y-43944995D01*
G37*
D23*
X40676911Y-44431321D03*
G04 #@! TD*
D13*
G04 #@! TO.C,C8*
G36*
X66357053Y-42069995D02*
X66380714Y-42073505D01*
X66403918Y-42079317D01*
X66426440Y-42087375D01*
X66448064Y-42097603D01*
X66468581Y-42109900D01*
X66487794Y-42124150D01*
X66505518Y-42140214D01*
X66521582Y-42157938D01*
X66535832Y-42177151D01*
X66548129Y-42197668D01*
X66558357Y-42219292D01*
X66566415Y-42241814D01*
X66572227Y-42265018D01*
X66575737Y-42288679D01*
X66576911Y-42312571D01*
X66576911Y-42800071D01*
X66575737Y-42823963D01*
X66572227Y-42847624D01*
X66566415Y-42870828D01*
X66558357Y-42893350D01*
X66548129Y-42914974D01*
X66535832Y-42935491D01*
X66521582Y-42954704D01*
X66505518Y-42972428D01*
X66487794Y-42988492D01*
X66468581Y-43002742D01*
X66448064Y-43015039D01*
X66426440Y-43025267D01*
X66403918Y-43033325D01*
X66380714Y-43039137D01*
X66357053Y-43042647D01*
X66333161Y-43043821D01*
X65420661Y-43043821D01*
X65396769Y-43042647D01*
X65373108Y-43039137D01*
X65349904Y-43033325D01*
X65327382Y-43025267D01*
X65305758Y-43015039D01*
X65285241Y-43002742D01*
X65266028Y-42988492D01*
X65248304Y-42972428D01*
X65232240Y-42954704D01*
X65217990Y-42935491D01*
X65205693Y-42914974D01*
X65195465Y-42893350D01*
X65187407Y-42870828D01*
X65181595Y-42847624D01*
X65178085Y-42823963D01*
X65176911Y-42800071D01*
X65176911Y-42312571D01*
X65178085Y-42288679D01*
X65181595Y-42265018D01*
X65187407Y-42241814D01*
X65195465Y-42219292D01*
X65205693Y-42197668D01*
X65217990Y-42177151D01*
X65232240Y-42157938D01*
X65248304Y-42140214D01*
X65266028Y-42124150D01*
X65285241Y-42109900D01*
X65305758Y-42097603D01*
X65327382Y-42087375D01*
X65349904Y-42079317D01*
X65373108Y-42073505D01*
X65396769Y-42069995D01*
X65420661Y-42068821D01*
X66333161Y-42068821D01*
X66357053Y-42069995D01*
X66357053Y-42069995D01*
G37*
D23*
X65876911Y-42556321D03*
D13*
G36*
X66357053Y-43944995D02*
X66380714Y-43948505D01*
X66403918Y-43954317D01*
X66426440Y-43962375D01*
X66448064Y-43972603D01*
X66468581Y-43984900D01*
X66487794Y-43999150D01*
X66505518Y-44015214D01*
X66521582Y-44032938D01*
X66535832Y-44052151D01*
X66548129Y-44072668D01*
X66558357Y-44094292D01*
X66566415Y-44116814D01*
X66572227Y-44140018D01*
X66575737Y-44163679D01*
X66576911Y-44187571D01*
X66576911Y-44675071D01*
X66575737Y-44698963D01*
X66572227Y-44722624D01*
X66566415Y-44745828D01*
X66558357Y-44768350D01*
X66548129Y-44789974D01*
X66535832Y-44810491D01*
X66521582Y-44829704D01*
X66505518Y-44847428D01*
X66487794Y-44863492D01*
X66468581Y-44877742D01*
X66448064Y-44890039D01*
X66426440Y-44900267D01*
X66403918Y-44908325D01*
X66380714Y-44914137D01*
X66357053Y-44917647D01*
X66333161Y-44918821D01*
X65420661Y-44918821D01*
X65396769Y-44917647D01*
X65373108Y-44914137D01*
X65349904Y-44908325D01*
X65327382Y-44900267D01*
X65305758Y-44890039D01*
X65285241Y-44877742D01*
X65266028Y-44863492D01*
X65248304Y-44847428D01*
X65232240Y-44829704D01*
X65217990Y-44810491D01*
X65205693Y-44789974D01*
X65195465Y-44768350D01*
X65187407Y-44745828D01*
X65181595Y-44722624D01*
X65178085Y-44698963D01*
X65176911Y-44675071D01*
X65176911Y-44187571D01*
X65178085Y-44163679D01*
X65181595Y-44140018D01*
X65187407Y-44116814D01*
X65195465Y-44094292D01*
X65205693Y-44072668D01*
X65217990Y-44052151D01*
X65232240Y-44032938D01*
X65248304Y-44015214D01*
X65266028Y-43999150D01*
X65285241Y-43984900D01*
X65305758Y-43972603D01*
X65327382Y-43962375D01*
X65349904Y-43954317D01*
X65373108Y-43948505D01*
X65396769Y-43944995D01*
X65420661Y-43943821D01*
X66333161Y-43943821D01*
X66357053Y-43944995D01*
X66357053Y-43944995D01*
G37*
D23*
X65876911Y-44431321D03*
G04 #@! TD*
D13*
G04 #@! TO.C,C9*
G36*
X91557053Y-42069995D02*
X91580714Y-42073505D01*
X91603918Y-42079317D01*
X91626440Y-42087375D01*
X91648064Y-42097603D01*
X91668581Y-42109900D01*
X91687794Y-42124150D01*
X91705518Y-42140214D01*
X91721582Y-42157938D01*
X91735832Y-42177151D01*
X91748129Y-42197668D01*
X91758357Y-42219292D01*
X91766415Y-42241814D01*
X91772227Y-42265018D01*
X91775737Y-42288679D01*
X91776911Y-42312571D01*
X91776911Y-42800071D01*
X91775737Y-42823963D01*
X91772227Y-42847624D01*
X91766415Y-42870828D01*
X91758357Y-42893350D01*
X91748129Y-42914974D01*
X91735832Y-42935491D01*
X91721582Y-42954704D01*
X91705518Y-42972428D01*
X91687794Y-42988492D01*
X91668581Y-43002742D01*
X91648064Y-43015039D01*
X91626440Y-43025267D01*
X91603918Y-43033325D01*
X91580714Y-43039137D01*
X91557053Y-43042647D01*
X91533161Y-43043821D01*
X90620661Y-43043821D01*
X90596769Y-43042647D01*
X90573108Y-43039137D01*
X90549904Y-43033325D01*
X90527382Y-43025267D01*
X90505758Y-43015039D01*
X90485241Y-43002742D01*
X90466028Y-42988492D01*
X90448304Y-42972428D01*
X90432240Y-42954704D01*
X90417990Y-42935491D01*
X90405693Y-42914974D01*
X90395465Y-42893350D01*
X90387407Y-42870828D01*
X90381595Y-42847624D01*
X90378085Y-42823963D01*
X90376911Y-42800071D01*
X90376911Y-42312571D01*
X90378085Y-42288679D01*
X90381595Y-42265018D01*
X90387407Y-42241814D01*
X90395465Y-42219292D01*
X90405693Y-42197668D01*
X90417990Y-42177151D01*
X90432240Y-42157938D01*
X90448304Y-42140214D01*
X90466028Y-42124150D01*
X90485241Y-42109900D01*
X90505758Y-42097603D01*
X90527382Y-42087375D01*
X90549904Y-42079317D01*
X90573108Y-42073505D01*
X90596769Y-42069995D01*
X90620661Y-42068821D01*
X91533161Y-42068821D01*
X91557053Y-42069995D01*
X91557053Y-42069995D01*
G37*
D23*
X91076911Y-42556321D03*
D13*
G36*
X91557053Y-43944995D02*
X91580714Y-43948505D01*
X91603918Y-43954317D01*
X91626440Y-43962375D01*
X91648064Y-43972603D01*
X91668581Y-43984900D01*
X91687794Y-43999150D01*
X91705518Y-44015214D01*
X91721582Y-44032938D01*
X91735832Y-44052151D01*
X91748129Y-44072668D01*
X91758357Y-44094292D01*
X91766415Y-44116814D01*
X91772227Y-44140018D01*
X91775737Y-44163679D01*
X91776911Y-44187571D01*
X91776911Y-44675071D01*
X91775737Y-44698963D01*
X91772227Y-44722624D01*
X91766415Y-44745828D01*
X91758357Y-44768350D01*
X91748129Y-44789974D01*
X91735832Y-44810491D01*
X91721582Y-44829704D01*
X91705518Y-44847428D01*
X91687794Y-44863492D01*
X91668581Y-44877742D01*
X91648064Y-44890039D01*
X91626440Y-44900267D01*
X91603918Y-44908325D01*
X91580714Y-44914137D01*
X91557053Y-44917647D01*
X91533161Y-44918821D01*
X90620661Y-44918821D01*
X90596769Y-44917647D01*
X90573108Y-44914137D01*
X90549904Y-44908325D01*
X90527382Y-44900267D01*
X90505758Y-44890039D01*
X90485241Y-44877742D01*
X90466028Y-44863492D01*
X90448304Y-44847428D01*
X90432240Y-44829704D01*
X90417990Y-44810491D01*
X90405693Y-44789974D01*
X90395465Y-44768350D01*
X90387407Y-44745828D01*
X90381595Y-44722624D01*
X90378085Y-44698963D01*
X90376911Y-44675071D01*
X90376911Y-44187571D01*
X90378085Y-44163679D01*
X90381595Y-44140018D01*
X90387407Y-44116814D01*
X90395465Y-44094292D01*
X90405693Y-44072668D01*
X90417990Y-44052151D01*
X90432240Y-44032938D01*
X90448304Y-44015214D01*
X90466028Y-43999150D01*
X90485241Y-43984900D01*
X90505758Y-43972603D01*
X90527382Y-43962375D01*
X90549904Y-43954317D01*
X90573108Y-43948505D01*
X90596769Y-43944995D01*
X90620661Y-43943821D01*
X91533161Y-43943821D01*
X91557053Y-43944995D01*
X91557053Y-43944995D01*
G37*
D23*
X91076911Y-44431321D03*
G04 #@! TD*
D13*
G04 #@! TO.C,C10*
G36*
X116757053Y-42069995D02*
X116780714Y-42073505D01*
X116803918Y-42079317D01*
X116826440Y-42087375D01*
X116848064Y-42097603D01*
X116868581Y-42109900D01*
X116887794Y-42124150D01*
X116905518Y-42140214D01*
X116921582Y-42157938D01*
X116935832Y-42177151D01*
X116948129Y-42197668D01*
X116958357Y-42219292D01*
X116966415Y-42241814D01*
X116972227Y-42265018D01*
X116975737Y-42288679D01*
X116976911Y-42312571D01*
X116976911Y-42800071D01*
X116975737Y-42823963D01*
X116972227Y-42847624D01*
X116966415Y-42870828D01*
X116958357Y-42893350D01*
X116948129Y-42914974D01*
X116935832Y-42935491D01*
X116921582Y-42954704D01*
X116905518Y-42972428D01*
X116887794Y-42988492D01*
X116868581Y-43002742D01*
X116848064Y-43015039D01*
X116826440Y-43025267D01*
X116803918Y-43033325D01*
X116780714Y-43039137D01*
X116757053Y-43042647D01*
X116733161Y-43043821D01*
X115820661Y-43043821D01*
X115796769Y-43042647D01*
X115773108Y-43039137D01*
X115749904Y-43033325D01*
X115727382Y-43025267D01*
X115705758Y-43015039D01*
X115685241Y-43002742D01*
X115666028Y-42988492D01*
X115648304Y-42972428D01*
X115632240Y-42954704D01*
X115617990Y-42935491D01*
X115605693Y-42914974D01*
X115595465Y-42893350D01*
X115587407Y-42870828D01*
X115581595Y-42847624D01*
X115578085Y-42823963D01*
X115576911Y-42800071D01*
X115576911Y-42312571D01*
X115578085Y-42288679D01*
X115581595Y-42265018D01*
X115587407Y-42241814D01*
X115595465Y-42219292D01*
X115605693Y-42197668D01*
X115617990Y-42177151D01*
X115632240Y-42157938D01*
X115648304Y-42140214D01*
X115666028Y-42124150D01*
X115685241Y-42109900D01*
X115705758Y-42097603D01*
X115727382Y-42087375D01*
X115749904Y-42079317D01*
X115773108Y-42073505D01*
X115796769Y-42069995D01*
X115820661Y-42068821D01*
X116733161Y-42068821D01*
X116757053Y-42069995D01*
X116757053Y-42069995D01*
G37*
D23*
X116276911Y-42556321D03*
D13*
G36*
X116757053Y-43944995D02*
X116780714Y-43948505D01*
X116803918Y-43954317D01*
X116826440Y-43962375D01*
X116848064Y-43972603D01*
X116868581Y-43984900D01*
X116887794Y-43999150D01*
X116905518Y-44015214D01*
X116921582Y-44032938D01*
X116935832Y-44052151D01*
X116948129Y-44072668D01*
X116958357Y-44094292D01*
X116966415Y-44116814D01*
X116972227Y-44140018D01*
X116975737Y-44163679D01*
X116976911Y-44187571D01*
X116976911Y-44675071D01*
X116975737Y-44698963D01*
X116972227Y-44722624D01*
X116966415Y-44745828D01*
X116958357Y-44768350D01*
X116948129Y-44789974D01*
X116935832Y-44810491D01*
X116921582Y-44829704D01*
X116905518Y-44847428D01*
X116887794Y-44863492D01*
X116868581Y-44877742D01*
X116848064Y-44890039D01*
X116826440Y-44900267D01*
X116803918Y-44908325D01*
X116780714Y-44914137D01*
X116757053Y-44917647D01*
X116733161Y-44918821D01*
X115820661Y-44918821D01*
X115796769Y-44917647D01*
X115773108Y-44914137D01*
X115749904Y-44908325D01*
X115727382Y-44900267D01*
X115705758Y-44890039D01*
X115685241Y-44877742D01*
X115666028Y-44863492D01*
X115648304Y-44847428D01*
X115632240Y-44829704D01*
X115617990Y-44810491D01*
X115605693Y-44789974D01*
X115595465Y-44768350D01*
X115587407Y-44745828D01*
X115581595Y-44722624D01*
X115578085Y-44698963D01*
X115576911Y-44675071D01*
X115576911Y-44187571D01*
X115578085Y-44163679D01*
X115581595Y-44140018D01*
X115587407Y-44116814D01*
X115595465Y-44094292D01*
X115605693Y-44072668D01*
X115617990Y-44052151D01*
X115632240Y-44032938D01*
X115648304Y-44015214D01*
X115666028Y-43999150D01*
X115685241Y-43984900D01*
X115705758Y-43972603D01*
X115727382Y-43962375D01*
X115749904Y-43954317D01*
X115773108Y-43948505D01*
X115796769Y-43944995D01*
X115820661Y-43943821D01*
X116733161Y-43943821D01*
X116757053Y-43944995D01*
X116757053Y-43944995D01*
G37*
D23*
X116276911Y-44431321D03*
G04 #@! TD*
D13*
G04 #@! TO.C,C12*
G36*
X178891190Y-96035081D02*
X178914851Y-96038591D01*
X178938055Y-96044403D01*
X178960577Y-96052461D01*
X178982201Y-96062689D01*
X179002718Y-96074986D01*
X179021931Y-96089236D01*
X179039655Y-96105300D01*
X179055719Y-96123024D01*
X179069969Y-96142237D01*
X179082266Y-96162754D01*
X179092494Y-96184378D01*
X179100552Y-96206900D01*
X179106364Y-96230104D01*
X179109874Y-96253765D01*
X179111048Y-96277657D01*
X179111048Y-97190157D01*
X179109874Y-97214049D01*
X179106364Y-97237710D01*
X179100552Y-97260914D01*
X179092494Y-97283436D01*
X179082266Y-97305060D01*
X179069969Y-97325577D01*
X179055719Y-97344790D01*
X179039655Y-97362514D01*
X179021931Y-97378578D01*
X179002718Y-97392828D01*
X178982201Y-97405125D01*
X178960577Y-97415353D01*
X178938055Y-97423411D01*
X178914851Y-97429223D01*
X178891190Y-97432733D01*
X178867298Y-97433907D01*
X178379798Y-97433907D01*
X178355906Y-97432733D01*
X178332245Y-97429223D01*
X178309041Y-97423411D01*
X178286519Y-97415353D01*
X178264895Y-97405125D01*
X178244378Y-97392828D01*
X178225165Y-97378578D01*
X178207441Y-97362514D01*
X178191377Y-97344790D01*
X178177127Y-97325577D01*
X178164830Y-97305060D01*
X178154602Y-97283436D01*
X178146544Y-97260914D01*
X178140732Y-97237710D01*
X178137222Y-97214049D01*
X178136048Y-97190157D01*
X178136048Y-96277657D01*
X178137222Y-96253765D01*
X178140732Y-96230104D01*
X178146544Y-96206900D01*
X178154602Y-96184378D01*
X178164830Y-96162754D01*
X178177127Y-96142237D01*
X178191377Y-96123024D01*
X178207441Y-96105300D01*
X178225165Y-96089236D01*
X178244378Y-96074986D01*
X178264895Y-96062689D01*
X178286519Y-96052461D01*
X178309041Y-96044403D01*
X178332245Y-96038591D01*
X178355906Y-96035081D01*
X178379798Y-96033907D01*
X178867298Y-96033907D01*
X178891190Y-96035081D01*
X178891190Y-96035081D01*
G37*
D23*
X178623548Y-96733907D03*
D13*
G36*
X177016190Y-96035081D02*
X177039851Y-96038591D01*
X177063055Y-96044403D01*
X177085577Y-96052461D01*
X177107201Y-96062689D01*
X177127718Y-96074986D01*
X177146931Y-96089236D01*
X177164655Y-96105300D01*
X177180719Y-96123024D01*
X177194969Y-96142237D01*
X177207266Y-96162754D01*
X177217494Y-96184378D01*
X177225552Y-96206900D01*
X177231364Y-96230104D01*
X177234874Y-96253765D01*
X177236048Y-96277657D01*
X177236048Y-97190157D01*
X177234874Y-97214049D01*
X177231364Y-97237710D01*
X177225552Y-97260914D01*
X177217494Y-97283436D01*
X177207266Y-97305060D01*
X177194969Y-97325577D01*
X177180719Y-97344790D01*
X177164655Y-97362514D01*
X177146931Y-97378578D01*
X177127718Y-97392828D01*
X177107201Y-97405125D01*
X177085577Y-97415353D01*
X177063055Y-97423411D01*
X177039851Y-97429223D01*
X177016190Y-97432733D01*
X176992298Y-97433907D01*
X176504798Y-97433907D01*
X176480906Y-97432733D01*
X176457245Y-97429223D01*
X176434041Y-97423411D01*
X176411519Y-97415353D01*
X176389895Y-97405125D01*
X176369378Y-97392828D01*
X176350165Y-97378578D01*
X176332441Y-97362514D01*
X176316377Y-97344790D01*
X176302127Y-97325577D01*
X176289830Y-97305060D01*
X176279602Y-97283436D01*
X176271544Y-97260914D01*
X176265732Y-97237710D01*
X176262222Y-97214049D01*
X176261048Y-97190157D01*
X176261048Y-96277657D01*
X176262222Y-96253765D01*
X176265732Y-96230104D01*
X176271544Y-96206900D01*
X176279602Y-96184378D01*
X176289830Y-96162754D01*
X176302127Y-96142237D01*
X176316377Y-96123024D01*
X176332441Y-96105300D01*
X176350165Y-96089236D01*
X176369378Y-96074986D01*
X176389895Y-96062689D01*
X176411519Y-96052461D01*
X176434041Y-96044403D01*
X176457245Y-96038591D01*
X176480906Y-96035081D01*
X176504798Y-96033907D01*
X176992298Y-96033907D01*
X177016190Y-96035081D01*
X177016190Y-96035081D01*
G37*
D23*
X176748548Y-96733907D03*
G04 #@! TD*
D13*
G04 #@! TO.C,C13*
G36*
X194966190Y-97710081D02*
X194989851Y-97713591D01*
X195013055Y-97719403D01*
X195035577Y-97727461D01*
X195057201Y-97737689D01*
X195077718Y-97749986D01*
X195096931Y-97764236D01*
X195114655Y-97780300D01*
X195130719Y-97798024D01*
X195144969Y-97817237D01*
X195157266Y-97837754D01*
X195167494Y-97859378D01*
X195175552Y-97881900D01*
X195181364Y-97905104D01*
X195184874Y-97928765D01*
X195186048Y-97952657D01*
X195186048Y-98440157D01*
X195184874Y-98464049D01*
X195181364Y-98487710D01*
X195175552Y-98510914D01*
X195167494Y-98533436D01*
X195157266Y-98555060D01*
X195144969Y-98575577D01*
X195130719Y-98594790D01*
X195114655Y-98612514D01*
X195096931Y-98628578D01*
X195077718Y-98642828D01*
X195057201Y-98655125D01*
X195035577Y-98665353D01*
X195013055Y-98673411D01*
X194989851Y-98679223D01*
X194966190Y-98682733D01*
X194942298Y-98683907D01*
X194029798Y-98683907D01*
X194005906Y-98682733D01*
X193982245Y-98679223D01*
X193959041Y-98673411D01*
X193936519Y-98665353D01*
X193914895Y-98655125D01*
X193894378Y-98642828D01*
X193875165Y-98628578D01*
X193857441Y-98612514D01*
X193841377Y-98594790D01*
X193827127Y-98575577D01*
X193814830Y-98555060D01*
X193804602Y-98533436D01*
X193796544Y-98510914D01*
X193790732Y-98487710D01*
X193787222Y-98464049D01*
X193786048Y-98440157D01*
X193786048Y-97952657D01*
X193787222Y-97928765D01*
X193790732Y-97905104D01*
X193796544Y-97881900D01*
X193804602Y-97859378D01*
X193814830Y-97837754D01*
X193827127Y-97817237D01*
X193841377Y-97798024D01*
X193857441Y-97780300D01*
X193875165Y-97764236D01*
X193894378Y-97749986D01*
X193914895Y-97737689D01*
X193936519Y-97727461D01*
X193959041Y-97719403D01*
X193982245Y-97713591D01*
X194005906Y-97710081D01*
X194029798Y-97708907D01*
X194942298Y-97708907D01*
X194966190Y-97710081D01*
X194966190Y-97710081D01*
G37*
D23*
X194486048Y-98196407D03*
D13*
G36*
X194966190Y-99585081D02*
X194989851Y-99588591D01*
X195013055Y-99594403D01*
X195035577Y-99602461D01*
X195057201Y-99612689D01*
X195077718Y-99624986D01*
X195096931Y-99639236D01*
X195114655Y-99655300D01*
X195130719Y-99673024D01*
X195144969Y-99692237D01*
X195157266Y-99712754D01*
X195167494Y-99734378D01*
X195175552Y-99756900D01*
X195181364Y-99780104D01*
X195184874Y-99803765D01*
X195186048Y-99827657D01*
X195186048Y-100315157D01*
X195184874Y-100339049D01*
X195181364Y-100362710D01*
X195175552Y-100385914D01*
X195167494Y-100408436D01*
X195157266Y-100430060D01*
X195144969Y-100450577D01*
X195130719Y-100469790D01*
X195114655Y-100487514D01*
X195096931Y-100503578D01*
X195077718Y-100517828D01*
X195057201Y-100530125D01*
X195035577Y-100540353D01*
X195013055Y-100548411D01*
X194989851Y-100554223D01*
X194966190Y-100557733D01*
X194942298Y-100558907D01*
X194029798Y-100558907D01*
X194005906Y-100557733D01*
X193982245Y-100554223D01*
X193959041Y-100548411D01*
X193936519Y-100540353D01*
X193914895Y-100530125D01*
X193894378Y-100517828D01*
X193875165Y-100503578D01*
X193857441Y-100487514D01*
X193841377Y-100469790D01*
X193827127Y-100450577D01*
X193814830Y-100430060D01*
X193804602Y-100408436D01*
X193796544Y-100385914D01*
X193790732Y-100362710D01*
X193787222Y-100339049D01*
X193786048Y-100315157D01*
X193786048Y-99827657D01*
X193787222Y-99803765D01*
X193790732Y-99780104D01*
X193796544Y-99756900D01*
X193804602Y-99734378D01*
X193814830Y-99712754D01*
X193827127Y-99692237D01*
X193841377Y-99673024D01*
X193857441Y-99655300D01*
X193875165Y-99639236D01*
X193894378Y-99624986D01*
X193914895Y-99612689D01*
X193936519Y-99602461D01*
X193959041Y-99594403D01*
X193982245Y-99588591D01*
X194005906Y-99585081D01*
X194029798Y-99583907D01*
X194942298Y-99583907D01*
X194966190Y-99585081D01*
X194966190Y-99585081D01*
G37*
D23*
X194486048Y-100071407D03*
G04 #@! TD*
D13*
G04 #@! TO.C,C14*
G36*
X201291190Y-105035081D02*
X201314851Y-105038591D01*
X201338055Y-105044403D01*
X201360577Y-105052461D01*
X201382201Y-105062689D01*
X201402718Y-105074986D01*
X201421931Y-105089236D01*
X201439655Y-105105300D01*
X201455719Y-105123024D01*
X201469969Y-105142237D01*
X201482266Y-105162754D01*
X201492494Y-105184378D01*
X201500552Y-105206900D01*
X201506364Y-105230104D01*
X201509874Y-105253765D01*
X201511048Y-105277657D01*
X201511048Y-106190157D01*
X201509874Y-106214049D01*
X201506364Y-106237710D01*
X201500552Y-106260914D01*
X201492494Y-106283436D01*
X201482266Y-106305060D01*
X201469969Y-106325577D01*
X201455719Y-106344790D01*
X201439655Y-106362514D01*
X201421931Y-106378578D01*
X201402718Y-106392828D01*
X201382201Y-106405125D01*
X201360577Y-106415353D01*
X201338055Y-106423411D01*
X201314851Y-106429223D01*
X201291190Y-106432733D01*
X201267298Y-106433907D01*
X200779798Y-106433907D01*
X200755906Y-106432733D01*
X200732245Y-106429223D01*
X200709041Y-106423411D01*
X200686519Y-106415353D01*
X200664895Y-106405125D01*
X200644378Y-106392828D01*
X200625165Y-106378578D01*
X200607441Y-106362514D01*
X200591377Y-106344790D01*
X200577127Y-106325577D01*
X200564830Y-106305060D01*
X200554602Y-106283436D01*
X200546544Y-106260914D01*
X200540732Y-106237710D01*
X200537222Y-106214049D01*
X200536048Y-106190157D01*
X200536048Y-105277657D01*
X200537222Y-105253765D01*
X200540732Y-105230104D01*
X200546544Y-105206900D01*
X200554602Y-105184378D01*
X200564830Y-105162754D01*
X200577127Y-105142237D01*
X200591377Y-105123024D01*
X200607441Y-105105300D01*
X200625165Y-105089236D01*
X200644378Y-105074986D01*
X200664895Y-105062689D01*
X200686519Y-105052461D01*
X200709041Y-105044403D01*
X200732245Y-105038591D01*
X200755906Y-105035081D01*
X200779798Y-105033907D01*
X201267298Y-105033907D01*
X201291190Y-105035081D01*
X201291190Y-105035081D01*
G37*
D23*
X201023548Y-105733907D03*
D13*
G36*
X199416190Y-105035081D02*
X199439851Y-105038591D01*
X199463055Y-105044403D01*
X199485577Y-105052461D01*
X199507201Y-105062689D01*
X199527718Y-105074986D01*
X199546931Y-105089236D01*
X199564655Y-105105300D01*
X199580719Y-105123024D01*
X199594969Y-105142237D01*
X199607266Y-105162754D01*
X199617494Y-105184378D01*
X199625552Y-105206900D01*
X199631364Y-105230104D01*
X199634874Y-105253765D01*
X199636048Y-105277657D01*
X199636048Y-106190157D01*
X199634874Y-106214049D01*
X199631364Y-106237710D01*
X199625552Y-106260914D01*
X199617494Y-106283436D01*
X199607266Y-106305060D01*
X199594969Y-106325577D01*
X199580719Y-106344790D01*
X199564655Y-106362514D01*
X199546931Y-106378578D01*
X199527718Y-106392828D01*
X199507201Y-106405125D01*
X199485577Y-106415353D01*
X199463055Y-106423411D01*
X199439851Y-106429223D01*
X199416190Y-106432733D01*
X199392298Y-106433907D01*
X198904798Y-106433907D01*
X198880906Y-106432733D01*
X198857245Y-106429223D01*
X198834041Y-106423411D01*
X198811519Y-106415353D01*
X198789895Y-106405125D01*
X198769378Y-106392828D01*
X198750165Y-106378578D01*
X198732441Y-106362514D01*
X198716377Y-106344790D01*
X198702127Y-106325577D01*
X198689830Y-106305060D01*
X198679602Y-106283436D01*
X198671544Y-106260914D01*
X198665732Y-106237710D01*
X198662222Y-106214049D01*
X198661048Y-106190157D01*
X198661048Y-105277657D01*
X198662222Y-105253765D01*
X198665732Y-105230104D01*
X198671544Y-105206900D01*
X198679602Y-105184378D01*
X198689830Y-105162754D01*
X198702127Y-105142237D01*
X198716377Y-105123024D01*
X198732441Y-105105300D01*
X198750165Y-105089236D01*
X198769378Y-105074986D01*
X198789895Y-105062689D01*
X198811519Y-105052461D01*
X198834041Y-105044403D01*
X198857245Y-105038591D01*
X198880906Y-105035081D01*
X198904798Y-105033907D01*
X199392298Y-105033907D01*
X199416190Y-105035081D01*
X199416190Y-105035081D01*
G37*
D23*
X199148548Y-105733907D03*
G04 #@! TD*
D13*
G04 #@! TO.C,C15*
G36*
X225635553Y-99810111D02*
X225659821Y-99813711D01*
X225683620Y-99819672D01*
X225706719Y-99827937D01*
X225728898Y-99838427D01*
X225749941Y-99851039D01*
X225769647Y-99865654D01*
X225787825Y-99882130D01*
X225804301Y-99900308D01*
X225818916Y-99920014D01*
X225831528Y-99941057D01*
X225842018Y-99963236D01*
X225850283Y-99986335D01*
X225856244Y-100010134D01*
X225859844Y-100034402D01*
X225861048Y-100058906D01*
X225861048Y-100608908D01*
X225859844Y-100633412D01*
X225856244Y-100657680D01*
X225850283Y-100681479D01*
X225842018Y-100704578D01*
X225831528Y-100726757D01*
X225818916Y-100747800D01*
X225804301Y-100767506D01*
X225787825Y-100785684D01*
X225769647Y-100802160D01*
X225749941Y-100816775D01*
X225728898Y-100829387D01*
X225706719Y-100839877D01*
X225683620Y-100848142D01*
X225659821Y-100854103D01*
X225635553Y-100857703D01*
X225611049Y-100858907D01*
X224986047Y-100858907D01*
X224961543Y-100857703D01*
X224937275Y-100854103D01*
X224913476Y-100848142D01*
X224890377Y-100839877D01*
X224868198Y-100829387D01*
X224847155Y-100816775D01*
X224827449Y-100802160D01*
X224809271Y-100785684D01*
X224792795Y-100767506D01*
X224778180Y-100747800D01*
X224765568Y-100726757D01*
X224755078Y-100704578D01*
X224746813Y-100681479D01*
X224740852Y-100657680D01*
X224737252Y-100633412D01*
X224736048Y-100608908D01*
X224736048Y-100058906D01*
X224737252Y-100034402D01*
X224740852Y-100010134D01*
X224746813Y-99986335D01*
X224755078Y-99963236D01*
X224765568Y-99941057D01*
X224778180Y-99920014D01*
X224792795Y-99900308D01*
X224809271Y-99882130D01*
X224827449Y-99865654D01*
X224847155Y-99851039D01*
X224868198Y-99838427D01*
X224890377Y-99827937D01*
X224913476Y-99819672D01*
X224937275Y-99813711D01*
X224961543Y-99810111D01*
X224986047Y-99808907D01*
X225611049Y-99808907D01*
X225635553Y-99810111D01*
X225635553Y-99810111D01*
G37*
D25*
X225298548Y-100333907D03*
D13*
G36*
X223860553Y-99810111D02*
X223884821Y-99813711D01*
X223908620Y-99819672D01*
X223931719Y-99827937D01*
X223953898Y-99838427D01*
X223974941Y-99851039D01*
X223994647Y-99865654D01*
X224012825Y-99882130D01*
X224029301Y-99900308D01*
X224043916Y-99920014D01*
X224056528Y-99941057D01*
X224067018Y-99963236D01*
X224075283Y-99986335D01*
X224081244Y-100010134D01*
X224084844Y-100034402D01*
X224086048Y-100058906D01*
X224086048Y-100608908D01*
X224084844Y-100633412D01*
X224081244Y-100657680D01*
X224075283Y-100681479D01*
X224067018Y-100704578D01*
X224056528Y-100726757D01*
X224043916Y-100747800D01*
X224029301Y-100767506D01*
X224012825Y-100785684D01*
X223994647Y-100802160D01*
X223974941Y-100816775D01*
X223953898Y-100829387D01*
X223931719Y-100839877D01*
X223908620Y-100848142D01*
X223884821Y-100854103D01*
X223860553Y-100857703D01*
X223836049Y-100858907D01*
X223211047Y-100858907D01*
X223186543Y-100857703D01*
X223162275Y-100854103D01*
X223138476Y-100848142D01*
X223115377Y-100839877D01*
X223093198Y-100829387D01*
X223072155Y-100816775D01*
X223052449Y-100802160D01*
X223034271Y-100785684D01*
X223017795Y-100767506D01*
X223003180Y-100747800D01*
X222990568Y-100726757D01*
X222980078Y-100704578D01*
X222971813Y-100681479D01*
X222965852Y-100657680D01*
X222962252Y-100633412D01*
X222961048Y-100608908D01*
X222961048Y-100058906D01*
X222962252Y-100034402D01*
X222965852Y-100010134D01*
X222971813Y-99986335D01*
X222980078Y-99963236D01*
X222990568Y-99941057D01*
X223003180Y-99920014D01*
X223017795Y-99900308D01*
X223034271Y-99882130D01*
X223052449Y-99865654D01*
X223072155Y-99851039D01*
X223093198Y-99838427D01*
X223115377Y-99827937D01*
X223138476Y-99819672D01*
X223162275Y-99813711D01*
X223186543Y-99810111D01*
X223211047Y-99808907D01*
X223836049Y-99808907D01*
X223860553Y-99810111D01*
X223860553Y-99810111D01*
G37*
D25*
X223523548Y-100333907D03*
G04 #@! TD*
D13*
G04 #@! TO.C,C16*
G36*
X254208890Y-105954015D02*
X254233158Y-105957615D01*
X254256957Y-105963576D01*
X254280056Y-105971841D01*
X254302235Y-105982331D01*
X254323278Y-105994943D01*
X254342984Y-106009558D01*
X254361162Y-106026034D01*
X254377638Y-106044212D01*
X254392253Y-106063918D01*
X254404865Y-106084961D01*
X254415355Y-106107140D01*
X254423620Y-106130239D01*
X254429581Y-106154038D01*
X254433181Y-106178306D01*
X254434385Y-106202810D01*
X254434385Y-106752812D01*
X254433181Y-106777316D01*
X254429581Y-106801584D01*
X254423620Y-106825383D01*
X254415355Y-106848482D01*
X254404865Y-106870661D01*
X254392253Y-106891704D01*
X254377638Y-106911410D01*
X254361162Y-106929588D01*
X254342984Y-106946064D01*
X254323278Y-106960679D01*
X254302235Y-106973291D01*
X254280056Y-106983781D01*
X254256957Y-106992046D01*
X254233158Y-106998007D01*
X254208890Y-107001607D01*
X254184386Y-107002811D01*
X253559384Y-107002811D01*
X253534880Y-107001607D01*
X253510612Y-106998007D01*
X253486813Y-106992046D01*
X253463714Y-106983781D01*
X253441535Y-106973291D01*
X253420492Y-106960679D01*
X253400786Y-106946064D01*
X253382608Y-106929588D01*
X253366132Y-106911410D01*
X253351517Y-106891704D01*
X253338905Y-106870661D01*
X253328415Y-106848482D01*
X253320150Y-106825383D01*
X253314189Y-106801584D01*
X253310589Y-106777316D01*
X253309385Y-106752812D01*
X253309385Y-106202810D01*
X253310589Y-106178306D01*
X253314189Y-106154038D01*
X253320150Y-106130239D01*
X253328415Y-106107140D01*
X253338905Y-106084961D01*
X253351517Y-106063918D01*
X253366132Y-106044212D01*
X253382608Y-106026034D01*
X253400786Y-106009558D01*
X253420492Y-105994943D01*
X253441535Y-105982331D01*
X253463714Y-105971841D01*
X253486813Y-105963576D01*
X253510612Y-105957615D01*
X253534880Y-105954015D01*
X253559384Y-105952811D01*
X254184386Y-105952811D01*
X254208890Y-105954015D01*
X254208890Y-105954015D01*
G37*
D25*
X253871885Y-106477811D03*
D13*
G36*
X252433890Y-105954015D02*
X252458158Y-105957615D01*
X252481957Y-105963576D01*
X252505056Y-105971841D01*
X252527235Y-105982331D01*
X252548278Y-105994943D01*
X252567984Y-106009558D01*
X252586162Y-106026034D01*
X252602638Y-106044212D01*
X252617253Y-106063918D01*
X252629865Y-106084961D01*
X252640355Y-106107140D01*
X252648620Y-106130239D01*
X252654581Y-106154038D01*
X252658181Y-106178306D01*
X252659385Y-106202810D01*
X252659385Y-106752812D01*
X252658181Y-106777316D01*
X252654581Y-106801584D01*
X252648620Y-106825383D01*
X252640355Y-106848482D01*
X252629865Y-106870661D01*
X252617253Y-106891704D01*
X252602638Y-106911410D01*
X252586162Y-106929588D01*
X252567984Y-106946064D01*
X252548278Y-106960679D01*
X252527235Y-106973291D01*
X252505056Y-106983781D01*
X252481957Y-106992046D01*
X252458158Y-106998007D01*
X252433890Y-107001607D01*
X252409386Y-107002811D01*
X251784384Y-107002811D01*
X251759880Y-107001607D01*
X251735612Y-106998007D01*
X251711813Y-106992046D01*
X251688714Y-106983781D01*
X251666535Y-106973291D01*
X251645492Y-106960679D01*
X251625786Y-106946064D01*
X251607608Y-106929588D01*
X251591132Y-106911410D01*
X251576517Y-106891704D01*
X251563905Y-106870661D01*
X251553415Y-106848482D01*
X251545150Y-106825383D01*
X251539189Y-106801584D01*
X251535589Y-106777316D01*
X251534385Y-106752812D01*
X251534385Y-106202810D01*
X251535589Y-106178306D01*
X251539189Y-106154038D01*
X251545150Y-106130239D01*
X251553415Y-106107140D01*
X251563905Y-106084961D01*
X251576517Y-106063918D01*
X251591132Y-106044212D01*
X251607608Y-106026034D01*
X251625786Y-106009558D01*
X251645492Y-105994943D01*
X251666535Y-105982331D01*
X251688714Y-105971841D01*
X251711813Y-105963576D01*
X251735612Y-105957615D01*
X251759880Y-105954015D01*
X251784384Y-105952811D01*
X252409386Y-105952811D01*
X252433890Y-105954015D01*
X252433890Y-105954015D01*
G37*
D25*
X252096885Y-106477811D03*
G04 #@! TD*
D13*
G04 #@! TO.C,C17*
G36*
X254208890Y-108704015D02*
X254233158Y-108707615D01*
X254256957Y-108713576D01*
X254280056Y-108721841D01*
X254302235Y-108732331D01*
X254323278Y-108744943D01*
X254342984Y-108759558D01*
X254361162Y-108776034D01*
X254377638Y-108794212D01*
X254392253Y-108813918D01*
X254404865Y-108834961D01*
X254415355Y-108857140D01*
X254423620Y-108880239D01*
X254429581Y-108904038D01*
X254433181Y-108928306D01*
X254434385Y-108952810D01*
X254434385Y-109502812D01*
X254433181Y-109527316D01*
X254429581Y-109551584D01*
X254423620Y-109575383D01*
X254415355Y-109598482D01*
X254404865Y-109620661D01*
X254392253Y-109641704D01*
X254377638Y-109661410D01*
X254361162Y-109679588D01*
X254342984Y-109696064D01*
X254323278Y-109710679D01*
X254302235Y-109723291D01*
X254280056Y-109733781D01*
X254256957Y-109742046D01*
X254233158Y-109748007D01*
X254208890Y-109751607D01*
X254184386Y-109752811D01*
X253559384Y-109752811D01*
X253534880Y-109751607D01*
X253510612Y-109748007D01*
X253486813Y-109742046D01*
X253463714Y-109733781D01*
X253441535Y-109723291D01*
X253420492Y-109710679D01*
X253400786Y-109696064D01*
X253382608Y-109679588D01*
X253366132Y-109661410D01*
X253351517Y-109641704D01*
X253338905Y-109620661D01*
X253328415Y-109598482D01*
X253320150Y-109575383D01*
X253314189Y-109551584D01*
X253310589Y-109527316D01*
X253309385Y-109502812D01*
X253309385Y-108952810D01*
X253310589Y-108928306D01*
X253314189Y-108904038D01*
X253320150Y-108880239D01*
X253328415Y-108857140D01*
X253338905Y-108834961D01*
X253351517Y-108813918D01*
X253366132Y-108794212D01*
X253382608Y-108776034D01*
X253400786Y-108759558D01*
X253420492Y-108744943D01*
X253441535Y-108732331D01*
X253463714Y-108721841D01*
X253486813Y-108713576D01*
X253510612Y-108707615D01*
X253534880Y-108704015D01*
X253559384Y-108702811D01*
X254184386Y-108702811D01*
X254208890Y-108704015D01*
X254208890Y-108704015D01*
G37*
D25*
X253871885Y-109227811D03*
D13*
G36*
X252433890Y-108704015D02*
X252458158Y-108707615D01*
X252481957Y-108713576D01*
X252505056Y-108721841D01*
X252527235Y-108732331D01*
X252548278Y-108744943D01*
X252567984Y-108759558D01*
X252586162Y-108776034D01*
X252602638Y-108794212D01*
X252617253Y-108813918D01*
X252629865Y-108834961D01*
X252640355Y-108857140D01*
X252648620Y-108880239D01*
X252654581Y-108904038D01*
X252658181Y-108928306D01*
X252659385Y-108952810D01*
X252659385Y-109502812D01*
X252658181Y-109527316D01*
X252654581Y-109551584D01*
X252648620Y-109575383D01*
X252640355Y-109598482D01*
X252629865Y-109620661D01*
X252617253Y-109641704D01*
X252602638Y-109661410D01*
X252586162Y-109679588D01*
X252567984Y-109696064D01*
X252548278Y-109710679D01*
X252527235Y-109723291D01*
X252505056Y-109733781D01*
X252481957Y-109742046D01*
X252458158Y-109748007D01*
X252433890Y-109751607D01*
X252409386Y-109752811D01*
X251784384Y-109752811D01*
X251759880Y-109751607D01*
X251735612Y-109748007D01*
X251711813Y-109742046D01*
X251688714Y-109733781D01*
X251666535Y-109723291D01*
X251645492Y-109710679D01*
X251625786Y-109696064D01*
X251607608Y-109679588D01*
X251591132Y-109661410D01*
X251576517Y-109641704D01*
X251563905Y-109620661D01*
X251553415Y-109598482D01*
X251545150Y-109575383D01*
X251539189Y-109551584D01*
X251535589Y-109527316D01*
X251534385Y-109502812D01*
X251534385Y-108952810D01*
X251535589Y-108928306D01*
X251539189Y-108904038D01*
X251545150Y-108880239D01*
X251553415Y-108857140D01*
X251563905Y-108834961D01*
X251576517Y-108813918D01*
X251591132Y-108794212D01*
X251607608Y-108776034D01*
X251625786Y-108759558D01*
X251645492Y-108744943D01*
X251666535Y-108732331D01*
X251688714Y-108721841D01*
X251711813Y-108713576D01*
X251735612Y-108707615D01*
X251759880Y-108704015D01*
X251784384Y-108702811D01*
X252409386Y-108702811D01*
X252433890Y-108704015D01*
X252433890Y-108704015D01*
G37*
D25*
X252096885Y-109227811D03*
G04 #@! TD*
D13*
G04 #@! TO.C,C18*
G36*
X254233890Y-113704015D02*
X254258158Y-113707615D01*
X254281957Y-113713576D01*
X254305056Y-113721841D01*
X254327235Y-113732331D01*
X254348278Y-113744943D01*
X254367984Y-113759558D01*
X254386162Y-113776034D01*
X254402638Y-113794212D01*
X254417253Y-113813918D01*
X254429865Y-113834961D01*
X254440355Y-113857140D01*
X254448620Y-113880239D01*
X254454581Y-113904038D01*
X254458181Y-113928306D01*
X254459385Y-113952810D01*
X254459385Y-114502812D01*
X254458181Y-114527316D01*
X254454581Y-114551584D01*
X254448620Y-114575383D01*
X254440355Y-114598482D01*
X254429865Y-114620661D01*
X254417253Y-114641704D01*
X254402638Y-114661410D01*
X254386162Y-114679588D01*
X254367984Y-114696064D01*
X254348278Y-114710679D01*
X254327235Y-114723291D01*
X254305056Y-114733781D01*
X254281957Y-114742046D01*
X254258158Y-114748007D01*
X254233890Y-114751607D01*
X254209386Y-114752811D01*
X253584384Y-114752811D01*
X253559880Y-114751607D01*
X253535612Y-114748007D01*
X253511813Y-114742046D01*
X253488714Y-114733781D01*
X253466535Y-114723291D01*
X253445492Y-114710679D01*
X253425786Y-114696064D01*
X253407608Y-114679588D01*
X253391132Y-114661410D01*
X253376517Y-114641704D01*
X253363905Y-114620661D01*
X253353415Y-114598482D01*
X253345150Y-114575383D01*
X253339189Y-114551584D01*
X253335589Y-114527316D01*
X253334385Y-114502812D01*
X253334385Y-113952810D01*
X253335589Y-113928306D01*
X253339189Y-113904038D01*
X253345150Y-113880239D01*
X253353415Y-113857140D01*
X253363905Y-113834961D01*
X253376517Y-113813918D01*
X253391132Y-113794212D01*
X253407608Y-113776034D01*
X253425786Y-113759558D01*
X253445492Y-113744943D01*
X253466535Y-113732331D01*
X253488714Y-113721841D01*
X253511813Y-113713576D01*
X253535612Y-113707615D01*
X253559880Y-113704015D01*
X253584384Y-113702811D01*
X254209386Y-113702811D01*
X254233890Y-113704015D01*
X254233890Y-113704015D01*
G37*
D25*
X253896885Y-114227811D03*
D13*
G36*
X252458890Y-113704015D02*
X252483158Y-113707615D01*
X252506957Y-113713576D01*
X252530056Y-113721841D01*
X252552235Y-113732331D01*
X252573278Y-113744943D01*
X252592984Y-113759558D01*
X252611162Y-113776034D01*
X252627638Y-113794212D01*
X252642253Y-113813918D01*
X252654865Y-113834961D01*
X252665355Y-113857140D01*
X252673620Y-113880239D01*
X252679581Y-113904038D01*
X252683181Y-113928306D01*
X252684385Y-113952810D01*
X252684385Y-114502812D01*
X252683181Y-114527316D01*
X252679581Y-114551584D01*
X252673620Y-114575383D01*
X252665355Y-114598482D01*
X252654865Y-114620661D01*
X252642253Y-114641704D01*
X252627638Y-114661410D01*
X252611162Y-114679588D01*
X252592984Y-114696064D01*
X252573278Y-114710679D01*
X252552235Y-114723291D01*
X252530056Y-114733781D01*
X252506957Y-114742046D01*
X252483158Y-114748007D01*
X252458890Y-114751607D01*
X252434386Y-114752811D01*
X251809384Y-114752811D01*
X251784880Y-114751607D01*
X251760612Y-114748007D01*
X251736813Y-114742046D01*
X251713714Y-114733781D01*
X251691535Y-114723291D01*
X251670492Y-114710679D01*
X251650786Y-114696064D01*
X251632608Y-114679588D01*
X251616132Y-114661410D01*
X251601517Y-114641704D01*
X251588905Y-114620661D01*
X251578415Y-114598482D01*
X251570150Y-114575383D01*
X251564189Y-114551584D01*
X251560589Y-114527316D01*
X251559385Y-114502812D01*
X251559385Y-113952810D01*
X251560589Y-113928306D01*
X251564189Y-113904038D01*
X251570150Y-113880239D01*
X251578415Y-113857140D01*
X251588905Y-113834961D01*
X251601517Y-113813918D01*
X251616132Y-113794212D01*
X251632608Y-113776034D01*
X251650786Y-113759558D01*
X251670492Y-113744943D01*
X251691535Y-113732331D01*
X251713714Y-113721841D01*
X251736813Y-113713576D01*
X251760612Y-113707615D01*
X251784880Y-113704015D01*
X251809384Y-113702811D01*
X252434386Y-113702811D01*
X252458890Y-113704015D01*
X252458890Y-113704015D01*
G37*
D25*
X252121885Y-114227811D03*
G04 #@! TD*
D13*
G04 #@! TO.C,C19*
G36*
X254208890Y-111454015D02*
X254233158Y-111457615D01*
X254256957Y-111463576D01*
X254280056Y-111471841D01*
X254302235Y-111482331D01*
X254323278Y-111494943D01*
X254342984Y-111509558D01*
X254361162Y-111526034D01*
X254377638Y-111544212D01*
X254392253Y-111563918D01*
X254404865Y-111584961D01*
X254415355Y-111607140D01*
X254423620Y-111630239D01*
X254429581Y-111654038D01*
X254433181Y-111678306D01*
X254434385Y-111702810D01*
X254434385Y-112252812D01*
X254433181Y-112277316D01*
X254429581Y-112301584D01*
X254423620Y-112325383D01*
X254415355Y-112348482D01*
X254404865Y-112370661D01*
X254392253Y-112391704D01*
X254377638Y-112411410D01*
X254361162Y-112429588D01*
X254342984Y-112446064D01*
X254323278Y-112460679D01*
X254302235Y-112473291D01*
X254280056Y-112483781D01*
X254256957Y-112492046D01*
X254233158Y-112498007D01*
X254208890Y-112501607D01*
X254184386Y-112502811D01*
X253559384Y-112502811D01*
X253534880Y-112501607D01*
X253510612Y-112498007D01*
X253486813Y-112492046D01*
X253463714Y-112483781D01*
X253441535Y-112473291D01*
X253420492Y-112460679D01*
X253400786Y-112446064D01*
X253382608Y-112429588D01*
X253366132Y-112411410D01*
X253351517Y-112391704D01*
X253338905Y-112370661D01*
X253328415Y-112348482D01*
X253320150Y-112325383D01*
X253314189Y-112301584D01*
X253310589Y-112277316D01*
X253309385Y-112252812D01*
X253309385Y-111702810D01*
X253310589Y-111678306D01*
X253314189Y-111654038D01*
X253320150Y-111630239D01*
X253328415Y-111607140D01*
X253338905Y-111584961D01*
X253351517Y-111563918D01*
X253366132Y-111544212D01*
X253382608Y-111526034D01*
X253400786Y-111509558D01*
X253420492Y-111494943D01*
X253441535Y-111482331D01*
X253463714Y-111471841D01*
X253486813Y-111463576D01*
X253510612Y-111457615D01*
X253534880Y-111454015D01*
X253559384Y-111452811D01*
X254184386Y-111452811D01*
X254208890Y-111454015D01*
X254208890Y-111454015D01*
G37*
D25*
X253871885Y-111977811D03*
D13*
G36*
X252433890Y-111454015D02*
X252458158Y-111457615D01*
X252481957Y-111463576D01*
X252505056Y-111471841D01*
X252527235Y-111482331D01*
X252548278Y-111494943D01*
X252567984Y-111509558D01*
X252586162Y-111526034D01*
X252602638Y-111544212D01*
X252617253Y-111563918D01*
X252629865Y-111584961D01*
X252640355Y-111607140D01*
X252648620Y-111630239D01*
X252654581Y-111654038D01*
X252658181Y-111678306D01*
X252659385Y-111702810D01*
X252659385Y-112252812D01*
X252658181Y-112277316D01*
X252654581Y-112301584D01*
X252648620Y-112325383D01*
X252640355Y-112348482D01*
X252629865Y-112370661D01*
X252617253Y-112391704D01*
X252602638Y-112411410D01*
X252586162Y-112429588D01*
X252567984Y-112446064D01*
X252548278Y-112460679D01*
X252527235Y-112473291D01*
X252505056Y-112483781D01*
X252481957Y-112492046D01*
X252458158Y-112498007D01*
X252433890Y-112501607D01*
X252409386Y-112502811D01*
X251784384Y-112502811D01*
X251759880Y-112501607D01*
X251735612Y-112498007D01*
X251711813Y-112492046D01*
X251688714Y-112483781D01*
X251666535Y-112473291D01*
X251645492Y-112460679D01*
X251625786Y-112446064D01*
X251607608Y-112429588D01*
X251591132Y-112411410D01*
X251576517Y-112391704D01*
X251563905Y-112370661D01*
X251553415Y-112348482D01*
X251545150Y-112325383D01*
X251539189Y-112301584D01*
X251535589Y-112277316D01*
X251534385Y-112252812D01*
X251534385Y-111702810D01*
X251535589Y-111678306D01*
X251539189Y-111654038D01*
X251545150Y-111630239D01*
X251553415Y-111607140D01*
X251563905Y-111584961D01*
X251576517Y-111563918D01*
X251591132Y-111544212D01*
X251607608Y-111526034D01*
X251625786Y-111509558D01*
X251645492Y-111494943D01*
X251666535Y-111482331D01*
X251688714Y-111471841D01*
X251711813Y-111463576D01*
X251735612Y-111457615D01*
X251759880Y-111454015D01*
X251784384Y-111452811D01*
X252409386Y-111452811D01*
X252433890Y-111454015D01*
X252433890Y-111454015D01*
G37*
D25*
X252096885Y-111977811D03*
G04 #@! TD*
D13*
G04 #@! TO.C,C20*
G36*
X245285553Y-106845025D02*
X245309821Y-106848625D01*
X245333620Y-106854586D01*
X245356719Y-106862851D01*
X245378898Y-106873341D01*
X245399941Y-106885953D01*
X245419647Y-106900568D01*
X245437825Y-106917044D01*
X245454301Y-106935222D01*
X245468916Y-106954928D01*
X245481528Y-106975971D01*
X245492018Y-106998150D01*
X245500283Y-107021249D01*
X245506244Y-107045048D01*
X245509844Y-107069316D01*
X245511048Y-107093820D01*
X245511048Y-107718822D01*
X245509844Y-107743326D01*
X245506244Y-107767594D01*
X245500283Y-107791393D01*
X245492018Y-107814492D01*
X245481528Y-107836671D01*
X245468916Y-107857714D01*
X245454301Y-107877420D01*
X245437825Y-107895598D01*
X245419647Y-107912074D01*
X245399941Y-107926689D01*
X245378898Y-107939301D01*
X245356719Y-107949791D01*
X245333620Y-107958056D01*
X245309821Y-107964017D01*
X245285553Y-107967617D01*
X245261049Y-107968821D01*
X244711047Y-107968821D01*
X244686543Y-107967617D01*
X244662275Y-107964017D01*
X244638476Y-107958056D01*
X244615377Y-107949791D01*
X244593198Y-107939301D01*
X244572155Y-107926689D01*
X244552449Y-107912074D01*
X244534271Y-107895598D01*
X244517795Y-107877420D01*
X244503180Y-107857714D01*
X244490568Y-107836671D01*
X244480078Y-107814492D01*
X244471813Y-107791393D01*
X244465852Y-107767594D01*
X244462252Y-107743326D01*
X244461048Y-107718822D01*
X244461048Y-107093820D01*
X244462252Y-107069316D01*
X244465852Y-107045048D01*
X244471813Y-107021249D01*
X244480078Y-106998150D01*
X244490568Y-106975971D01*
X244503180Y-106954928D01*
X244517795Y-106935222D01*
X244534271Y-106917044D01*
X244552449Y-106900568D01*
X244572155Y-106885953D01*
X244593198Y-106873341D01*
X244615377Y-106862851D01*
X244638476Y-106854586D01*
X244662275Y-106848625D01*
X244686543Y-106845025D01*
X244711047Y-106843821D01*
X245261049Y-106843821D01*
X245285553Y-106845025D01*
X245285553Y-106845025D01*
G37*
D25*
X244986048Y-107406321D03*
D13*
G36*
X245285553Y-108620025D02*
X245309821Y-108623625D01*
X245333620Y-108629586D01*
X245356719Y-108637851D01*
X245378898Y-108648341D01*
X245399941Y-108660953D01*
X245419647Y-108675568D01*
X245437825Y-108692044D01*
X245454301Y-108710222D01*
X245468916Y-108729928D01*
X245481528Y-108750971D01*
X245492018Y-108773150D01*
X245500283Y-108796249D01*
X245506244Y-108820048D01*
X245509844Y-108844316D01*
X245511048Y-108868820D01*
X245511048Y-109493822D01*
X245509844Y-109518326D01*
X245506244Y-109542594D01*
X245500283Y-109566393D01*
X245492018Y-109589492D01*
X245481528Y-109611671D01*
X245468916Y-109632714D01*
X245454301Y-109652420D01*
X245437825Y-109670598D01*
X245419647Y-109687074D01*
X245399941Y-109701689D01*
X245378898Y-109714301D01*
X245356719Y-109724791D01*
X245333620Y-109733056D01*
X245309821Y-109739017D01*
X245285553Y-109742617D01*
X245261049Y-109743821D01*
X244711047Y-109743821D01*
X244686543Y-109742617D01*
X244662275Y-109739017D01*
X244638476Y-109733056D01*
X244615377Y-109724791D01*
X244593198Y-109714301D01*
X244572155Y-109701689D01*
X244552449Y-109687074D01*
X244534271Y-109670598D01*
X244517795Y-109652420D01*
X244503180Y-109632714D01*
X244490568Y-109611671D01*
X244480078Y-109589492D01*
X244471813Y-109566393D01*
X244465852Y-109542594D01*
X244462252Y-109518326D01*
X244461048Y-109493822D01*
X244461048Y-108868820D01*
X244462252Y-108844316D01*
X244465852Y-108820048D01*
X244471813Y-108796249D01*
X244480078Y-108773150D01*
X244490568Y-108750971D01*
X244503180Y-108729928D01*
X244517795Y-108710222D01*
X244534271Y-108692044D01*
X244552449Y-108675568D01*
X244572155Y-108660953D01*
X244593198Y-108648341D01*
X244615377Y-108637851D01*
X244638476Y-108629586D01*
X244662275Y-108623625D01*
X244686543Y-108620025D01*
X244711047Y-108618821D01*
X245261049Y-108618821D01*
X245285553Y-108620025D01*
X245285553Y-108620025D01*
G37*
D25*
X244986048Y-109181321D03*
G04 #@! TD*
D13*
G04 #@! TO.C,D1*
G36*
X28604544Y-113818859D02*
X28628205Y-113822369D01*
X28651409Y-113828181D01*
X28673931Y-113836239D01*
X28695555Y-113846467D01*
X28716072Y-113858764D01*
X28735285Y-113873014D01*
X28753009Y-113889078D01*
X29097724Y-114233793D01*
X29113788Y-114251517D01*
X29128038Y-114270730D01*
X29140335Y-114291247D01*
X29150563Y-114312871D01*
X29158621Y-114335393D01*
X29164433Y-114358597D01*
X29167943Y-114382258D01*
X29169117Y-114406150D01*
X29167943Y-114430042D01*
X29164433Y-114453703D01*
X29158621Y-114476907D01*
X29150563Y-114499429D01*
X29140335Y-114521053D01*
X29128038Y-114541570D01*
X29113788Y-114560783D01*
X29097724Y-114578507D01*
X28452489Y-115223742D01*
X28434765Y-115239806D01*
X28415552Y-115254056D01*
X28395035Y-115266353D01*
X28373411Y-115276581D01*
X28350889Y-115284639D01*
X28327685Y-115290451D01*
X28304024Y-115293961D01*
X28280132Y-115295135D01*
X28256240Y-115293961D01*
X28232579Y-115290451D01*
X28209375Y-115284639D01*
X28186853Y-115276581D01*
X28165229Y-115266353D01*
X28144712Y-115254056D01*
X28125499Y-115239806D01*
X28107775Y-115223742D01*
X27763060Y-114879027D01*
X27746996Y-114861303D01*
X27732746Y-114842090D01*
X27720449Y-114821573D01*
X27710221Y-114799949D01*
X27702163Y-114777427D01*
X27696351Y-114754223D01*
X27692841Y-114730562D01*
X27691667Y-114706670D01*
X27692841Y-114682778D01*
X27696351Y-114659117D01*
X27702163Y-114635913D01*
X27710221Y-114613391D01*
X27720449Y-114591767D01*
X27732746Y-114571250D01*
X27746996Y-114552037D01*
X27763060Y-114534313D01*
X28408295Y-113889078D01*
X28426019Y-113873014D01*
X28445232Y-113858764D01*
X28465749Y-113846467D01*
X28487373Y-113836239D01*
X28509895Y-113828181D01*
X28533099Y-113822369D01*
X28556760Y-113818859D01*
X28580652Y-113817685D01*
X28604544Y-113818859D01*
X28604544Y-113818859D01*
G37*
D23*
X28430392Y-114556410D03*
D13*
G36*
X29930370Y-115144685D02*
X29954031Y-115148195D01*
X29977235Y-115154007D01*
X29999757Y-115162065D01*
X30021381Y-115172293D01*
X30041898Y-115184590D01*
X30061111Y-115198840D01*
X30078835Y-115214904D01*
X30423550Y-115559619D01*
X30439614Y-115577343D01*
X30453864Y-115596556D01*
X30466161Y-115617073D01*
X30476389Y-115638697D01*
X30484447Y-115661219D01*
X30490259Y-115684423D01*
X30493769Y-115708084D01*
X30494943Y-115731976D01*
X30493769Y-115755868D01*
X30490259Y-115779529D01*
X30484447Y-115802733D01*
X30476389Y-115825255D01*
X30466161Y-115846879D01*
X30453864Y-115867396D01*
X30439614Y-115886609D01*
X30423550Y-115904333D01*
X29778315Y-116549568D01*
X29760591Y-116565632D01*
X29741378Y-116579882D01*
X29720861Y-116592179D01*
X29699237Y-116602407D01*
X29676715Y-116610465D01*
X29653511Y-116616277D01*
X29629850Y-116619787D01*
X29605958Y-116620961D01*
X29582066Y-116619787D01*
X29558405Y-116616277D01*
X29535201Y-116610465D01*
X29512679Y-116602407D01*
X29491055Y-116592179D01*
X29470538Y-116579882D01*
X29451325Y-116565632D01*
X29433601Y-116549568D01*
X29088886Y-116204853D01*
X29072822Y-116187129D01*
X29058572Y-116167916D01*
X29046275Y-116147399D01*
X29036047Y-116125775D01*
X29027989Y-116103253D01*
X29022177Y-116080049D01*
X29018667Y-116056388D01*
X29017493Y-116032496D01*
X29018667Y-116008604D01*
X29022177Y-115984943D01*
X29027989Y-115961739D01*
X29036047Y-115939217D01*
X29046275Y-115917593D01*
X29058572Y-115897076D01*
X29072822Y-115877863D01*
X29088886Y-115860139D01*
X29734121Y-115214904D01*
X29751845Y-115198840D01*
X29771058Y-115184590D01*
X29791575Y-115172293D01*
X29813199Y-115162065D01*
X29835721Y-115154007D01*
X29858925Y-115148195D01*
X29882586Y-115144685D01*
X29906478Y-115143511D01*
X29930370Y-115144685D01*
X29930370Y-115144685D01*
G37*
D23*
X29756218Y-115882236D03*
G04 #@! TD*
D13*
G04 #@! TO.C,D56*
G36*
X145461201Y-106191793D02*
X145484862Y-106195303D01*
X145508066Y-106201115D01*
X145530588Y-106209173D01*
X145552212Y-106219401D01*
X145572729Y-106231698D01*
X145591942Y-106245948D01*
X145609666Y-106262012D01*
X145625730Y-106279736D01*
X145639980Y-106298949D01*
X145652277Y-106319466D01*
X145662505Y-106341090D01*
X145670563Y-106363612D01*
X145676375Y-106386816D01*
X145679885Y-106410477D01*
X145681059Y-106434369D01*
X145681059Y-106921869D01*
X145679885Y-106945761D01*
X145676375Y-106969422D01*
X145670563Y-106992626D01*
X145662505Y-107015148D01*
X145652277Y-107036772D01*
X145639980Y-107057289D01*
X145625730Y-107076502D01*
X145609666Y-107094226D01*
X145591942Y-107110290D01*
X145572729Y-107124540D01*
X145552212Y-107136837D01*
X145530588Y-107147065D01*
X145508066Y-107155123D01*
X145484862Y-107160935D01*
X145461201Y-107164445D01*
X145437309Y-107165619D01*
X144524809Y-107165619D01*
X144500917Y-107164445D01*
X144477256Y-107160935D01*
X144454052Y-107155123D01*
X144431530Y-107147065D01*
X144409906Y-107136837D01*
X144389389Y-107124540D01*
X144370176Y-107110290D01*
X144352452Y-107094226D01*
X144336388Y-107076502D01*
X144322138Y-107057289D01*
X144309841Y-107036772D01*
X144299613Y-107015148D01*
X144291555Y-106992626D01*
X144285743Y-106969422D01*
X144282233Y-106945761D01*
X144281059Y-106921869D01*
X144281059Y-106434369D01*
X144282233Y-106410477D01*
X144285743Y-106386816D01*
X144291555Y-106363612D01*
X144299613Y-106341090D01*
X144309841Y-106319466D01*
X144322138Y-106298949D01*
X144336388Y-106279736D01*
X144352452Y-106262012D01*
X144370176Y-106245948D01*
X144389389Y-106231698D01*
X144409906Y-106219401D01*
X144431530Y-106209173D01*
X144454052Y-106201115D01*
X144477256Y-106195303D01*
X144500917Y-106191793D01*
X144524809Y-106190619D01*
X145437309Y-106190619D01*
X145461201Y-106191793D01*
X145461201Y-106191793D01*
G37*
D23*
X144981059Y-106678119D03*
D13*
G36*
X145461201Y-108066793D02*
X145484862Y-108070303D01*
X145508066Y-108076115D01*
X145530588Y-108084173D01*
X145552212Y-108094401D01*
X145572729Y-108106698D01*
X145591942Y-108120948D01*
X145609666Y-108137012D01*
X145625730Y-108154736D01*
X145639980Y-108173949D01*
X145652277Y-108194466D01*
X145662505Y-108216090D01*
X145670563Y-108238612D01*
X145676375Y-108261816D01*
X145679885Y-108285477D01*
X145681059Y-108309369D01*
X145681059Y-108796869D01*
X145679885Y-108820761D01*
X145676375Y-108844422D01*
X145670563Y-108867626D01*
X145662505Y-108890148D01*
X145652277Y-108911772D01*
X145639980Y-108932289D01*
X145625730Y-108951502D01*
X145609666Y-108969226D01*
X145591942Y-108985290D01*
X145572729Y-108999540D01*
X145552212Y-109011837D01*
X145530588Y-109022065D01*
X145508066Y-109030123D01*
X145484862Y-109035935D01*
X145461201Y-109039445D01*
X145437309Y-109040619D01*
X144524809Y-109040619D01*
X144500917Y-109039445D01*
X144477256Y-109035935D01*
X144454052Y-109030123D01*
X144431530Y-109022065D01*
X144409906Y-109011837D01*
X144389389Y-108999540D01*
X144370176Y-108985290D01*
X144352452Y-108969226D01*
X144336388Y-108951502D01*
X144322138Y-108932289D01*
X144309841Y-108911772D01*
X144299613Y-108890148D01*
X144291555Y-108867626D01*
X144285743Y-108844422D01*
X144282233Y-108820761D01*
X144281059Y-108796869D01*
X144281059Y-108309369D01*
X144282233Y-108285477D01*
X144285743Y-108261816D01*
X144291555Y-108238612D01*
X144299613Y-108216090D01*
X144309841Y-108194466D01*
X144322138Y-108173949D01*
X144336388Y-108154736D01*
X144352452Y-108137012D01*
X144370176Y-108120948D01*
X144389389Y-108106698D01*
X144409906Y-108094401D01*
X144431530Y-108084173D01*
X144454052Y-108076115D01*
X144477256Y-108070303D01*
X144500917Y-108066793D01*
X144524809Y-108065619D01*
X145437309Y-108065619D01*
X145461201Y-108066793D01*
X145461201Y-108066793D01*
G37*
D23*
X144981059Y-108553119D03*
G04 #@! TD*
D13*
G04 #@! TO.C,D57*
G36*
X147961201Y-106191793D02*
X147984862Y-106195303D01*
X148008066Y-106201115D01*
X148030588Y-106209173D01*
X148052212Y-106219401D01*
X148072729Y-106231698D01*
X148091942Y-106245948D01*
X148109666Y-106262012D01*
X148125730Y-106279736D01*
X148139980Y-106298949D01*
X148152277Y-106319466D01*
X148162505Y-106341090D01*
X148170563Y-106363612D01*
X148176375Y-106386816D01*
X148179885Y-106410477D01*
X148181059Y-106434369D01*
X148181059Y-106921869D01*
X148179885Y-106945761D01*
X148176375Y-106969422D01*
X148170563Y-106992626D01*
X148162505Y-107015148D01*
X148152277Y-107036772D01*
X148139980Y-107057289D01*
X148125730Y-107076502D01*
X148109666Y-107094226D01*
X148091942Y-107110290D01*
X148072729Y-107124540D01*
X148052212Y-107136837D01*
X148030588Y-107147065D01*
X148008066Y-107155123D01*
X147984862Y-107160935D01*
X147961201Y-107164445D01*
X147937309Y-107165619D01*
X147024809Y-107165619D01*
X147000917Y-107164445D01*
X146977256Y-107160935D01*
X146954052Y-107155123D01*
X146931530Y-107147065D01*
X146909906Y-107136837D01*
X146889389Y-107124540D01*
X146870176Y-107110290D01*
X146852452Y-107094226D01*
X146836388Y-107076502D01*
X146822138Y-107057289D01*
X146809841Y-107036772D01*
X146799613Y-107015148D01*
X146791555Y-106992626D01*
X146785743Y-106969422D01*
X146782233Y-106945761D01*
X146781059Y-106921869D01*
X146781059Y-106434369D01*
X146782233Y-106410477D01*
X146785743Y-106386816D01*
X146791555Y-106363612D01*
X146799613Y-106341090D01*
X146809841Y-106319466D01*
X146822138Y-106298949D01*
X146836388Y-106279736D01*
X146852452Y-106262012D01*
X146870176Y-106245948D01*
X146889389Y-106231698D01*
X146909906Y-106219401D01*
X146931530Y-106209173D01*
X146954052Y-106201115D01*
X146977256Y-106195303D01*
X147000917Y-106191793D01*
X147024809Y-106190619D01*
X147937309Y-106190619D01*
X147961201Y-106191793D01*
X147961201Y-106191793D01*
G37*
D23*
X147481059Y-106678119D03*
D13*
G36*
X147961201Y-108066793D02*
X147984862Y-108070303D01*
X148008066Y-108076115D01*
X148030588Y-108084173D01*
X148052212Y-108094401D01*
X148072729Y-108106698D01*
X148091942Y-108120948D01*
X148109666Y-108137012D01*
X148125730Y-108154736D01*
X148139980Y-108173949D01*
X148152277Y-108194466D01*
X148162505Y-108216090D01*
X148170563Y-108238612D01*
X148176375Y-108261816D01*
X148179885Y-108285477D01*
X148181059Y-108309369D01*
X148181059Y-108796869D01*
X148179885Y-108820761D01*
X148176375Y-108844422D01*
X148170563Y-108867626D01*
X148162505Y-108890148D01*
X148152277Y-108911772D01*
X148139980Y-108932289D01*
X148125730Y-108951502D01*
X148109666Y-108969226D01*
X148091942Y-108985290D01*
X148072729Y-108999540D01*
X148052212Y-109011837D01*
X148030588Y-109022065D01*
X148008066Y-109030123D01*
X147984862Y-109035935D01*
X147961201Y-109039445D01*
X147937309Y-109040619D01*
X147024809Y-109040619D01*
X147000917Y-109039445D01*
X146977256Y-109035935D01*
X146954052Y-109030123D01*
X146931530Y-109022065D01*
X146909906Y-109011837D01*
X146889389Y-108999540D01*
X146870176Y-108985290D01*
X146852452Y-108969226D01*
X146836388Y-108951502D01*
X146822138Y-108932289D01*
X146809841Y-108911772D01*
X146799613Y-108890148D01*
X146791555Y-108867626D01*
X146785743Y-108844422D01*
X146782233Y-108820761D01*
X146781059Y-108796869D01*
X146781059Y-108309369D01*
X146782233Y-108285477D01*
X146785743Y-108261816D01*
X146791555Y-108238612D01*
X146799613Y-108216090D01*
X146809841Y-108194466D01*
X146822138Y-108173949D01*
X146836388Y-108154736D01*
X146852452Y-108137012D01*
X146870176Y-108120948D01*
X146889389Y-108106698D01*
X146909906Y-108094401D01*
X146931530Y-108084173D01*
X146954052Y-108076115D01*
X146977256Y-108070303D01*
X147000917Y-108066793D01*
X147024809Y-108065619D01*
X147937309Y-108065619D01*
X147961201Y-108066793D01*
X147961201Y-108066793D01*
G37*
D23*
X147481059Y-108553119D03*
G04 #@! TD*
D26*
G04 #@! TO.C,D58*
X210986048Y-100333907D03*
X217786048Y-100333907D03*
G04 #@! TD*
D13*
G04 #@! TO.C,D59*
G36*
X152461201Y-108066793D02*
X152484862Y-108070303D01*
X152508066Y-108076115D01*
X152530588Y-108084173D01*
X152552212Y-108094401D01*
X152572729Y-108106698D01*
X152591942Y-108120948D01*
X152609666Y-108137012D01*
X152625730Y-108154736D01*
X152639980Y-108173949D01*
X152652277Y-108194466D01*
X152662505Y-108216090D01*
X152670563Y-108238612D01*
X152676375Y-108261816D01*
X152679885Y-108285477D01*
X152681059Y-108309369D01*
X152681059Y-108796869D01*
X152679885Y-108820761D01*
X152676375Y-108844422D01*
X152670563Y-108867626D01*
X152662505Y-108890148D01*
X152652277Y-108911772D01*
X152639980Y-108932289D01*
X152625730Y-108951502D01*
X152609666Y-108969226D01*
X152591942Y-108985290D01*
X152572729Y-108999540D01*
X152552212Y-109011837D01*
X152530588Y-109022065D01*
X152508066Y-109030123D01*
X152484862Y-109035935D01*
X152461201Y-109039445D01*
X152437309Y-109040619D01*
X151524809Y-109040619D01*
X151500917Y-109039445D01*
X151477256Y-109035935D01*
X151454052Y-109030123D01*
X151431530Y-109022065D01*
X151409906Y-109011837D01*
X151389389Y-108999540D01*
X151370176Y-108985290D01*
X151352452Y-108969226D01*
X151336388Y-108951502D01*
X151322138Y-108932289D01*
X151309841Y-108911772D01*
X151299613Y-108890148D01*
X151291555Y-108867626D01*
X151285743Y-108844422D01*
X151282233Y-108820761D01*
X151281059Y-108796869D01*
X151281059Y-108309369D01*
X151282233Y-108285477D01*
X151285743Y-108261816D01*
X151291555Y-108238612D01*
X151299613Y-108216090D01*
X151309841Y-108194466D01*
X151322138Y-108173949D01*
X151336388Y-108154736D01*
X151352452Y-108137012D01*
X151370176Y-108120948D01*
X151389389Y-108106698D01*
X151409906Y-108094401D01*
X151431530Y-108084173D01*
X151454052Y-108076115D01*
X151477256Y-108070303D01*
X151500917Y-108066793D01*
X151524809Y-108065619D01*
X152437309Y-108065619D01*
X152461201Y-108066793D01*
X152461201Y-108066793D01*
G37*
D23*
X151981059Y-108553119D03*
D13*
G36*
X152461201Y-106191793D02*
X152484862Y-106195303D01*
X152508066Y-106201115D01*
X152530588Y-106209173D01*
X152552212Y-106219401D01*
X152572729Y-106231698D01*
X152591942Y-106245948D01*
X152609666Y-106262012D01*
X152625730Y-106279736D01*
X152639980Y-106298949D01*
X152652277Y-106319466D01*
X152662505Y-106341090D01*
X152670563Y-106363612D01*
X152676375Y-106386816D01*
X152679885Y-106410477D01*
X152681059Y-106434369D01*
X152681059Y-106921869D01*
X152679885Y-106945761D01*
X152676375Y-106969422D01*
X152670563Y-106992626D01*
X152662505Y-107015148D01*
X152652277Y-107036772D01*
X152639980Y-107057289D01*
X152625730Y-107076502D01*
X152609666Y-107094226D01*
X152591942Y-107110290D01*
X152572729Y-107124540D01*
X152552212Y-107136837D01*
X152530588Y-107147065D01*
X152508066Y-107155123D01*
X152484862Y-107160935D01*
X152461201Y-107164445D01*
X152437309Y-107165619D01*
X151524809Y-107165619D01*
X151500917Y-107164445D01*
X151477256Y-107160935D01*
X151454052Y-107155123D01*
X151431530Y-107147065D01*
X151409906Y-107136837D01*
X151389389Y-107124540D01*
X151370176Y-107110290D01*
X151352452Y-107094226D01*
X151336388Y-107076502D01*
X151322138Y-107057289D01*
X151309841Y-107036772D01*
X151299613Y-107015148D01*
X151291555Y-106992626D01*
X151285743Y-106969422D01*
X151282233Y-106945761D01*
X151281059Y-106921869D01*
X151281059Y-106434369D01*
X151282233Y-106410477D01*
X151285743Y-106386816D01*
X151291555Y-106363612D01*
X151299613Y-106341090D01*
X151309841Y-106319466D01*
X151322138Y-106298949D01*
X151336388Y-106279736D01*
X151352452Y-106262012D01*
X151370176Y-106245948D01*
X151389389Y-106231698D01*
X151409906Y-106219401D01*
X151431530Y-106209173D01*
X151454052Y-106201115D01*
X151477256Y-106195303D01*
X151500917Y-106191793D01*
X151524809Y-106190619D01*
X152437309Y-106190619D01*
X152461201Y-106191793D01*
X152461201Y-106191793D01*
G37*
D23*
X151981059Y-106678119D03*
G04 #@! TD*
D13*
G04 #@! TO.C,D60*
G36*
X154961201Y-108066793D02*
X154984862Y-108070303D01*
X155008066Y-108076115D01*
X155030588Y-108084173D01*
X155052212Y-108094401D01*
X155072729Y-108106698D01*
X155091942Y-108120948D01*
X155109666Y-108137012D01*
X155125730Y-108154736D01*
X155139980Y-108173949D01*
X155152277Y-108194466D01*
X155162505Y-108216090D01*
X155170563Y-108238612D01*
X155176375Y-108261816D01*
X155179885Y-108285477D01*
X155181059Y-108309369D01*
X155181059Y-108796869D01*
X155179885Y-108820761D01*
X155176375Y-108844422D01*
X155170563Y-108867626D01*
X155162505Y-108890148D01*
X155152277Y-108911772D01*
X155139980Y-108932289D01*
X155125730Y-108951502D01*
X155109666Y-108969226D01*
X155091942Y-108985290D01*
X155072729Y-108999540D01*
X155052212Y-109011837D01*
X155030588Y-109022065D01*
X155008066Y-109030123D01*
X154984862Y-109035935D01*
X154961201Y-109039445D01*
X154937309Y-109040619D01*
X154024809Y-109040619D01*
X154000917Y-109039445D01*
X153977256Y-109035935D01*
X153954052Y-109030123D01*
X153931530Y-109022065D01*
X153909906Y-109011837D01*
X153889389Y-108999540D01*
X153870176Y-108985290D01*
X153852452Y-108969226D01*
X153836388Y-108951502D01*
X153822138Y-108932289D01*
X153809841Y-108911772D01*
X153799613Y-108890148D01*
X153791555Y-108867626D01*
X153785743Y-108844422D01*
X153782233Y-108820761D01*
X153781059Y-108796869D01*
X153781059Y-108309369D01*
X153782233Y-108285477D01*
X153785743Y-108261816D01*
X153791555Y-108238612D01*
X153799613Y-108216090D01*
X153809841Y-108194466D01*
X153822138Y-108173949D01*
X153836388Y-108154736D01*
X153852452Y-108137012D01*
X153870176Y-108120948D01*
X153889389Y-108106698D01*
X153909906Y-108094401D01*
X153931530Y-108084173D01*
X153954052Y-108076115D01*
X153977256Y-108070303D01*
X154000917Y-108066793D01*
X154024809Y-108065619D01*
X154937309Y-108065619D01*
X154961201Y-108066793D01*
X154961201Y-108066793D01*
G37*
D23*
X154481059Y-108553119D03*
D13*
G36*
X154961201Y-106191793D02*
X154984862Y-106195303D01*
X155008066Y-106201115D01*
X155030588Y-106209173D01*
X155052212Y-106219401D01*
X155072729Y-106231698D01*
X155091942Y-106245948D01*
X155109666Y-106262012D01*
X155125730Y-106279736D01*
X155139980Y-106298949D01*
X155152277Y-106319466D01*
X155162505Y-106341090D01*
X155170563Y-106363612D01*
X155176375Y-106386816D01*
X155179885Y-106410477D01*
X155181059Y-106434369D01*
X155181059Y-106921869D01*
X155179885Y-106945761D01*
X155176375Y-106969422D01*
X155170563Y-106992626D01*
X155162505Y-107015148D01*
X155152277Y-107036772D01*
X155139980Y-107057289D01*
X155125730Y-107076502D01*
X155109666Y-107094226D01*
X155091942Y-107110290D01*
X155072729Y-107124540D01*
X155052212Y-107136837D01*
X155030588Y-107147065D01*
X155008066Y-107155123D01*
X154984862Y-107160935D01*
X154961201Y-107164445D01*
X154937309Y-107165619D01*
X154024809Y-107165619D01*
X154000917Y-107164445D01*
X153977256Y-107160935D01*
X153954052Y-107155123D01*
X153931530Y-107147065D01*
X153909906Y-107136837D01*
X153889389Y-107124540D01*
X153870176Y-107110290D01*
X153852452Y-107094226D01*
X153836388Y-107076502D01*
X153822138Y-107057289D01*
X153809841Y-107036772D01*
X153799613Y-107015148D01*
X153791555Y-106992626D01*
X153785743Y-106969422D01*
X153782233Y-106945761D01*
X153781059Y-106921869D01*
X153781059Y-106434369D01*
X153782233Y-106410477D01*
X153785743Y-106386816D01*
X153791555Y-106363612D01*
X153799613Y-106341090D01*
X153809841Y-106319466D01*
X153822138Y-106298949D01*
X153836388Y-106279736D01*
X153852452Y-106262012D01*
X153870176Y-106245948D01*
X153889389Y-106231698D01*
X153909906Y-106219401D01*
X153931530Y-106209173D01*
X153954052Y-106201115D01*
X153977256Y-106195303D01*
X154000917Y-106191793D01*
X154024809Y-106190619D01*
X154937309Y-106190619D01*
X154961201Y-106191793D01*
X154961201Y-106191793D01*
G37*
D23*
X154481059Y-106678119D03*
G04 #@! TD*
D13*
G04 #@! TO.C,D61*
G36*
X157461201Y-108066793D02*
X157484862Y-108070303D01*
X157508066Y-108076115D01*
X157530588Y-108084173D01*
X157552212Y-108094401D01*
X157572729Y-108106698D01*
X157591942Y-108120948D01*
X157609666Y-108137012D01*
X157625730Y-108154736D01*
X157639980Y-108173949D01*
X157652277Y-108194466D01*
X157662505Y-108216090D01*
X157670563Y-108238612D01*
X157676375Y-108261816D01*
X157679885Y-108285477D01*
X157681059Y-108309369D01*
X157681059Y-108796869D01*
X157679885Y-108820761D01*
X157676375Y-108844422D01*
X157670563Y-108867626D01*
X157662505Y-108890148D01*
X157652277Y-108911772D01*
X157639980Y-108932289D01*
X157625730Y-108951502D01*
X157609666Y-108969226D01*
X157591942Y-108985290D01*
X157572729Y-108999540D01*
X157552212Y-109011837D01*
X157530588Y-109022065D01*
X157508066Y-109030123D01*
X157484862Y-109035935D01*
X157461201Y-109039445D01*
X157437309Y-109040619D01*
X156524809Y-109040619D01*
X156500917Y-109039445D01*
X156477256Y-109035935D01*
X156454052Y-109030123D01*
X156431530Y-109022065D01*
X156409906Y-109011837D01*
X156389389Y-108999540D01*
X156370176Y-108985290D01*
X156352452Y-108969226D01*
X156336388Y-108951502D01*
X156322138Y-108932289D01*
X156309841Y-108911772D01*
X156299613Y-108890148D01*
X156291555Y-108867626D01*
X156285743Y-108844422D01*
X156282233Y-108820761D01*
X156281059Y-108796869D01*
X156281059Y-108309369D01*
X156282233Y-108285477D01*
X156285743Y-108261816D01*
X156291555Y-108238612D01*
X156299613Y-108216090D01*
X156309841Y-108194466D01*
X156322138Y-108173949D01*
X156336388Y-108154736D01*
X156352452Y-108137012D01*
X156370176Y-108120948D01*
X156389389Y-108106698D01*
X156409906Y-108094401D01*
X156431530Y-108084173D01*
X156454052Y-108076115D01*
X156477256Y-108070303D01*
X156500917Y-108066793D01*
X156524809Y-108065619D01*
X157437309Y-108065619D01*
X157461201Y-108066793D01*
X157461201Y-108066793D01*
G37*
D23*
X156981059Y-108553119D03*
D13*
G36*
X157461201Y-106191793D02*
X157484862Y-106195303D01*
X157508066Y-106201115D01*
X157530588Y-106209173D01*
X157552212Y-106219401D01*
X157572729Y-106231698D01*
X157591942Y-106245948D01*
X157609666Y-106262012D01*
X157625730Y-106279736D01*
X157639980Y-106298949D01*
X157652277Y-106319466D01*
X157662505Y-106341090D01*
X157670563Y-106363612D01*
X157676375Y-106386816D01*
X157679885Y-106410477D01*
X157681059Y-106434369D01*
X157681059Y-106921869D01*
X157679885Y-106945761D01*
X157676375Y-106969422D01*
X157670563Y-106992626D01*
X157662505Y-107015148D01*
X157652277Y-107036772D01*
X157639980Y-107057289D01*
X157625730Y-107076502D01*
X157609666Y-107094226D01*
X157591942Y-107110290D01*
X157572729Y-107124540D01*
X157552212Y-107136837D01*
X157530588Y-107147065D01*
X157508066Y-107155123D01*
X157484862Y-107160935D01*
X157461201Y-107164445D01*
X157437309Y-107165619D01*
X156524809Y-107165619D01*
X156500917Y-107164445D01*
X156477256Y-107160935D01*
X156454052Y-107155123D01*
X156431530Y-107147065D01*
X156409906Y-107136837D01*
X156389389Y-107124540D01*
X156370176Y-107110290D01*
X156352452Y-107094226D01*
X156336388Y-107076502D01*
X156322138Y-107057289D01*
X156309841Y-107036772D01*
X156299613Y-107015148D01*
X156291555Y-106992626D01*
X156285743Y-106969422D01*
X156282233Y-106945761D01*
X156281059Y-106921869D01*
X156281059Y-106434369D01*
X156282233Y-106410477D01*
X156285743Y-106386816D01*
X156291555Y-106363612D01*
X156299613Y-106341090D01*
X156309841Y-106319466D01*
X156322138Y-106298949D01*
X156336388Y-106279736D01*
X156352452Y-106262012D01*
X156370176Y-106245948D01*
X156389389Y-106231698D01*
X156409906Y-106219401D01*
X156431530Y-106209173D01*
X156454052Y-106201115D01*
X156477256Y-106195303D01*
X156500917Y-106191793D01*
X156524809Y-106190619D01*
X157437309Y-106190619D01*
X157461201Y-106191793D01*
X157461201Y-106191793D01*
G37*
D23*
X156981059Y-106678119D03*
G04 #@! TD*
D13*
G04 #@! TO.C,D62*
G36*
X159961201Y-108066793D02*
X159984862Y-108070303D01*
X160008066Y-108076115D01*
X160030588Y-108084173D01*
X160052212Y-108094401D01*
X160072729Y-108106698D01*
X160091942Y-108120948D01*
X160109666Y-108137012D01*
X160125730Y-108154736D01*
X160139980Y-108173949D01*
X160152277Y-108194466D01*
X160162505Y-108216090D01*
X160170563Y-108238612D01*
X160176375Y-108261816D01*
X160179885Y-108285477D01*
X160181059Y-108309369D01*
X160181059Y-108796869D01*
X160179885Y-108820761D01*
X160176375Y-108844422D01*
X160170563Y-108867626D01*
X160162505Y-108890148D01*
X160152277Y-108911772D01*
X160139980Y-108932289D01*
X160125730Y-108951502D01*
X160109666Y-108969226D01*
X160091942Y-108985290D01*
X160072729Y-108999540D01*
X160052212Y-109011837D01*
X160030588Y-109022065D01*
X160008066Y-109030123D01*
X159984862Y-109035935D01*
X159961201Y-109039445D01*
X159937309Y-109040619D01*
X159024809Y-109040619D01*
X159000917Y-109039445D01*
X158977256Y-109035935D01*
X158954052Y-109030123D01*
X158931530Y-109022065D01*
X158909906Y-109011837D01*
X158889389Y-108999540D01*
X158870176Y-108985290D01*
X158852452Y-108969226D01*
X158836388Y-108951502D01*
X158822138Y-108932289D01*
X158809841Y-108911772D01*
X158799613Y-108890148D01*
X158791555Y-108867626D01*
X158785743Y-108844422D01*
X158782233Y-108820761D01*
X158781059Y-108796869D01*
X158781059Y-108309369D01*
X158782233Y-108285477D01*
X158785743Y-108261816D01*
X158791555Y-108238612D01*
X158799613Y-108216090D01*
X158809841Y-108194466D01*
X158822138Y-108173949D01*
X158836388Y-108154736D01*
X158852452Y-108137012D01*
X158870176Y-108120948D01*
X158889389Y-108106698D01*
X158909906Y-108094401D01*
X158931530Y-108084173D01*
X158954052Y-108076115D01*
X158977256Y-108070303D01*
X159000917Y-108066793D01*
X159024809Y-108065619D01*
X159937309Y-108065619D01*
X159961201Y-108066793D01*
X159961201Y-108066793D01*
G37*
D23*
X159481059Y-108553119D03*
D13*
G36*
X159961201Y-106191793D02*
X159984862Y-106195303D01*
X160008066Y-106201115D01*
X160030588Y-106209173D01*
X160052212Y-106219401D01*
X160072729Y-106231698D01*
X160091942Y-106245948D01*
X160109666Y-106262012D01*
X160125730Y-106279736D01*
X160139980Y-106298949D01*
X160152277Y-106319466D01*
X160162505Y-106341090D01*
X160170563Y-106363612D01*
X160176375Y-106386816D01*
X160179885Y-106410477D01*
X160181059Y-106434369D01*
X160181059Y-106921869D01*
X160179885Y-106945761D01*
X160176375Y-106969422D01*
X160170563Y-106992626D01*
X160162505Y-107015148D01*
X160152277Y-107036772D01*
X160139980Y-107057289D01*
X160125730Y-107076502D01*
X160109666Y-107094226D01*
X160091942Y-107110290D01*
X160072729Y-107124540D01*
X160052212Y-107136837D01*
X160030588Y-107147065D01*
X160008066Y-107155123D01*
X159984862Y-107160935D01*
X159961201Y-107164445D01*
X159937309Y-107165619D01*
X159024809Y-107165619D01*
X159000917Y-107164445D01*
X158977256Y-107160935D01*
X158954052Y-107155123D01*
X158931530Y-107147065D01*
X158909906Y-107136837D01*
X158889389Y-107124540D01*
X158870176Y-107110290D01*
X158852452Y-107094226D01*
X158836388Y-107076502D01*
X158822138Y-107057289D01*
X158809841Y-107036772D01*
X158799613Y-107015148D01*
X158791555Y-106992626D01*
X158785743Y-106969422D01*
X158782233Y-106945761D01*
X158781059Y-106921869D01*
X158781059Y-106434369D01*
X158782233Y-106410477D01*
X158785743Y-106386816D01*
X158791555Y-106363612D01*
X158799613Y-106341090D01*
X158809841Y-106319466D01*
X158822138Y-106298949D01*
X158836388Y-106279736D01*
X158852452Y-106262012D01*
X158870176Y-106245948D01*
X158889389Y-106231698D01*
X158909906Y-106219401D01*
X158931530Y-106209173D01*
X158954052Y-106201115D01*
X158977256Y-106195303D01*
X159000917Y-106191793D01*
X159024809Y-106190619D01*
X159937309Y-106190619D01*
X159961201Y-106191793D01*
X159961201Y-106191793D01*
G37*
D23*
X159481059Y-106678119D03*
G04 #@! TD*
D13*
G04 #@! TO.C,D63*
G36*
X162461201Y-108066793D02*
X162484862Y-108070303D01*
X162508066Y-108076115D01*
X162530588Y-108084173D01*
X162552212Y-108094401D01*
X162572729Y-108106698D01*
X162591942Y-108120948D01*
X162609666Y-108137012D01*
X162625730Y-108154736D01*
X162639980Y-108173949D01*
X162652277Y-108194466D01*
X162662505Y-108216090D01*
X162670563Y-108238612D01*
X162676375Y-108261816D01*
X162679885Y-108285477D01*
X162681059Y-108309369D01*
X162681059Y-108796869D01*
X162679885Y-108820761D01*
X162676375Y-108844422D01*
X162670563Y-108867626D01*
X162662505Y-108890148D01*
X162652277Y-108911772D01*
X162639980Y-108932289D01*
X162625730Y-108951502D01*
X162609666Y-108969226D01*
X162591942Y-108985290D01*
X162572729Y-108999540D01*
X162552212Y-109011837D01*
X162530588Y-109022065D01*
X162508066Y-109030123D01*
X162484862Y-109035935D01*
X162461201Y-109039445D01*
X162437309Y-109040619D01*
X161524809Y-109040619D01*
X161500917Y-109039445D01*
X161477256Y-109035935D01*
X161454052Y-109030123D01*
X161431530Y-109022065D01*
X161409906Y-109011837D01*
X161389389Y-108999540D01*
X161370176Y-108985290D01*
X161352452Y-108969226D01*
X161336388Y-108951502D01*
X161322138Y-108932289D01*
X161309841Y-108911772D01*
X161299613Y-108890148D01*
X161291555Y-108867626D01*
X161285743Y-108844422D01*
X161282233Y-108820761D01*
X161281059Y-108796869D01*
X161281059Y-108309369D01*
X161282233Y-108285477D01*
X161285743Y-108261816D01*
X161291555Y-108238612D01*
X161299613Y-108216090D01*
X161309841Y-108194466D01*
X161322138Y-108173949D01*
X161336388Y-108154736D01*
X161352452Y-108137012D01*
X161370176Y-108120948D01*
X161389389Y-108106698D01*
X161409906Y-108094401D01*
X161431530Y-108084173D01*
X161454052Y-108076115D01*
X161477256Y-108070303D01*
X161500917Y-108066793D01*
X161524809Y-108065619D01*
X162437309Y-108065619D01*
X162461201Y-108066793D01*
X162461201Y-108066793D01*
G37*
D23*
X161981059Y-108553119D03*
D13*
G36*
X162461201Y-106191793D02*
X162484862Y-106195303D01*
X162508066Y-106201115D01*
X162530588Y-106209173D01*
X162552212Y-106219401D01*
X162572729Y-106231698D01*
X162591942Y-106245948D01*
X162609666Y-106262012D01*
X162625730Y-106279736D01*
X162639980Y-106298949D01*
X162652277Y-106319466D01*
X162662505Y-106341090D01*
X162670563Y-106363612D01*
X162676375Y-106386816D01*
X162679885Y-106410477D01*
X162681059Y-106434369D01*
X162681059Y-106921869D01*
X162679885Y-106945761D01*
X162676375Y-106969422D01*
X162670563Y-106992626D01*
X162662505Y-107015148D01*
X162652277Y-107036772D01*
X162639980Y-107057289D01*
X162625730Y-107076502D01*
X162609666Y-107094226D01*
X162591942Y-107110290D01*
X162572729Y-107124540D01*
X162552212Y-107136837D01*
X162530588Y-107147065D01*
X162508066Y-107155123D01*
X162484862Y-107160935D01*
X162461201Y-107164445D01*
X162437309Y-107165619D01*
X161524809Y-107165619D01*
X161500917Y-107164445D01*
X161477256Y-107160935D01*
X161454052Y-107155123D01*
X161431530Y-107147065D01*
X161409906Y-107136837D01*
X161389389Y-107124540D01*
X161370176Y-107110290D01*
X161352452Y-107094226D01*
X161336388Y-107076502D01*
X161322138Y-107057289D01*
X161309841Y-107036772D01*
X161299613Y-107015148D01*
X161291555Y-106992626D01*
X161285743Y-106969422D01*
X161282233Y-106945761D01*
X161281059Y-106921869D01*
X161281059Y-106434369D01*
X161282233Y-106410477D01*
X161285743Y-106386816D01*
X161291555Y-106363612D01*
X161299613Y-106341090D01*
X161309841Y-106319466D01*
X161322138Y-106298949D01*
X161336388Y-106279736D01*
X161352452Y-106262012D01*
X161370176Y-106245948D01*
X161389389Y-106231698D01*
X161409906Y-106219401D01*
X161431530Y-106209173D01*
X161454052Y-106201115D01*
X161477256Y-106195303D01*
X161500917Y-106191793D01*
X161524809Y-106190619D01*
X162437309Y-106190619D01*
X162461201Y-106191793D01*
X162461201Y-106191793D01*
G37*
D23*
X161981059Y-106678119D03*
G04 #@! TD*
D13*
G04 #@! TO.C,R1*
G36*
X47104112Y-143668427D02*
X47127773Y-143671937D01*
X47150977Y-143677749D01*
X47173499Y-143685807D01*
X47195123Y-143696035D01*
X47215640Y-143708332D01*
X47234853Y-143722582D01*
X47252577Y-143738646D01*
X47597292Y-144083361D01*
X47613356Y-144101085D01*
X47627606Y-144120298D01*
X47639903Y-144140815D01*
X47650131Y-144162439D01*
X47658189Y-144184961D01*
X47664001Y-144208165D01*
X47667511Y-144231826D01*
X47668685Y-144255718D01*
X47667511Y-144279610D01*
X47664001Y-144303271D01*
X47658189Y-144326475D01*
X47650131Y-144348997D01*
X47639903Y-144370621D01*
X47627606Y-144391138D01*
X47613356Y-144410351D01*
X47597292Y-144428075D01*
X46952057Y-145073310D01*
X46934333Y-145089374D01*
X46915120Y-145103624D01*
X46894603Y-145115921D01*
X46872979Y-145126149D01*
X46850457Y-145134207D01*
X46827253Y-145140019D01*
X46803592Y-145143529D01*
X46779700Y-145144703D01*
X46755808Y-145143529D01*
X46732147Y-145140019D01*
X46708943Y-145134207D01*
X46686421Y-145126149D01*
X46664797Y-145115921D01*
X46644280Y-145103624D01*
X46625067Y-145089374D01*
X46607343Y-145073310D01*
X46262628Y-144728595D01*
X46246564Y-144710871D01*
X46232314Y-144691658D01*
X46220017Y-144671141D01*
X46209789Y-144649517D01*
X46201731Y-144626995D01*
X46195919Y-144603791D01*
X46192409Y-144580130D01*
X46191235Y-144556238D01*
X46192409Y-144532346D01*
X46195919Y-144508685D01*
X46201731Y-144485481D01*
X46209789Y-144462959D01*
X46220017Y-144441335D01*
X46232314Y-144420818D01*
X46246564Y-144401605D01*
X46262628Y-144383881D01*
X46907863Y-143738646D01*
X46925587Y-143722582D01*
X46944800Y-143708332D01*
X46965317Y-143696035D01*
X46986941Y-143685807D01*
X47009463Y-143677749D01*
X47032667Y-143671937D01*
X47056328Y-143668427D01*
X47080220Y-143667253D01*
X47104112Y-143668427D01*
X47104112Y-143668427D01*
G37*
D23*
X46929960Y-144405978D03*
D13*
G36*
X48429938Y-144994253D02*
X48453599Y-144997763D01*
X48476803Y-145003575D01*
X48499325Y-145011633D01*
X48520949Y-145021861D01*
X48541466Y-145034158D01*
X48560679Y-145048408D01*
X48578403Y-145064472D01*
X48923118Y-145409187D01*
X48939182Y-145426911D01*
X48953432Y-145446124D01*
X48965729Y-145466641D01*
X48975957Y-145488265D01*
X48984015Y-145510787D01*
X48989827Y-145533991D01*
X48993337Y-145557652D01*
X48994511Y-145581544D01*
X48993337Y-145605436D01*
X48989827Y-145629097D01*
X48984015Y-145652301D01*
X48975957Y-145674823D01*
X48965729Y-145696447D01*
X48953432Y-145716964D01*
X48939182Y-145736177D01*
X48923118Y-145753901D01*
X48277883Y-146399136D01*
X48260159Y-146415200D01*
X48240946Y-146429450D01*
X48220429Y-146441747D01*
X48198805Y-146451975D01*
X48176283Y-146460033D01*
X48153079Y-146465845D01*
X48129418Y-146469355D01*
X48105526Y-146470529D01*
X48081634Y-146469355D01*
X48057973Y-146465845D01*
X48034769Y-146460033D01*
X48012247Y-146451975D01*
X47990623Y-146441747D01*
X47970106Y-146429450D01*
X47950893Y-146415200D01*
X47933169Y-146399136D01*
X47588454Y-146054421D01*
X47572390Y-146036697D01*
X47558140Y-146017484D01*
X47545843Y-145996967D01*
X47535615Y-145975343D01*
X47527557Y-145952821D01*
X47521745Y-145929617D01*
X47518235Y-145905956D01*
X47517061Y-145882064D01*
X47518235Y-145858172D01*
X47521745Y-145834511D01*
X47527557Y-145811307D01*
X47535615Y-145788785D01*
X47545843Y-145767161D01*
X47558140Y-145746644D01*
X47572390Y-145727431D01*
X47588454Y-145709707D01*
X48233689Y-145064472D01*
X48251413Y-145048408D01*
X48270626Y-145034158D01*
X48291143Y-145021861D01*
X48312767Y-145011633D01*
X48335289Y-145003575D01*
X48358493Y-144997763D01*
X48382154Y-144994253D01*
X48406046Y-144993079D01*
X48429938Y-144994253D01*
X48429938Y-144994253D01*
G37*
D23*
X48255786Y-145731804D03*
G04 #@! TD*
D13*
G04 #@! TO.C,R2*
G36*
X33055154Y-118269469D02*
X33078815Y-118272979D01*
X33102019Y-118278791D01*
X33124541Y-118286849D01*
X33146165Y-118297077D01*
X33166682Y-118309374D01*
X33185895Y-118323624D01*
X33203619Y-118339688D01*
X33548334Y-118684403D01*
X33564398Y-118702127D01*
X33578648Y-118721340D01*
X33590945Y-118741857D01*
X33601173Y-118763481D01*
X33609231Y-118786003D01*
X33615043Y-118809207D01*
X33618553Y-118832868D01*
X33619727Y-118856760D01*
X33618553Y-118880652D01*
X33615043Y-118904313D01*
X33609231Y-118927517D01*
X33601173Y-118950039D01*
X33590945Y-118971663D01*
X33578648Y-118992180D01*
X33564398Y-119011393D01*
X33548334Y-119029117D01*
X32903099Y-119674352D01*
X32885375Y-119690416D01*
X32866162Y-119704666D01*
X32845645Y-119716963D01*
X32824021Y-119727191D01*
X32801499Y-119735249D01*
X32778295Y-119741061D01*
X32754634Y-119744571D01*
X32730742Y-119745745D01*
X32706850Y-119744571D01*
X32683189Y-119741061D01*
X32659985Y-119735249D01*
X32637463Y-119727191D01*
X32615839Y-119716963D01*
X32595322Y-119704666D01*
X32576109Y-119690416D01*
X32558385Y-119674352D01*
X32213670Y-119329637D01*
X32197606Y-119311913D01*
X32183356Y-119292700D01*
X32171059Y-119272183D01*
X32160831Y-119250559D01*
X32152773Y-119228037D01*
X32146961Y-119204833D01*
X32143451Y-119181172D01*
X32142277Y-119157280D01*
X32143451Y-119133388D01*
X32146961Y-119109727D01*
X32152773Y-119086523D01*
X32160831Y-119064001D01*
X32171059Y-119042377D01*
X32183356Y-119021860D01*
X32197606Y-119002647D01*
X32213670Y-118984923D01*
X32858905Y-118339688D01*
X32876629Y-118323624D01*
X32895842Y-118309374D01*
X32916359Y-118297077D01*
X32937983Y-118286849D01*
X32960505Y-118278791D01*
X32983709Y-118272979D01*
X33007370Y-118269469D01*
X33031262Y-118268295D01*
X33055154Y-118269469D01*
X33055154Y-118269469D01*
G37*
D23*
X32881002Y-119007020D03*
D13*
G36*
X31729328Y-116943643D02*
X31752989Y-116947153D01*
X31776193Y-116952965D01*
X31798715Y-116961023D01*
X31820339Y-116971251D01*
X31840856Y-116983548D01*
X31860069Y-116997798D01*
X31877793Y-117013862D01*
X32222508Y-117358577D01*
X32238572Y-117376301D01*
X32252822Y-117395514D01*
X32265119Y-117416031D01*
X32275347Y-117437655D01*
X32283405Y-117460177D01*
X32289217Y-117483381D01*
X32292727Y-117507042D01*
X32293901Y-117530934D01*
X32292727Y-117554826D01*
X32289217Y-117578487D01*
X32283405Y-117601691D01*
X32275347Y-117624213D01*
X32265119Y-117645837D01*
X32252822Y-117666354D01*
X32238572Y-117685567D01*
X32222508Y-117703291D01*
X31577273Y-118348526D01*
X31559549Y-118364590D01*
X31540336Y-118378840D01*
X31519819Y-118391137D01*
X31498195Y-118401365D01*
X31475673Y-118409423D01*
X31452469Y-118415235D01*
X31428808Y-118418745D01*
X31404916Y-118419919D01*
X31381024Y-118418745D01*
X31357363Y-118415235D01*
X31334159Y-118409423D01*
X31311637Y-118401365D01*
X31290013Y-118391137D01*
X31269496Y-118378840D01*
X31250283Y-118364590D01*
X31232559Y-118348526D01*
X30887844Y-118003811D01*
X30871780Y-117986087D01*
X30857530Y-117966874D01*
X30845233Y-117946357D01*
X30835005Y-117924733D01*
X30826947Y-117902211D01*
X30821135Y-117879007D01*
X30817625Y-117855346D01*
X30816451Y-117831454D01*
X30817625Y-117807562D01*
X30821135Y-117783901D01*
X30826947Y-117760697D01*
X30835005Y-117738175D01*
X30845233Y-117716551D01*
X30857530Y-117696034D01*
X30871780Y-117676821D01*
X30887844Y-117659097D01*
X31533079Y-117013862D01*
X31550803Y-116997798D01*
X31570016Y-116983548D01*
X31590533Y-116971251D01*
X31612157Y-116961023D01*
X31634679Y-116952965D01*
X31657883Y-116947153D01*
X31681544Y-116943643D01*
X31705436Y-116942469D01*
X31729328Y-116943643D01*
X31729328Y-116943643D01*
G37*
D23*
X31555176Y-117681194D03*
G04 #@! TD*
D13*
G04 #@! TO.C,R8*
G36*
X45282053Y-43794995D02*
X45305714Y-43798505D01*
X45328918Y-43804317D01*
X45351440Y-43812375D01*
X45373064Y-43822603D01*
X45393581Y-43834900D01*
X45412794Y-43849150D01*
X45430518Y-43865214D01*
X45446582Y-43882938D01*
X45460832Y-43902151D01*
X45473129Y-43922668D01*
X45483357Y-43944292D01*
X45491415Y-43966814D01*
X45497227Y-43990018D01*
X45500737Y-44013679D01*
X45501911Y-44037571D01*
X45501911Y-44950071D01*
X45500737Y-44973963D01*
X45497227Y-44997624D01*
X45491415Y-45020828D01*
X45483357Y-45043350D01*
X45473129Y-45064974D01*
X45460832Y-45085491D01*
X45446582Y-45104704D01*
X45430518Y-45122428D01*
X45412794Y-45138492D01*
X45393581Y-45152742D01*
X45373064Y-45165039D01*
X45351440Y-45175267D01*
X45328918Y-45183325D01*
X45305714Y-45189137D01*
X45282053Y-45192647D01*
X45258161Y-45193821D01*
X44770661Y-45193821D01*
X44746769Y-45192647D01*
X44723108Y-45189137D01*
X44699904Y-45183325D01*
X44677382Y-45175267D01*
X44655758Y-45165039D01*
X44635241Y-45152742D01*
X44616028Y-45138492D01*
X44598304Y-45122428D01*
X44582240Y-45104704D01*
X44567990Y-45085491D01*
X44555693Y-45064974D01*
X44545465Y-45043350D01*
X44537407Y-45020828D01*
X44531595Y-44997624D01*
X44528085Y-44973963D01*
X44526911Y-44950071D01*
X44526911Y-44037571D01*
X44528085Y-44013679D01*
X44531595Y-43990018D01*
X44537407Y-43966814D01*
X44545465Y-43944292D01*
X44555693Y-43922668D01*
X44567990Y-43902151D01*
X44582240Y-43882938D01*
X44598304Y-43865214D01*
X44616028Y-43849150D01*
X44635241Y-43834900D01*
X44655758Y-43822603D01*
X44677382Y-43812375D01*
X44699904Y-43804317D01*
X44723108Y-43798505D01*
X44746769Y-43794995D01*
X44770661Y-43793821D01*
X45258161Y-43793821D01*
X45282053Y-43794995D01*
X45282053Y-43794995D01*
G37*
D23*
X45014411Y-44493821D03*
D13*
G36*
X43407053Y-43794995D02*
X43430714Y-43798505D01*
X43453918Y-43804317D01*
X43476440Y-43812375D01*
X43498064Y-43822603D01*
X43518581Y-43834900D01*
X43537794Y-43849150D01*
X43555518Y-43865214D01*
X43571582Y-43882938D01*
X43585832Y-43902151D01*
X43598129Y-43922668D01*
X43608357Y-43944292D01*
X43616415Y-43966814D01*
X43622227Y-43990018D01*
X43625737Y-44013679D01*
X43626911Y-44037571D01*
X43626911Y-44950071D01*
X43625737Y-44973963D01*
X43622227Y-44997624D01*
X43616415Y-45020828D01*
X43608357Y-45043350D01*
X43598129Y-45064974D01*
X43585832Y-45085491D01*
X43571582Y-45104704D01*
X43555518Y-45122428D01*
X43537794Y-45138492D01*
X43518581Y-45152742D01*
X43498064Y-45165039D01*
X43476440Y-45175267D01*
X43453918Y-45183325D01*
X43430714Y-45189137D01*
X43407053Y-45192647D01*
X43383161Y-45193821D01*
X42895661Y-45193821D01*
X42871769Y-45192647D01*
X42848108Y-45189137D01*
X42824904Y-45183325D01*
X42802382Y-45175267D01*
X42780758Y-45165039D01*
X42760241Y-45152742D01*
X42741028Y-45138492D01*
X42723304Y-45122428D01*
X42707240Y-45104704D01*
X42692990Y-45085491D01*
X42680693Y-45064974D01*
X42670465Y-45043350D01*
X42662407Y-45020828D01*
X42656595Y-44997624D01*
X42653085Y-44973963D01*
X42651911Y-44950071D01*
X42651911Y-44037571D01*
X42653085Y-44013679D01*
X42656595Y-43990018D01*
X42662407Y-43966814D01*
X42670465Y-43944292D01*
X42680693Y-43922668D01*
X42692990Y-43902151D01*
X42707240Y-43882938D01*
X42723304Y-43865214D01*
X42741028Y-43849150D01*
X42760241Y-43834900D01*
X42780758Y-43822603D01*
X42802382Y-43812375D01*
X42824904Y-43804317D01*
X42848108Y-43798505D01*
X42871769Y-43794995D01*
X42895661Y-43793821D01*
X43383161Y-43793821D01*
X43407053Y-43794995D01*
X43407053Y-43794995D01*
G37*
D23*
X43139411Y-44493821D03*
G04 #@! TD*
D13*
G04 #@! TO.C,R9*
G36*
X70482053Y-43794995D02*
X70505714Y-43798505D01*
X70528918Y-43804317D01*
X70551440Y-43812375D01*
X70573064Y-43822603D01*
X70593581Y-43834900D01*
X70612794Y-43849150D01*
X70630518Y-43865214D01*
X70646582Y-43882938D01*
X70660832Y-43902151D01*
X70673129Y-43922668D01*
X70683357Y-43944292D01*
X70691415Y-43966814D01*
X70697227Y-43990018D01*
X70700737Y-44013679D01*
X70701911Y-44037571D01*
X70701911Y-44950071D01*
X70700737Y-44973963D01*
X70697227Y-44997624D01*
X70691415Y-45020828D01*
X70683357Y-45043350D01*
X70673129Y-45064974D01*
X70660832Y-45085491D01*
X70646582Y-45104704D01*
X70630518Y-45122428D01*
X70612794Y-45138492D01*
X70593581Y-45152742D01*
X70573064Y-45165039D01*
X70551440Y-45175267D01*
X70528918Y-45183325D01*
X70505714Y-45189137D01*
X70482053Y-45192647D01*
X70458161Y-45193821D01*
X69970661Y-45193821D01*
X69946769Y-45192647D01*
X69923108Y-45189137D01*
X69899904Y-45183325D01*
X69877382Y-45175267D01*
X69855758Y-45165039D01*
X69835241Y-45152742D01*
X69816028Y-45138492D01*
X69798304Y-45122428D01*
X69782240Y-45104704D01*
X69767990Y-45085491D01*
X69755693Y-45064974D01*
X69745465Y-45043350D01*
X69737407Y-45020828D01*
X69731595Y-44997624D01*
X69728085Y-44973963D01*
X69726911Y-44950071D01*
X69726911Y-44037571D01*
X69728085Y-44013679D01*
X69731595Y-43990018D01*
X69737407Y-43966814D01*
X69745465Y-43944292D01*
X69755693Y-43922668D01*
X69767990Y-43902151D01*
X69782240Y-43882938D01*
X69798304Y-43865214D01*
X69816028Y-43849150D01*
X69835241Y-43834900D01*
X69855758Y-43822603D01*
X69877382Y-43812375D01*
X69899904Y-43804317D01*
X69923108Y-43798505D01*
X69946769Y-43794995D01*
X69970661Y-43793821D01*
X70458161Y-43793821D01*
X70482053Y-43794995D01*
X70482053Y-43794995D01*
G37*
D23*
X70214411Y-44493821D03*
D13*
G36*
X68607053Y-43794995D02*
X68630714Y-43798505D01*
X68653918Y-43804317D01*
X68676440Y-43812375D01*
X68698064Y-43822603D01*
X68718581Y-43834900D01*
X68737794Y-43849150D01*
X68755518Y-43865214D01*
X68771582Y-43882938D01*
X68785832Y-43902151D01*
X68798129Y-43922668D01*
X68808357Y-43944292D01*
X68816415Y-43966814D01*
X68822227Y-43990018D01*
X68825737Y-44013679D01*
X68826911Y-44037571D01*
X68826911Y-44950071D01*
X68825737Y-44973963D01*
X68822227Y-44997624D01*
X68816415Y-45020828D01*
X68808357Y-45043350D01*
X68798129Y-45064974D01*
X68785832Y-45085491D01*
X68771582Y-45104704D01*
X68755518Y-45122428D01*
X68737794Y-45138492D01*
X68718581Y-45152742D01*
X68698064Y-45165039D01*
X68676440Y-45175267D01*
X68653918Y-45183325D01*
X68630714Y-45189137D01*
X68607053Y-45192647D01*
X68583161Y-45193821D01*
X68095661Y-45193821D01*
X68071769Y-45192647D01*
X68048108Y-45189137D01*
X68024904Y-45183325D01*
X68002382Y-45175267D01*
X67980758Y-45165039D01*
X67960241Y-45152742D01*
X67941028Y-45138492D01*
X67923304Y-45122428D01*
X67907240Y-45104704D01*
X67892990Y-45085491D01*
X67880693Y-45064974D01*
X67870465Y-45043350D01*
X67862407Y-45020828D01*
X67856595Y-44997624D01*
X67853085Y-44973963D01*
X67851911Y-44950071D01*
X67851911Y-44037571D01*
X67853085Y-44013679D01*
X67856595Y-43990018D01*
X67862407Y-43966814D01*
X67870465Y-43944292D01*
X67880693Y-43922668D01*
X67892990Y-43902151D01*
X67907240Y-43882938D01*
X67923304Y-43865214D01*
X67941028Y-43849150D01*
X67960241Y-43834900D01*
X67980758Y-43822603D01*
X68002382Y-43812375D01*
X68024904Y-43804317D01*
X68048108Y-43798505D01*
X68071769Y-43794995D01*
X68095661Y-43793821D01*
X68583161Y-43793821D01*
X68607053Y-43794995D01*
X68607053Y-43794995D01*
G37*
D23*
X68339411Y-44493821D03*
G04 #@! TD*
D13*
G04 #@! TO.C,R10*
G36*
X95682053Y-43794995D02*
X95705714Y-43798505D01*
X95728918Y-43804317D01*
X95751440Y-43812375D01*
X95773064Y-43822603D01*
X95793581Y-43834900D01*
X95812794Y-43849150D01*
X95830518Y-43865214D01*
X95846582Y-43882938D01*
X95860832Y-43902151D01*
X95873129Y-43922668D01*
X95883357Y-43944292D01*
X95891415Y-43966814D01*
X95897227Y-43990018D01*
X95900737Y-44013679D01*
X95901911Y-44037571D01*
X95901911Y-44950071D01*
X95900737Y-44973963D01*
X95897227Y-44997624D01*
X95891415Y-45020828D01*
X95883357Y-45043350D01*
X95873129Y-45064974D01*
X95860832Y-45085491D01*
X95846582Y-45104704D01*
X95830518Y-45122428D01*
X95812794Y-45138492D01*
X95793581Y-45152742D01*
X95773064Y-45165039D01*
X95751440Y-45175267D01*
X95728918Y-45183325D01*
X95705714Y-45189137D01*
X95682053Y-45192647D01*
X95658161Y-45193821D01*
X95170661Y-45193821D01*
X95146769Y-45192647D01*
X95123108Y-45189137D01*
X95099904Y-45183325D01*
X95077382Y-45175267D01*
X95055758Y-45165039D01*
X95035241Y-45152742D01*
X95016028Y-45138492D01*
X94998304Y-45122428D01*
X94982240Y-45104704D01*
X94967990Y-45085491D01*
X94955693Y-45064974D01*
X94945465Y-45043350D01*
X94937407Y-45020828D01*
X94931595Y-44997624D01*
X94928085Y-44973963D01*
X94926911Y-44950071D01*
X94926911Y-44037571D01*
X94928085Y-44013679D01*
X94931595Y-43990018D01*
X94937407Y-43966814D01*
X94945465Y-43944292D01*
X94955693Y-43922668D01*
X94967990Y-43902151D01*
X94982240Y-43882938D01*
X94998304Y-43865214D01*
X95016028Y-43849150D01*
X95035241Y-43834900D01*
X95055758Y-43822603D01*
X95077382Y-43812375D01*
X95099904Y-43804317D01*
X95123108Y-43798505D01*
X95146769Y-43794995D01*
X95170661Y-43793821D01*
X95658161Y-43793821D01*
X95682053Y-43794995D01*
X95682053Y-43794995D01*
G37*
D23*
X95414411Y-44493821D03*
D13*
G36*
X93807053Y-43794995D02*
X93830714Y-43798505D01*
X93853918Y-43804317D01*
X93876440Y-43812375D01*
X93898064Y-43822603D01*
X93918581Y-43834900D01*
X93937794Y-43849150D01*
X93955518Y-43865214D01*
X93971582Y-43882938D01*
X93985832Y-43902151D01*
X93998129Y-43922668D01*
X94008357Y-43944292D01*
X94016415Y-43966814D01*
X94022227Y-43990018D01*
X94025737Y-44013679D01*
X94026911Y-44037571D01*
X94026911Y-44950071D01*
X94025737Y-44973963D01*
X94022227Y-44997624D01*
X94016415Y-45020828D01*
X94008357Y-45043350D01*
X93998129Y-45064974D01*
X93985832Y-45085491D01*
X93971582Y-45104704D01*
X93955518Y-45122428D01*
X93937794Y-45138492D01*
X93918581Y-45152742D01*
X93898064Y-45165039D01*
X93876440Y-45175267D01*
X93853918Y-45183325D01*
X93830714Y-45189137D01*
X93807053Y-45192647D01*
X93783161Y-45193821D01*
X93295661Y-45193821D01*
X93271769Y-45192647D01*
X93248108Y-45189137D01*
X93224904Y-45183325D01*
X93202382Y-45175267D01*
X93180758Y-45165039D01*
X93160241Y-45152742D01*
X93141028Y-45138492D01*
X93123304Y-45122428D01*
X93107240Y-45104704D01*
X93092990Y-45085491D01*
X93080693Y-45064974D01*
X93070465Y-45043350D01*
X93062407Y-45020828D01*
X93056595Y-44997624D01*
X93053085Y-44973963D01*
X93051911Y-44950071D01*
X93051911Y-44037571D01*
X93053085Y-44013679D01*
X93056595Y-43990018D01*
X93062407Y-43966814D01*
X93070465Y-43944292D01*
X93080693Y-43922668D01*
X93092990Y-43902151D01*
X93107240Y-43882938D01*
X93123304Y-43865214D01*
X93141028Y-43849150D01*
X93160241Y-43834900D01*
X93180758Y-43822603D01*
X93202382Y-43812375D01*
X93224904Y-43804317D01*
X93248108Y-43798505D01*
X93271769Y-43794995D01*
X93295661Y-43793821D01*
X93783161Y-43793821D01*
X93807053Y-43794995D01*
X93807053Y-43794995D01*
G37*
D23*
X93539411Y-44493821D03*
G04 #@! TD*
D13*
G04 #@! TO.C,R11*
G36*
X120882053Y-43794995D02*
X120905714Y-43798505D01*
X120928918Y-43804317D01*
X120951440Y-43812375D01*
X120973064Y-43822603D01*
X120993581Y-43834900D01*
X121012794Y-43849150D01*
X121030518Y-43865214D01*
X121046582Y-43882938D01*
X121060832Y-43902151D01*
X121073129Y-43922668D01*
X121083357Y-43944292D01*
X121091415Y-43966814D01*
X121097227Y-43990018D01*
X121100737Y-44013679D01*
X121101911Y-44037571D01*
X121101911Y-44950071D01*
X121100737Y-44973963D01*
X121097227Y-44997624D01*
X121091415Y-45020828D01*
X121083357Y-45043350D01*
X121073129Y-45064974D01*
X121060832Y-45085491D01*
X121046582Y-45104704D01*
X121030518Y-45122428D01*
X121012794Y-45138492D01*
X120993581Y-45152742D01*
X120973064Y-45165039D01*
X120951440Y-45175267D01*
X120928918Y-45183325D01*
X120905714Y-45189137D01*
X120882053Y-45192647D01*
X120858161Y-45193821D01*
X120370661Y-45193821D01*
X120346769Y-45192647D01*
X120323108Y-45189137D01*
X120299904Y-45183325D01*
X120277382Y-45175267D01*
X120255758Y-45165039D01*
X120235241Y-45152742D01*
X120216028Y-45138492D01*
X120198304Y-45122428D01*
X120182240Y-45104704D01*
X120167990Y-45085491D01*
X120155693Y-45064974D01*
X120145465Y-45043350D01*
X120137407Y-45020828D01*
X120131595Y-44997624D01*
X120128085Y-44973963D01*
X120126911Y-44950071D01*
X120126911Y-44037571D01*
X120128085Y-44013679D01*
X120131595Y-43990018D01*
X120137407Y-43966814D01*
X120145465Y-43944292D01*
X120155693Y-43922668D01*
X120167990Y-43902151D01*
X120182240Y-43882938D01*
X120198304Y-43865214D01*
X120216028Y-43849150D01*
X120235241Y-43834900D01*
X120255758Y-43822603D01*
X120277382Y-43812375D01*
X120299904Y-43804317D01*
X120323108Y-43798505D01*
X120346769Y-43794995D01*
X120370661Y-43793821D01*
X120858161Y-43793821D01*
X120882053Y-43794995D01*
X120882053Y-43794995D01*
G37*
D23*
X120614411Y-44493821D03*
D13*
G36*
X119007053Y-43794995D02*
X119030714Y-43798505D01*
X119053918Y-43804317D01*
X119076440Y-43812375D01*
X119098064Y-43822603D01*
X119118581Y-43834900D01*
X119137794Y-43849150D01*
X119155518Y-43865214D01*
X119171582Y-43882938D01*
X119185832Y-43902151D01*
X119198129Y-43922668D01*
X119208357Y-43944292D01*
X119216415Y-43966814D01*
X119222227Y-43990018D01*
X119225737Y-44013679D01*
X119226911Y-44037571D01*
X119226911Y-44950071D01*
X119225737Y-44973963D01*
X119222227Y-44997624D01*
X119216415Y-45020828D01*
X119208357Y-45043350D01*
X119198129Y-45064974D01*
X119185832Y-45085491D01*
X119171582Y-45104704D01*
X119155518Y-45122428D01*
X119137794Y-45138492D01*
X119118581Y-45152742D01*
X119098064Y-45165039D01*
X119076440Y-45175267D01*
X119053918Y-45183325D01*
X119030714Y-45189137D01*
X119007053Y-45192647D01*
X118983161Y-45193821D01*
X118495661Y-45193821D01*
X118471769Y-45192647D01*
X118448108Y-45189137D01*
X118424904Y-45183325D01*
X118402382Y-45175267D01*
X118380758Y-45165039D01*
X118360241Y-45152742D01*
X118341028Y-45138492D01*
X118323304Y-45122428D01*
X118307240Y-45104704D01*
X118292990Y-45085491D01*
X118280693Y-45064974D01*
X118270465Y-45043350D01*
X118262407Y-45020828D01*
X118256595Y-44997624D01*
X118253085Y-44973963D01*
X118251911Y-44950071D01*
X118251911Y-44037571D01*
X118253085Y-44013679D01*
X118256595Y-43990018D01*
X118262407Y-43966814D01*
X118270465Y-43944292D01*
X118280693Y-43922668D01*
X118292990Y-43902151D01*
X118307240Y-43882938D01*
X118323304Y-43865214D01*
X118341028Y-43849150D01*
X118360241Y-43834900D01*
X118380758Y-43822603D01*
X118402382Y-43812375D01*
X118424904Y-43804317D01*
X118448108Y-43798505D01*
X118471769Y-43794995D01*
X118495661Y-43793821D01*
X118983161Y-43793821D01*
X119007053Y-43794995D01*
X119007053Y-43794995D01*
G37*
D23*
X118739411Y-44493821D03*
G04 #@! TD*
D13*
G04 #@! TO.C,R15*
G36*
X63957053Y-43944995D02*
X63980714Y-43948505D01*
X64003918Y-43954317D01*
X64026440Y-43962375D01*
X64048064Y-43972603D01*
X64068581Y-43984900D01*
X64087794Y-43999150D01*
X64105518Y-44015214D01*
X64121582Y-44032938D01*
X64135832Y-44052151D01*
X64148129Y-44072668D01*
X64158357Y-44094292D01*
X64166415Y-44116814D01*
X64172227Y-44140018D01*
X64175737Y-44163679D01*
X64176911Y-44187571D01*
X64176911Y-44675071D01*
X64175737Y-44698963D01*
X64172227Y-44722624D01*
X64166415Y-44745828D01*
X64158357Y-44768350D01*
X64148129Y-44789974D01*
X64135832Y-44810491D01*
X64121582Y-44829704D01*
X64105518Y-44847428D01*
X64087794Y-44863492D01*
X64068581Y-44877742D01*
X64048064Y-44890039D01*
X64026440Y-44900267D01*
X64003918Y-44908325D01*
X63980714Y-44914137D01*
X63957053Y-44917647D01*
X63933161Y-44918821D01*
X63020661Y-44918821D01*
X62996769Y-44917647D01*
X62973108Y-44914137D01*
X62949904Y-44908325D01*
X62927382Y-44900267D01*
X62905758Y-44890039D01*
X62885241Y-44877742D01*
X62866028Y-44863492D01*
X62848304Y-44847428D01*
X62832240Y-44829704D01*
X62817990Y-44810491D01*
X62805693Y-44789974D01*
X62795465Y-44768350D01*
X62787407Y-44745828D01*
X62781595Y-44722624D01*
X62778085Y-44698963D01*
X62776911Y-44675071D01*
X62776911Y-44187571D01*
X62778085Y-44163679D01*
X62781595Y-44140018D01*
X62787407Y-44116814D01*
X62795465Y-44094292D01*
X62805693Y-44072668D01*
X62817990Y-44052151D01*
X62832240Y-44032938D01*
X62848304Y-44015214D01*
X62866028Y-43999150D01*
X62885241Y-43984900D01*
X62905758Y-43972603D01*
X62927382Y-43962375D01*
X62949904Y-43954317D01*
X62973108Y-43948505D01*
X62996769Y-43944995D01*
X63020661Y-43943821D01*
X63933161Y-43943821D01*
X63957053Y-43944995D01*
X63957053Y-43944995D01*
G37*
D23*
X63476911Y-44431321D03*
D13*
G36*
X63957053Y-42069995D02*
X63980714Y-42073505D01*
X64003918Y-42079317D01*
X64026440Y-42087375D01*
X64048064Y-42097603D01*
X64068581Y-42109900D01*
X64087794Y-42124150D01*
X64105518Y-42140214D01*
X64121582Y-42157938D01*
X64135832Y-42177151D01*
X64148129Y-42197668D01*
X64158357Y-42219292D01*
X64166415Y-42241814D01*
X64172227Y-42265018D01*
X64175737Y-42288679D01*
X64176911Y-42312571D01*
X64176911Y-42800071D01*
X64175737Y-42823963D01*
X64172227Y-42847624D01*
X64166415Y-42870828D01*
X64158357Y-42893350D01*
X64148129Y-42914974D01*
X64135832Y-42935491D01*
X64121582Y-42954704D01*
X64105518Y-42972428D01*
X64087794Y-42988492D01*
X64068581Y-43002742D01*
X64048064Y-43015039D01*
X64026440Y-43025267D01*
X64003918Y-43033325D01*
X63980714Y-43039137D01*
X63957053Y-43042647D01*
X63933161Y-43043821D01*
X63020661Y-43043821D01*
X62996769Y-43042647D01*
X62973108Y-43039137D01*
X62949904Y-43033325D01*
X62927382Y-43025267D01*
X62905758Y-43015039D01*
X62885241Y-43002742D01*
X62866028Y-42988492D01*
X62848304Y-42972428D01*
X62832240Y-42954704D01*
X62817990Y-42935491D01*
X62805693Y-42914974D01*
X62795465Y-42893350D01*
X62787407Y-42870828D01*
X62781595Y-42847624D01*
X62778085Y-42823963D01*
X62776911Y-42800071D01*
X62776911Y-42312571D01*
X62778085Y-42288679D01*
X62781595Y-42265018D01*
X62787407Y-42241814D01*
X62795465Y-42219292D01*
X62805693Y-42197668D01*
X62817990Y-42177151D01*
X62832240Y-42157938D01*
X62848304Y-42140214D01*
X62866028Y-42124150D01*
X62885241Y-42109900D01*
X62905758Y-42097603D01*
X62927382Y-42087375D01*
X62949904Y-42079317D01*
X62973108Y-42073505D01*
X62996769Y-42069995D01*
X63020661Y-42068821D01*
X63933161Y-42068821D01*
X63957053Y-42069995D01*
X63957053Y-42069995D01*
G37*
D23*
X63476911Y-42556321D03*
G04 #@! TD*
D13*
G04 #@! TO.C,R16*
G36*
X56282053Y-42994995D02*
X56305714Y-42998505D01*
X56328918Y-43004317D01*
X56351440Y-43012375D01*
X56373064Y-43022603D01*
X56393581Y-43034900D01*
X56412794Y-43049150D01*
X56430518Y-43065214D01*
X56446582Y-43082938D01*
X56460832Y-43102151D01*
X56473129Y-43122668D01*
X56483357Y-43144292D01*
X56491415Y-43166814D01*
X56497227Y-43190018D01*
X56500737Y-43213679D01*
X56501911Y-43237571D01*
X56501911Y-44150071D01*
X56500737Y-44173963D01*
X56497227Y-44197624D01*
X56491415Y-44220828D01*
X56483357Y-44243350D01*
X56473129Y-44264974D01*
X56460832Y-44285491D01*
X56446582Y-44304704D01*
X56430518Y-44322428D01*
X56412794Y-44338492D01*
X56393581Y-44352742D01*
X56373064Y-44365039D01*
X56351440Y-44375267D01*
X56328918Y-44383325D01*
X56305714Y-44389137D01*
X56282053Y-44392647D01*
X56258161Y-44393821D01*
X55770661Y-44393821D01*
X55746769Y-44392647D01*
X55723108Y-44389137D01*
X55699904Y-44383325D01*
X55677382Y-44375267D01*
X55655758Y-44365039D01*
X55635241Y-44352742D01*
X55616028Y-44338492D01*
X55598304Y-44322428D01*
X55582240Y-44304704D01*
X55567990Y-44285491D01*
X55555693Y-44264974D01*
X55545465Y-44243350D01*
X55537407Y-44220828D01*
X55531595Y-44197624D01*
X55528085Y-44173963D01*
X55526911Y-44150071D01*
X55526911Y-43237571D01*
X55528085Y-43213679D01*
X55531595Y-43190018D01*
X55537407Y-43166814D01*
X55545465Y-43144292D01*
X55555693Y-43122668D01*
X55567990Y-43102151D01*
X55582240Y-43082938D01*
X55598304Y-43065214D01*
X55616028Y-43049150D01*
X55635241Y-43034900D01*
X55655758Y-43022603D01*
X55677382Y-43012375D01*
X55699904Y-43004317D01*
X55723108Y-42998505D01*
X55746769Y-42994995D01*
X55770661Y-42993821D01*
X56258161Y-42993821D01*
X56282053Y-42994995D01*
X56282053Y-42994995D01*
G37*
D23*
X56014411Y-43693821D03*
D13*
G36*
X54407053Y-42994995D02*
X54430714Y-42998505D01*
X54453918Y-43004317D01*
X54476440Y-43012375D01*
X54498064Y-43022603D01*
X54518581Y-43034900D01*
X54537794Y-43049150D01*
X54555518Y-43065214D01*
X54571582Y-43082938D01*
X54585832Y-43102151D01*
X54598129Y-43122668D01*
X54608357Y-43144292D01*
X54616415Y-43166814D01*
X54622227Y-43190018D01*
X54625737Y-43213679D01*
X54626911Y-43237571D01*
X54626911Y-44150071D01*
X54625737Y-44173963D01*
X54622227Y-44197624D01*
X54616415Y-44220828D01*
X54608357Y-44243350D01*
X54598129Y-44264974D01*
X54585832Y-44285491D01*
X54571582Y-44304704D01*
X54555518Y-44322428D01*
X54537794Y-44338492D01*
X54518581Y-44352742D01*
X54498064Y-44365039D01*
X54476440Y-44375267D01*
X54453918Y-44383325D01*
X54430714Y-44389137D01*
X54407053Y-44392647D01*
X54383161Y-44393821D01*
X53895661Y-44393821D01*
X53871769Y-44392647D01*
X53848108Y-44389137D01*
X53824904Y-44383325D01*
X53802382Y-44375267D01*
X53780758Y-44365039D01*
X53760241Y-44352742D01*
X53741028Y-44338492D01*
X53723304Y-44322428D01*
X53707240Y-44304704D01*
X53692990Y-44285491D01*
X53680693Y-44264974D01*
X53670465Y-44243350D01*
X53662407Y-44220828D01*
X53656595Y-44197624D01*
X53653085Y-44173963D01*
X53651911Y-44150071D01*
X53651911Y-43237571D01*
X53653085Y-43213679D01*
X53656595Y-43190018D01*
X53662407Y-43166814D01*
X53670465Y-43144292D01*
X53680693Y-43122668D01*
X53692990Y-43102151D01*
X53707240Y-43082938D01*
X53723304Y-43065214D01*
X53741028Y-43049150D01*
X53760241Y-43034900D01*
X53780758Y-43022603D01*
X53802382Y-43012375D01*
X53824904Y-43004317D01*
X53848108Y-42998505D01*
X53871769Y-42994995D01*
X53895661Y-42993821D01*
X54383161Y-42993821D01*
X54407053Y-42994995D01*
X54407053Y-42994995D01*
G37*
D23*
X54139411Y-43693821D03*
G04 #@! TD*
D13*
G04 #@! TO.C,R17*
G36*
X71666527Y-37610900D02*
X71690188Y-37614410D01*
X71713392Y-37620222D01*
X71735914Y-37628280D01*
X71757538Y-37638508D01*
X71778055Y-37650805D01*
X71797268Y-37665055D01*
X71814992Y-37681119D01*
X71831056Y-37698843D01*
X71845306Y-37718056D01*
X71857603Y-37738573D01*
X71867831Y-37760197D01*
X71875889Y-37782719D01*
X71881701Y-37805923D01*
X71885211Y-37829584D01*
X71886385Y-37853476D01*
X71886385Y-38765976D01*
X71885211Y-38789868D01*
X71881701Y-38813529D01*
X71875889Y-38836733D01*
X71867831Y-38859255D01*
X71857603Y-38880879D01*
X71845306Y-38901396D01*
X71831056Y-38920609D01*
X71814992Y-38938333D01*
X71797268Y-38954397D01*
X71778055Y-38968647D01*
X71757538Y-38980944D01*
X71735914Y-38991172D01*
X71713392Y-38999230D01*
X71690188Y-39005042D01*
X71666527Y-39008552D01*
X71642635Y-39009726D01*
X71155135Y-39009726D01*
X71131243Y-39008552D01*
X71107582Y-39005042D01*
X71084378Y-38999230D01*
X71061856Y-38991172D01*
X71040232Y-38980944D01*
X71019715Y-38968647D01*
X71000502Y-38954397D01*
X70982778Y-38938333D01*
X70966714Y-38920609D01*
X70952464Y-38901396D01*
X70940167Y-38880879D01*
X70929939Y-38859255D01*
X70921881Y-38836733D01*
X70916069Y-38813529D01*
X70912559Y-38789868D01*
X70911385Y-38765976D01*
X70911385Y-37853476D01*
X70912559Y-37829584D01*
X70916069Y-37805923D01*
X70921881Y-37782719D01*
X70929939Y-37760197D01*
X70940167Y-37738573D01*
X70952464Y-37718056D01*
X70966714Y-37698843D01*
X70982778Y-37681119D01*
X71000502Y-37665055D01*
X71019715Y-37650805D01*
X71040232Y-37638508D01*
X71061856Y-37628280D01*
X71084378Y-37620222D01*
X71107582Y-37614410D01*
X71131243Y-37610900D01*
X71155135Y-37609726D01*
X71642635Y-37609726D01*
X71666527Y-37610900D01*
X71666527Y-37610900D01*
G37*
D23*
X71398885Y-38309726D03*
D13*
G36*
X73541527Y-37610900D02*
X73565188Y-37614410D01*
X73588392Y-37620222D01*
X73610914Y-37628280D01*
X73632538Y-37638508D01*
X73653055Y-37650805D01*
X73672268Y-37665055D01*
X73689992Y-37681119D01*
X73706056Y-37698843D01*
X73720306Y-37718056D01*
X73732603Y-37738573D01*
X73742831Y-37760197D01*
X73750889Y-37782719D01*
X73756701Y-37805923D01*
X73760211Y-37829584D01*
X73761385Y-37853476D01*
X73761385Y-38765976D01*
X73760211Y-38789868D01*
X73756701Y-38813529D01*
X73750889Y-38836733D01*
X73742831Y-38859255D01*
X73732603Y-38880879D01*
X73720306Y-38901396D01*
X73706056Y-38920609D01*
X73689992Y-38938333D01*
X73672268Y-38954397D01*
X73653055Y-38968647D01*
X73632538Y-38980944D01*
X73610914Y-38991172D01*
X73588392Y-38999230D01*
X73565188Y-39005042D01*
X73541527Y-39008552D01*
X73517635Y-39009726D01*
X73030135Y-39009726D01*
X73006243Y-39008552D01*
X72982582Y-39005042D01*
X72959378Y-38999230D01*
X72936856Y-38991172D01*
X72915232Y-38980944D01*
X72894715Y-38968647D01*
X72875502Y-38954397D01*
X72857778Y-38938333D01*
X72841714Y-38920609D01*
X72827464Y-38901396D01*
X72815167Y-38880879D01*
X72804939Y-38859255D01*
X72796881Y-38836733D01*
X72791069Y-38813529D01*
X72787559Y-38789868D01*
X72786385Y-38765976D01*
X72786385Y-37853476D01*
X72787559Y-37829584D01*
X72791069Y-37805923D01*
X72796881Y-37782719D01*
X72804939Y-37760197D01*
X72815167Y-37738573D01*
X72827464Y-37718056D01*
X72841714Y-37698843D01*
X72857778Y-37681119D01*
X72875502Y-37665055D01*
X72894715Y-37650805D01*
X72915232Y-37638508D01*
X72936856Y-37628280D01*
X72959378Y-37620222D01*
X72982582Y-37614410D01*
X73006243Y-37610900D01*
X73030135Y-37609726D01*
X73517635Y-37609726D01*
X73541527Y-37610900D01*
X73541527Y-37610900D01*
G37*
D23*
X73273885Y-38309726D03*
G04 #@! TD*
D13*
G04 #@! TO.C,R18*
G36*
X71666527Y-40210900D02*
X71690188Y-40214410D01*
X71713392Y-40220222D01*
X71735914Y-40228280D01*
X71757538Y-40238508D01*
X71778055Y-40250805D01*
X71797268Y-40265055D01*
X71814992Y-40281119D01*
X71831056Y-40298843D01*
X71845306Y-40318056D01*
X71857603Y-40338573D01*
X71867831Y-40360197D01*
X71875889Y-40382719D01*
X71881701Y-40405923D01*
X71885211Y-40429584D01*
X71886385Y-40453476D01*
X71886385Y-41365976D01*
X71885211Y-41389868D01*
X71881701Y-41413529D01*
X71875889Y-41436733D01*
X71867831Y-41459255D01*
X71857603Y-41480879D01*
X71845306Y-41501396D01*
X71831056Y-41520609D01*
X71814992Y-41538333D01*
X71797268Y-41554397D01*
X71778055Y-41568647D01*
X71757538Y-41580944D01*
X71735914Y-41591172D01*
X71713392Y-41599230D01*
X71690188Y-41605042D01*
X71666527Y-41608552D01*
X71642635Y-41609726D01*
X71155135Y-41609726D01*
X71131243Y-41608552D01*
X71107582Y-41605042D01*
X71084378Y-41599230D01*
X71061856Y-41591172D01*
X71040232Y-41580944D01*
X71019715Y-41568647D01*
X71000502Y-41554397D01*
X70982778Y-41538333D01*
X70966714Y-41520609D01*
X70952464Y-41501396D01*
X70940167Y-41480879D01*
X70929939Y-41459255D01*
X70921881Y-41436733D01*
X70916069Y-41413529D01*
X70912559Y-41389868D01*
X70911385Y-41365976D01*
X70911385Y-40453476D01*
X70912559Y-40429584D01*
X70916069Y-40405923D01*
X70921881Y-40382719D01*
X70929939Y-40360197D01*
X70940167Y-40338573D01*
X70952464Y-40318056D01*
X70966714Y-40298843D01*
X70982778Y-40281119D01*
X71000502Y-40265055D01*
X71019715Y-40250805D01*
X71040232Y-40238508D01*
X71061856Y-40228280D01*
X71084378Y-40220222D01*
X71107582Y-40214410D01*
X71131243Y-40210900D01*
X71155135Y-40209726D01*
X71642635Y-40209726D01*
X71666527Y-40210900D01*
X71666527Y-40210900D01*
G37*
D23*
X71398885Y-40909726D03*
D13*
G36*
X73541527Y-40210900D02*
X73565188Y-40214410D01*
X73588392Y-40220222D01*
X73610914Y-40228280D01*
X73632538Y-40238508D01*
X73653055Y-40250805D01*
X73672268Y-40265055D01*
X73689992Y-40281119D01*
X73706056Y-40298843D01*
X73720306Y-40318056D01*
X73732603Y-40338573D01*
X73742831Y-40360197D01*
X73750889Y-40382719D01*
X73756701Y-40405923D01*
X73760211Y-40429584D01*
X73761385Y-40453476D01*
X73761385Y-41365976D01*
X73760211Y-41389868D01*
X73756701Y-41413529D01*
X73750889Y-41436733D01*
X73742831Y-41459255D01*
X73732603Y-41480879D01*
X73720306Y-41501396D01*
X73706056Y-41520609D01*
X73689992Y-41538333D01*
X73672268Y-41554397D01*
X73653055Y-41568647D01*
X73632538Y-41580944D01*
X73610914Y-41591172D01*
X73588392Y-41599230D01*
X73565188Y-41605042D01*
X73541527Y-41608552D01*
X73517635Y-41609726D01*
X73030135Y-41609726D01*
X73006243Y-41608552D01*
X72982582Y-41605042D01*
X72959378Y-41599230D01*
X72936856Y-41591172D01*
X72915232Y-41580944D01*
X72894715Y-41568647D01*
X72875502Y-41554397D01*
X72857778Y-41538333D01*
X72841714Y-41520609D01*
X72827464Y-41501396D01*
X72815167Y-41480879D01*
X72804939Y-41459255D01*
X72796881Y-41436733D01*
X72791069Y-41413529D01*
X72787559Y-41389868D01*
X72786385Y-41365976D01*
X72786385Y-40453476D01*
X72787559Y-40429584D01*
X72791069Y-40405923D01*
X72796881Y-40382719D01*
X72804939Y-40360197D01*
X72815167Y-40338573D01*
X72827464Y-40318056D01*
X72841714Y-40298843D01*
X72857778Y-40281119D01*
X72875502Y-40265055D01*
X72894715Y-40250805D01*
X72915232Y-40238508D01*
X72936856Y-40228280D01*
X72959378Y-40220222D01*
X72982582Y-40214410D01*
X73006243Y-40210900D01*
X73030135Y-40209726D01*
X73517635Y-40209726D01*
X73541527Y-40210900D01*
X73541527Y-40210900D01*
G37*
D23*
X73273885Y-40909726D03*
G04 #@! TD*
D13*
G04 #@! TO.C,R19*
G36*
X73516527Y-34610900D02*
X73540188Y-34614410D01*
X73563392Y-34620222D01*
X73585914Y-34628280D01*
X73607538Y-34638508D01*
X73628055Y-34650805D01*
X73647268Y-34665055D01*
X73664992Y-34681119D01*
X73681056Y-34698843D01*
X73695306Y-34718056D01*
X73707603Y-34738573D01*
X73717831Y-34760197D01*
X73725889Y-34782719D01*
X73731701Y-34805923D01*
X73735211Y-34829584D01*
X73736385Y-34853476D01*
X73736385Y-35765976D01*
X73735211Y-35789868D01*
X73731701Y-35813529D01*
X73725889Y-35836733D01*
X73717831Y-35859255D01*
X73707603Y-35880879D01*
X73695306Y-35901396D01*
X73681056Y-35920609D01*
X73664992Y-35938333D01*
X73647268Y-35954397D01*
X73628055Y-35968647D01*
X73607538Y-35980944D01*
X73585914Y-35991172D01*
X73563392Y-35999230D01*
X73540188Y-36005042D01*
X73516527Y-36008552D01*
X73492635Y-36009726D01*
X73005135Y-36009726D01*
X72981243Y-36008552D01*
X72957582Y-36005042D01*
X72934378Y-35999230D01*
X72911856Y-35991172D01*
X72890232Y-35980944D01*
X72869715Y-35968647D01*
X72850502Y-35954397D01*
X72832778Y-35938333D01*
X72816714Y-35920609D01*
X72802464Y-35901396D01*
X72790167Y-35880879D01*
X72779939Y-35859255D01*
X72771881Y-35836733D01*
X72766069Y-35813529D01*
X72762559Y-35789868D01*
X72761385Y-35765976D01*
X72761385Y-34853476D01*
X72762559Y-34829584D01*
X72766069Y-34805923D01*
X72771881Y-34782719D01*
X72779939Y-34760197D01*
X72790167Y-34738573D01*
X72802464Y-34718056D01*
X72816714Y-34698843D01*
X72832778Y-34681119D01*
X72850502Y-34665055D01*
X72869715Y-34650805D01*
X72890232Y-34638508D01*
X72911856Y-34628280D01*
X72934378Y-34620222D01*
X72957582Y-34614410D01*
X72981243Y-34610900D01*
X73005135Y-34609726D01*
X73492635Y-34609726D01*
X73516527Y-34610900D01*
X73516527Y-34610900D01*
G37*
D23*
X73248885Y-35309726D03*
D13*
G36*
X71641527Y-34610900D02*
X71665188Y-34614410D01*
X71688392Y-34620222D01*
X71710914Y-34628280D01*
X71732538Y-34638508D01*
X71753055Y-34650805D01*
X71772268Y-34665055D01*
X71789992Y-34681119D01*
X71806056Y-34698843D01*
X71820306Y-34718056D01*
X71832603Y-34738573D01*
X71842831Y-34760197D01*
X71850889Y-34782719D01*
X71856701Y-34805923D01*
X71860211Y-34829584D01*
X71861385Y-34853476D01*
X71861385Y-35765976D01*
X71860211Y-35789868D01*
X71856701Y-35813529D01*
X71850889Y-35836733D01*
X71842831Y-35859255D01*
X71832603Y-35880879D01*
X71820306Y-35901396D01*
X71806056Y-35920609D01*
X71789992Y-35938333D01*
X71772268Y-35954397D01*
X71753055Y-35968647D01*
X71732538Y-35980944D01*
X71710914Y-35991172D01*
X71688392Y-35999230D01*
X71665188Y-36005042D01*
X71641527Y-36008552D01*
X71617635Y-36009726D01*
X71130135Y-36009726D01*
X71106243Y-36008552D01*
X71082582Y-36005042D01*
X71059378Y-35999230D01*
X71036856Y-35991172D01*
X71015232Y-35980944D01*
X70994715Y-35968647D01*
X70975502Y-35954397D01*
X70957778Y-35938333D01*
X70941714Y-35920609D01*
X70927464Y-35901396D01*
X70915167Y-35880879D01*
X70904939Y-35859255D01*
X70896881Y-35836733D01*
X70891069Y-35813529D01*
X70887559Y-35789868D01*
X70886385Y-35765976D01*
X70886385Y-34853476D01*
X70887559Y-34829584D01*
X70891069Y-34805923D01*
X70896881Y-34782719D01*
X70904939Y-34760197D01*
X70915167Y-34738573D01*
X70927464Y-34718056D01*
X70941714Y-34698843D01*
X70957778Y-34681119D01*
X70975502Y-34665055D01*
X70994715Y-34650805D01*
X71015232Y-34638508D01*
X71036856Y-34628280D01*
X71059378Y-34620222D01*
X71082582Y-34614410D01*
X71106243Y-34610900D01*
X71130135Y-34609726D01*
X71617635Y-34609726D01*
X71641527Y-34610900D01*
X71641527Y-34610900D01*
G37*
D23*
X71373885Y-35309726D03*
G04 #@! TD*
D13*
G04 #@! TO.C,R20*
G36*
X186291190Y-104235081D02*
X186314851Y-104238591D01*
X186338055Y-104244403D01*
X186360577Y-104252461D01*
X186382201Y-104262689D01*
X186402718Y-104274986D01*
X186421931Y-104289236D01*
X186439655Y-104305300D01*
X186455719Y-104323024D01*
X186469969Y-104342237D01*
X186482266Y-104362754D01*
X186492494Y-104384378D01*
X186500552Y-104406900D01*
X186506364Y-104430104D01*
X186509874Y-104453765D01*
X186511048Y-104477657D01*
X186511048Y-105390157D01*
X186509874Y-105414049D01*
X186506364Y-105437710D01*
X186500552Y-105460914D01*
X186492494Y-105483436D01*
X186482266Y-105505060D01*
X186469969Y-105525577D01*
X186455719Y-105544790D01*
X186439655Y-105562514D01*
X186421931Y-105578578D01*
X186402718Y-105592828D01*
X186382201Y-105605125D01*
X186360577Y-105615353D01*
X186338055Y-105623411D01*
X186314851Y-105629223D01*
X186291190Y-105632733D01*
X186267298Y-105633907D01*
X185779798Y-105633907D01*
X185755906Y-105632733D01*
X185732245Y-105629223D01*
X185709041Y-105623411D01*
X185686519Y-105615353D01*
X185664895Y-105605125D01*
X185644378Y-105592828D01*
X185625165Y-105578578D01*
X185607441Y-105562514D01*
X185591377Y-105544790D01*
X185577127Y-105525577D01*
X185564830Y-105505060D01*
X185554602Y-105483436D01*
X185546544Y-105460914D01*
X185540732Y-105437710D01*
X185537222Y-105414049D01*
X185536048Y-105390157D01*
X185536048Y-104477657D01*
X185537222Y-104453765D01*
X185540732Y-104430104D01*
X185546544Y-104406900D01*
X185554602Y-104384378D01*
X185564830Y-104362754D01*
X185577127Y-104342237D01*
X185591377Y-104323024D01*
X185607441Y-104305300D01*
X185625165Y-104289236D01*
X185644378Y-104274986D01*
X185664895Y-104262689D01*
X185686519Y-104252461D01*
X185709041Y-104244403D01*
X185732245Y-104238591D01*
X185755906Y-104235081D01*
X185779798Y-104233907D01*
X186267298Y-104233907D01*
X186291190Y-104235081D01*
X186291190Y-104235081D01*
G37*
D23*
X186023548Y-104933907D03*
D13*
G36*
X184416190Y-104235081D02*
X184439851Y-104238591D01*
X184463055Y-104244403D01*
X184485577Y-104252461D01*
X184507201Y-104262689D01*
X184527718Y-104274986D01*
X184546931Y-104289236D01*
X184564655Y-104305300D01*
X184580719Y-104323024D01*
X184594969Y-104342237D01*
X184607266Y-104362754D01*
X184617494Y-104384378D01*
X184625552Y-104406900D01*
X184631364Y-104430104D01*
X184634874Y-104453765D01*
X184636048Y-104477657D01*
X184636048Y-105390157D01*
X184634874Y-105414049D01*
X184631364Y-105437710D01*
X184625552Y-105460914D01*
X184617494Y-105483436D01*
X184607266Y-105505060D01*
X184594969Y-105525577D01*
X184580719Y-105544790D01*
X184564655Y-105562514D01*
X184546931Y-105578578D01*
X184527718Y-105592828D01*
X184507201Y-105605125D01*
X184485577Y-105615353D01*
X184463055Y-105623411D01*
X184439851Y-105629223D01*
X184416190Y-105632733D01*
X184392298Y-105633907D01*
X183904798Y-105633907D01*
X183880906Y-105632733D01*
X183857245Y-105629223D01*
X183834041Y-105623411D01*
X183811519Y-105615353D01*
X183789895Y-105605125D01*
X183769378Y-105592828D01*
X183750165Y-105578578D01*
X183732441Y-105562514D01*
X183716377Y-105544790D01*
X183702127Y-105525577D01*
X183689830Y-105505060D01*
X183679602Y-105483436D01*
X183671544Y-105460914D01*
X183665732Y-105437710D01*
X183662222Y-105414049D01*
X183661048Y-105390157D01*
X183661048Y-104477657D01*
X183662222Y-104453765D01*
X183665732Y-104430104D01*
X183671544Y-104406900D01*
X183679602Y-104384378D01*
X183689830Y-104362754D01*
X183702127Y-104342237D01*
X183716377Y-104323024D01*
X183732441Y-104305300D01*
X183750165Y-104289236D01*
X183769378Y-104274986D01*
X183789895Y-104262689D01*
X183811519Y-104252461D01*
X183834041Y-104244403D01*
X183857245Y-104238591D01*
X183880906Y-104235081D01*
X183904798Y-104233907D01*
X184392298Y-104233907D01*
X184416190Y-104235081D01*
X184416190Y-104235081D01*
G37*
D23*
X184148548Y-104933907D03*
G04 #@! TD*
D13*
G04 #@! TO.C,R21*
G36*
X181891190Y-106835081D02*
X181914851Y-106838591D01*
X181938055Y-106844403D01*
X181960577Y-106852461D01*
X181982201Y-106862689D01*
X182002718Y-106874986D01*
X182021931Y-106889236D01*
X182039655Y-106905300D01*
X182055719Y-106923024D01*
X182069969Y-106942237D01*
X182082266Y-106962754D01*
X182092494Y-106984378D01*
X182100552Y-107006900D01*
X182106364Y-107030104D01*
X182109874Y-107053765D01*
X182111048Y-107077657D01*
X182111048Y-107990157D01*
X182109874Y-108014049D01*
X182106364Y-108037710D01*
X182100552Y-108060914D01*
X182092494Y-108083436D01*
X182082266Y-108105060D01*
X182069969Y-108125577D01*
X182055719Y-108144790D01*
X182039655Y-108162514D01*
X182021931Y-108178578D01*
X182002718Y-108192828D01*
X181982201Y-108205125D01*
X181960577Y-108215353D01*
X181938055Y-108223411D01*
X181914851Y-108229223D01*
X181891190Y-108232733D01*
X181867298Y-108233907D01*
X181379798Y-108233907D01*
X181355906Y-108232733D01*
X181332245Y-108229223D01*
X181309041Y-108223411D01*
X181286519Y-108215353D01*
X181264895Y-108205125D01*
X181244378Y-108192828D01*
X181225165Y-108178578D01*
X181207441Y-108162514D01*
X181191377Y-108144790D01*
X181177127Y-108125577D01*
X181164830Y-108105060D01*
X181154602Y-108083436D01*
X181146544Y-108060914D01*
X181140732Y-108037710D01*
X181137222Y-108014049D01*
X181136048Y-107990157D01*
X181136048Y-107077657D01*
X181137222Y-107053765D01*
X181140732Y-107030104D01*
X181146544Y-107006900D01*
X181154602Y-106984378D01*
X181164830Y-106962754D01*
X181177127Y-106942237D01*
X181191377Y-106923024D01*
X181207441Y-106905300D01*
X181225165Y-106889236D01*
X181244378Y-106874986D01*
X181264895Y-106862689D01*
X181286519Y-106852461D01*
X181309041Y-106844403D01*
X181332245Y-106838591D01*
X181355906Y-106835081D01*
X181379798Y-106833907D01*
X181867298Y-106833907D01*
X181891190Y-106835081D01*
X181891190Y-106835081D01*
G37*
D23*
X181623548Y-107533907D03*
D13*
G36*
X180016190Y-106835081D02*
X180039851Y-106838591D01*
X180063055Y-106844403D01*
X180085577Y-106852461D01*
X180107201Y-106862689D01*
X180127718Y-106874986D01*
X180146931Y-106889236D01*
X180164655Y-106905300D01*
X180180719Y-106923024D01*
X180194969Y-106942237D01*
X180207266Y-106962754D01*
X180217494Y-106984378D01*
X180225552Y-107006900D01*
X180231364Y-107030104D01*
X180234874Y-107053765D01*
X180236048Y-107077657D01*
X180236048Y-107990157D01*
X180234874Y-108014049D01*
X180231364Y-108037710D01*
X180225552Y-108060914D01*
X180217494Y-108083436D01*
X180207266Y-108105060D01*
X180194969Y-108125577D01*
X180180719Y-108144790D01*
X180164655Y-108162514D01*
X180146931Y-108178578D01*
X180127718Y-108192828D01*
X180107201Y-108205125D01*
X180085577Y-108215353D01*
X180063055Y-108223411D01*
X180039851Y-108229223D01*
X180016190Y-108232733D01*
X179992298Y-108233907D01*
X179504798Y-108233907D01*
X179480906Y-108232733D01*
X179457245Y-108229223D01*
X179434041Y-108223411D01*
X179411519Y-108215353D01*
X179389895Y-108205125D01*
X179369378Y-108192828D01*
X179350165Y-108178578D01*
X179332441Y-108162514D01*
X179316377Y-108144790D01*
X179302127Y-108125577D01*
X179289830Y-108105060D01*
X179279602Y-108083436D01*
X179271544Y-108060914D01*
X179265732Y-108037710D01*
X179262222Y-108014049D01*
X179261048Y-107990157D01*
X179261048Y-107077657D01*
X179262222Y-107053765D01*
X179265732Y-107030104D01*
X179271544Y-107006900D01*
X179279602Y-106984378D01*
X179289830Y-106962754D01*
X179302127Y-106942237D01*
X179316377Y-106923024D01*
X179332441Y-106905300D01*
X179350165Y-106889236D01*
X179369378Y-106874986D01*
X179389895Y-106862689D01*
X179411519Y-106852461D01*
X179434041Y-106844403D01*
X179457245Y-106838591D01*
X179480906Y-106835081D01*
X179504798Y-106833907D01*
X179992298Y-106833907D01*
X180016190Y-106835081D01*
X180016190Y-106835081D01*
G37*
D23*
X179748548Y-107533907D03*
G04 #@! TD*
D13*
G04 #@! TO.C,R22*
G36*
X170166190Y-98510081D02*
X170189851Y-98513591D01*
X170213055Y-98519403D01*
X170235577Y-98527461D01*
X170257201Y-98537689D01*
X170277718Y-98549986D01*
X170296931Y-98564236D01*
X170314655Y-98580300D01*
X170330719Y-98598024D01*
X170344969Y-98617237D01*
X170357266Y-98637754D01*
X170367494Y-98659378D01*
X170375552Y-98681900D01*
X170381364Y-98705104D01*
X170384874Y-98728765D01*
X170386048Y-98752657D01*
X170386048Y-99240157D01*
X170384874Y-99264049D01*
X170381364Y-99287710D01*
X170375552Y-99310914D01*
X170367494Y-99333436D01*
X170357266Y-99355060D01*
X170344969Y-99375577D01*
X170330719Y-99394790D01*
X170314655Y-99412514D01*
X170296931Y-99428578D01*
X170277718Y-99442828D01*
X170257201Y-99455125D01*
X170235577Y-99465353D01*
X170213055Y-99473411D01*
X170189851Y-99479223D01*
X170166190Y-99482733D01*
X170142298Y-99483907D01*
X169229798Y-99483907D01*
X169205906Y-99482733D01*
X169182245Y-99479223D01*
X169159041Y-99473411D01*
X169136519Y-99465353D01*
X169114895Y-99455125D01*
X169094378Y-99442828D01*
X169075165Y-99428578D01*
X169057441Y-99412514D01*
X169041377Y-99394790D01*
X169027127Y-99375577D01*
X169014830Y-99355060D01*
X169004602Y-99333436D01*
X168996544Y-99310914D01*
X168990732Y-99287710D01*
X168987222Y-99264049D01*
X168986048Y-99240157D01*
X168986048Y-98752657D01*
X168987222Y-98728765D01*
X168990732Y-98705104D01*
X168996544Y-98681900D01*
X169004602Y-98659378D01*
X169014830Y-98637754D01*
X169027127Y-98617237D01*
X169041377Y-98598024D01*
X169057441Y-98580300D01*
X169075165Y-98564236D01*
X169094378Y-98549986D01*
X169114895Y-98537689D01*
X169136519Y-98527461D01*
X169159041Y-98519403D01*
X169182245Y-98513591D01*
X169205906Y-98510081D01*
X169229798Y-98508907D01*
X170142298Y-98508907D01*
X170166190Y-98510081D01*
X170166190Y-98510081D01*
G37*
D23*
X169686048Y-98996407D03*
D13*
G36*
X170166190Y-100385081D02*
X170189851Y-100388591D01*
X170213055Y-100394403D01*
X170235577Y-100402461D01*
X170257201Y-100412689D01*
X170277718Y-100424986D01*
X170296931Y-100439236D01*
X170314655Y-100455300D01*
X170330719Y-100473024D01*
X170344969Y-100492237D01*
X170357266Y-100512754D01*
X170367494Y-100534378D01*
X170375552Y-100556900D01*
X170381364Y-100580104D01*
X170384874Y-100603765D01*
X170386048Y-100627657D01*
X170386048Y-101115157D01*
X170384874Y-101139049D01*
X170381364Y-101162710D01*
X170375552Y-101185914D01*
X170367494Y-101208436D01*
X170357266Y-101230060D01*
X170344969Y-101250577D01*
X170330719Y-101269790D01*
X170314655Y-101287514D01*
X170296931Y-101303578D01*
X170277718Y-101317828D01*
X170257201Y-101330125D01*
X170235577Y-101340353D01*
X170213055Y-101348411D01*
X170189851Y-101354223D01*
X170166190Y-101357733D01*
X170142298Y-101358907D01*
X169229798Y-101358907D01*
X169205906Y-101357733D01*
X169182245Y-101354223D01*
X169159041Y-101348411D01*
X169136519Y-101340353D01*
X169114895Y-101330125D01*
X169094378Y-101317828D01*
X169075165Y-101303578D01*
X169057441Y-101287514D01*
X169041377Y-101269790D01*
X169027127Y-101250577D01*
X169014830Y-101230060D01*
X169004602Y-101208436D01*
X168996544Y-101185914D01*
X168990732Y-101162710D01*
X168987222Y-101139049D01*
X168986048Y-101115157D01*
X168986048Y-100627657D01*
X168987222Y-100603765D01*
X168990732Y-100580104D01*
X168996544Y-100556900D01*
X169004602Y-100534378D01*
X169014830Y-100512754D01*
X169027127Y-100492237D01*
X169041377Y-100473024D01*
X169057441Y-100455300D01*
X169075165Y-100439236D01*
X169094378Y-100424986D01*
X169114895Y-100412689D01*
X169136519Y-100402461D01*
X169159041Y-100394403D01*
X169182245Y-100388591D01*
X169205906Y-100385081D01*
X169229798Y-100383907D01*
X170142298Y-100383907D01*
X170166190Y-100385081D01*
X170166190Y-100385081D01*
G37*
D23*
X169686048Y-100871407D03*
G04 #@! TD*
D13*
G04 #@! TO.C,R23*
G36*
X186278690Y-106835081D02*
X186302351Y-106838591D01*
X186325555Y-106844403D01*
X186348077Y-106852461D01*
X186369701Y-106862689D01*
X186390218Y-106874986D01*
X186409431Y-106889236D01*
X186427155Y-106905300D01*
X186443219Y-106923024D01*
X186457469Y-106942237D01*
X186469766Y-106962754D01*
X186479994Y-106984378D01*
X186488052Y-107006900D01*
X186493864Y-107030104D01*
X186497374Y-107053765D01*
X186498548Y-107077657D01*
X186498548Y-107990157D01*
X186497374Y-108014049D01*
X186493864Y-108037710D01*
X186488052Y-108060914D01*
X186479994Y-108083436D01*
X186469766Y-108105060D01*
X186457469Y-108125577D01*
X186443219Y-108144790D01*
X186427155Y-108162514D01*
X186409431Y-108178578D01*
X186390218Y-108192828D01*
X186369701Y-108205125D01*
X186348077Y-108215353D01*
X186325555Y-108223411D01*
X186302351Y-108229223D01*
X186278690Y-108232733D01*
X186254798Y-108233907D01*
X185767298Y-108233907D01*
X185743406Y-108232733D01*
X185719745Y-108229223D01*
X185696541Y-108223411D01*
X185674019Y-108215353D01*
X185652395Y-108205125D01*
X185631878Y-108192828D01*
X185612665Y-108178578D01*
X185594941Y-108162514D01*
X185578877Y-108144790D01*
X185564627Y-108125577D01*
X185552330Y-108105060D01*
X185542102Y-108083436D01*
X185534044Y-108060914D01*
X185528232Y-108037710D01*
X185524722Y-108014049D01*
X185523548Y-107990157D01*
X185523548Y-107077657D01*
X185524722Y-107053765D01*
X185528232Y-107030104D01*
X185534044Y-107006900D01*
X185542102Y-106984378D01*
X185552330Y-106962754D01*
X185564627Y-106942237D01*
X185578877Y-106923024D01*
X185594941Y-106905300D01*
X185612665Y-106889236D01*
X185631878Y-106874986D01*
X185652395Y-106862689D01*
X185674019Y-106852461D01*
X185696541Y-106844403D01*
X185719745Y-106838591D01*
X185743406Y-106835081D01*
X185767298Y-106833907D01*
X186254798Y-106833907D01*
X186278690Y-106835081D01*
X186278690Y-106835081D01*
G37*
D23*
X186011048Y-107533907D03*
D13*
G36*
X184403690Y-106835081D02*
X184427351Y-106838591D01*
X184450555Y-106844403D01*
X184473077Y-106852461D01*
X184494701Y-106862689D01*
X184515218Y-106874986D01*
X184534431Y-106889236D01*
X184552155Y-106905300D01*
X184568219Y-106923024D01*
X184582469Y-106942237D01*
X184594766Y-106962754D01*
X184604994Y-106984378D01*
X184613052Y-107006900D01*
X184618864Y-107030104D01*
X184622374Y-107053765D01*
X184623548Y-107077657D01*
X184623548Y-107990157D01*
X184622374Y-108014049D01*
X184618864Y-108037710D01*
X184613052Y-108060914D01*
X184604994Y-108083436D01*
X184594766Y-108105060D01*
X184582469Y-108125577D01*
X184568219Y-108144790D01*
X184552155Y-108162514D01*
X184534431Y-108178578D01*
X184515218Y-108192828D01*
X184494701Y-108205125D01*
X184473077Y-108215353D01*
X184450555Y-108223411D01*
X184427351Y-108229223D01*
X184403690Y-108232733D01*
X184379798Y-108233907D01*
X183892298Y-108233907D01*
X183868406Y-108232733D01*
X183844745Y-108229223D01*
X183821541Y-108223411D01*
X183799019Y-108215353D01*
X183777395Y-108205125D01*
X183756878Y-108192828D01*
X183737665Y-108178578D01*
X183719941Y-108162514D01*
X183703877Y-108144790D01*
X183689627Y-108125577D01*
X183677330Y-108105060D01*
X183667102Y-108083436D01*
X183659044Y-108060914D01*
X183653232Y-108037710D01*
X183649722Y-108014049D01*
X183648548Y-107990157D01*
X183648548Y-107077657D01*
X183649722Y-107053765D01*
X183653232Y-107030104D01*
X183659044Y-107006900D01*
X183667102Y-106984378D01*
X183677330Y-106962754D01*
X183689627Y-106942237D01*
X183703877Y-106923024D01*
X183719941Y-106905300D01*
X183737665Y-106889236D01*
X183756878Y-106874986D01*
X183777395Y-106862689D01*
X183799019Y-106852461D01*
X183821541Y-106844403D01*
X183844745Y-106838591D01*
X183868406Y-106835081D01*
X183892298Y-106833907D01*
X184379798Y-106833907D01*
X184403690Y-106835081D01*
X184403690Y-106835081D01*
G37*
D23*
X184136048Y-107533907D03*
G04 #@! TD*
D13*
G04 #@! TO.C,R24*
G36*
X181916190Y-96294995D02*
X181939851Y-96298505D01*
X181963055Y-96304317D01*
X181985577Y-96312375D01*
X182007201Y-96322603D01*
X182027718Y-96334900D01*
X182046931Y-96349150D01*
X182064655Y-96365214D01*
X182080719Y-96382938D01*
X182094969Y-96402151D01*
X182107266Y-96422668D01*
X182117494Y-96444292D01*
X182125552Y-96466814D01*
X182131364Y-96490018D01*
X182134874Y-96513679D01*
X182136048Y-96537571D01*
X182136048Y-97450071D01*
X182134874Y-97473963D01*
X182131364Y-97497624D01*
X182125552Y-97520828D01*
X182117494Y-97543350D01*
X182107266Y-97564974D01*
X182094969Y-97585491D01*
X182080719Y-97604704D01*
X182064655Y-97622428D01*
X182046931Y-97638492D01*
X182027718Y-97652742D01*
X182007201Y-97665039D01*
X181985577Y-97675267D01*
X181963055Y-97683325D01*
X181939851Y-97689137D01*
X181916190Y-97692647D01*
X181892298Y-97693821D01*
X181404798Y-97693821D01*
X181380906Y-97692647D01*
X181357245Y-97689137D01*
X181334041Y-97683325D01*
X181311519Y-97675267D01*
X181289895Y-97665039D01*
X181269378Y-97652742D01*
X181250165Y-97638492D01*
X181232441Y-97622428D01*
X181216377Y-97604704D01*
X181202127Y-97585491D01*
X181189830Y-97564974D01*
X181179602Y-97543350D01*
X181171544Y-97520828D01*
X181165732Y-97497624D01*
X181162222Y-97473963D01*
X181161048Y-97450071D01*
X181161048Y-96537571D01*
X181162222Y-96513679D01*
X181165732Y-96490018D01*
X181171544Y-96466814D01*
X181179602Y-96444292D01*
X181189830Y-96422668D01*
X181202127Y-96402151D01*
X181216377Y-96382938D01*
X181232441Y-96365214D01*
X181250165Y-96349150D01*
X181269378Y-96334900D01*
X181289895Y-96322603D01*
X181311519Y-96312375D01*
X181334041Y-96304317D01*
X181357245Y-96298505D01*
X181380906Y-96294995D01*
X181404798Y-96293821D01*
X181892298Y-96293821D01*
X181916190Y-96294995D01*
X181916190Y-96294995D01*
G37*
D23*
X181648548Y-96993821D03*
D13*
G36*
X183791190Y-96294995D02*
X183814851Y-96298505D01*
X183838055Y-96304317D01*
X183860577Y-96312375D01*
X183882201Y-96322603D01*
X183902718Y-96334900D01*
X183921931Y-96349150D01*
X183939655Y-96365214D01*
X183955719Y-96382938D01*
X183969969Y-96402151D01*
X183982266Y-96422668D01*
X183992494Y-96444292D01*
X184000552Y-96466814D01*
X184006364Y-96490018D01*
X184009874Y-96513679D01*
X184011048Y-96537571D01*
X184011048Y-97450071D01*
X184009874Y-97473963D01*
X184006364Y-97497624D01*
X184000552Y-97520828D01*
X183992494Y-97543350D01*
X183982266Y-97564974D01*
X183969969Y-97585491D01*
X183955719Y-97604704D01*
X183939655Y-97622428D01*
X183921931Y-97638492D01*
X183902718Y-97652742D01*
X183882201Y-97665039D01*
X183860577Y-97675267D01*
X183838055Y-97683325D01*
X183814851Y-97689137D01*
X183791190Y-97692647D01*
X183767298Y-97693821D01*
X183279798Y-97693821D01*
X183255906Y-97692647D01*
X183232245Y-97689137D01*
X183209041Y-97683325D01*
X183186519Y-97675267D01*
X183164895Y-97665039D01*
X183144378Y-97652742D01*
X183125165Y-97638492D01*
X183107441Y-97622428D01*
X183091377Y-97604704D01*
X183077127Y-97585491D01*
X183064830Y-97564974D01*
X183054602Y-97543350D01*
X183046544Y-97520828D01*
X183040732Y-97497624D01*
X183037222Y-97473963D01*
X183036048Y-97450071D01*
X183036048Y-96537571D01*
X183037222Y-96513679D01*
X183040732Y-96490018D01*
X183046544Y-96466814D01*
X183054602Y-96444292D01*
X183064830Y-96422668D01*
X183077127Y-96402151D01*
X183091377Y-96382938D01*
X183107441Y-96365214D01*
X183125165Y-96349150D01*
X183144378Y-96334900D01*
X183164895Y-96322603D01*
X183186519Y-96312375D01*
X183209041Y-96304317D01*
X183232245Y-96298505D01*
X183255906Y-96294995D01*
X183279798Y-96293821D01*
X183767298Y-96293821D01*
X183791190Y-96294995D01*
X183791190Y-96294995D01*
G37*
D23*
X183523548Y-96993821D03*
G04 #@! TD*
D13*
G04 #@! TO.C,R25*
G36*
X227853690Y-105635081D02*
X227877351Y-105638591D01*
X227900555Y-105644403D01*
X227923077Y-105652461D01*
X227944701Y-105662689D01*
X227965218Y-105674986D01*
X227984431Y-105689236D01*
X228002155Y-105705300D01*
X228018219Y-105723024D01*
X228032469Y-105742237D01*
X228044766Y-105762754D01*
X228054994Y-105784378D01*
X228063052Y-105806900D01*
X228068864Y-105830104D01*
X228072374Y-105853765D01*
X228073548Y-105877657D01*
X228073548Y-106790157D01*
X228072374Y-106814049D01*
X228068864Y-106837710D01*
X228063052Y-106860914D01*
X228054994Y-106883436D01*
X228044766Y-106905060D01*
X228032469Y-106925577D01*
X228018219Y-106944790D01*
X228002155Y-106962514D01*
X227984431Y-106978578D01*
X227965218Y-106992828D01*
X227944701Y-107005125D01*
X227923077Y-107015353D01*
X227900555Y-107023411D01*
X227877351Y-107029223D01*
X227853690Y-107032733D01*
X227829798Y-107033907D01*
X227342298Y-107033907D01*
X227318406Y-107032733D01*
X227294745Y-107029223D01*
X227271541Y-107023411D01*
X227249019Y-107015353D01*
X227227395Y-107005125D01*
X227206878Y-106992828D01*
X227187665Y-106978578D01*
X227169941Y-106962514D01*
X227153877Y-106944790D01*
X227139627Y-106925577D01*
X227127330Y-106905060D01*
X227117102Y-106883436D01*
X227109044Y-106860914D01*
X227103232Y-106837710D01*
X227099722Y-106814049D01*
X227098548Y-106790157D01*
X227098548Y-105877657D01*
X227099722Y-105853765D01*
X227103232Y-105830104D01*
X227109044Y-105806900D01*
X227117102Y-105784378D01*
X227127330Y-105762754D01*
X227139627Y-105742237D01*
X227153877Y-105723024D01*
X227169941Y-105705300D01*
X227187665Y-105689236D01*
X227206878Y-105674986D01*
X227227395Y-105662689D01*
X227249019Y-105652461D01*
X227271541Y-105644403D01*
X227294745Y-105638591D01*
X227318406Y-105635081D01*
X227342298Y-105633907D01*
X227829798Y-105633907D01*
X227853690Y-105635081D01*
X227853690Y-105635081D01*
G37*
D23*
X227586048Y-106333907D03*
D13*
G36*
X225978690Y-105635081D02*
X226002351Y-105638591D01*
X226025555Y-105644403D01*
X226048077Y-105652461D01*
X226069701Y-105662689D01*
X226090218Y-105674986D01*
X226109431Y-105689236D01*
X226127155Y-105705300D01*
X226143219Y-105723024D01*
X226157469Y-105742237D01*
X226169766Y-105762754D01*
X226179994Y-105784378D01*
X226188052Y-105806900D01*
X226193864Y-105830104D01*
X226197374Y-105853765D01*
X226198548Y-105877657D01*
X226198548Y-106790157D01*
X226197374Y-106814049D01*
X226193864Y-106837710D01*
X226188052Y-106860914D01*
X226179994Y-106883436D01*
X226169766Y-106905060D01*
X226157469Y-106925577D01*
X226143219Y-106944790D01*
X226127155Y-106962514D01*
X226109431Y-106978578D01*
X226090218Y-106992828D01*
X226069701Y-107005125D01*
X226048077Y-107015353D01*
X226025555Y-107023411D01*
X226002351Y-107029223D01*
X225978690Y-107032733D01*
X225954798Y-107033907D01*
X225467298Y-107033907D01*
X225443406Y-107032733D01*
X225419745Y-107029223D01*
X225396541Y-107023411D01*
X225374019Y-107015353D01*
X225352395Y-107005125D01*
X225331878Y-106992828D01*
X225312665Y-106978578D01*
X225294941Y-106962514D01*
X225278877Y-106944790D01*
X225264627Y-106925577D01*
X225252330Y-106905060D01*
X225242102Y-106883436D01*
X225234044Y-106860914D01*
X225228232Y-106837710D01*
X225224722Y-106814049D01*
X225223548Y-106790157D01*
X225223548Y-105877657D01*
X225224722Y-105853765D01*
X225228232Y-105830104D01*
X225234044Y-105806900D01*
X225242102Y-105784378D01*
X225252330Y-105762754D01*
X225264627Y-105742237D01*
X225278877Y-105723024D01*
X225294941Y-105705300D01*
X225312665Y-105689236D01*
X225331878Y-105674986D01*
X225352395Y-105662689D01*
X225374019Y-105652461D01*
X225396541Y-105644403D01*
X225419745Y-105638591D01*
X225443406Y-105635081D01*
X225467298Y-105633907D01*
X225954798Y-105633907D01*
X225978690Y-105635081D01*
X225978690Y-105635081D01*
G37*
D23*
X225711048Y-106333907D03*
G04 #@! TD*
D13*
G04 #@! TO.C,R26*
G36*
X225916190Y-103335081D02*
X225939851Y-103338591D01*
X225963055Y-103344403D01*
X225985577Y-103352461D01*
X226007201Y-103362689D01*
X226027718Y-103374986D01*
X226046931Y-103389236D01*
X226064655Y-103405300D01*
X226080719Y-103423024D01*
X226094969Y-103442237D01*
X226107266Y-103462754D01*
X226117494Y-103484378D01*
X226125552Y-103506900D01*
X226131364Y-103530104D01*
X226134874Y-103553765D01*
X226136048Y-103577657D01*
X226136048Y-104490157D01*
X226134874Y-104514049D01*
X226131364Y-104537710D01*
X226125552Y-104560914D01*
X226117494Y-104583436D01*
X226107266Y-104605060D01*
X226094969Y-104625577D01*
X226080719Y-104644790D01*
X226064655Y-104662514D01*
X226046931Y-104678578D01*
X226027718Y-104692828D01*
X226007201Y-104705125D01*
X225985577Y-104715353D01*
X225963055Y-104723411D01*
X225939851Y-104729223D01*
X225916190Y-104732733D01*
X225892298Y-104733907D01*
X225404798Y-104733907D01*
X225380906Y-104732733D01*
X225357245Y-104729223D01*
X225334041Y-104723411D01*
X225311519Y-104715353D01*
X225289895Y-104705125D01*
X225269378Y-104692828D01*
X225250165Y-104678578D01*
X225232441Y-104662514D01*
X225216377Y-104644790D01*
X225202127Y-104625577D01*
X225189830Y-104605060D01*
X225179602Y-104583436D01*
X225171544Y-104560914D01*
X225165732Y-104537710D01*
X225162222Y-104514049D01*
X225161048Y-104490157D01*
X225161048Y-103577657D01*
X225162222Y-103553765D01*
X225165732Y-103530104D01*
X225171544Y-103506900D01*
X225179602Y-103484378D01*
X225189830Y-103462754D01*
X225202127Y-103442237D01*
X225216377Y-103423024D01*
X225232441Y-103405300D01*
X225250165Y-103389236D01*
X225269378Y-103374986D01*
X225289895Y-103362689D01*
X225311519Y-103352461D01*
X225334041Y-103344403D01*
X225357245Y-103338591D01*
X225380906Y-103335081D01*
X225404798Y-103333907D01*
X225892298Y-103333907D01*
X225916190Y-103335081D01*
X225916190Y-103335081D01*
G37*
D23*
X225648548Y-104033907D03*
D13*
G36*
X227791190Y-103335081D02*
X227814851Y-103338591D01*
X227838055Y-103344403D01*
X227860577Y-103352461D01*
X227882201Y-103362689D01*
X227902718Y-103374986D01*
X227921931Y-103389236D01*
X227939655Y-103405300D01*
X227955719Y-103423024D01*
X227969969Y-103442237D01*
X227982266Y-103462754D01*
X227992494Y-103484378D01*
X228000552Y-103506900D01*
X228006364Y-103530104D01*
X228009874Y-103553765D01*
X228011048Y-103577657D01*
X228011048Y-104490157D01*
X228009874Y-104514049D01*
X228006364Y-104537710D01*
X228000552Y-104560914D01*
X227992494Y-104583436D01*
X227982266Y-104605060D01*
X227969969Y-104625577D01*
X227955719Y-104644790D01*
X227939655Y-104662514D01*
X227921931Y-104678578D01*
X227902718Y-104692828D01*
X227882201Y-104705125D01*
X227860577Y-104715353D01*
X227838055Y-104723411D01*
X227814851Y-104729223D01*
X227791190Y-104732733D01*
X227767298Y-104733907D01*
X227279798Y-104733907D01*
X227255906Y-104732733D01*
X227232245Y-104729223D01*
X227209041Y-104723411D01*
X227186519Y-104715353D01*
X227164895Y-104705125D01*
X227144378Y-104692828D01*
X227125165Y-104678578D01*
X227107441Y-104662514D01*
X227091377Y-104644790D01*
X227077127Y-104625577D01*
X227064830Y-104605060D01*
X227054602Y-104583436D01*
X227046544Y-104560914D01*
X227040732Y-104537710D01*
X227037222Y-104514049D01*
X227036048Y-104490157D01*
X227036048Y-103577657D01*
X227037222Y-103553765D01*
X227040732Y-103530104D01*
X227046544Y-103506900D01*
X227054602Y-103484378D01*
X227064830Y-103462754D01*
X227077127Y-103442237D01*
X227091377Y-103423024D01*
X227107441Y-103405300D01*
X227125165Y-103389236D01*
X227144378Y-103374986D01*
X227164895Y-103362689D01*
X227186519Y-103352461D01*
X227209041Y-103344403D01*
X227232245Y-103338591D01*
X227255906Y-103335081D01*
X227279798Y-103333907D01*
X227767298Y-103333907D01*
X227791190Y-103335081D01*
X227791190Y-103335081D01*
G37*
D23*
X227523548Y-104033907D03*
G04 #@! TD*
D27*
G04 #@! TO.C,U4*
X191436048Y-100383907D03*
X191436048Y-99433907D03*
X191436048Y-101333907D03*
X189236048Y-101333907D03*
X189236048Y-100383907D03*
X189236048Y-99433907D03*
G04 #@! TD*
G04 #@! TO.C,U5*
X212986048Y-107533907D03*
X212986048Y-106583907D03*
X212986048Y-108483907D03*
X210786048Y-108483907D03*
X210786048Y-107533907D03*
X210786048Y-106583907D03*
G04 #@! TD*
D28*
G04 #@! TO.C,Y1*
X46375806Y-134586390D03*
D13*
G36*
X46552583Y-136106670D02*
X44855526Y-134409613D01*
X46199029Y-133066110D01*
X47896086Y-134763167D01*
X46552583Y-136106670D01*
X46552583Y-136106670D01*
G37*
D28*
X43476668Y-137485528D03*
D13*
G36*
X43653445Y-139005808D02*
X41956388Y-137308751D01*
X43299891Y-135965248D01*
X44996948Y-137662305D01*
X43653445Y-139005808D01*
X43653445Y-139005808D01*
G37*
G04 #@! TD*
D29*
G04 #@! TO.C,J10*
X227759934Y-36085570D03*
X226759934Y-36085570D03*
X225759934Y-36085570D03*
X224759934Y-36085570D03*
D30*
X229059934Y-32210570D03*
X223459934Y-32210570D03*
G04 #@! TD*
M02*
