G04 #@! TF.GenerationSoftware,KiCad,Pcbnew,(5.0.0)*
G04 #@! TF.CreationDate,2018-08-12T11:34:12+02:00*
G04 #@! TF.ProjectId,OTTOtact,4F54544F746163742E6B696361645F70,rev?*
G04 #@! TF.SameCoordinates,Original*
G04 #@! TF.FileFunction,Paste,Bot*
G04 #@! TF.FilePolarity,Positive*
%FSLAX46Y46*%
G04 Gerber Fmt 4.6, Leading zero omitted, Abs format (unit mm)*
G04 Created by KiCad (PCBNEW (5.0.0)) date 08/12/18 11:34:12*
%MOMM*%
%LPD*%
G01*
G04 APERTURE LIST*
%ADD10R,1.800000X2.800000*%
%ADD11R,2.800000X1.800000*%
%ADD12R,1.800000X3.000000*%
%ADD13R,3.000000X3.000000*%
%ADD14R,1.200000X0.900000*%
%ADD15C,0.700000*%
%ADD16C,0.100000*%
%ADD17C,0.975000*%
G04 APERTURE END LIST*
D10*
G04 #@! TO.C,J5*
X253336048Y-137593821D03*
X253336048Y-131993821D03*
D11*
X252836048Y-134793821D03*
D12*
X255836048Y-130593821D03*
X255836048Y-138993821D03*
D13*
X259836048Y-130093821D03*
X259836048Y-139493821D03*
G04 #@! TD*
D14*
G04 #@! TO.C,D2*
X32467040Y-44671881D03*
X32467040Y-47971881D03*
G04 #@! TD*
G04 #@! TO.C,D3*
X32467040Y-61271881D03*
X32467040Y-64571881D03*
G04 #@! TD*
G04 #@! TO.C,D4*
X32467040Y-77871881D03*
X32467040Y-81171881D03*
G04 #@! TD*
G04 #@! TO.C,D5*
X32467040Y-94471881D03*
X32467040Y-97771881D03*
G04 #@! TD*
G04 #@! TO.C,D6*
X45067040Y-77871881D03*
X45067040Y-81171881D03*
G04 #@! TD*
G04 #@! TO.C,D7*
X45067040Y-94471881D03*
X45067040Y-97771881D03*
G04 #@! TD*
G04 #@! TO.C,D8*
X72267040Y-118470060D03*
X72267040Y-121770060D03*
G04 #@! TD*
G04 #@! TO.C,D9*
X65967040Y-135570060D03*
X65967040Y-138870060D03*
G04 #@! TD*
G04 #@! TO.C,D10*
X57667040Y-77871881D03*
X57667040Y-81171881D03*
G04 #@! TD*
G04 #@! TO.C,D11*
X57667040Y-94471881D03*
X57667040Y-97771881D03*
G04 #@! TD*
G04 #@! TO.C,D12*
X84867040Y-118470060D03*
X84867040Y-121770060D03*
G04 #@! TD*
G04 #@! TO.C,D13*
X78567040Y-135570060D03*
X78567040Y-138870060D03*
G04 #@! TD*
G04 #@! TO.C,D14*
X70267040Y-77871881D03*
X70267040Y-81171881D03*
G04 #@! TD*
G04 #@! TO.C,D15*
X70267040Y-94471881D03*
X70267040Y-97771881D03*
G04 #@! TD*
G04 #@! TO.C,D16*
X91167040Y-135570060D03*
X91167040Y-138870060D03*
G04 #@! TD*
G04 #@! TO.C,D17*
X82867040Y-77871881D03*
X82867040Y-81171881D03*
G04 #@! TD*
G04 #@! TO.C,D18*
X82886048Y-94471881D03*
X82886048Y-97771881D03*
G04 #@! TD*
G04 #@! TO.C,D19*
X110067040Y-118470060D03*
X110067040Y-121770060D03*
G04 #@! TD*
G04 #@! TO.C,D20*
X103767040Y-135570060D03*
X103767040Y-138870060D03*
G04 #@! TD*
G04 #@! TO.C,D21*
X95467040Y-77871881D03*
X95467040Y-81171881D03*
G04 #@! TD*
G04 #@! TO.C,D22*
X95467040Y-94471881D03*
X95467040Y-97771881D03*
G04 #@! TD*
G04 #@! TO.C,D23*
X122667040Y-118470060D03*
X122667040Y-121770060D03*
G04 #@! TD*
G04 #@! TO.C,D24*
X116367040Y-135570060D03*
X116367040Y-138870060D03*
G04 #@! TD*
G04 #@! TO.C,D25*
X108067040Y-77871881D03*
X108067040Y-81171881D03*
G04 #@! TD*
G04 #@! TO.C,D26*
X108067040Y-94471881D03*
X108067040Y-97771881D03*
G04 #@! TD*
G04 #@! TO.C,D27*
X135267040Y-118470060D03*
X135267040Y-121770060D03*
G04 #@! TD*
G04 #@! TO.C,D28*
X128967040Y-135570060D03*
X128967040Y-138870060D03*
G04 #@! TD*
G04 #@! TO.C,D29*
X120667040Y-77871881D03*
X120667040Y-81171881D03*
G04 #@! TD*
G04 #@! TO.C,D30*
X120667040Y-94471881D03*
X120667040Y-97771881D03*
G04 #@! TD*
G04 #@! TO.C,D31*
X141567040Y-135570060D03*
X141567040Y-138870060D03*
G04 #@! TD*
G04 #@! TO.C,D32*
X133267040Y-77871881D03*
X133267040Y-81171881D03*
G04 #@! TD*
G04 #@! TO.C,D33*
X133267040Y-94471881D03*
X133267040Y-97771881D03*
G04 #@! TD*
G04 #@! TO.C,D34*
X160467040Y-118470060D03*
X160467040Y-121770060D03*
G04 #@! TD*
G04 #@! TO.C,D35*
X154167040Y-135570060D03*
X154167040Y-138870060D03*
G04 #@! TD*
G04 #@! TO.C,D36*
X173067040Y-118470060D03*
X173067040Y-121770060D03*
G04 #@! TD*
G04 #@! TO.C,D37*
X166767040Y-135570060D03*
X166767040Y-138870060D03*
G04 #@! TD*
G04 #@! TO.C,D38*
X179367040Y-135570060D03*
X179367040Y-138870060D03*
G04 #@! TD*
G04 #@! TO.C,D39*
X198267040Y-118470060D03*
X198267040Y-121770060D03*
G04 #@! TD*
G04 #@! TO.C,D40*
X191967040Y-135570060D03*
X191967040Y-138870060D03*
G04 #@! TD*
G04 #@! TO.C,D41*
X253467040Y-93471881D03*
X253467040Y-96771881D03*
G04 #@! TD*
G04 #@! TO.C,D42*
X240867040Y-93471881D03*
X240867040Y-96771881D03*
G04 #@! TD*
G04 #@! TO.C,D43*
X210867040Y-118470060D03*
X210867040Y-121770060D03*
G04 #@! TD*
G04 #@! TO.C,D44*
X204567040Y-135570060D03*
X204567040Y-138870060D03*
G04 #@! TD*
G04 #@! TO.C,D45*
X253467040Y-76871881D03*
X253467040Y-80171881D03*
G04 #@! TD*
G04 #@! TO.C,D46*
X240867040Y-76871881D03*
X240867040Y-80171881D03*
G04 #@! TD*
G04 #@! TO.C,D47*
X223467040Y-118470060D03*
X223467040Y-121770060D03*
G04 #@! TD*
G04 #@! TO.C,D48*
X217167040Y-135570060D03*
X217167040Y-138870060D03*
G04 #@! TD*
G04 #@! TO.C,D49*
X253467040Y-60271881D03*
X253467040Y-63571881D03*
G04 #@! TD*
G04 #@! TO.C,D50*
X240867040Y-60271881D03*
X240867040Y-63571881D03*
G04 #@! TD*
G04 #@! TO.C,D51*
X229767040Y-135570060D03*
X229767040Y-138870060D03*
G04 #@! TD*
G04 #@! TO.C,D52*
X51367040Y-52971881D03*
X51367040Y-56271881D03*
G04 #@! TD*
G04 #@! TO.C,D53*
X76557903Y-52971881D03*
X76557903Y-56271881D03*
G04 #@! TD*
G04 #@! TO.C,D54*
X101776911Y-52893821D03*
X101776911Y-56193821D03*
G04 #@! TD*
G04 #@! TO.C,D55*
X126976911Y-52893821D03*
X126976911Y-56193821D03*
G04 #@! TD*
D15*
G04 #@! TO.C,IC2*
X160150558Y-101364720D03*
D16*
G36*
X159222480Y-100931617D02*
X159717455Y-100436642D01*
X161078636Y-101797823D01*
X160583661Y-102292798D01*
X159222480Y-100931617D01*
X159222480Y-100931617D01*
G37*
D15*
X161048584Y-100466695D03*
D16*
G36*
X160120506Y-100033592D02*
X160615481Y-99538617D01*
X161976662Y-100899798D01*
X161481687Y-101394773D01*
X160120506Y-100033592D01*
X160120506Y-100033592D01*
G37*
D15*
X161946609Y-99568669D03*
D16*
G36*
X161018531Y-99135566D02*
X161513506Y-98640591D01*
X162874687Y-100001772D01*
X162379712Y-100496747D01*
X161018531Y-99135566D01*
X161018531Y-99135566D01*
G37*
D15*
X162844635Y-98670644D03*
D16*
G36*
X161916557Y-98237541D02*
X162411532Y-97742566D01*
X163772713Y-99103747D01*
X163277738Y-99598722D01*
X161916557Y-98237541D01*
X161916557Y-98237541D01*
G37*
D15*
X163742660Y-97772618D03*
D16*
G36*
X162814582Y-97339515D02*
X163309557Y-96844540D01*
X164670738Y-98205721D01*
X164175763Y-98700696D01*
X162814582Y-97339515D01*
X162814582Y-97339515D01*
G37*
D15*
X163742660Y-95633620D03*
D16*
G36*
X162814582Y-96066723D02*
X164175763Y-94705542D01*
X164670738Y-95200517D01*
X163309557Y-96561698D01*
X162814582Y-96066723D01*
X162814582Y-96066723D01*
G37*
D15*
X162844635Y-94735594D03*
D16*
G36*
X161916557Y-95168697D02*
X163277738Y-93807516D01*
X163772713Y-94302491D01*
X162411532Y-95663672D01*
X161916557Y-95168697D01*
X161916557Y-95168697D01*
G37*
D15*
X161946609Y-93837569D03*
D16*
G36*
X161018531Y-94270672D02*
X162379712Y-92909491D01*
X162874687Y-93404466D01*
X161513506Y-94765647D01*
X161018531Y-94270672D01*
X161018531Y-94270672D01*
G37*
D15*
X161048584Y-92939543D03*
D16*
G36*
X160120506Y-93372646D02*
X161481687Y-92011465D01*
X161976662Y-92506440D01*
X160615481Y-93867621D01*
X160120506Y-93372646D01*
X160120506Y-93372646D01*
G37*
D15*
X160150558Y-92041518D03*
D16*
G36*
X159222480Y-92474621D02*
X160583661Y-91113440D01*
X161078636Y-91608415D01*
X159717455Y-92969596D01*
X159222480Y-92474621D01*
X159222480Y-92474621D01*
G37*
D15*
X158011560Y-92041518D03*
D16*
G36*
X157083482Y-91608415D02*
X157578457Y-91113440D01*
X158939638Y-92474621D01*
X158444663Y-92969596D01*
X157083482Y-91608415D01*
X157083482Y-91608415D01*
G37*
D15*
X157113534Y-92939543D03*
D16*
G36*
X156185456Y-92506440D02*
X156680431Y-92011465D01*
X158041612Y-93372646D01*
X157546637Y-93867621D01*
X156185456Y-92506440D01*
X156185456Y-92506440D01*
G37*
D15*
X156215509Y-93837569D03*
D16*
G36*
X155287431Y-93404466D02*
X155782406Y-92909491D01*
X157143587Y-94270672D01*
X156648612Y-94765647D01*
X155287431Y-93404466D01*
X155287431Y-93404466D01*
G37*
D15*
X155317483Y-94735594D03*
D16*
G36*
X154389405Y-94302491D02*
X154884380Y-93807516D01*
X156245561Y-95168697D01*
X155750586Y-95663672D01*
X154389405Y-94302491D01*
X154389405Y-94302491D01*
G37*
D15*
X154419458Y-95633620D03*
D16*
G36*
X153491380Y-95200517D02*
X153986355Y-94705542D01*
X155347536Y-96066723D01*
X154852561Y-96561698D01*
X153491380Y-95200517D01*
X153491380Y-95200517D01*
G37*
D15*
X158011560Y-101364720D03*
D16*
G36*
X157083482Y-101797823D02*
X158444663Y-100436642D01*
X158939638Y-100931617D01*
X157578457Y-102292798D01*
X157083482Y-101797823D01*
X157083482Y-101797823D01*
G37*
D15*
X157113534Y-100466695D03*
D16*
G36*
X156185456Y-100899798D02*
X157546637Y-99538617D01*
X158041612Y-100033592D01*
X156680431Y-101394773D01*
X156185456Y-100899798D01*
X156185456Y-100899798D01*
G37*
D15*
X154419458Y-97772618D03*
D16*
G36*
X153491380Y-98205721D02*
X154852561Y-96844540D01*
X155347536Y-97339515D01*
X153986355Y-98700696D01*
X153491380Y-98205721D01*
X153491380Y-98205721D01*
G37*
D15*
X155317483Y-98670644D03*
D16*
G36*
X154389405Y-99103747D02*
X155750586Y-97742566D01*
X156245561Y-98237541D01*
X154884380Y-99598722D01*
X154389405Y-99103747D01*
X154389405Y-99103747D01*
G37*
D15*
X156215509Y-99568669D03*
D16*
G36*
X155287431Y-100001772D02*
X156648612Y-98640591D01*
X157143587Y-99135566D01*
X155782406Y-100496747D01*
X155287431Y-100001772D01*
X155287431Y-100001772D01*
G37*
G04 #@! TD*
G04 #@! TO.C,R31*
G36*
X258939527Y-116528985D02*
X258963188Y-116532495D01*
X258986392Y-116538307D01*
X259008914Y-116546365D01*
X259030538Y-116556593D01*
X259051055Y-116568890D01*
X259070268Y-116583140D01*
X259087992Y-116599204D01*
X259104056Y-116616928D01*
X259118306Y-116636141D01*
X259130603Y-116656658D01*
X259140831Y-116678282D01*
X259148889Y-116700804D01*
X259154701Y-116724008D01*
X259158211Y-116747669D01*
X259159385Y-116771561D01*
X259159385Y-117684061D01*
X259158211Y-117707953D01*
X259154701Y-117731614D01*
X259148889Y-117754818D01*
X259140831Y-117777340D01*
X259130603Y-117798964D01*
X259118306Y-117819481D01*
X259104056Y-117838694D01*
X259087992Y-117856418D01*
X259070268Y-117872482D01*
X259051055Y-117886732D01*
X259030538Y-117899029D01*
X259008914Y-117909257D01*
X258986392Y-117917315D01*
X258963188Y-117923127D01*
X258939527Y-117926637D01*
X258915635Y-117927811D01*
X258428135Y-117927811D01*
X258404243Y-117926637D01*
X258380582Y-117923127D01*
X258357378Y-117917315D01*
X258334856Y-117909257D01*
X258313232Y-117899029D01*
X258292715Y-117886732D01*
X258273502Y-117872482D01*
X258255778Y-117856418D01*
X258239714Y-117838694D01*
X258225464Y-117819481D01*
X258213167Y-117798964D01*
X258202939Y-117777340D01*
X258194881Y-117754818D01*
X258189069Y-117731614D01*
X258185559Y-117707953D01*
X258184385Y-117684061D01*
X258184385Y-116771561D01*
X258185559Y-116747669D01*
X258189069Y-116724008D01*
X258194881Y-116700804D01*
X258202939Y-116678282D01*
X258213167Y-116656658D01*
X258225464Y-116636141D01*
X258239714Y-116616928D01*
X258255778Y-116599204D01*
X258273502Y-116583140D01*
X258292715Y-116568890D01*
X258313232Y-116556593D01*
X258334856Y-116546365D01*
X258357378Y-116538307D01*
X258380582Y-116532495D01*
X258404243Y-116528985D01*
X258428135Y-116527811D01*
X258915635Y-116527811D01*
X258939527Y-116528985D01*
X258939527Y-116528985D01*
G37*
D17*
X258671885Y-117227811D03*
D16*
G36*
X257064527Y-116528985D02*
X257088188Y-116532495D01*
X257111392Y-116538307D01*
X257133914Y-116546365D01*
X257155538Y-116556593D01*
X257176055Y-116568890D01*
X257195268Y-116583140D01*
X257212992Y-116599204D01*
X257229056Y-116616928D01*
X257243306Y-116636141D01*
X257255603Y-116656658D01*
X257265831Y-116678282D01*
X257273889Y-116700804D01*
X257279701Y-116724008D01*
X257283211Y-116747669D01*
X257284385Y-116771561D01*
X257284385Y-117684061D01*
X257283211Y-117707953D01*
X257279701Y-117731614D01*
X257273889Y-117754818D01*
X257265831Y-117777340D01*
X257255603Y-117798964D01*
X257243306Y-117819481D01*
X257229056Y-117838694D01*
X257212992Y-117856418D01*
X257195268Y-117872482D01*
X257176055Y-117886732D01*
X257155538Y-117899029D01*
X257133914Y-117909257D01*
X257111392Y-117917315D01*
X257088188Y-117923127D01*
X257064527Y-117926637D01*
X257040635Y-117927811D01*
X256553135Y-117927811D01*
X256529243Y-117926637D01*
X256505582Y-117923127D01*
X256482378Y-117917315D01*
X256459856Y-117909257D01*
X256438232Y-117899029D01*
X256417715Y-117886732D01*
X256398502Y-117872482D01*
X256380778Y-117856418D01*
X256364714Y-117838694D01*
X256350464Y-117819481D01*
X256338167Y-117798964D01*
X256327939Y-117777340D01*
X256319881Y-117754818D01*
X256314069Y-117731614D01*
X256310559Y-117707953D01*
X256309385Y-117684061D01*
X256309385Y-116771561D01*
X256310559Y-116747669D01*
X256314069Y-116724008D01*
X256319881Y-116700804D01*
X256327939Y-116678282D01*
X256338167Y-116656658D01*
X256350464Y-116636141D01*
X256364714Y-116616928D01*
X256380778Y-116599204D01*
X256398502Y-116583140D01*
X256417715Y-116568890D01*
X256438232Y-116556593D01*
X256459856Y-116546365D01*
X256482378Y-116538307D01*
X256505582Y-116532495D01*
X256529243Y-116528985D01*
X256553135Y-116527811D01*
X257040635Y-116527811D01*
X257064527Y-116528985D01*
X257064527Y-116528985D01*
G37*
D17*
X256796885Y-117227811D03*
G04 #@! TD*
D16*
G04 #@! TO.C,R32*
G36*
X258214527Y-121680476D02*
X258238188Y-121683986D01*
X258261392Y-121689798D01*
X258283914Y-121697856D01*
X258305538Y-121708084D01*
X258326055Y-121720381D01*
X258345268Y-121734631D01*
X258362992Y-121750695D01*
X258379056Y-121768419D01*
X258393306Y-121787632D01*
X258405603Y-121808149D01*
X258415831Y-121829773D01*
X258423889Y-121852295D01*
X258429701Y-121875499D01*
X258433211Y-121899160D01*
X258434385Y-121923052D01*
X258434385Y-122410552D01*
X258433211Y-122434444D01*
X258429701Y-122458105D01*
X258423889Y-122481309D01*
X258415831Y-122503831D01*
X258405603Y-122525455D01*
X258393306Y-122545972D01*
X258379056Y-122565185D01*
X258362992Y-122582909D01*
X258345268Y-122598973D01*
X258326055Y-122613223D01*
X258305538Y-122625520D01*
X258283914Y-122635748D01*
X258261392Y-122643806D01*
X258238188Y-122649618D01*
X258214527Y-122653128D01*
X258190635Y-122654302D01*
X257278135Y-122654302D01*
X257254243Y-122653128D01*
X257230582Y-122649618D01*
X257207378Y-122643806D01*
X257184856Y-122635748D01*
X257163232Y-122625520D01*
X257142715Y-122613223D01*
X257123502Y-122598973D01*
X257105778Y-122582909D01*
X257089714Y-122565185D01*
X257075464Y-122545972D01*
X257063167Y-122525455D01*
X257052939Y-122503831D01*
X257044881Y-122481309D01*
X257039069Y-122458105D01*
X257035559Y-122434444D01*
X257034385Y-122410552D01*
X257034385Y-121923052D01*
X257035559Y-121899160D01*
X257039069Y-121875499D01*
X257044881Y-121852295D01*
X257052939Y-121829773D01*
X257063167Y-121808149D01*
X257075464Y-121787632D01*
X257089714Y-121768419D01*
X257105778Y-121750695D01*
X257123502Y-121734631D01*
X257142715Y-121720381D01*
X257163232Y-121708084D01*
X257184856Y-121697856D01*
X257207378Y-121689798D01*
X257230582Y-121683986D01*
X257254243Y-121680476D01*
X257278135Y-121679302D01*
X258190635Y-121679302D01*
X258214527Y-121680476D01*
X258214527Y-121680476D01*
G37*
D17*
X257734385Y-122166802D03*
D16*
G36*
X258214527Y-119805476D02*
X258238188Y-119808986D01*
X258261392Y-119814798D01*
X258283914Y-119822856D01*
X258305538Y-119833084D01*
X258326055Y-119845381D01*
X258345268Y-119859631D01*
X258362992Y-119875695D01*
X258379056Y-119893419D01*
X258393306Y-119912632D01*
X258405603Y-119933149D01*
X258415831Y-119954773D01*
X258423889Y-119977295D01*
X258429701Y-120000499D01*
X258433211Y-120024160D01*
X258434385Y-120048052D01*
X258434385Y-120535552D01*
X258433211Y-120559444D01*
X258429701Y-120583105D01*
X258423889Y-120606309D01*
X258415831Y-120628831D01*
X258405603Y-120650455D01*
X258393306Y-120670972D01*
X258379056Y-120690185D01*
X258362992Y-120707909D01*
X258345268Y-120723973D01*
X258326055Y-120738223D01*
X258305538Y-120750520D01*
X258283914Y-120760748D01*
X258261392Y-120768806D01*
X258238188Y-120774618D01*
X258214527Y-120778128D01*
X258190635Y-120779302D01*
X257278135Y-120779302D01*
X257254243Y-120778128D01*
X257230582Y-120774618D01*
X257207378Y-120768806D01*
X257184856Y-120760748D01*
X257163232Y-120750520D01*
X257142715Y-120738223D01*
X257123502Y-120723973D01*
X257105778Y-120707909D01*
X257089714Y-120690185D01*
X257075464Y-120670972D01*
X257063167Y-120650455D01*
X257052939Y-120628831D01*
X257044881Y-120606309D01*
X257039069Y-120583105D01*
X257035559Y-120559444D01*
X257034385Y-120535552D01*
X257034385Y-120048052D01*
X257035559Y-120024160D01*
X257039069Y-120000499D01*
X257044881Y-119977295D01*
X257052939Y-119954773D01*
X257063167Y-119933149D01*
X257075464Y-119912632D01*
X257089714Y-119893419D01*
X257105778Y-119875695D01*
X257123502Y-119859631D01*
X257142715Y-119845381D01*
X257163232Y-119833084D01*
X257184856Y-119822856D01*
X257207378Y-119814798D01*
X257230582Y-119808986D01*
X257254243Y-119805476D01*
X257278135Y-119804302D01*
X258190635Y-119804302D01*
X258214527Y-119805476D01*
X258214527Y-119805476D01*
G37*
D17*
X257734385Y-120291802D03*
G04 #@! TD*
D16*
G04 #@! TO.C,C11*
G36*
X127616527Y-40360900D02*
X127640188Y-40364410D01*
X127663392Y-40370222D01*
X127685914Y-40378280D01*
X127707538Y-40388508D01*
X127728055Y-40400805D01*
X127747268Y-40415055D01*
X127764992Y-40431119D01*
X127781056Y-40448843D01*
X127795306Y-40468056D01*
X127807603Y-40488573D01*
X127817831Y-40510197D01*
X127825889Y-40532719D01*
X127831701Y-40555923D01*
X127835211Y-40579584D01*
X127836385Y-40603476D01*
X127836385Y-41090976D01*
X127835211Y-41114868D01*
X127831701Y-41138529D01*
X127825889Y-41161733D01*
X127817831Y-41184255D01*
X127807603Y-41205879D01*
X127795306Y-41226396D01*
X127781056Y-41245609D01*
X127764992Y-41263333D01*
X127747268Y-41279397D01*
X127728055Y-41293647D01*
X127707538Y-41305944D01*
X127685914Y-41316172D01*
X127663392Y-41324230D01*
X127640188Y-41330042D01*
X127616527Y-41333552D01*
X127592635Y-41334726D01*
X126680135Y-41334726D01*
X126656243Y-41333552D01*
X126632582Y-41330042D01*
X126609378Y-41324230D01*
X126586856Y-41316172D01*
X126565232Y-41305944D01*
X126544715Y-41293647D01*
X126525502Y-41279397D01*
X126507778Y-41263333D01*
X126491714Y-41245609D01*
X126477464Y-41226396D01*
X126465167Y-41205879D01*
X126454939Y-41184255D01*
X126446881Y-41161733D01*
X126441069Y-41138529D01*
X126437559Y-41114868D01*
X126436385Y-41090976D01*
X126436385Y-40603476D01*
X126437559Y-40579584D01*
X126441069Y-40555923D01*
X126446881Y-40532719D01*
X126454939Y-40510197D01*
X126465167Y-40488573D01*
X126477464Y-40468056D01*
X126491714Y-40448843D01*
X126507778Y-40431119D01*
X126525502Y-40415055D01*
X126544715Y-40400805D01*
X126565232Y-40388508D01*
X126586856Y-40378280D01*
X126609378Y-40370222D01*
X126632582Y-40364410D01*
X126656243Y-40360900D01*
X126680135Y-40359726D01*
X127592635Y-40359726D01*
X127616527Y-40360900D01*
X127616527Y-40360900D01*
G37*
D17*
X127136385Y-40847226D03*
D16*
G36*
X127616527Y-38485900D02*
X127640188Y-38489410D01*
X127663392Y-38495222D01*
X127685914Y-38503280D01*
X127707538Y-38513508D01*
X127728055Y-38525805D01*
X127747268Y-38540055D01*
X127764992Y-38556119D01*
X127781056Y-38573843D01*
X127795306Y-38593056D01*
X127807603Y-38613573D01*
X127817831Y-38635197D01*
X127825889Y-38657719D01*
X127831701Y-38680923D01*
X127835211Y-38704584D01*
X127836385Y-38728476D01*
X127836385Y-39215976D01*
X127835211Y-39239868D01*
X127831701Y-39263529D01*
X127825889Y-39286733D01*
X127817831Y-39309255D01*
X127807603Y-39330879D01*
X127795306Y-39351396D01*
X127781056Y-39370609D01*
X127764992Y-39388333D01*
X127747268Y-39404397D01*
X127728055Y-39418647D01*
X127707538Y-39430944D01*
X127685914Y-39441172D01*
X127663392Y-39449230D01*
X127640188Y-39455042D01*
X127616527Y-39458552D01*
X127592635Y-39459726D01*
X126680135Y-39459726D01*
X126656243Y-39458552D01*
X126632582Y-39455042D01*
X126609378Y-39449230D01*
X126586856Y-39441172D01*
X126565232Y-39430944D01*
X126544715Y-39418647D01*
X126525502Y-39404397D01*
X126507778Y-39388333D01*
X126491714Y-39370609D01*
X126477464Y-39351396D01*
X126465167Y-39330879D01*
X126454939Y-39309255D01*
X126446881Y-39286733D01*
X126441069Y-39263529D01*
X126437559Y-39239868D01*
X126436385Y-39215976D01*
X126436385Y-38728476D01*
X126437559Y-38704584D01*
X126441069Y-38680923D01*
X126446881Y-38657719D01*
X126454939Y-38635197D01*
X126465167Y-38613573D01*
X126477464Y-38593056D01*
X126491714Y-38573843D01*
X126507778Y-38556119D01*
X126525502Y-38540055D01*
X126544715Y-38525805D01*
X126565232Y-38513508D01*
X126586856Y-38503280D01*
X126609378Y-38495222D01*
X126632582Y-38489410D01*
X126656243Y-38485900D01*
X126680135Y-38484726D01*
X127592635Y-38484726D01*
X127616527Y-38485900D01*
X127616527Y-38485900D01*
G37*
D17*
X127136385Y-38972226D03*
G04 #@! TD*
D16*
G04 #@! TO.C,R3*
G36*
X43407053Y-46394995D02*
X43430714Y-46398505D01*
X43453918Y-46404317D01*
X43476440Y-46412375D01*
X43498064Y-46422603D01*
X43518581Y-46434900D01*
X43537794Y-46449150D01*
X43555518Y-46465214D01*
X43571582Y-46482938D01*
X43585832Y-46502151D01*
X43598129Y-46522668D01*
X43608357Y-46544292D01*
X43616415Y-46566814D01*
X43622227Y-46590018D01*
X43625737Y-46613679D01*
X43626911Y-46637571D01*
X43626911Y-47550071D01*
X43625737Y-47573963D01*
X43622227Y-47597624D01*
X43616415Y-47620828D01*
X43608357Y-47643350D01*
X43598129Y-47664974D01*
X43585832Y-47685491D01*
X43571582Y-47704704D01*
X43555518Y-47722428D01*
X43537794Y-47738492D01*
X43518581Y-47752742D01*
X43498064Y-47765039D01*
X43476440Y-47775267D01*
X43453918Y-47783325D01*
X43430714Y-47789137D01*
X43407053Y-47792647D01*
X43383161Y-47793821D01*
X42895661Y-47793821D01*
X42871769Y-47792647D01*
X42848108Y-47789137D01*
X42824904Y-47783325D01*
X42802382Y-47775267D01*
X42780758Y-47765039D01*
X42760241Y-47752742D01*
X42741028Y-47738492D01*
X42723304Y-47722428D01*
X42707240Y-47704704D01*
X42692990Y-47685491D01*
X42680693Y-47664974D01*
X42670465Y-47643350D01*
X42662407Y-47620828D01*
X42656595Y-47597624D01*
X42653085Y-47573963D01*
X42651911Y-47550071D01*
X42651911Y-46637571D01*
X42653085Y-46613679D01*
X42656595Y-46590018D01*
X42662407Y-46566814D01*
X42670465Y-46544292D01*
X42680693Y-46522668D01*
X42692990Y-46502151D01*
X42707240Y-46482938D01*
X42723304Y-46465214D01*
X42741028Y-46449150D01*
X42760241Y-46434900D01*
X42780758Y-46422603D01*
X42802382Y-46412375D01*
X42824904Y-46404317D01*
X42848108Y-46398505D01*
X42871769Y-46394995D01*
X42895661Y-46393821D01*
X43383161Y-46393821D01*
X43407053Y-46394995D01*
X43407053Y-46394995D01*
G37*
D17*
X43139411Y-47093821D03*
D16*
G36*
X45282053Y-46394995D02*
X45305714Y-46398505D01*
X45328918Y-46404317D01*
X45351440Y-46412375D01*
X45373064Y-46422603D01*
X45393581Y-46434900D01*
X45412794Y-46449150D01*
X45430518Y-46465214D01*
X45446582Y-46482938D01*
X45460832Y-46502151D01*
X45473129Y-46522668D01*
X45483357Y-46544292D01*
X45491415Y-46566814D01*
X45497227Y-46590018D01*
X45500737Y-46613679D01*
X45501911Y-46637571D01*
X45501911Y-47550071D01*
X45500737Y-47573963D01*
X45497227Y-47597624D01*
X45491415Y-47620828D01*
X45483357Y-47643350D01*
X45473129Y-47664974D01*
X45460832Y-47685491D01*
X45446582Y-47704704D01*
X45430518Y-47722428D01*
X45412794Y-47738492D01*
X45393581Y-47752742D01*
X45373064Y-47765039D01*
X45351440Y-47775267D01*
X45328918Y-47783325D01*
X45305714Y-47789137D01*
X45282053Y-47792647D01*
X45258161Y-47793821D01*
X44770661Y-47793821D01*
X44746769Y-47792647D01*
X44723108Y-47789137D01*
X44699904Y-47783325D01*
X44677382Y-47775267D01*
X44655758Y-47765039D01*
X44635241Y-47752742D01*
X44616028Y-47738492D01*
X44598304Y-47722428D01*
X44582240Y-47704704D01*
X44567990Y-47685491D01*
X44555693Y-47664974D01*
X44545465Y-47643350D01*
X44537407Y-47620828D01*
X44531595Y-47597624D01*
X44528085Y-47573963D01*
X44526911Y-47550071D01*
X44526911Y-46637571D01*
X44528085Y-46613679D01*
X44531595Y-46590018D01*
X44537407Y-46566814D01*
X44545465Y-46544292D01*
X44555693Y-46522668D01*
X44567990Y-46502151D01*
X44582240Y-46482938D01*
X44598304Y-46465214D01*
X44616028Y-46449150D01*
X44635241Y-46434900D01*
X44655758Y-46422603D01*
X44677382Y-46412375D01*
X44699904Y-46404317D01*
X44723108Y-46398505D01*
X44746769Y-46394995D01*
X44770661Y-46393821D01*
X45258161Y-46393821D01*
X45282053Y-46394995D01*
X45282053Y-46394995D01*
G37*
D17*
X45014411Y-47093821D03*
G04 #@! TD*
D16*
G04 #@! TO.C,R4*
G36*
X68582053Y-46394995D02*
X68605714Y-46398505D01*
X68628918Y-46404317D01*
X68651440Y-46412375D01*
X68673064Y-46422603D01*
X68693581Y-46434900D01*
X68712794Y-46449150D01*
X68730518Y-46465214D01*
X68746582Y-46482938D01*
X68760832Y-46502151D01*
X68773129Y-46522668D01*
X68783357Y-46544292D01*
X68791415Y-46566814D01*
X68797227Y-46590018D01*
X68800737Y-46613679D01*
X68801911Y-46637571D01*
X68801911Y-47550071D01*
X68800737Y-47573963D01*
X68797227Y-47597624D01*
X68791415Y-47620828D01*
X68783357Y-47643350D01*
X68773129Y-47664974D01*
X68760832Y-47685491D01*
X68746582Y-47704704D01*
X68730518Y-47722428D01*
X68712794Y-47738492D01*
X68693581Y-47752742D01*
X68673064Y-47765039D01*
X68651440Y-47775267D01*
X68628918Y-47783325D01*
X68605714Y-47789137D01*
X68582053Y-47792647D01*
X68558161Y-47793821D01*
X68070661Y-47793821D01*
X68046769Y-47792647D01*
X68023108Y-47789137D01*
X67999904Y-47783325D01*
X67977382Y-47775267D01*
X67955758Y-47765039D01*
X67935241Y-47752742D01*
X67916028Y-47738492D01*
X67898304Y-47722428D01*
X67882240Y-47704704D01*
X67867990Y-47685491D01*
X67855693Y-47664974D01*
X67845465Y-47643350D01*
X67837407Y-47620828D01*
X67831595Y-47597624D01*
X67828085Y-47573963D01*
X67826911Y-47550071D01*
X67826911Y-46637571D01*
X67828085Y-46613679D01*
X67831595Y-46590018D01*
X67837407Y-46566814D01*
X67845465Y-46544292D01*
X67855693Y-46522668D01*
X67867990Y-46502151D01*
X67882240Y-46482938D01*
X67898304Y-46465214D01*
X67916028Y-46449150D01*
X67935241Y-46434900D01*
X67955758Y-46422603D01*
X67977382Y-46412375D01*
X67999904Y-46404317D01*
X68023108Y-46398505D01*
X68046769Y-46394995D01*
X68070661Y-46393821D01*
X68558161Y-46393821D01*
X68582053Y-46394995D01*
X68582053Y-46394995D01*
G37*
D17*
X68314411Y-47093821D03*
D16*
G36*
X70457053Y-46394995D02*
X70480714Y-46398505D01*
X70503918Y-46404317D01*
X70526440Y-46412375D01*
X70548064Y-46422603D01*
X70568581Y-46434900D01*
X70587794Y-46449150D01*
X70605518Y-46465214D01*
X70621582Y-46482938D01*
X70635832Y-46502151D01*
X70648129Y-46522668D01*
X70658357Y-46544292D01*
X70666415Y-46566814D01*
X70672227Y-46590018D01*
X70675737Y-46613679D01*
X70676911Y-46637571D01*
X70676911Y-47550071D01*
X70675737Y-47573963D01*
X70672227Y-47597624D01*
X70666415Y-47620828D01*
X70658357Y-47643350D01*
X70648129Y-47664974D01*
X70635832Y-47685491D01*
X70621582Y-47704704D01*
X70605518Y-47722428D01*
X70587794Y-47738492D01*
X70568581Y-47752742D01*
X70548064Y-47765039D01*
X70526440Y-47775267D01*
X70503918Y-47783325D01*
X70480714Y-47789137D01*
X70457053Y-47792647D01*
X70433161Y-47793821D01*
X69945661Y-47793821D01*
X69921769Y-47792647D01*
X69898108Y-47789137D01*
X69874904Y-47783325D01*
X69852382Y-47775267D01*
X69830758Y-47765039D01*
X69810241Y-47752742D01*
X69791028Y-47738492D01*
X69773304Y-47722428D01*
X69757240Y-47704704D01*
X69742990Y-47685491D01*
X69730693Y-47664974D01*
X69720465Y-47643350D01*
X69712407Y-47620828D01*
X69706595Y-47597624D01*
X69703085Y-47573963D01*
X69701911Y-47550071D01*
X69701911Y-46637571D01*
X69703085Y-46613679D01*
X69706595Y-46590018D01*
X69712407Y-46566814D01*
X69720465Y-46544292D01*
X69730693Y-46522668D01*
X69742990Y-46502151D01*
X69757240Y-46482938D01*
X69773304Y-46465214D01*
X69791028Y-46449150D01*
X69810241Y-46434900D01*
X69830758Y-46422603D01*
X69852382Y-46412375D01*
X69874904Y-46404317D01*
X69898108Y-46398505D01*
X69921769Y-46394995D01*
X69945661Y-46393821D01*
X70433161Y-46393821D01*
X70457053Y-46394995D01*
X70457053Y-46394995D01*
G37*
D17*
X70189411Y-47093821D03*
G04 #@! TD*
D16*
G04 #@! TO.C,R5*
G36*
X93807053Y-46394995D02*
X93830714Y-46398505D01*
X93853918Y-46404317D01*
X93876440Y-46412375D01*
X93898064Y-46422603D01*
X93918581Y-46434900D01*
X93937794Y-46449150D01*
X93955518Y-46465214D01*
X93971582Y-46482938D01*
X93985832Y-46502151D01*
X93998129Y-46522668D01*
X94008357Y-46544292D01*
X94016415Y-46566814D01*
X94022227Y-46590018D01*
X94025737Y-46613679D01*
X94026911Y-46637571D01*
X94026911Y-47550071D01*
X94025737Y-47573963D01*
X94022227Y-47597624D01*
X94016415Y-47620828D01*
X94008357Y-47643350D01*
X93998129Y-47664974D01*
X93985832Y-47685491D01*
X93971582Y-47704704D01*
X93955518Y-47722428D01*
X93937794Y-47738492D01*
X93918581Y-47752742D01*
X93898064Y-47765039D01*
X93876440Y-47775267D01*
X93853918Y-47783325D01*
X93830714Y-47789137D01*
X93807053Y-47792647D01*
X93783161Y-47793821D01*
X93295661Y-47793821D01*
X93271769Y-47792647D01*
X93248108Y-47789137D01*
X93224904Y-47783325D01*
X93202382Y-47775267D01*
X93180758Y-47765039D01*
X93160241Y-47752742D01*
X93141028Y-47738492D01*
X93123304Y-47722428D01*
X93107240Y-47704704D01*
X93092990Y-47685491D01*
X93080693Y-47664974D01*
X93070465Y-47643350D01*
X93062407Y-47620828D01*
X93056595Y-47597624D01*
X93053085Y-47573963D01*
X93051911Y-47550071D01*
X93051911Y-46637571D01*
X93053085Y-46613679D01*
X93056595Y-46590018D01*
X93062407Y-46566814D01*
X93070465Y-46544292D01*
X93080693Y-46522668D01*
X93092990Y-46502151D01*
X93107240Y-46482938D01*
X93123304Y-46465214D01*
X93141028Y-46449150D01*
X93160241Y-46434900D01*
X93180758Y-46422603D01*
X93202382Y-46412375D01*
X93224904Y-46404317D01*
X93248108Y-46398505D01*
X93271769Y-46394995D01*
X93295661Y-46393821D01*
X93783161Y-46393821D01*
X93807053Y-46394995D01*
X93807053Y-46394995D01*
G37*
D17*
X93539411Y-47093821D03*
D16*
G36*
X95682053Y-46394995D02*
X95705714Y-46398505D01*
X95728918Y-46404317D01*
X95751440Y-46412375D01*
X95773064Y-46422603D01*
X95793581Y-46434900D01*
X95812794Y-46449150D01*
X95830518Y-46465214D01*
X95846582Y-46482938D01*
X95860832Y-46502151D01*
X95873129Y-46522668D01*
X95883357Y-46544292D01*
X95891415Y-46566814D01*
X95897227Y-46590018D01*
X95900737Y-46613679D01*
X95901911Y-46637571D01*
X95901911Y-47550071D01*
X95900737Y-47573963D01*
X95897227Y-47597624D01*
X95891415Y-47620828D01*
X95883357Y-47643350D01*
X95873129Y-47664974D01*
X95860832Y-47685491D01*
X95846582Y-47704704D01*
X95830518Y-47722428D01*
X95812794Y-47738492D01*
X95793581Y-47752742D01*
X95773064Y-47765039D01*
X95751440Y-47775267D01*
X95728918Y-47783325D01*
X95705714Y-47789137D01*
X95682053Y-47792647D01*
X95658161Y-47793821D01*
X95170661Y-47793821D01*
X95146769Y-47792647D01*
X95123108Y-47789137D01*
X95099904Y-47783325D01*
X95077382Y-47775267D01*
X95055758Y-47765039D01*
X95035241Y-47752742D01*
X95016028Y-47738492D01*
X94998304Y-47722428D01*
X94982240Y-47704704D01*
X94967990Y-47685491D01*
X94955693Y-47664974D01*
X94945465Y-47643350D01*
X94937407Y-47620828D01*
X94931595Y-47597624D01*
X94928085Y-47573963D01*
X94926911Y-47550071D01*
X94926911Y-46637571D01*
X94928085Y-46613679D01*
X94931595Y-46590018D01*
X94937407Y-46566814D01*
X94945465Y-46544292D01*
X94955693Y-46522668D01*
X94967990Y-46502151D01*
X94982240Y-46482938D01*
X94998304Y-46465214D01*
X95016028Y-46449150D01*
X95035241Y-46434900D01*
X95055758Y-46422603D01*
X95077382Y-46412375D01*
X95099904Y-46404317D01*
X95123108Y-46398505D01*
X95146769Y-46394995D01*
X95170661Y-46393821D01*
X95658161Y-46393821D01*
X95682053Y-46394995D01*
X95682053Y-46394995D01*
G37*
D17*
X95414411Y-47093821D03*
G04 #@! TD*
D16*
G04 #@! TO.C,R6*
G36*
X118982053Y-46394995D02*
X119005714Y-46398505D01*
X119028918Y-46404317D01*
X119051440Y-46412375D01*
X119073064Y-46422603D01*
X119093581Y-46434900D01*
X119112794Y-46449150D01*
X119130518Y-46465214D01*
X119146582Y-46482938D01*
X119160832Y-46502151D01*
X119173129Y-46522668D01*
X119183357Y-46544292D01*
X119191415Y-46566814D01*
X119197227Y-46590018D01*
X119200737Y-46613679D01*
X119201911Y-46637571D01*
X119201911Y-47550071D01*
X119200737Y-47573963D01*
X119197227Y-47597624D01*
X119191415Y-47620828D01*
X119183357Y-47643350D01*
X119173129Y-47664974D01*
X119160832Y-47685491D01*
X119146582Y-47704704D01*
X119130518Y-47722428D01*
X119112794Y-47738492D01*
X119093581Y-47752742D01*
X119073064Y-47765039D01*
X119051440Y-47775267D01*
X119028918Y-47783325D01*
X119005714Y-47789137D01*
X118982053Y-47792647D01*
X118958161Y-47793821D01*
X118470661Y-47793821D01*
X118446769Y-47792647D01*
X118423108Y-47789137D01*
X118399904Y-47783325D01*
X118377382Y-47775267D01*
X118355758Y-47765039D01*
X118335241Y-47752742D01*
X118316028Y-47738492D01*
X118298304Y-47722428D01*
X118282240Y-47704704D01*
X118267990Y-47685491D01*
X118255693Y-47664974D01*
X118245465Y-47643350D01*
X118237407Y-47620828D01*
X118231595Y-47597624D01*
X118228085Y-47573963D01*
X118226911Y-47550071D01*
X118226911Y-46637571D01*
X118228085Y-46613679D01*
X118231595Y-46590018D01*
X118237407Y-46566814D01*
X118245465Y-46544292D01*
X118255693Y-46522668D01*
X118267990Y-46502151D01*
X118282240Y-46482938D01*
X118298304Y-46465214D01*
X118316028Y-46449150D01*
X118335241Y-46434900D01*
X118355758Y-46422603D01*
X118377382Y-46412375D01*
X118399904Y-46404317D01*
X118423108Y-46398505D01*
X118446769Y-46394995D01*
X118470661Y-46393821D01*
X118958161Y-46393821D01*
X118982053Y-46394995D01*
X118982053Y-46394995D01*
G37*
D17*
X118714411Y-47093821D03*
D16*
G36*
X120857053Y-46394995D02*
X120880714Y-46398505D01*
X120903918Y-46404317D01*
X120926440Y-46412375D01*
X120948064Y-46422603D01*
X120968581Y-46434900D01*
X120987794Y-46449150D01*
X121005518Y-46465214D01*
X121021582Y-46482938D01*
X121035832Y-46502151D01*
X121048129Y-46522668D01*
X121058357Y-46544292D01*
X121066415Y-46566814D01*
X121072227Y-46590018D01*
X121075737Y-46613679D01*
X121076911Y-46637571D01*
X121076911Y-47550071D01*
X121075737Y-47573963D01*
X121072227Y-47597624D01*
X121066415Y-47620828D01*
X121058357Y-47643350D01*
X121048129Y-47664974D01*
X121035832Y-47685491D01*
X121021582Y-47704704D01*
X121005518Y-47722428D01*
X120987794Y-47738492D01*
X120968581Y-47752742D01*
X120948064Y-47765039D01*
X120926440Y-47775267D01*
X120903918Y-47783325D01*
X120880714Y-47789137D01*
X120857053Y-47792647D01*
X120833161Y-47793821D01*
X120345661Y-47793821D01*
X120321769Y-47792647D01*
X120298108Y-47789137D01*
X120274904Y-47783325D01*
X120252382Y-47775267D01*
X120230758Y-47765039D01*
X120210241Y-47752742D01*
X120191028Y-47738492D01*
X120173304Y-47722428D01*
X120157240Y-47704704D01*
X120142990Y-47685491D01*
X120130693Y-47664974D01*
X120120465Y-47643350D01*
X120112407Y-47620828D01*
X120106595Y-47597624D01*
X120103085Y-47573963D01*
X120101911Y-47550071D01*
X120101911Y-46637571D01*
X120103085Y-46613679D01*
X120106595Y-46590018D01*
X120112407Y-46566814D01*
X120120465Y-46544292D01*
X120130693Y-46522668D01*
X120142990Y-46502151D01*
X120157240Y-46482938D01*
X120173304Y-46465214D01*
X120191028Y-46449150D01*
X120210241Y-46434900D01*
X120230758Y-46422603D01*
X120252382Y-46412375D01*
X120274904Y-46404317D01*
X120298108Y-46398505D01*
X120321769Y-46394995D01*
X120345661Y-46393821D01*
X120833161Y-46393821D01*
X120857053Y-46394995D01*
X120857053Y-46394995D01*
G37*
D17*
X120589411Y-47093821D03*
G04 #@! TD*
D16*
G04 #@! TO.C,R7*
G36*
X132816527Y-38485900D02*
X132840188Y-38489410D01*
X132863392Y-38495222D01*
X132885914Y-38503280D01*
X132907538Y-38513508D01*
X132928055Y-38525805D01*
X132947268Y-38540055D01*
X132964992Y-38556119D01*
X132981056Y-38573843D01*
X132995306Y-38593056D01*
X133007603Y-38613573D01*
X133017831Y-38635197D01*
X133025889Y-38657719D01*
X133031701Y-38680923D01*
X133035211Y-38704584D01*
X133036385Y-38728476D01*
X133036385Y-39215976D01*
X133035211Y-39239868D01*
X133031701Y-39263529D01*
X133025889Y-39286733D01*
X133017831Y-39309255D01*
X133007603Y-39330879D01*
X132995306Y-39351396D01*
X132981056Y-39370609D01*
X132964992Y-39388333D01*
X132947268Y-39404397D01*
X132928055Y-39418647D01*
X132907538Y-39430944D01*
X132885914Y-39441172D01*
X132863392Y-39449230D01*
X132840188Y-39455042D01*
X132816527Y-39458552D01*
X132792635Y-39459726D01*
X131880135Y-39459726D01*
X131856243Y-39458552D01*
X131832582Y-39455042D01*
X131809378Y-39449230D01*
X131786856Y-39441172D01*
X131765232Y-39430944D01*
X131744715Y-39418647D01*
X131725502Y-39404397D01*
X131707778Y-39388333D01*
X131691714Y-39370609D01*
X131677464Y-39351396D01*
X131665167Y-39330879D01*
X131654939Y-39309255D01*
X131646881Y-39286733D01*
X131641069Y-39263529D01*
X131637559Y-39239868D01*
X131636385Y-39215976D01*
X131636385Y-38728476D01*
X131637559Y-38704584D01*
X131641069Y-38680923D01*
X131646881Y-38657719D01*
X131654939Y-38635197D01*
X131665167Y-38613573D01*
X131677464Y-38593056D01*
X131691714Y-38573843D01*
X131707778Y-38556119D01*
X131725502Y-38540055D01*
X131744715Y-38525805D01*
X131765232Y-38513508D01*
X131786856Y-38503280D01*
X131809378Y-38495222D01*
X131832582Y-38489410D01*
X131856243Y-38485900D01*
X131880135Y-38484726D01*
X132792635Y-38484726D01*
X132816527Y-38485900D01*
X132816527Y-38485900D01*
G37*
D17*
X132336385Y-38972226D03*
D16*
G36*
X132816527Y-40360900D02*
X132840188Y-40364410D01*
X132863392Y-40370222D01*
X132885914Y-40378280D01*
X132907538Y-40388508D01*
X132928055Y-40400805D01*
X132947268Y-40415055D01*
X132964992Y-40431119D01*
X132981056Y-40448843D01*
X132995306Y-40468056D01*
X133007603Y-40488573D01*
X133017831Y-40510197D01*
X133025889Y-40532719D01*
X133031701Y-40555923D01*
X133035211Y-40579584D01*
X133036385Y-40603476D01*
X133036385Y-41090976D01*
X133035211Y-41114868D01*
X133031701Y-41138529D01*
X133025889Y-41161733D01*
X133017831Y-41184255D01*
X133007603Y-41205879D01*
X132995306Y-41226396D01*
X132981056Y-41245609D01*
X132964992Y-41263333D01*
X132947268Y-41279397D01*
X132928055Y-41293647D01*
X132907538Y-41305944D01*
X132885914Y-41316172D01*
X132863392Y-41324230D01*
X132840188Y-41330042D01*
X132816527Y-41333552D01*
X132792635Y-41334726D01*
X131880135Y-41334726D01*
X131856243Y-41333552D01*
X131832582Y-41330042D01*
X131809378Y-41324230D01*
X131786856Y-41316172D01*
X131765232Y-41305944D01*
X131744715Y-41293647D01*
X131725502Y-41279397D01*
X131707778Y-41263333D01*
X131691714Y-41245609D01*
X131677464Y-41226396D01*
X131665167Y-41205879D01*
X131654939Y-41184255D01*
X131646881Y-41161733D01*
X131641069Y-41138529D01*
X131637559Y-41114868D01*
X131636385Y-41090976D01*
X131636385Y-40603476D01*
X131637559Y-40579584D01*
X131641069Y-40555923D01*
X131646881Y-40532719D01*
X131654939Y-40510197D01*
X131665167Y-40488573D01*
X131677464Y-40468056D01*
X131691714Y-40448843D01*
X131707778Y-40431119D01*
X131725502Y-40415055D01*
X131744715Y-40400805D01*
X131765232Y-40388508D01*
X131786856Y-40378280D01*
X131809378Y-40370222D01*
X131832582Y-40364410D01*
X131856243Y-40360900D01*
X131880135Y-40359726D01*
X132792635Y-40359726D01*
X132816527Y-40360900D01*
X132816527Y-40360900D01*
G37*
D17*
X132336385Y-40847226D03*
G04 #@! TD*
D16*
G04 #@! TO.C,R12*
G36*
X130016527Y-40360900D02*
X130040188Y-40364410D01*
X130063392Y-40370222D01*
X130085914Y-40378280D01*
X130107538Y-40388508D01*
X130128055Y-40400805D01*
X130147268Y-40415055D01*
X130164992Y-40431119D01*
X130181056Y-40448843D01*
X130195306Y-40468056D01*
X130207603Y-40488573D01*
X130217831Y-40510197D01*
X130225889Y-40532719D01*
X130231701Y-40555923D01*
X130235211Y-40579584D01*
X130236385Y-40603476D01*
X130236385Y-41090976D01*
X130235211Y-41114868D01*
X130231701Y-41138529D01*
X130225889Y-41161733D01*
X130217831Y-41184255D01*
X130207603Y-41205879D01*
X130195306Y-41226396D01*
X130181056Y-41245609D01*
X130164992Y-41263333D01*
X130147268Y-41279397D01*
X130128055Y-41293647D01*
X130107538Y-41305944D01*
X130085914Y-41316172D01*
X130063392Y-41324230D01*
X130040188Y-41330042D01*
X130016527Y-41333552D01*
X129992635Y-41334726D01*
X129080135Y-41334726D01*
X129056243Y-41333552D01*
X129032582Y-41330042D01*
X129009378Y-41324230D01*
X128986856Y-41316172D01*
X128965232Y-41305944D01*
X128944715Y-41293647D01*
X128925502Y-41279397D01*
X128907778Y-41263333D01*
X128891714Y-41245609D01*
X128877464Y-41226396D01*
X128865167Y-41205879D01*
X128854939Y-41184255D01*
X128846881Y-41161733D01*
X128841069Y-41138529D01*
X128837559Y-41114868D01*
X128836385Y-41090976D01*
X128836385Y-40603476D01*
X128837559Y-40579584D01*
X128841069Y-40555923D01*
X128846881Y-40532719D01*
X128854939Y-40510197D01*
X128865167Y-40488573D01*
X128877464Y-40468056D01*
X128891714Y-40448843D01*
X128907778Y-40431119D01*
X128925502Y-40415055D01*
X128944715Y-40400805D01*
X128965232Y-40388508D01*
X128986856Y-40378280D01*
X129009378Y-40370222D01*
X129032582Y-40364410D01*
X129056243Y-40360900D01*
X129080135Y-40359726D01*
X129992635Y-40359726D01*
X130016527Y-40360900D01*
X130016527Y-40360900D01*
G37*
D17*
X129536385Y-40847226D03*
D16*
G36*
X130016527Y-38485900D02*
X130040188Y-38489410D01*
X130063392Y-38495222D01*
X130085914Y-38503280D01*
X130107538Y-38513508D01*
X130128055Y-38525805D01*
X130147268Y-38540055D01*
X130164992Y-38556119D01*
X130181056Y-38573843D01*
X130195306Y-38593056D01*
X130207603Y-38613573D01*
X130217831Y-38635197D01*
X130225889Y-38657719D01*
X130231701Y-38680923D01*
X130235211Y-38704584D01*
X130236385Y-38728476D01*
X130236385Y-39215976D01*
X130235211Y-39239868D01*
X130231701Y-39263529D01*
X130225889Y-39286733D01*
X130217831Y-39309255D01*
X130207603Y-39330879D01*
X130195306Y-39351396D01*
X130181056Y-39370609D01*
X130164992Y-39388333D01*
X130147268Y-39404397D01*
X130128055Y-39418647D01*
X130107538Y-39430944D01*
X130085914Y-39441172D01*
X130063392Y-39449230D01*
X130040188Y-39455042D01*
X130016527Y-39458552D01*
X129992635Y-39459726D01*
X129080135Y-39459726D01*
X129056243Y-39458552D01*
X129032582Y-39455042D01*
X129009378Y-39449230D01*
X128986856Y-39441172D01*
X128965232Y-39430944D01*
X128944715Y-39418647D01*
X128925502Y-39404397D01*
X128907778Y-39388333D01*
X128891714Y-39370609D01*
X128877464Y-39351396D01*
X128865167Y-39330879D01*
X128854939Y-39309255D01*
X128846881Y-39286733D01*
X128841069Y-39263529D01*
X128837559Y-39239868D01*
X128836385Y-39215976D01*
X128836385Y-38728476D01*
X128837559Y-38704584D01*
X128841069Y-38680923D01*
X128846881Y-38657719D01*
X128854939Y-38635197D01*
X128865167Y-38613573D01*
X128877464Y-38593056D01*
X128891714Y-38573843D01*
X128907778Y-38556119D01*
X128925502Y-38540055D01*
X128944715Y-38525805D01*
X128965232Y-38513508D01*
X128986856Y-38503280D01*
X129009378Y-38495222D01*
X129032582Y-38489410D01*
X129056243Y-38485900D01*
X129080135Y-38484726D01*
X129992635Y-38484726D01*
X130016527Y-38485900D01*
X130016527Y-38485900D01*
G37*
D17*
X129536385Y-38972226D03*
G04 #@! TD*
D16*
G04 #@! TO.C,R13*
G36*
X38816527Y-35260900D02*
X38840188Y-35264410D01*
X38863392Y-35270222D01*
X38885914Y-35278280D01*
X38907538Y-35288508D01*
X38928055Y-35300805D01*
X38947268Y-35315055D01*
X38964992Y-35331119D01*
X38981056Y-35348843D01*
X38995306Y-35368056D01*
X39007603Y-35388573D01*
X39017831Y-35410197D01*
X39025889Y-35432719D01*
X39031701Y-35455923D01*
X39035211Y-35479584D01*
X39036385Y-35503476D01*
X39036385Y-35990976D01*
X39035211Y-36014868D01*
X39031701Y-36038529D01*
X39025889Y-36061733D01*
X39017831Y-36084255D01*
X39007603Y-36105879D01*
X38995306Y-36126396D01*
X38981056Y-36145609D01*
X38964992Y-36163333D01*
X38947268Y-36179397D01*
X38928055Y-36193647D01*
X38907538Y-36205944D01*
X38885914Y-36216172D01*
X38863392Y-36224230D01*
X38840188Y-36230042D01*
X38816527Y-36233552D01*
X38792635Y-36234726D01*
X37880135Y-36234726D01*
X37856243Y-36233552D01*
X37832582Y-36230042D01*
X37809378Y-36224230D01*
X37786856Y-36216172D01*
X37765232Y-36205944D01*
X37744715Y-36193647D01*
X37725502Y-36179397D01*
X37707778Y-36163333D01*
X37691714Y-36145609D01*
X37677464Y-36126396D01*
X37665167Y-36105879D01*
X37654939Y-36084255D01*
X37646881Y-36061733D01*
X37641069Y-36038529D01*
X37637559Y-36014868D01*
X37636385Y-35990976D01*
X37636385Y-35503476D01*
X37637559Y-35479584D01*
X37641069Y-35455923D01*
X37646881Y-35432719D01*
X37654939Y-35410197D01*
X37665167Y-35388573D01*
X37677464Y-35368056D01*
X37691714Y-35348843D01*
X37707778Y-35331119D01*
X37725502Y-35315055D01*
X37744715Y-35300805D01*
X37765232Y-35288508D01*
X37786856Y-35278280D01*
X37809378Y-35270222D01*
X37832582Y-35264410D01*
X37856243Y-35260900D01*
X37880135Y-35259726D01*
X38792635Y-35259726D01*
X38816527Y-35260900D01*
X38816527Y-35260900D01*
G37*
D17*
X38336385Y-35747226D03*
D16*
G36*
X38816527Y-37135900D02*
X38840188Y-37139410D01*
X38863392Y-37145222D01*
X38885914Y-37153280D01*
X38907538Y-37163508D01*
X38928055Y-37175805D01*
X38947268Y-37190055D01*
X38964992Y-37206119D01*
X38981056Y-37223843D01*
X38995306Y-37243056D01*
X39007603Y-37263573D01*
X39017831Y-37285197D01*
X39025889Y-37307719D01*
X39031701Y-37330923D01*
X39035211Y-37354584D01*
X39036385Y-37378476D01*
X39036385Y-37865976D01*
X39035211Y-37889868D01*
X39031701Y-37913529D01*
X39025889Y-37936733D01*
X39017831Y-37959255D01*
X39007603Y-37980879D01*
X38995306Y-38001396D01*
X38981056Y-38020609D01*
X38964992Y-38038333D01*
X38947268Y-38054397D01*
X38928055Y-38068647D01*
X38907538Y-38080944D01*
X38885914Y-38091172D01*
X38863392Y-38099230D01*
X38840188Y-38105042D01*
X38816527Y-38108552D01*
X38792635Y-38109726D01*
X37880135Y-38109726D01*
X37856243Y-38108552D01*
X37832582Y-38105042D01*
X37809378Y-38099230D01*
X37786856Y-38091172D01*
X37765232Y-38080944D01*
X37744715Y-38068647D01*
X37725502Y-38054397D01*
X37707778Y-38038333D01*
X37691714Y-38020609D01*
X37677464Y-38001396D01*
X37665167Y-37980879D01*
X37654939Y-37959255D01*
X37646881Y-37936733D01*
X37641069Y-37913529D01*
X37637559Y-37889868D01*
X37636385Y-37865976D01*
X37636385Y-37378476D01*
X37637559Y-37354584D01*
X37641069Y-37330923D01*
X37646881Y-37307719D01*
X37654939Y-37285197D01*
X37665167Y-37263573D01*
X37677464Y-37243056D01*
X37691714Y-37223843D01*
X37707778Y-37206119D01*
X37725502Y-37190055D01*
X37744715Y-37175805D01*
X37765232Y-37163508D01*
X37786856Y-37153280D01*
X37809378Y-37145222D01*
X37832582Y-37139410D01*
X37856243Y-37135900D01*
X37880135Y-37134726D01*
X38792635Y-37134726D01*
X38816527Y-37135900D01*
X38816527Y-37135900D01*
G37*
D17*
X38336385Y-37622226D03*
G04 #@! TD*
D16*
G04 #@! TO.C,R14*
G36*
X42016527Y-37135900D02*
X42040188Y-37139410D01*
X42063392Y-37145222D01*
X42085914Y-37153280D01*
X42107538Y-37163508D01*
X42128055Y-37175805D01*
X42147268Y-37190055D01*
X42164992Y-37206119D01*
X42181056Y-37223843D01*
X42195306Y-37243056D01*
X42207603Y-37263573D01*
X42217831Y-37285197D01*
X42225889Y-37307719D01*
X42231701Y-37330923D01*
X42235211Y-37354584D01*
X42236385Y-37378476D01*
X42236385Y-37865976D01*
X42235211Y-37889868D01*
X42231701Y-37913529D01*
X42225889Y-37936733D01*
X42217831Y-37959255D01*
X42207603Y-37980879D01*
X42195306Y-38001396D01*
X42181056Y-38020609D01*
X42164992Y-38038333D01*
X42147268Y-38054397D01*
X42128055Y-38068647D01*
X42107538Y-38080944D01*
X42085914Y-38091172D01*
X42063392Y-38099230D01*
X42040188Y-38105042D01*
X42016527Y-38108552D01*
X41992635Y-38109726D01*
X41080135Y-38109726D01*
X41056243Y-38108552D01*
X41032582Y-38105042D01*
X41009378Y-38099230D01*
X40986856Y-38091172D01*
X40965232Y-38080944D01*
X40944715Y-38068647D01*
X40925502Y-38054397D01*
X40907778Y-38038333D01*
X40891714Y-38020609D01*
X40877464Y-38001396D01*
X40865167Y-37980879D01*
X40854939Y-37959255D01*
X40846881Y-37936733D01*
X40841069Y-37913529D01*
X40837559Y-37889868D01*
X40836385Y-37865976D01*
X40836385Y-37378476D01*
X40837559Y-37354584D01*
X40841069Y-37330923D01*
X40846881Y-37307719D01*
X40854939Y-37285197D01*
X40865167Y-37263573D01*
X40877464Y-37243056D01*
X40891714Y-37223843D01*
X40907778Y-37206119D01*
X40925502Y-37190055D01*
X40944715Y-37175805D01*
X40965232Y-37163508D01*
X40986856Y-37153280D01*
X41009378Y-37145222D01*
X41032582Y-37139410D01*
X41056243Y-37135900D01*
X41080135Y-37134726D01*
X41992635Y-37134726D01*
X42016527Y-37135900D01*
X42016527Y-37135900D01*
G37*
D17*
X41536385Y-37622226D03*
D16*
G36*
X42016527Y-35260900D02*
X42040188Y-35264410D01*
X42063392Y-35270222D01*
X42085914Y-35278280D01*
X42107538Y-35288508D01*
X42128055Y-35300805D01*
X42147268Y-35315055D01*
X42164992Y-35331119D01*
X42181056Y-35348843D01*
X42195306Y-35368056D01*
X42207603Y-35388573D01*
X42217831Y-35410197D01*
X42225889Y-35432719D01*
X42231701Y-35455923D01*
X42235211Y-35479584D01*
X42236385Y-35503476D01*
X42236385Y-35990976D01*
X42235211Y-36014868D01*
X42231701Y-36038529D01*
X42225889Y-36061733D01*
X42217831Y-36084255D01*
X42207603Y-36105879D01*
X42195306Y-36126396D01*
X42181056Y-36145609D01*
X42164992Y-36163333D01*
X42147268Y-36179397D01*
X42128055Y-36193647D01*
X42107538Y-36205944D01*
X42085914Y-36216172D01*
X42063392Y-36224230D01*
X42040188Y-36230042D01*
X42016527Y-36233552D01*
X41992635Y-36234726D01*
X41080135Y-36234726D01*
X41056243Y-36233552D01*
X41032582Y-36230042D01*
X41009378Y-36224230D01*
X40986856Y-36216172D01*
X40965232Y-36205944D01*
X40944715Y-36193647D01*
X40925502Y-36179397D01*
X40907778Y-36163333D01*
X40891714Y-36145609D01*
X40877464Y-36126396D01*
X40865167Y-36105879D01*
X40854939Y-36084255D01*
X40846881Y-36061733D01*
X40841069Y-36038529D01*
X40837559Y-36014868D01*
X40836385Y-35990976D01*
X40836385Y-35503476D01*
X40837559Y-35479584D01*
X40841069Y-35455923D01*
X40846881Y-35432719D01*
X40854939Y-35410197D01*
X40865167Y-35388573D01*
X40877464Y-35368056D01*
X40891714Y-35348843D01*
X40907778Y-35331119D01*
X40925502Y-35315055D01*
X40944715Y-35300805D01*
X40965232Y-35288508D01*
X40986856Y-35278280D01*
X41009378Y-35270222D01*
X41032582Y-35264410D01*
X41056243Y-35260900D01*
X41080135Y-35259726D01*
X41992635Y-35259726D01*
X42016527Y-35260900D01*
X42016527Y-35260900D01*
G37*
D17*
X41536385Y-35747226D03*
G04 #@! TD*
D16*
G04 #@! TO.C,R27*
G36*
X152192298Y-99102655D02*
X152215959Y-99106165D01*
X152239163Y-99111977D01*
X152261685Y-99120035D01*
X152283309Y-99130263D01*
X152303826Y-99142560D01*
X152323039Y-99156810D01*
X152340763Y-99172874D01*
X152685478Y-99517589D01*
X152701542Y-99535313D01*
X152715792Y-99554526D01*
X152728089Y-99575043D01*
X152738317Y-99596667D01*
X152746375Y-99619189D01*
X152752187Y-99642393D01*
X152755697Y-99666054D01*
X152756871Y-99689946D01*
X152755697Y-99713838D01*
X152752187Y-99737499D01*
X152746375Y-99760703D01*
X152738317Y-99783225D01*
X152728089Y-99804849D01*
X152715792Y-99825366D01*
X152701542Y-99844579D01*
X152685478Y-99862303D01*
X152040243Y-100507538D01*
X152022519Y-100523602D01*
X152003306Y-100537852D01*
X151982789Y-100550149D01*
X151961165Y-100560377D01*
X151938643Y-100568435D01*
X151915439Y-100574247D01*
X151891778Y-100577757D01*
X151867886Y-100578931D01*
X151843994Y-100577757D01*
X151820333Y-100574247D01*
X151797129Y-100568435D01*
X151774607Y-100560377D01*
X151752983Y-100550149D01*
X151732466Y-100537852D01*
X151713253Y-100523602D01*
X151695529Y-100507538D01*
X151350814Y-100162823D01*
X151334750Y-100145099D01*
X151320500Y-100125886D01*
X151308203Y-100105369D01*
X151297975Y-100083745D01*
X151289917Y-100061223D01*
X151284105Y-100038019D01*
X151280595Y-100014358D01*
X151279421Y-99990466D01*
X151280595Y-99966574D01*
X151284105Y-99942913D01*
X151289917Y-99919709D01*
X151297975Y-99897187D01*
X151308203Y-99875563D01*
X151320500Y-99855046D01*
X151334750Y-99835833D01*
X151350814Y-99818109D01*
X151996049Y-99172874D01*
X152013773Y-99156810D01*
X152032986Y-99142560D01*
X152053503Y-99130263D01*
X152075127Y-99120035D01*
X152097649Y-99111977D01*
X152120853Y-99106165D01*
X152144514Y-99102655D01*
X152168406Y-99101481D01*
X152192298Y-99102655D01*
X152192298Y-99102655D01*
G37*
D17*
X152018146Y-99840206D03*
D16*
G36*
X153518124Y-100428481D02*
X153541785Y-100431991D01*
X153564989Y-100437803D01*
X153587511Y-100445861D01*
X153609135Y-100456089D01*
X153629652Y-100468386D01*
X153648865Y-100482636D01*
X153666589Y-100498700D01*
X154011304Y-100843415D01*
X154027368Y-100861139D01*
X154041618Y-100880352D01*
X154053915Y-100900869D01*
X154064143Y-100922493D01*
X154072201Y-100945015D01*
X154078013Y-100968219D01*
X154081523Y-100991880D01*
X154082697Y-101015772D01*
X154081523Y-101039664D01*
X154078013Y-101063325D01*
X154072201Y-101086529D01*
X154064143Y-101109051D01*
X154053915Y-101130675D01*
X154041618Y-101151192D01*
X154027368Y-101170405D01*
X154011304Y-101188129D01*
X153366069Y-101833364D01*
X153348345Y-101849428D01*
X153329132Y-101863678D01*
X153308615Y-101875975D01*
X153286991Y-101886203D01*
X153264469Y-101894261D01*
X153241265Y-101900073D01*
X153217604Y-101903583D01*
X153193712Y-101904757D01*
X153169820Y-101903583D01*
X153146159Y-101900073D01*
X153122955Y-101894261D01*
X153100433Y-101886203D01*
X153078809Y-101875975D01*
X153058292Y-101863678D01*
X153039079Y-101849428D01*
X153021355Y-101833364D01*
X152676640Y-101488649D01*
X152660576Y-101470925D01*
X152646326Y-101451712D01*
X152634029Y-101431195D01*
X152623801Y-101409571D01*
X152615743Y-101387049D01*
X152609931Y-101363845D01*
X152606421Y-101340184D01*
X152605247Y-101316292D01*
X152606421Y-101292400D01*
X152609931Y-101268739D01*
X152615743Y-101245535D01*
X152623801Y-101223013D01*
X152634029Y-101201389D01*
X152646326Y-101180872D01*
X152660576Y-101161659D01*
X152676640Y-101143935D01*
X153321875Y-100498700D01*
X153339599Y-100482636D01*
X153358812Y-100468386D01*
X153379329Y-100456089D01*
X153400953Y-100445861D01*
X153423475Y-100437803D01*
X153446679Y-100431991D01*
X153470340Y-100428481D01*
X153494232Y-100427307D01*
X153518124Y-100428481D01*
X153518124Y-100428481D01*
G37*
D17*
X153343972Y-101166032D03*
G04 #@! TD*
M02*
