M48
;DRILL file {KiCad (5.0.0)} date 08/12/18 11:34:07
;FORMAT={-:-/ absolute / inch / decimal}
FMAT,2
INCH,TZ
T1C0.0551
T2C0.0709
T3C0.1063
T4C0.1260
%
G90
G05
M72
T1
X10.0723Y-5.3068
X10.2495Y-5.3068
T2
X1.1018Y-3.7832
X1.4561Y-3.7832
X4.5743Y-3.1297
X4.9286Y-3.1297
X3.0861Y-3.1297
X3.4404Y-3.1297
X3.9089Y-5.4013
X4.2632Y-5.4013
X9.3065Y-3.0903
X9.6609Y-3.0903
X9.8026Y-2.4368
X10.1569Y-2.4368
X4.653Y-4.728
X5.0073Y-4.728
X4.1569Y-4.728
X4.5113Y-4.728
X3.4128Y-5.4013
X3.7672Y-5.4013
X3.0861Y-3.7832
X3.4404Y-3.7832
X9.3065Y-3.7439
X9.6609Y-3.7439
X8.1254Y-4.728
X8.4798Y-4.728
X2.0939Y-3.7832
X2.4483Y-3.7832
X5.8932Y-5.4013
X6.2475Y-5.4013
X1.5979Y-3.7832
X1.9522Y-3.7832
X5.1491Y-4.728
X5.5034Y-4.728
X2.59Y-3.7832
X2.9443Y-3.7832
X4.0782Y-3.1297
X4.4325Y-3.1297
X7.3813Y-5.4013
X7.7357Y-5.4013
X9.8026Y-3.7439
X10.1569Y-3.7439
X2.0939Y-3.1297
X2.4483Y-3.1297
X5.0703Y-3.7832
X5.4246Y-3.7832
X4.0782Y-3.7832
X4.4325Y-3.7832
X2.59Y-3.1297
X2.9443Y-3.1297
X8.8695Y-5.4013
X9.2239Y-5.4013
X7.6294Y-4.728
X7.9837Y-4.728
X6.8853Y-5.4013
X7.2396Y-5.4013
X1.1018Y-3.1297
X1.4561Y-3.1297
X5.0703Y-3.1297
X5.4246Y-3.1297
X1.5979Y-3.1297
X1.9522Y-3.1297
X4.405Y-5.4013
X4.7593Y-5.4013
X2.9168Y-5.4013
X3.2711Y-5.4013
X9.8026Y-3.0903
X10.1569Y-3.0903
X8.3735Y-5.4013
X8.7278Y-5.4013
X6.3892Y-5.4013
X6.7435Y-5.4013
X2.6687Y-4.728
X3.0231Y-4.728
X4.5743Y-3.7832
X4.9286Y-3.7832
X1.1018Y-1.8226
X1.4561Y-1.8226
X3.5821Y-3.7832
X3.9365Y-3.7832
X3.1648Y-4.728
X3.5191Y-4.728
X9.3065Y-2.4368
X9.6609Y-2.4368
X7.8774Y-5.4013
X8.2317Y-5.4013
X6.1412Y-4.728
X6.4955Y-4.728
X2.4207Y-5.4013
X2.775Y-5.4013
X4.901Y-5.4013
X5.2554Y-5.4013
X1.1018Y-2.4761
X1.4561Y-2.4761
X3.5821Y-3.1297
X3.9365Y-3.1297
X8.6215Y-4.728
X8.9758Y-4.728
X6.6372Y-4.728
X6.9916Y-4.728
X5.3971Y-5.4013
X5.7514Y-5.4013
T3
X5.828Y-1.6997
X8.8792Y-1.6997
X8.7239Y-4.1848
X3.0152Y-4.1848
X5.828Y-3.5993
X8.8913Y-3.353
X5.8204Y-1.4239
T4
X10.2203Y-5.8153
X1.047Y-5.8153
X3.114Y-1.3271
X8.1533Y-1.3271
T0
M30
