M48
;DRILL file {KiCad (5.0.0)} date 08/16/18 13:56:32
;FORMAT={-:-/ absolute / inch / decimal}
FMAT,2
INCH,TZ
T1C0.0551
T2C0.0709
T3C0.1063
T4C0.1260
%
G90
G05
M72
T1
X3.065Y-8.1654
X3.065Y-8.3622
T2
X3.7444Y-0.8065
X3.7444Y-1.1609
X3.0712Y-4.0309
X3.0712Y-4.3853
X3.0712Y-6.0152
X3.0712Y-6.3695
X3.7444Y-3.2869
X3.7444Y-3.6412
X4.6892Y-2.712
X4.6892Y-3.0664
X3.0712Y-2.5428
X3.0712Y-2.8971
X5.3428Y0.2643
X5.3428Y-0.09
X3.7444Y-4.279
X3.7444Y-4.6333
X4.7286Y-7.9404
X4.7286Y-8.2947
X5.3428Y-0.2317
X5.3428Y-0.5861
X5.3428Y-2.712
X5.3428Y-3.0664
X4.6892Y-0.7278
X4.6892Y-1.0821
X5.3428Y0.7604
X5.3428Y0.4061
X4.6892Y0.7604
X4.6892Y0.4061
X6.0357Y-7.4443
X6.0357Y-7.7987
X3.7444Y-6.2632
X3.7444Y-6.6176
X3.0712Y-5.5191
X3.0712Y-5.8735
X5.3428Y-3.2081
X5.3428Y-3.5624
X5.3428Y-0.7278
X5.3428Y-1.0821
X3.7444Y-2.7908
X3.7444Y-3.1451
X6.6498Y0.7604
X6.6498Y0.4061
X3.7444Y-4.775
X3.7444Y-5.1294
X3.0712Y-7.0073
X3.0712Y-7.3617
X5.3821Y-7.4443
X5.3821Y-7.7987
X5.3428Y-2.216
X5.3428Y-2.5703
X5.3428Y-1.7199
X5.3428Y-2.0743
X3.7444Y-1.3026
X3.7444Y-1.6569
X5.3428Y-1.2239
X5.3428Y-1.5782
X4.7286Y-7.4443
X4.7286Y-7.7987
X3.0712Y-6.5113
X3.0712Y-6.8656
X3.7444Y-5.7672
X3.7444Y-6.1215
X4.6892Y-1.7199
X4.6892Y-2.0743
X3.0712Y-3.5349
X3.0712Y-3.8892
X3.0712Y-3.0388
X3.0712Y-3.3932
X3.0712Y-1.5506
X3.0712Y-1.905
X3.0712Y-5.0231
X3.0712Y-5.3774
X3.7444Y-6.7593
X3.7444Y-7.1136
X4.6892Y-3.2081
X4.6892Y-3.5624
X4.6892Y-1.2239
X4.6892Y-1.5782
X3.7444Y-2.2947
X3.7444Y-2.6491
X3.0712Y-2.0467
X3.0712Y-2.401
X4.6892Y-0.2317
X4.6892Y-0.5861
X3.0712Y-4.527
X3.0712Y-4.8813
X5.3821Y-7.9404
X5.3821Y-8.2947
X6.0357Y-7.9404
X6.0357Y-8.2947
X3.0712Y-0.5585
X3.0712Y-0.9128
X3.0712Y-1.0546
X3.0712Y-1.4089
X4.6892Y-2.216
X4.6892Y-2.5703
X4.6892Y0.2643
X4.6892Y-0.09
X5.9963Y0.7604
X5.9963Y0.4061
T3
X6.7727Y-3.9658
X4.2876Y-1.153
X4.2876Y-6.8617
T4
X2.6572Y0.8152
X7.1454Y-1.2517
X2.6572Y-8.358
X7.1454Y-6.2911
T0
M30
